%TF.GenerationSoftware,KiCad,Pcbnew,8.0.5*%
%TF.CreationDate,2024-12-04T11:28:10-08:00*%
%TF.ProjectId,zest,7a657374-2e6b-4696-9361-645f70636258,v1.2m*%
%TF.SameCoordinates,Original*%
%TF.FileFunction,AssemblyDrawing,Bot*%
%FSLAX46Y46*%
G04 Gerber Fmt 4.6, Leading zero omitted, Abs format (unit mm)*
G04 Created by KiCad (PCBNEW 8.0.5) date 2024-12-04 11:28:10*
%MOMM*%
%LPD*%
G01*
G04 APERTURE LIST*
%ADD10C,0.150000*%
%TA.AperFunction,Profile*%
%ADD11C,0.050800*%
%TD*%
G04 APERTURE END LIST*
D10*
X182933180Y-168115809D02*
X182933180Y-167925333D01*
X182933180Y-167925333D02*
X182885561Y-167830095D01*
X182885561Y-167830095D02*
X182790323Y-167734857D01*
X182790323Y-167734857D02*
X182599847Y-167687238D01*
X182599847Y-167687238D02*
X182266514Y-167687238D01*
X182266514Y-167687238D02*
X182076038Y-167734857D01*
X182076038Y-167734857D02*
X181980800Y-167830095D01*
X181980800Y-167830095D02*
X181933180Y-167925333D01*
X181933180Y-167925333D02*
X181933180Y-168115809D01*
X181933180Y-168115809D02*
X181980800Y-168211047D01*
X181980800Y-168211047D02*
X182076038Y-168306285D01*
X182076038Y-168306285D02*
X182266514Y-168353904D01*
X182266514Y-168353904D02*
X182599847Y-168353904D01*
X182599847Y-168353904D02*
X182790323Y-168306285D01*
X182790323Y-168306285D02*
X182885561Y-168211047D01*
X182885561Y-168211047D02*
X182933180Y-168115809D01*
X181933180Y-166687238D02*
X182409371Y-167020571D01*
X181933180Y-167258666D02*
X182933180Y-167258666D01*
X182933180Y-167258666D02*
X182933180Y-166877714D01*
X182933180Y-166877714D02*
X182885561Y-166782476D01*
X182885561Y-166782476D02*
X182837942Y-166734857D01*
X182837942Y-166734857D02*
X182742704Y-166687238D01*
X182742704Y-166687238D02*
X182599847Y-166687238D01*
X182599847Y-166687238D02*
X182504609Y-166734857D01*
X182504609Y-166734857D02*
X182456990Y-166782476D01*
X182456990Y-166782476D02*
X182409371Y-166877714D01*
X182409371Y-166877714D02*
X182409371Y-167258666D01*
X181933180Y-166258666D02*
X182933180Y-166258666D01*
X182933180Y-166258666D02*
X181933180Y-165687238D01*
X181933180Y-165687238D02*
X182933180Y-165687238D01*
X181933180Y-164734857D02*
X181933180Y-165211047D01*
X181933180Y-165211047D02*
X182933180Y-165211047D01*
X181837942Y-164639619D02*
X181837942Y-163877714D01*
X181933180Y-163496761D02*
X181980800Y-163591999D01*
X181980800Y-163591999D02*
X182076038Y-163639618D01*
X182076038Y-163639618D02*
X182933180Y-163639618D01*
X181933180Y-162972951D02*
X181980800Y-163068189D01*
X181980800Y-163068189D02*
X182028419Y-163115808D01*
X182028419Y-163115808D02*
X182123657Y-163163427D01*
X182123657Y-163163427D02*
X182409371Y-163163427D01*
X182409371Y-163163427D02*
X182504609Y-163115808D01*
X182504609Y-163115808D02*
X182552228Y-163068189D01*
X182552228Y-163068189D02*
X182599847Y-162972951D01*
X182599847Y-162972951D02*
X182599847Y-162830094D01*
X182599847Y-162830094D02*
X182552228Y-162734856D01*
X182552228Y-162734856D02*
X182504609Y-162687237D01*
X182504609Y-162687237D02*
X182409371Y-162639618D01*
X182409371Y-162639618D02*
X182123657Y-162639618D01*
X182123657Y-162639618D02*
X182028419Y-162687237D01*
X182028419Y-162687237D02*
X181980800Y-162734856D01*
X181980800Y-162734856D02*
X181933180Y-162830094D01*
X181933180Y-162830094D02*
X181933180Y-162972951D01*
X182599847Y-161782475D02*
X181790323Y-161782475D01*
X181790323Y-161782475D02*
X181695085Y-161830094D01*
X181695085Y-161830094D02*
X181647466Y-161877713D01*
X181647466Y-161877713D02*
X181599847Y-161972951D01*
X181599847Y-161972951D02*
X181599847Y-162115808D01*
X181599847Y-162115808D02*
X181647466Y-162211046D01*
X181980800Y-161782475D02*
X181933180Y-161877713D01*
X181933180Y-161877713D02*
X181933180Y-162068189D01*
X181933180Y-162068189D02*
X181980800Y-162163427D01*
X181980800Y-162163427D02*
X182028419Y-162211046D01*
X182028419Y-162211046D02*
X182123657Y-162258665D01*
X182123657Y-162258665D02*
X182409371Y-162258665D01*
X182409371Y-162258665D02*
X182504609Y-162211046D01*
X182504609Y-162211046D02*
X182552228Y-162163427D01*
X182552228Y-162163427D02*
X182599847Y-162068189D01*
X182599847Y-162068189D02*
X182599847Y-161877713D01*
X182599847Y-161877713D02*
X182552228Y-161782475D01*
X181933180Y-161163427D02*
X181980800Y-161258665D01*
X181980800Y-161258665D02*
X182028419Y-161306284D01*
X182028419Y-161306284D02*
X182123657Y-161353903D01*
X182123657Y-161353903D02*
X182409371Y-161353903D01*
X182409371Y-161353903D02*
X182504609Y-161306284D01*
X182504609Y-161306284D02*
X182552228Y-161258665D01*
X182552228Y-161258665D02*
X182599847Y-161163427D01*
X182599847Y-161163427D02*
X182599847Y-161020570D01*
X182599847Y-161020570D02*
X182552228Y-160925332D01*
X182552228Y-160925332D02*
X182504609Y-160877713D01*
X182504609Y-160877713D02*
X182409371Y-160830094D01*
X182409371Y-160830094D02*
X182123657Y-160830094D01*
X182123657Y-160830094D02*
X182028419Y-160877713D01*
X182028419Y-160877713D02*
X181980800Y-160925332D01*
X181980800Y-160925332D02*
X181933180Y-161020570D01*
X181933180Y-161020570D02*
X181933180Y-161163427D01*
X180433180Y-165925333D02*
X180909371Y-166258666D01*
X180433180Y-166496761D02*
X181433180Y-166496761D01*
X181433180Y-166496761D02*
X181433180Y-166115809D01*
X181433180Y-166115809D02*
X181385561Y-166020571D01*
X181385561Y-166020571D02*
X181337942Y-165972952D01*
X181337942Y-165972952D02*
X181242704Y-165925333D01*
X181242704Y-165925333D02*
X181099847Y-165925333D01*
X181099847Y-165925333D02*
X181004609Y-165972952D01*
X181004609Y-165972952D02*
X180956990Y-166020571D01*
X180956990Y-166020571D02*
X180909371Y-166115809D01*
X180909371Y-166115809D02*
X180909371Y-166496761D01*
X180956990Y-165496761D02*
X180956990Y-165163428D01*
X180433180Y-165020571D02*
X180433180Y-165496761D01*
X180433180Y-165496761D02*
X181433180Y-165496761D01*
X181433180Y-165496761D02*
X181433180Y-165020571D01*
X180956990Y-164258666D02*
X180956990Y-164591999D01*
X180433180Y-164591999D02*
X181433180Y-164591999D01*
X181433180Y-164591999D02*
X181433180Y-164115809D01*
X181433180Y-163591999D02*
X181195085Y-163591999D01*
X181290323Y-163830094D02*
X181195085Y-163591999D01*
X181195085Y-163591999D02*
X181290323Y-163353904D01*
X181004609Y-163734856D02*
X181195085Y-163591999D01*
X181195085Y-163591999D02*
X181004609Y-163449142D01*
X181433180Y-162830094D02*
X181195085Y-162830094D01*
X181290323Y-163068189D02*
X181195085Y-162830094D01*
X181195085Y-162830094D02*
X181290323Y-162591999D01*
X181004609Y-162972951D02*
X181195085Y-162830094D01*
X181195085Y-162830094D02*
X181004609Y-162687237D01*
D11*
X209948780Y-239522000D02*
X209948780Y-99522020D01*
X209948780Y-99522020D02*
X188948820Y-99522020D01*
X188948820Y-99522020D02*
X188948820Y-57761880D01*
X188948820Y-57761880D02*
X99949000Y-57761880D01*
X99949000Y-239522000D02*
X209948780Y-239522000D01*
X99949000Y-57761880D02*
X99949000Y-239522000D01*
M02*
