%TF.GenerationSoftware,KiCad,Pcbnew,8.0.5*%
%TF.CreationDate,2024-12-04T09:42:51-08:00*%
%TF.ProjectId,zest,7a657374-2e6b-4696-9361-645f70636258,rev?*%
%TF.SameCoordinates,Original*%
%TF.FileFunction,Soldermask,Bot*%
%TF.FilePolarity,Negative*%
%FSLAX46Y46*%
G04 Gerber Fmt 4.6, Leading zero omitted, Abs format (unit mm)*
G04 Created by KiCad (PCBNEW 8.0.5) date 2024-12-04 09:42:51*
%MOMM*%
%LPD*%
G01*
G04 APERTURE LIST*
%ADD10C,0.499999*%
%ADD11C,5.800000*%
%ADD12C,2.159000*%
%ADD13C,2.286000*%
%ADD14C,1.828800*%
%ADD15C,1.270000*%
%ADD16C,1.000000*%
%ADD17R,1.778000X1.778000*%
%ADD18C,1.778000*%
%ADD19R,1.700000X1.700000*%
%ADD20O,1.700000X1.700000*%
%ADD21C,0.508000*%
%TA.AperFunction,Profile*%
%ADD22C,0.050800*%
%TD*%
G04 APERTURE END LIST*
D10*
%TO.C,U1002*%
X137393875Y-77616973D03*
X136143875Y-77616973D03*
X134893875Y-77616973D03*
X137393875Y-78866973D03*
X136143875Y-78866973D03*
X134893875Y-78866973D03*
X137393875Y-80116973D03*
X136143875Y-80116973D03*
X134893875Y-80116973D03*
%TD*%
D11*
%TO.C,H104*%
X199048880Y-102821993D03*
%TD*%
D12*
%TO.C,J1202*%
X105663874Y-217781859D03*
D13*
X108203874Y-220321859D03*
X108203874Y-215241859D03*
X103123874Y-215241859D03*
X103123874Y-220321859D03*
%TD*%
D12*
%TO.C,J202*%
X105663874Y-172061859D03*
D13*
X108203874Y-174601859D03*
X108203874Y-169521859D03*
X103123874Y-169521859D03*
X103123874Y-174601859D03*
%TD*%
D11*
%TO.C,H106*%
X137453880Y-94216980D03*
%TD*%
D12*
%TO.C,J704*%
X105663874Y-141581859D03*
D13*
X108203874Y-144121859D03*
X108203874Y-139041859D03*
X103123874Y-139041859D03*
X103123874Y-144121859D03*
%TD*%
D12*
%TO.C,J703*%
X105663874Y-95861859D03*
D13*
X108203874Y-98401859D03*
X108203874Y-93321859D03*
X103123874Y-93321859D03*
X103123874Y-98401859D03*
%TD*%
D14*
%TO.C,J1501*%
X183081322Y-65267076D03*
X168581326Y-65267076D03*
X183681324Y-60317076D03*
X167981324Y-60317076D03*
%TD*%
D15*
%TO.C,J1401*%
X197998875Y-107135984D03*
X201048875Y-161516984D03*
%TD*%
%TO.C,J1402*%
X197998875Y-177135971D03*
X201048875Y-231516971D03*
%TD*%
D12*
%TO.C,J204*%
X105663874Y-202541859D03*
D13*
X108203874Y-205081859D03*
X108203874Y-200001859D03*
X103123874Y-200001859D03*
X103123874Y-205081859D03*
%TD*%
D12*
%TO.C,J702*%
X105663874Y-111101859D03*
D13*
X108203874Y-113641859D03*
X108203874Y-108561859D03*
X103123874Y-108561859D03*
X103123874Y-113641859D03*
%TD*%
D16*
%TO.C,J801*%
X166496875Y-211581973D03*
X156336875Y-211581973D03*
%TD*%
D12*
%TO.C,J1201*%
X105663874Y-233021859D03*
D13*
X108203874Y-235561859D03*
X108203874Y-230481859D03*
X103123874Y-230481859D03*
X103123874Y-235561859D03*
%TD*%
D12*
%TO.C,J203*%
X105663874Y-156821859D03*
D13*
X108203874Y-159361859D03*
X108203874Y-154281859D03*
X103123874Y-154281859D03*
X103123874Y-159361859D03*
%TD*%
D11*
%TO.C,H101*%
X199048880Y-235821980D03*
%TD*%
D17*
%TO.C,J1901*%
X164700330Y-62103000D03*
D18*
X164700330Y-64643000D03*
%TD*%
D11*
%TO.C,H107*%
X138596880Y-135618980D03*
%TD*%
D12*
%TO.C,J1001*%
X105663874Y-65381859D03*
D13*
X108203874Y-67921859D03*
X108203874Y-62841859D03*
X103123874Y-62841859D03*
X103123874Y-67921859D03*
%TD*%
D12*
%TO.C,J701*%
X105663874Y-126341859D03*
D13*
X108203874Y-128881859D03*
X108203874Y-123801859D03*
X103123874Y-123801859D03*
X103123874Y-128881859D03*
%TD*%
D12*
%TO.C,J1004*%
X105663874Y-80621859D03*
D13*
X108203874Y-83161859D03*
X108203874Y-78081859D03*
X103123874Y-78081859D03*
X103123874Y-83161859D03*
%TD*%
D16*
%TO.C,J802*%
X180466875Y-211581973D03*
X170306875Y-211581973D03*
%TD*%
D11*
%TO.C,H102*%
X199048880Y-172831987D03*
%TD*%
%TO.C,H103*%
X199048880Y-165831976D03*
%TD*%
D12*
%TO.C,J201*%
X105663874Y-187301859D03*
D13*
X108203874Y-189841859D03*
X108203874Y-184761859D03*
X103123874Y-184761859D03*
X103123874Y-189841859D03*
%TD*%
D19*
%TO.C,J1503*%
X167259001Y-226423980D03*
D20*
X167259001Y-228963980D03*
X169799001Y-226423980D03*
X169799001Y-228963980D03*
X172339001Y-226423980D03*
X172339001Y-228963980D03*
X174879001Y-226423980D03*
X174879001Y-228963980D03*
X177419001Y-226423980D03*
X177419001Y-228963980D03*
X179959001Y-226423980D03*
X179959001Y-228963980D03*
X182499001Y-226423980D03*
X182499001Y-228963980D03*
%TD*%
D19*
%TO.C,J1502*%
X160908875Y-70738973D03*
D20*
X160908875Y-68198973D03*
X158368875Y-70738973D03*
X158368875Y-68198973D03*
X155828875Y-70738973D03*
X155828875Y-68198973D03*
X153288875Y-70738973D03*
X153288875Y-68198973D03*
X150748875Y-70738973D03*
X150748875Y-68198973D03*
X148208875Y-70738973D03*
X148208875Y-68198973D03*
X145668875Y-70738973D03*
X145668875Y-68198973D03*
%TD*%
D11*
%TO.C,H105*%
X132373880Y-204706980D03*
%TD*%
D21*
%TO.C,U1301*%
X167385875Y-191388973D03*
X167385875Y-192277973D03*
X167385875Y-193166973D03*
X167385875Y-194055973D03*
X168274875Y-191388973D03*
X168274875Y-192277973D03*
X168274875Y-193166973D03*
X168274875Y-194055973D03*
X169163875Y-191388973D03*
X169163875Y-192277973D03*
X169163875Y-193166973D03*
X169163875Y-194055973D03*
X170052875Y-191388973D03*
X170052875Y-192277973D03*
X170052875Y-193166973D03*
X170052875Y-194055973D03*
%TD*%
G36*
X119704039Y-153562685D02*
G01*
X119749794Y-153615489D01*
X119761000Y-153667000D01*
X119761000Y-158626000D01*
X119741315Y-158693039D01*
X119688511Y-158738794D01*
X119637000Y-158750000D01*
X110868000Y-158750000D01*
X110800961Y-158730315D01*
X110755206Y-158677511D01*
X110744000Y-158626000D01*
X110744000Y-153667000D01*
X110763685Y-153599961D01*
X110816489Y-153554206D01*
X110868000Y-153543000D01*
X119637000Y-153543000D01*
X119704039Y-153562685D01*
G37*
G36*
X150438039Y-77235685D02*
G01*
X150483794Y-77288489D01*
X150495000Y-77340000D01*
X150495000Y-90805000D01*
X152781000Y-90805000D01*
X152781000Y-87627000D01*
X152800685Y-87559961D01*
X152853489Y-87514206D01*
X152905000Y-87503000D01*
X154689000Y-87503000D01*
X154756039Y-87522685D01*
X154801794Y-87575489D01*
X154813000Y-87627000D01*
X154813000Y-93726000D01*
X157353000Y-93726000D01*
X157353000Y-79245000D01*
X157372685Y-79177961D01*
X157425489Y-79132206D01*
X157477000Y-79121000D01*
X171072000Y-79121000D01*
X171139039Y-79140685D01*
X171184794Y-79193489D01*
X171196000Y-79245000D01*
X171196000Y-88141000D01*
X171176315Y-88208039D01*
X171123511Y-88253794D01*
X171072000Y-88265000D01*
X169037000Y-88265000D01*
X169037000Y-91059000D01*
X176149000Y-91059000D01*
X176149000Y-90421000D01*
X176168685Y-90353961D01*
X176221489Y-90308206D01*
X176273000Y-90297000D01*
X178946000Y-90297000D01*
X179013039Y-90316685D01*
X179058794Y-90369489D01*
X179070000Y-90421000D01*
X179070000Y-97539000D01*
X179050315Y-97606039D01*
X178997511Y-97651794D01*
X178946000Y-97663000D01*
X159639000Y-97663000D01*
X159639000Y-101727000D01*
X163452000Y-101727000D01*
X163519039Y-101746685D01*
X163564794Y-101799489D01*
X163576000Y-101851000D01*
X163576000Y-107445000D01*
X163556315Y-107512039D01*
X163503511Y-107557794D01*
X163452000Y-107569000D01*
X147701000Y-107569000D01*
X147701000Y-107695000D01*
X147681315Y-107762039D01*
X147628511Y-107807794D01*
X147577000Y-107819000D01*
X144411211Y-107819000D01*
X144387019Y-107816617D01*
X144327518Y-107804781D01*
X144282820Y-107786267D01*
X144242731Y-107759481D01*
X144208518Y-107725268D01*
X144181732Y-107685179D01*
X144163218Y-107640480D01*
X144151383Y-107580980D01*
X144149000Y-107556789D01*
X144149000Y-97914000D01*
X144168685Y-97846961D01*
X144221489Y-97801206D01*
X144273000Y-97790000D01*
X144399000Y-97790000D01*
X144399000Y-93980000D01*
X140081000Y-93980000D01*
X140081000Y-94106000D01*
X140061315Y-94173039D01*
X140008511Y-94218794D01*
X139957000Y-94230000D01*
X135648211Y-94230000D01*
X135624019Y-94227617D01*
X135564518Y-94215781D01*
X135519820Y-94197267D01*
X135479731Y-94170481D01*
X135445518Y-94136268D01*
X135418732Y-94096179D01*
X135400218Y-94051480D01*
X135388383Y-93991980D01*
X135386000Y-93967789D01*
X135386000Y-89532000D01*
X135405685Y-89464961D01*
X135458489Y-89419206D01*
X135510000Y-89408000D01*
X135636000Y-89408000D01*
X135636000Y-85087000D01*
X135655685Y-85019961D01*
X135708489Y-84974206D01*
X135760000Y-84963000D01*
X143002000Y-84963000D01*
X143002000Y-80772000D01*
X142745000Y-80772000D01*
X142677961Y-80752315D01*
X142632206Y-80699511D01*
X142621000Y-80648000D01*
X142621000Y-77340000D01*
X142640685Y-77272961D01*
X142693489Y-77227206D01*
X142745000Y-77216000D01*
X150371000Y-77216000D01*
X150438039Y-77235685D01*
G37*
G36*
X120339039Y-214522685D02*
G01*
X120384794Y-214575489D01*
X120396000Y-214627000D01*
X120396000Y-219586000D01*
X120376315Y-219653039D01*
X120323511Y-219698794D01*
X120272000Y-219710000D01*
X110868000Y-219710000D01*
X110800961Y-219690315D01*
X110755206Y-219637511D01*
X110744000Y-219586000D01*
X110744000Y-214627000D01*
X110763685Y-214559961D01*
X110816489Y-214514206D01*
X110868000Y-214503000D01*
X120272000Y-214503000D01*
X120339039Y-214522685D01*
G37*
G36*
X119704039Y-184042685D02*
G01*
X119749794Y-184095489D01*
X119761000Y-184147000D01*
X119761000Y-189106000D01*
X119741315Y-189173039D01*
X119688511Y-189218794D01*
X119637000Y-189230000D01*
X110868000Y-189230000D01*
X110800961Y-189210315D01*
X110755206Y-189157511D01*
X110744000Y-189106000D01*
X110744000Y-184147000D01*
X110763685Y-184079961D01*
X110816489Y-184034206D01*
X110868000Y-184023000D01*
X119637000Y-184023000D01*
X119704039Y-184042685D01*
G37*
G36*
X139008039Y-213252685D02*
G01*
X139053794Y-213305489D01*
X139065000Y-213357000D01*
X139065000Y-216157000D01*
X139045315Y-216224039D01*
X138992511Y-216269794D01*
X138941000Y-216281000D01*
X136906000Y-216281000D01*
X136906000Y-221996000D01*
X140084000Y-221996000D01*
X140151039Y-222015685D01*
X140196794Y-222068489D01*
X140208000Y-222120000D01*
X140208000Y-225682000D01*
X140188315Y-225749039D01*
X140135511Y-225794794D01*
X140084000Y-225806000D01*
X136779000Y-225806000D01*
X136779000Y-229362000D01*
X138306000Y-229362000D01*
X138373039Y-229381685D01*
X138418794Y-229434489D01*
X138430000Y-229486000D01*
X138430000Y-233556000D01*
X138410315Y-233623039D01*
X138357511Y-233668794D01*
X138306000Y-233680000D01*
X136903000Y-233680000D01*
X136835961Y-233660315D01*
X136790206Y-233607511D01*
X136779000Y-233556000D01*
X136779000Y-231394000D01*
X134239000Y-231394000D01*
X134239000Y-235842000D01*
X134219315Y-235909039D01*
X134166511Y-235954794D01*
X134115000Y-235966000D01*
X132966000Y-235966000D01*
X132898961Y-235946315D01*
X132853206Y-235893511D01*
X132842000Y-235842000D01*
X132842000Y-230375000D01*
X132861685Y-230307961D01*
X132914489Y-230262206D01*
X132966000Y-230251000D01*
X134874000Y-230251000D01*
X134874000Y-213357000D01*
X134893685Y-213289961D01*
X134946489Y-213244206D01*
X134998000Y-213233000D01*
X138941000Y-213233000D01*
X139008039Y-213252685D01*
G37*
G36*
X166567039Y-186582685D02*
G01*
X166612794Y-186635489D01*
X166624000Y-186687000D01*
X166624000Y-189611000D01*
X170437000Y-189611000D01*
X170504039Y-189630685D01*
X170549794Y-189683489D01*
X170561000Y-189735000D01*
X170561000Y-196091000D01*
X170541315Y-196158039D01*
X170488511Y-196203794D01*
X170437000Y-196215000D01*
X159128000Y-196215000D01*
X159060961Y-196195315D01*
X159015206Y-196142511D01*
X159004000Y-196091000D01*
X159004000Y-193291000D01*
X159023685Y-193223961D01*
X159076489Y-193178206D01*
X159128000Y-193167000D01*
X162814000Y-193167000D01*
X162814000Y-189484000D01*
X159128000Y-189484000D01*
X159060961Y-189464315D01*
X159015206Y-189411511D01*
X159004000Y-189360000D01*
X159004000Y-186687000D01*
X159023685Y-186619961D01*
X159076489Y-186574206D01*
X159128000Y-186563000D01*
X166500000Y-186563000D01*
X166567039Y-186582685D01*
G37*
G36*
X121355039Y-232158665D02*
G01*
X121400794Y-232211469D01*
X121412000Y-232262980D01*
X121412000Y-236586980D01*
X121392315Y-236654019D01*
X121339511Y-236699774D01*
X121288000Y-236710980D01*
X111884000Y-236710980D01*
X111816961Y-236691295D01*
X111771206Y-236638491D01*
X111760000Y-236586980D01*
X111760000Y-232262980D01*
X111779685Y-232195941D01*
X111832489Y-232150186D01*
X111884000Y-232138980D01*
X121288000Y-232138980D01*
X121355039Y-232158665D01*
G37*
G36*
X119704039Y-137687685D02*
G01*
X119749794Y-137740489D01*
X119761000Y-137792000D01*
X119761000Y-142116000D01*
X119741315Y-142183039D01*
X119688511Y-142228794D01*
X119637000Y-142240000D01*
X110868000Y-142240000D01*
X110800961Y-142220315D01*
X110755206Y-142167511D01*
X110744000Y-142116000D01*
X110744000Y-137792000D01*
X110763685Y-137724961D01*
X110816489Y-137679206D01*
X110868000Y-137668000D01*
X119637000Y-137668000D01*
X119704039Y-137687685D01*
G37*
G36*
X133420039Y-74441685D02*
G01*
X133465794Y-74494489D01*
X133477000Y-74546000D01*
X133477000Y-75695000D01*
X133457315Y-75762039D01*
X133404511Y-75807794D01*
X133353000Y-75819000D01*
X129540000Y-75819000D01*
X129540000Y-81026000D01*
X129540896Y-81026896D01*
X129604883Y-81045685D01*
X129650638Y-81098489D01*
X129660582Y-81167647D01*
X129631557Y-81231203D01*
X129572779Y-81268977D01*
X129562034Y-81271618D01*
X129551979Y-81273618D01*
X129527789Y-81276000D01*
X126377211Y-81276000D01*
X126353021Y-81273618D01*
X126342966Y-81271618D01*
X126281054Y-81239233D01*
X126246480Y-81178517D01*
X126250219Y-81108748D01*
X126291085Y-81052076D01*
X126356103Y-81026494D01*
X126364899Y-81026100D01*
X126365000Y-81026000D01*
X126365000Y-77216000D01*
X124076000Y-77216000D01*
X124008961Y-77196315D01*
X123963206Y-77143511D01*
X123952000Y-77092000D01*
X123952000Y-74546000D01*
X123971685Y-74478961D01*
X124024489Y-74433206D01*
X124076000Y-74422000D01*
X133353000Y-74422000D01*
X133420039Y-74441685D01*
G37*
G36*
X153613039Y-169945685D02*
G01*
X153658794Y-169998489D01*
X153670000Y-170050000D01*
X153670000Y-170561000D01*
X156467000Y-170561000D01*
X156534039Y-170580685D01*
X156579794Y-170633489D01*
X156591000Y-170685000D01*
X156591000Y-173228000D01*
X183137000Y-173228000D01*
X183204039Y-173247685D01*
X183249794Y-173300489D01*
X183261000Y-173352000D01*
X183261000Y-178565000D01*
X183241315Y-178632039D01*
X183188511Y-178677794D01*
X183137000Y-178689000D01*
X151635000Y-178689000D01*
X151567961Y-178669315D01*
X151522206Y-178616511D01*
X151511000Y-178565000D01*
X151511000Y-172847000D01*
X149098000Y-172847000D01*
X149098000Y-183391000D01*
X149078315Y-183458039D01*
X149025511Y-183503794D01*
X148974000Y-183515000D01*
X147825000Y-183515000D01*
X147757961Y-183495315D01*
X147712206Y-183442511D01*
X147701000Y-183391000D01*
X147701000Y-171447000D01*
X147720685Y-171379961D01*
X147773489Y-171334206D01*
X147825000Y-171323000D01*
X150749000Y-171323000D01*
X150749000Y-170050000D01*
X150768685Y-169982961D01*
X150821489Y-169937206D01*
X150873000Y-169926000D01*
X153546000Y-169926000D01*
X153613039Y-169945685D01*
G37*
G36*
X149168039Y-219348685D02*
G01*
X149213794Y-219401489D01*
X149225000Y-219453000D01*
X149225000Y-227714000D01*
X149205315Y-227781039D01*
X149152511Y-227826794D01*
X149101000Y-227838000D01*
X140713000Y-227838000D01*
X140645961Y-227818315D01*
X140600206Y-227765511D01*
X140589000Y-227714000D01*
X140589000Y-219453000D01*
X140608685Y-219385961D01*
X140661489Y-219340206D01*
X140713000Y-219329000D01*
X149101000Y-219329000D01*
X149168039Y-219348685D01*
G37*
G36*
X119704039Y-198647685D02*
G01*
X119749794Y-198700489D01*
X119761000Y-198752000D01*
X119761000Y-203711000D01*
X119741315Y-203778039D01*
X119688511Y-203823794D01*
X119637000Y-203835000D01*
X110868000Y-203835000D01*
X110800961Y-203815315D01*
X110755206Y-203762511D01*
X110744000Y-203711000D01*
X110744000Y-198752000D01*
X110763685Y-198684961D01*
X110816489Y-198639206D01*
X110868000Y-198628000D01*
X119637000Y-198628000D01*
X119704039Y-198647685D01*
G37*
G36*
X137865039Y-77108685D02*
G01*
X137910794Y-77161489D01*
X137922000Y-77213000D01*
X137922000Y-80521000D01*
X137902315Y-80588039D01*
X137849511Y-80633794D01*
X137798000Y-80645000D01*
X134490000Y-80645000D01*
X134422961Y-80625315D01*
X134377206Y-80572511D01*
X134366000Y-80521000D01*
X134366000Y-77213000D01*
X134385685Y-77145961D01*
X134438489Y-77100206D01*
X134490000Y-77089000D01*
X137798000Y-77089000D01*
X137865039Y-77108685D01*
G37*
G36*
X165424039Y-196488685D02*
G01*
X165469794Y-196541489D01*
X165481000Y-196593000D01*
X165481000Y-203073000D01*
X171961000Y-203073000D01*
X172028039Y-203092685D01*
X172073794Y-203145489D01*
X172085000Y-203197000D01*
X172085000Y-207904709D01*
X172065315Y-207971748D01*
X172012511Y-208017503D01*
X171961932Y-208028705D01*
X155194000Y-208154779D01*
X155194000Y-213360000D01*
X181232000Y-213360000D01*
X181299039Y-213379685D01*
X181344794Y-213432489D01*
X181356000Y-213484000D01*
X181356000Y-220856000D01*
X181336315Y-220923039D01*
X181283511Y-220968794D01*
X181232000Y-220980000D01*
X156464000Y-220980000D01*
X156464000Y-227206000D01*
X156444315Y-227273039D01*
X156391511Y-227318794D01*
X156340000Y-227330000D01*
X149603000Y-227330000D01*
X149535961Y-227310315D01*
X149490206Y-227257511D01*
X149479000Y-227206000D01*
X149479000Y-226184000D01*
X149498685Y-226116961D01*
X149551489Y-226071206D01*
X149603000Y-226060000D01*
X153924000Y-226060000D01*
X153924000Y-204467000D01*
X153943685Y-204399961D01*
X153996489Y-204354206D01*
X154048000Y-204343000D01*
X159766000Y-204343000D01*
X159766000Y-199641000D01*
X159785685Y-199573961D01*
X159838489Y-199528206D01*
X159890000Y-199517000D01*
X161544000Y-199517000D01*
X161544000Y-196593000D01*
X161563685Y-196525961D01*
X161616489Y-196480206D01*
X161668000Y-196469000D01*
X165357000Y-196469000D01*
X165424039Y-196488685D01*
G37*
G36*
X147390039Y-176676685D02*
G01*
X147435794Y-176729489D01*
X147447000Y-176781000D01*
X147447000Y-181613000D01*
X147427315Y-181680039D01*
X147374511Y-181725794D01*
X147323000Y-181737000D01*
X141983000Y-181737000D01*
X141915961Y-181717315D01*
X141870206Y-181664511D01*
X141859000Y-181613000D01*
X141859000Y-176781000D01*
X141878685Y-176713961D01*
X141931489Y-176668206D01*
X141983000Y-176657000D01*
X147323000Y-176657000D01*
X147390039Y-176676685D01*
G37*
G36*
X144469039Y-67202685D02*
G01*
X144514794Y-67255489D01*
X144526000Y-67307000D01*
X144526000Y-71123000D01*
X144506315Y-71190039D01*
X144453511Y-71235794D01*
X144402000Y-71247000D01*
X130302000Y-71247000D01*
X130302000Y-74171000D01*
X130282315Y-74238039D01*
X130229511Y-74283794D01*
X130178000Y-74295000D01*
X128648000Y-74295000D01*
X128580961Y-74275315D01*
X128535206Y-74222511D01*
X128524000Y-74171000D01*
X128524000Y-67307000D01*
X128543685Y-67239961D01*
X128596489Y-67194206D01*
X128648000Y-67183000D01*
X144402000Y-67183000D01*
X144469039Y-67202685D01*
G37*
G36*
X119704039Y-123082685D02*
G01*
X119749794Y-123135489D01*
X119761000Y-123187000D01*
X119761000Y-127511000D01*
X119741315Y-127578039D01*
X119688511Y-127623794D01*
X119637000Y-127635000D01*
X110868000Y-127635000D01*
X110800961Y-127615315D01*
X110755206Y-127562511D01*
X110744000Y-127511000D01*
X110744000Y-123187000D01*
X110763685Y-123119961D01*
X110816489Y-123074206D01*
X110868000Y-123063000D01*
X119637000Y-123063000D01*
X119704039Y-123082685D01*
G37*
G36*
X119704039Y-107207685D02*
G01*
X119749794Y-107260489D01*
X119761000Y-107312000D01*
X119761000Y-112271000D01*
X119741315Y-112338039D01*
X119688511Y-112383794D01*
X119637000Y-112395000D01*
X110868000Y-112395000D01*
X110800961Y-112375315D01*
X110755206Y-112322511D01*
X110744000Y-112271000D01*
X110744000Y-107312000D01*
X110763685Y-107244961D01*
X110816489Y-107199206D01*
X110868000Y-107188000D01*
X119637000Y-107188000D01*
X119704039Y-107207685D01*
G37*
G36*
X119704039Y-92602685D02*
G01*
X119749794Y-92655489D01*
X119761000Y-92707000D01*
X119761000Y-97031000D01*
X119741315Y-97098039D01*
X119688511Y-97143794D01*
X119637000Y-97155000D01*
X110868000Y-97155000D01*
X110800961Y-97135315D01*
X110755206Y-97082511D01*
X110744000Y-97031000D01*
X110744000Y-92707000D01*
X110763685Y-92639961D01*
X110816489Y-92594206D01*
X110868000Y-92583000D01*
X119637000Y-92583000D01*
X119704039Y-92602685D01*
G37*
G36*
X140024039Y-97559685D02*
G01*
X140069794Y-97612489D01*
X140081000Y-97664000D01*
X140081000Y-97790000D01*
X144399000Y-97790000D01*
X144399000Y-97664000D01*
X144418685Y-97596961D01*
X144471489Y-97551206D01*
X144523000Y-97540000D01*
X147688789Y-97540000D01*
X147712980Y-97542383D01*
X147772480Y-97554218D01*
X147817179Y-97572732D01*
X147857268Y-97599518D01*
X147891481Y-97633731D01*
X147918267Y-97673820D01*
X147936781Y-97718517D01*
X147948617Y-97778017D01*
X147951000Y-97802210D01*
X147951000Y-107445000D01*
X147931315Y-107512039D01*
X147878511Y-107557794D01*
X147827000Y-107569000D01*
X147701000Y-107569000D01*
X147701000Y-109985000D01*
X147681315Y-110052039D01*
X147628511Y-110097794D01*
X147577000Y-110109000D01*
X139827000Y-110109000D01*
X139827000Y-113157000D01*
X140465000Y-113157000D01*
X140532039Y-113176685D01*
X140577794Y-113229489D01*
X140589000Y-113281000D01*
X140589000Y-114935000D01*
X146177000Y-114935000D01*
X146177000Y-113662000D01*
X146196685Y-113594961D01*
X146249489Y-113549206D01*
X146301000Y-113538000D01*
X147958000Y-113538000D01*
X148025039Y-113557685D01*
X148070794Y-113610489D01*
X148082000Y-113662000D01*
X148082000Y-114300000D01*
X149355000Y-114300000D01*
X149422039Y-114319685D01*
X149467794Y-114372489D01*
X149479000Y-114424000D01*
X149479000Y-116716000D01*
X149459315Y-116783039D01*
X149406511Y-116828794D01*
X149355000Y-116840000D01*
X147447000Y-116840000D01*
X147447000Y-121364750D01*
X147849968Y-121364750D01*
X147917007Y-121384435D01*
X147940432Y-121403942D01*
X148823768Y-122346192D01*
X148855257Y-122408564D01*
X148848028Y-122478058D01*
X148804374Y-122532612D01*
X148738156Y-122554905D01*
X148733304Y-122555000D01*
X146428000Y-122555000D01*
X146360961Y-122535315D01*
X146315206Y-122482511D01*
X146304000Y-122431000D01*
X146304000Y-120904000D01*
X140589000Y-120904000D01*
X140589000Y-125857000D01*
X146579290Y-125857000D01*
X146646329Y-125876685D01*
X146692084Y-125929489D01*
X146703290Y-125981000D01*
X146703290Y-127892000D01*
X146683605Y-127959039D01*
X146630801Y-128004794D01*
X146579290Y-128016000D01*
X135887000Y-128016000D01*
X135819961Y-127996315D01*
X135774206Y-127943511D01*
X135763000Y-127892000D01*
X135763000Y-121282000D01*
X135782685Y-121214961D01*
X135835489Y-121169206D01*
X135887000Y-121158000D01*
X140335000Y-121158000D01*
X140335000Y-115316000D01*
X135887000Y-115316000D01*
X135819961Y-115296315D01*
X135774206Y-115243511D01*
X135763000Y-115192000D01*
X135763000Y-98298000D01*
X135637000Y-98298000D01*
X135569961Y-98278315D01*
X135524206Y-98225511D01*
X135513000Y-98174000D01*
X135513000Y-97802210D01*
X135515383Y-97778019D01*
X135527218Y-97718519D01*
X135545732Y-97673820D01*
X135572518Y-97633731D01*
X135606731Y-97599518D01*
X135646820Y-97572732D01*
X135691520Y-97554217D01*
X135751021Y-97542382D01*
X135775211Y-97540000D01*
X139957000Y-97540000D01*
X140024039Y-97559685D01*
G37*
G36*
X152978039Y-160932685D02*
G01*
X153023794Y-160985489D01*
X153035000Y-161037000D01*
X153035000Y-163071000D01*
X153015315Y-163138039D01*
X152962511Y-163183794D01*
X152911000Y-163195000D01*
X145412000Y-163195000D01*
X145344961Y-163175315D01*
X145299206Y-163122511D01*
X145288000Y-163071000D01*
X145288000Y-162687000D01*
X139700000Y-162687000D01*
X139700000Y-174244000D01*
X141862000Y-174244000D01*
X141929039Y-174263685D01*
X141974794Y-174316489D01*
X141986000Y-174368000D01*
X141986000Y-176279000D01*
X141966315Y-176346039D01*
X141913511Y-176391794D01*
X141862000Y-176403000D01*
X136779000Y-176403000D01*
X136779000Y-181991000D01*
X142116000Y-181991000D01*
X142183039Y-182010685D01*
X142228794Y-182063489D01*
X142240000Y-182115000D01*
X142240000Y-188090000D01*
X142220315Y-188157039D01*
X142167511Y-188202794D01*
X142116000Y-188214000D01*
X133855000Y-188214000D01*
X133787961Y-188194315D01*
X133742206Y-188141511D01*
X133731000Y-188090000D01*
X133731000Y-161287000D01*
X133750685Y-161219961D01*
X133803489Y-161174206D01*
X133855000Y-161163000D01*
X145034000Y-161163000D01*
X145034000Y-161037000D01*
X145053685Y-160969961D01*
X145106489Y-160924206D01*
X145158000Y-160913000D01*
X152911000Y-160913000D01*
X152978039Y-160932685D01*
G37*
G36*
X129483039Y-80795685D02*
G01*
X129528794Y-80848489D01*
X129540000Y-80900000D01*
X129540000Y-81026000D01*
X131829000Y-81026000D01*
X131896039Y-81045685D01*
X131941794Y-81098489D01*
X131953000Y-81150000D01*
X131953000Y-85217000D01*
X133099000Y-85217000D01*
X133166039Y-85236685D01*
X133211794Y-85289489D01*
X133223000Y-85341000D01*
X133223000Y-89408000D01*
X135636000Y-89408000D01*
X135636000Y-89282000D01*
X135655685Y-89214961D01*
X135708489Y-89169206D01*
X135760000Y-89158000D01*
X140068789Y-89158000D01*
X140092980Y-89160383D01*
X140152480Y-89172218D01*
X140197179Y-89190732D01*
X140237268Y-89217518D01*
X140271481Y-89251731D01*
X140298267Y-89291820D01*
X140316781Y-89336517D01*
X140328617Y-89396017D01*
X140331000Y-89420210D01*
X140331000Y-93856000D01*
X140311315Y-93923039D01*
X140258511Y-93968794D01*
X140207000Y-93980000D01*
X140081000Y-93980000D01*
X140081000Y-97790000D01*
X140207000Y-97790000D01*
X140274039Y-97809685D01*
X140319794Y-97862489D01*
X140331000Y-97914000D01*
X140331000Y-98285789D01*
X140328617Y-98309982D01*
X140316781Y-98369482D01*
X140298267Y-98414179D01*
X140271481Y-98454268D01*
X140237268Y-98488481D01*
X140197179Y-98515267D01*
X140152482Y-98533781D01*
X140092982Y-98545617D01*
X140068789Y-98548000D01*
X135887000Y-98548000D01*
X135819961Y-98528315D01*
X135774206Y-98475511D01*
X135763000Y-98424000D01*
X135763000Y-98298000D01*
X135509000Y-98298000D01*
X135509000Y-144653000D01*
X148336000Y-144653000D01*
X148336000Y-140843000D01*
X140713000Y-140843000D01*
X140645961Y-140823315D01*
X140600206Y-140770511D01*
X140589000Y-140719000D01*
X140589000Y-132077000D01*
X140608685Y-132009961D01*
X140661489Y-131964206D01*
X140713000Y-131953000D01*
X164338000Y-131953000D01*
X164338000Y-129283000D01*
X164357685Y-129215961D01*
X164410489Y-129170206D01*
X164462000Y-129159000D01*
X166500000Y-129159000D01*
X166567039Y-129178685D01*
X166612794Y-129231489D01*
X166624000Y-129283000D01*
X166624000Y-131699000D01*
X177041000Y-131699000D01*
X177108039Y-131718685D01*
X177153794Y-131771489D01*
X177165000Y-131823000D01*
X177165000Y-139446000D01*
X181232000Y-139446000D01*
X181299039Y-139465685D01*
X181344794Y-139518489D01*
X181356000Y-139570000D01*
X181356000Y-156721000D01*
X181336315Y-156788039D01*
X181283511Y-156833794D01*
X181232000Y-156845000D01*
X158874000Y-156845000D01*
X158806961Y-156825315D01*
X158761206Y-156772511D01*
X158750000Y-156721000D01*
X158750000Y-153667000D01*
X158769685Y-153599961D01*
X158822489Y-153554206D01*
X158874000Y-153543000D01*
X178435000Y-153543000D01*
X178435000Y-143002000D01*
X172466000Y-143002000D01*
X172466000Y-145926000D01*
X172446315Y-145993039D01*
X172393511Y-146038794D01*
X172342000Y-146050000D01*
X167894000Y-146050000D01*
X167894000Y-150752000D01*
X167874315Y-150819039D01*
X167821511Y-150864794D01*
X167770000Y-150876000D01*
X165097000Y-150876000D01*
X165029961Y-150856315D01*
X164984206Y-150803511D01*
X164973000Y-150752000D01*
X164973000Y-143507000D01*
X164992685Y-143439961D01*
X165045489Y-143394206D01*
X165097000Y-143383000D01*
X167894000Y-143383000D01*
X167894000Y-139192000D01*
X164465000Y-139192000D01*
X164465000Y-152911000D01*
X164445315Y-152978039D01*
X164392511Y-153023794D01*
X164341000Y-153035000D01*
X158242000Y-153035000D01*
X158242000Y-155959000D01*
X158222315Y-156026039D01*
X158169511Y-156071794D01*
X158118000Y-156083000D01*
X155572000Y-156083000D01*
X155504961Y-156063315D01*
X155459206Y-156010511D01*
X155448000Y-155959000D01*
X155448000Y-154686000D01*
X153035000Y-154686000D01*
X153035000Y-161289000D01*
X153015315Y-161356039D01*
X152962511Y-161401794D01*
X152911000Y-161413000D01*
X145046211Y-161413000D01*
X145022021Y-161410618D01*
X145011966Y-161408618D01*
X144950054Y-161376233D01*
X144915480Y-161315517D01*
X144919219Y-161245748D01*
X144960085Y-161189076D01*
X145025103Y-161163494D01*
X145033899Y-161163100D01*
X145034000Y-161163000D01*
X145034000Y-147701000D01*
X140589000Y-147701000D01*
X140589000Y-149863000D01*
X140569315Y-149930039D01*
X140516511Y-149975794D01*
X140465000Y-149987000D01*
X126870000Y-149987000D01*
X126802961Y-149967315D01*
X126757206Y-149914511D01*
X126746000Y-149863000D01*
X126746000Y-143383000D01*
X123949000Y-143383000D01*
X123881961Y-143363315D01*
X123836206Y-143310511D01*
X123825000Y-143259000D01*
X123825000Y-86611000D01*
X123844685Y-86543961D01*
X123897489Y-86498206D01*
X123949000Y-86487000D01*
X124714000Y-86487000D01*
X124714000Y-81150000D01*
X124733685Y-81082961D01*
X124786489Y-81037206D01*
X124838000Y-81026000D01*
X126365000Y-81026000D01*
X126365000Y-80900000D01*
X126384685Y-80832961D01*
X126437489Y-80787206D01*
X126489000Y-80776000D01*
X129416000Y-80776000D01*
X129483039Y-80795685D01*
G37*
G36*
X119704039Y-168167685D02*
G01*
X119749794Y-168220489D01*
X119761000Y-168272000D01*
X119761000Y-172596000D01*
X119741315Y-172663039D01*
X119688511Y-172708794D01*
X119637000Y-172720000D01*
X110868000Y-172720000D01*
X110800961Y-172700315D01*
X110755206Y-172647511D01*
X110744000Y-172596000D01*
X110744000Y-168272000D01*
X110763685Y-168204961D01*
X110816489Y-168159206D01*
X110868000Y-168148000D01*
X119637000Y-168148000D01*
X119704039Y-168167685D01*
G37*
D22*
X209948780Y-239522000D02*
X209948780Y-99522020D01*
X209948780Y-99522020D02*
X188948820Y-99522020D01*
X188948820Y-99522020D02*
X188948820Y-57761880D01*
X188948820Y-57761880D02*
X99949000Y-57761880D01*
X99949000Y-239522000D02*
X209948780Y-239522000D01*
X99949000Y-57761880D02*
X99949000Y-239522000D01*
M02*
