M48
; DRILL file {KiCad 8.0.5} date 2024-11-23T04:47:06-0800
; FORMAT={-:-/ absolute / inch / decimal}
; #@! TF.CreationDate,2024-11-23T04:47:06-08:00
; #@! TF.GenerationSoftware,Kicad,Pcbnew,8.0.5
; #@! TF.FileFunction,Plated,1,8,PTH
FMAT,2
INCH
; #@! TA.AperFunction,Plated,PTH,ComponentDrill
T1C0.0080
; #@! TA.AperFunction,Plated,PTH,ViaDrill
T2C0.0100
; #@! TA.AperFunction,Plated,PTH,ComponentDrill
T3C0.0100
; #@! TA.AperFunction,Plated,PTH,ComponentDrill
T4C0.0394
; #@! TA.AperFunction,Plated,PTH,ComponentDrill
T5C0.0500
; #@! TA.AperFunction,Plated,PTH,ComponentDrill
T6C0.0520
; #@! TA.AperFunction,Plated,PTH,ComponentDrill
T7C0.0650
; #@! TA.AperFunction,Plated,PTH,ComponentDrill
T8C0.0700
; #@! TA.AperFunction,Plated,PTH,ComponentDrill
T9C0.1063
%
G90
G05
T1
X7.19Y-2.5608
X7.19Y-2.61
X7.19Y-2.6592
X7.2392Y-2.5608
X7.2392Y-2.61
X7.2392Y-2.6592
X7.2884Y-2.5608
X7.2884Y-2.61
X7.2884Y-2.6592
T2
X6.2242Y-2.3475
X6.2242Y-2.7225
X6.2242Y-2.7725
X6.2517Y-2.045
X6.2542Y-2.44
X6.3208Y-3.1593
X6.3208Y-3.905
X6.3208Y-4.3643
X6.3208Y-5.095
X6.3208Y-5.5543
X6.3208Y-6.3
X6.3208Y-6.7543
X6.3208Y-7.495
X6.3392Y-2.4
X6.3708Y-8.0793
X6.3708Y-8.6743
X6.3951Y-2.0275
X6.4267Y-2.41
X6.4392Y-1.8725
X6.4492Y-2.835
X6.4642Y-2.2975
X6.4642Y-2.3475
X6.4692Y-2.61
X6.5042Y-2.41
X6.5477Y-1.97
X6.5492Y-2.125
X6.5792Y-2.41
X6.5892Y-2.085
X6.6058Y-8.0293
X6.6058Y-8.7243
X6.6242Y-2.715
X6.6242Y-2.74
X6.6342Y-2.055
X6.6492Y-6.72
X6.6492Y-7.15
X6.6542Y-2.41
X6.6692Y-1.975
X6.6742Y-2.095
X6.7227Y-3.445
X6.7227Y-4.05
X6.7242Y-4.235
X6.7242Y-4.65
X6.7392Y-1.975
X6.7392Y-2.82
X6.7592Y-4.5341
X6.7592Y-5.1241
X6.7592Y-5.1991
X6.7592Y-5.7291
X6.7592Y-5.8041
X6.7608Y-4.9093
X6.7608Y-5.5193
X6.7642Y-3.33
X6.7642Y-3.9341
X6.7642Y-6.33
X6.7642Y-6.405
X6.7642Y-6.9291
X6.7642Y-7.0041
X6.7642Y-7.53
X6.7658Y-4.2743
X6.7658Y-4.5943
X6.7658Y-6.0543
X6.7658Y-6.3643
X6.7742Y-2.52
X6.795Y-3.6343
X6.796Y-4.035
X6.8008Y-5.7543
X6.8042Y-2.72
X6.8142Y-2.6
X6.8142Y-2.625
X6.8192Y-2.495
X6.8442Y-7.534
X6.8442Y-7.601
X6.85Y-5.1048
X6.8708Y-7.5493
X6.8717Y-2.985
X6.8758Y-3.0793
X6.8758Y-3.3543
X6.8808Y-7.2843
X6.8842Y-5.31
X6.8858Y-6.6793
X6.8858Y-6.9493
X6.8942Y-2.82
X6.9342Y-5.1991
X6.9792Y-2.2725
X6.9842Y-7.0943
X7.0042Y-7.0643
X7.0442Y-8.51
X7.0458Y-7.3493
X7.0492Y-2.475
X7.0492Y-2.7
X7.0542Y-2.405
X7.0542Y-2.52
X7.0592Y-2.6545
X7.0642Y-2.56
X7.0642Y-2.985
X7.0647Y-2.585
X7.0742Y-2.38
X7.0742Y-8.53
X7.0942Y-7.3493
X7.1042Y-8.455
X7.1092Y-2.895
X7.1192Y-2.44
X7.1292Y-2.785
X7.1342Y-2.2
X7.1342Y-2.54
X7.1342Y-2.64
X7.1392Y-2.71
X7.1392Y-4.045
X7.1392Y-4.12
X7.1392Y-4.195
X7.1392Y-4.27
X7.1392Y-5.535
X7.1392Y-8.655
X7.1492Y-8.46
X7.1592Y-4.335
X7.1608Y-7.3493
X7.1642Y-2.425
X7.1642Y-3.985
X7.1742Y-2.94
X7.1792Y-5.485
X7.1808Y-8.1793
X7.1892Y-2.425
X7.1892Y-6.525
X7.1892Y-6.6
X7.1892Y-6.675
X7.1892Y-6.74
X7.1908Y-6.1693
X7.2058Y-7.3493
X7.2092Y-6.365
X7.2108Y-6.4693
X7.2142Y-2.275
X7.2142Y-5.605
X7.2142Y-7.2
X7.2142Y-8.455
X7.2142Y-8.655
X7.2192Y-5.65
X7.2208Y-8.0093
X7.2208Y-8.1193
X7.2242Y-2.595
X7.2258Y-4.4943
X7.2491Y-2.505
X7.2492Y-4.16
X7.2592Y-2.715
X7.2592Y-2.79
X7.2592Y-2.9
X7.2658Y-6.8943
X7.2708Y-6.2493
X7.2742Y-3.895
X7.2758Y-7.0943
X7.2817Y-2.21
X7.2858Y-5.3593
X7.2892Y-2.78
X7.2892Y-8.655
X7.294Y-4.13
X7.2942Y-5.495
X7.2942Y-7.0643
X7.2992Y-6.565
X7.3042Y-2.365
X7.3058Y-4.4143
X7.3092Y-3.93
X7.3108Y-8.5715
X7.3142Y-2.78
X7.3142Y-4.205
X7.3192Y-4.13
X7.3208Y-7.2793
X7.321Y-8.455
X7.3242Y-2.965
X7.3242Y-4.395
X7.3292Y-2.365
X7.3292Y-6.31
X7.331Y-8.475
X7.3342Y-4.235
X7.3342Y-6.825
X7.3342Y-8.16
X7.3342Y-8.185
X7.344Y-6.525
X7.3442Y-2.62
X7.3442Y-2.71
X7.3442Y-4.09
X7.3442Y-4.375
X7.3442Y-8.455
X7.3458Y-7.4443
X7.3492Y-2.54
X7.3492Y-3.97
X7.3492Y-4.215
X7.3508Y-7.2793
X7.3542Y-8.475
X7.3567Y-2.21
X7.3592Y-6.34
X7.3642Y-4.235
X7.3642Y-6.0725
X7.3658Y-6.0343
X7.3658Y-6.5993
X7.3692Y-3.995
X7.3692Y-4.025
X7.3692Y-4.09
X7.3692Y-4.3
X7.3692Y-4.33
X7.3692Y-6.525
X7.3692Y-6.79
X7.3742Y-4.215
X7.3792Y-8.565
X7.3808Y-3.4243
X7.3808Y-3.5443
X7.384Y-6.6289
X7.3858Y-5.0693
X7.3858Y-7.3343
X7.3892Y-6.37
X7.3908Y-7.2693
X7.396Y-6.61
X7.3992Y-3.995
X7.3992Y-4.025
X7.3992Y-4.3
X7.3992Y-4.33
X7.3992Y-6.76
X7.4008Y-5.9493
X7.402Y-6.489
X7.4042Y-2.64
X7.4042Y-6.965
X7.4058Y-5.1093
X7.4058Y-7.3893
X7.4082Y-6.6289
X7.4108Y-7.2943
X7.4142Y-2.76
X7.4142Y-5.2579
X7.4142Y-5.3859
X7.4142Y-5.415
X7.4142Y-5.4471
X7.4142Y-6.15
X7.4142Y-6.18
X7.4142Y-8.615
X7.4147Y-6.105
X7.4158Y-4.5143
X7.4169Y-8.545
X7.4169Y-8.57
X7.4182Y-6.61
X7.4192Y-3.805
X7.4192Y-3.875
X7.4192Y-6.395
X7.4192Y-6.425
X7.4192Y-6.695
X7.4192Y-6.725
X7.4242Y-6.0222
X7.4242Y-6.0539
X7.4242Y-6.4911
X7.4242Y-8.2017
X7.4242Y-8.3198
X7.4267Y-8.2608
X7.4267Y-8.3789
X7.4267Y-8.438
X7.4292Y-1.95
X7.4292Y-6.965
X7.4317Y-2.21
X7.4342Y-2.545
X7.4366Y-8.475
X7.4392Y-5.495
X7.4408Y-8.0493
X7.4423Y-2.96
X7.4442Y-5.36
X7.4492Y-6.395
X7.4492Y-6.425
X7.4492Y-6.695
X7.4492Y-6.725
X7.4492Y-6.89
X7.4542Y-2.365
X7.4542Y-2.7
X7.4542Y-3.825
X7.4542Y-3.95
X7.4542Y-3.975
X7.4542Y-4.08
X7.4542Y-4.13
X7.4542Y-4.19
X7.4542Y-4.24
X7.4542Y-8.545
X7.4592Y-4.33
X7.4592Y-4.355
X7.4592Y-7.825
X7.4692Y-6.2
X7.4742Y-8.6
X7.4792Y-2.725
X7.4792Y-4.345
X7.4792Y-4.37
X7.4792Y-8.545
X7.4842Y-2.365
X7.4842Y-3.975
X7.4842Y-6.32
X7.4892Y-3.125
X7.4892Y-3.16
X7.4892Y-3.265
X7.4892Y-3.295
X7.4892Y-6.25
X7.4956Y-8.475
X7.4992Y-1.95
X7.5042Y-2.67
X7.5042Y-4.08
X7.5042Y-4.13
X7.5042Y-4.19
X7.5042Y-4.24
X7.5042Y-4.615
X7.5042Y-6.48
X7.5042Y-6.53
X7.5042Y-6.59
X7.5042Y-6.64
X7.5042Y-8.67
X7.5047Y-3.995
X7.5067Y-2.21
X7.5092Y-3.93
X7.5092Y-3.96
X7.5108Y-4.7043
X7.514Y-6.365
X7.5142Y-6.26
X7.5142Y-6.39
X7.5142Y-6.735
X7.5142Y-6.765
X7.5142Y-7.83
X7.5153Y-8.07
X7.5153Y-8.543
X7.5153Y-8.567
X7.5158Y-7.1243
X7.5158Y-7.1693
X7.5192Y-2.625
X7.5192Y-7.287
X7.5192Y-7.3126
X7.5192Y-7.3638
X7.5192Y-7.6478
X7.5242Y-3.075
X7.5242Y-5.9454
X7.5242Y-7.545
X7.5242Y-7.6784
X7.5242Y-7.8
X7.5242Y-8.25
X7.5242Y-8.29
X7.5242Y-8.33
X7.5242Y-8.37
X7.5267Y-5.8942
X7.5267Y-7.7246
X7.5267Y-7.76
X7.5292Y-2.76
X7.5292Y-4.615
X7.5292Y-6.1
X7.5292Y-7.495
X7.5292Y-8.04
X7.5342Y-4.34
X7.5342Y-4.365
X7.5342Y-6.72
X7.5342Y-6.75
X7.535Y-8.145
X7.535Y-8.475
X7.5358Y-7.1493
X7.5392Y-5.26
X7.5392Y-5.435
X7.5392Y-7.3382
X7.5442Y-2.545
X7.5442Y-5.465
X7.5542Y-6.48
X7.5542Y-6.53
X7.5542Y-6.59
X7.5542Y-6.64
X7.5542Y-8.055
X7.5542Y-8.08
X7.5542Y-8.67
X7.5547Y-8.544
X7.5547Y-8.568
X7.5592Y-7.515
X7.5642Y-4.08
X7.5642Y-4.13
X7.5642Y-4.19
X7.5642Y-4.24
X7.5642Y-8.25
X7.5642Y-8.29
X7.5642Y-8.33
X7.5642Y-8.37
X7.5692Y-3.8
X7.5692Y-3.95
X7.5692Y-3.975
X7.5708Y-5.9793
X7.5708Y-6.0643
X7.576Y-5.1093
X7.5762Y-8.04
X7.5842Y-4.375
X7.5892Y-6.73
X7.5892Y-6.755
X7.5958Y-7.0993
X7.5992Y-8.675
X7.6042Y-8.25
X7.6042Y-8.29
X7.6042Y-8.33
X7.6042Y-8.37
X7.6142Y-2.52
X7.6142Y-4.08
X7.6142Y-4.13
X7.6142Y-4.19
X7.6142Y-4.24
X7.6142Y-4.4
X7.6142Y-6.369
X7.6142Y-6.395
X7.6142Y-6.48
X7.6142Y-6.53
X7.6142Y-6.59
X7.6142Y-6.64
X7.6142Y-7.815
X7.6142Y-8.595
X7.6167Y-3.0475
X7.6192Y-4.5
X7.6208Y-7.0793
X7.6242Y-5.5
X7.6287Y-5.625
X7.6292Y-7.5198
X7.6342Y-6.345
X7.6342Y-6.745
X7.6342Y-6.77
X7.6392Y-2.5
X7.6392Y-7.26
X7.6392Y-8.595
X7.6442Y-3.91
X7.6442Y-3.935
X7.6442Y-5.8842
X7.6442Y-5.9198
X7.6442Y-7.1335
X7.6442Y-7.75
X7.6442Y-8.25
X7.6442Y-8.29
X7.6442Y-8.33
X7.6442Y-8.37
X7.6492Y-7.4942
X7.6542Y-6.89
X7.6542Y-7.385
X7.6542Y-7.415
X7.6542Y-8.565
X7.6592Y-6.345
X7.6592Y-7.1591
X7.6642Y-2.4761
X7.6642Y-6.48
X7.6642Y-6.53
X7.6642Y-6.59
X7.6642Y-6.64
X7.6692Y-3.995
X7.6692Y-4.025
X7.6692Y-4.295
X7.6692Y-4.325
X7.6767Y-5.275
X7.6792Y-5.575
X7.6792Y-7.975
X7.6792Y-8.565
X7.6808Y-4.7543
X7.6992Y-3.995
X7.6992Y-4.025
X7.6992Y-4.295
X7.6992Y-4.325
X7.7042Y-7.975
X7.7158Y-6.9343
X7.7158Y-6.9743
X7.7158Y-7.0143
X7.7192Y-6.395
X7.7192Y-6.425
X7.7192Y-6.695
X7.7192Y-6.72
X7.7242Y-4.355
X7.7242Y-4.38
X7.7242Y-6.775
X7.7242Y-6.8
X7.7292Y-4.255
X7.7292Y-4.28
X7.7292Y-4.315
X7.7342Y-3.955
X7.7342Y-3.98
X7.7342Y-4.015
X7.7342Y-8.01
X7.7342Y-8.035
X7.7392Y-4.17
X7.7392Y-4.195
X7.7442Y-4.575
X7.7442Y-8.3
X7.7458Y-4.6
X7.7458Y-4.6293
X7.7458Y-4.6593
X7.7485Y-7.785
X7.7492Y-6.395
X7.7492Y-6.425
X7.7492Y-6.695
X7.7492Y-6.72
X7.7492Y-7.6222
X7.7492Y-7.6734
X7.7492Y-7.725
X7.7542Y-5.971
X7.7542Y-6.0734
X7.7542Y-7.26
X7.7542Y-8.675
X7.7546Y-7.3647
X7.7558Y-7.3293
X7.7558Y-7.3993
X7.7592Y-6.185
X7.7692Y-6.1
X7.7692Y-7.5966
X7.7692Y-7.6478
X7.7692Y-7.699
X7.7742Y-5.105
X7.7742Y-6.405
X7.7742Y-6.645
X7.7742Y-6.67
X7.7742Y-6.7
X7.7742Y-8.06
X7.7742Y-8.085
X7.7767Y-3.1603
X7.7776Y-3.1
X7.7776Y-3.195
X7.7842Y-6.35
X7.7842Y-6.375
X7.7842Y-6.435
X7.7842Y-6.46
X7.7842Y-6.735
X7.7842Y-6.76
X7.7887Y-2.95
X7.7892Y-7.195
X7.7908Y-7.5393
X7.7921Y-5.595
X7.7992Y-6.405
X7.7992Y-6.7
X7.7992Y-8.51
X7.7992Y-8.535
X7.8122Y-7.115
X7.8137Y-5.035
X7.8292Y-8.2563
X7.8292Y-8.2813
X7.8392Y-5.285
X7.8392Y-6.87
X7.8392Y-7.0246
X7.8392Y-7.0758
X7.8392Y-7.815
X7.8392Y-8.345
X7.8392Y-8.37
X7.8392Y-8.545
X7.8392Y-8.57
X7.8408Y-6.9943
X7.8442Y-6.22
X7.8442Y-6.655
X7.8442Y-6.815
X7.8442Y-8.1
X7.8442Y-8.125
X7.8508Y-3.035
X7.8542Y-4.03
X7.8542Y-4.055
X7.8558Y-2.3893
X7.8562Y-7.115
X7.8592Y-7.05
X7.8592Y-8.305
X7.8767Y-5.3225
X7.8767Y-5.6
X7.8808Y-6.9743
X7.8842Y-8.305
X7.8892Y-4.953
X7.8895Y-3.1475
X7.8908Y-2.3893
X7.8942Y-8.18
X7.8942Y-8.205
X7.9058Y-6.9493
X7.9142Y-2.69
X7.9158Y-2.5243
X7.9192Y-7.115
X7.9258Y-2.3893
X7.9292Y-4.92
X7.9298Y-5.035
X7.9308Y-6.92
X7.9376Y-3.265
X7.9492Y-7.215
X7.9492Y-7.285
X7.9502Y-5.625
X7.9508Y-2.5243
X7.9542Y-6.895
X7.9592Y-7.075
X7.9592Y-7.115
X7.9642Y-2.985
X7.9692Y-8.275
X7.9742Y-5.105
X7.9767Y-2.725
X7.9767Y-4.7858
X7.9842Y-6.465
X7.9858Y-2.5243
X7.9892Y-4.71
X7.9892Y-6.57
X7.9892Y-6.595
X7.9942Y-5.68
X7.9942Y-6.175
X7.9942Y-6.25
X8.0012Y-3.575
X8.0017Y-3.1603
X8.0092Y-3.205
X8.0092Y-7.98
X8.0092Y-8.2365
X8.0117Y-3.11
X8.0162Y-5.035
X8.0192Y-5.5172
X8.0192Y-5.64
X8.0292Y-2.9825
X8.0392Y-6.465
X8.0492Y-8.77
X8.0508Y-7.4743
X8.0592Y-7.98
X8.0642Y-6.795
X8.0642Y-6.825
X8.0642Y-6.9222
X8.0642Y-6.9734
X8.0642Y-7.0246
X8.0658Y-4.7993
X8.0658Y-4.8393
X8.0658Y-4.8993
X8.0792Y-6.8966
X8.0792Y-6.9478
X8.0917Y-2.66
X8.0942Y-6.465
X8.0942Y-7.2
X8.0942Y-8.3035
X8.0958Y-7.4043
X8.0992Y-4.67
X8.1008Y-7.4943
X8.1042Y-7.0
X8.1092Y-7.98
X8.1267Y-2.725
X8.1292Y-3.575
X8.1308Y-4.9993
X8.1323Y-5.035
X8.1392Y-7.06
X8.1408Y-6.8643
X8.1408Y-7.4693
X8.1442Y-7.135
X8.1442Y-7.21
X8.1442Y-7.285
X8.1492Y-6.045
X8.1592Y-7.98
X8.1608Y-5.8393
X8.1642Y-3.613
X8.1642Y-4.995
X8.1742Y-6.125
X8.1742Y-6.6693
X8.1742Y-8.77
X8.1833Y-6.945
X8.1842Y-4.585
X8.1858Y-7.4043
X8.2042Y-3.22
X8.2042Y-5.72
X8.2067Y-3.105
X8.2092Y-6.465
X8.2092Y-7.98
X8.2117Y-5.0475
X8.2142Y-3.3965
X8.2142Y-3.425
X8.2142Y-3.665
X8.2207Y-2.76
X8.2358Y-5.8393
X8.2358Y-5.9893
X8.2392Y-5.745
X8.2592Y-3.16
X8.2592Y-3.2725
X8.2592Y-7.98
X8.2617Y-3.0475
X8.2642Y-7.525
X8.2692Y-3.613
X8.2942Y-4.715
X8.2942Y-6.465
X8.3092Y-5.185
X8.3092Y-7.98
X8.3108Y-5.8393
X8.3392Y-7.525
X8.3592Y-7.98
X8.3692Y-6.81
X8.3692Y-8.48
X8.3708Y-8.3693
X8.3758Y-7.2793
X8.3858Y-5.8393
X8.3858Y-5.9893
X8.3942Y-4.665
X8.3942Y-7.21
X8.3958Y-4.7593
X8.4008Y-7.2943
X8.4058Y-6.885
X8.4092Y-5.6478
X8.4092Y-7.98
X8.4108Y-2.9493
X8.4108Y-5.6043
X8.4122Y-5.1
X8.4142Y-7.525
X8.4192Y-5.04
X8.4217Y-3.095
X8.422Y-3.17
X8.4226Y-3.205
X8.4258Y-6.7393
X8.4292Y-7.3
X8.4392Y-6.9
X8.4442Y-3.735
X8.4442Y-3.81
X8.4442Y-5.07
X8.4442Y-6.215
X8.4492Y-5.43
X8.4542Y-7.32
X8.4592Y-7.98
X8.4608Y-5.8393
X8.4642Y-7.475
X8.4727Y-6.885
X8.4808Y-6.7393
X8.4842Y-5.185
X8.4858Y-5.4893
X8.4892Y-7.525
X8.4992Y-6.9
X8.5042Y-4.62
X8.5042Y-4.655
X8.5142Y-7.325
X8.5158Y-5.4893
X8.5242Y-5.22
X8.5358Y-5.8393
X8.5358Y-5.9893
X8.5358Y-6.7393
X8.5392Y-6.465
X8.5395Y-3.1475
X8.5477Y-3.8475
X8.5592Y-2.945
X8.5592Y-5.31
X8.5592Y-7.98
X8.5642Y-5.218
X8.5642Y-7.525
X8.5708Y-5.5043
X8.5742Y-7.26
X8.5767Y-3.03
X8.5867Y-3.2641
X8.5908Y-6.7393
X8.5992Y-5.015
X8.5992Y-5.35
X8.5992Y-5.43
X8.6042Y-7.26
X8.6092Y-7.98
X8.6142Y-7.31
X8.6192Y-7.5
X8.6242Y-5.38
X8.6242Y-5.605
X8.6292Y-5.43
X8.6308Y-3.8475
X8.6342Y-6.355
X8.6342Y-6.465
X8.6344Y-2.045
X8.6392Y-6.76
X8.6392Y-6.91
X8.6392Y-7.21
X8.6517Y-3.1859
X8.6592Y-3.06
X8.6592Y-5.38
X8.6592Y-7.98
X8.6842Y-7.315
X8.6892Y-4.935
X8.6892Y-6.355
X8.6935Y-2.045
X8.7092Y-7.98
X8.7142Y-6.76
X8.7142Y-7.095
X8.7192Y-6.465
X8.7267Y-5.21
X8.7292Y-4.7833
X8.7342Y-4.7125
X8.7492Y-6.355
X8.7517Y-7.435
X8.7525Y-2.045
X8.7592Y-7.98
X8.7642Y-4.11
X8.7642Y-4.16
X8.7842Y-3.855
X8.7892Y-6.76
X8.7892Y-6.91
X8.7992Y-7.115
X8.7992Y-7.265
X8.803Y-5.598
X8.8042Y-6.355
X8.8042Y-6.465
X8.8092Y-2.045
X8.8092Y-7.98
X8.811Y-5.381
X8.8142Y-4.8475
X8.8158Y-4.7993
X8.8158Y-4.8943
X8.8242Y-5.23
X8.8242Y-7.435
X8.8335Y-5.381
X8.848Y-3.215
X8.8492Y-6.18
X8.85Y-3.1021
X8.8542Y-5.1
X8.8592Y-7.98
X8.8742Y-6.115
X8.8892Y-4.7125
X8.8992Y-6.15
X8.9017Y-3.81
X8.9017Y-7.435
X8.9058Y-3.1593
X8.9058Y-3.2743
X8.9058Y-5.8343
X8.9092Y-7.98
X8.9142Y-4.345
X8.9158Y-4.8543
X8.9158Y-4.8843
X8.9158Y-4.9193
X8.9158Y-4.9443
X8.9163Y-4.825
X8.9342Y-6.355
X8.9342Y-6.465
X8.9492Y-2.19
X8.9508Y-7.2843
X8.9558Y-7.1843
X8.9558Y-7.2343
X8.9592Y-7.98
X8.9642Y-4.91
X8.9742Y-5.1
X8.9742Y-7.335
X8.9767Y-3.81
X8.9767Y-7.435
X8.9792Y-5.2265
X8.9892Y-4.345
X8.9892Y-5.78
X9.0092Y-7.98
X9.0158Y-4.1093
X9.0158Y-4.1593
X9.0208Y-4.0093
X9.0292Y-6.465
X9.0492Y-8.01
X9.0742Y-2.285
X9.0742Y-7.185
X9.0842Y-7.27
X9.0842Y-7.305
X9.0892Y-7.16
X9.1142Y-2.225
X9.1208Y-3.9343
X9.1242Y-4.24
X9.1242Y-4.305
X9.1692Y-7.57
X9.1708Y-4.1093
X9.1708Y-4.1593
X9.1992Y-7.44
X9.1992Y-7.47
X9.2042Y-7.1579
X9.2092Y-7.365
X9.2092Y-7.55
X9.2392Y-8.52
X9.2642Y-7.475
X9.2842Y-7.395
X9.3042Y-7.34
X9.3092Y-7.2091
X9.3092Y-7.265
X9.3227Y-7.155
X9.3242Y-7.235
X9.3392Y-3.695
X9.3692Y-3.595
X9.3692Y-7.155
X9.4358Y-3.6193
X9.4358Y-6.5343
X9.4442Y-7.155
X9.4492Y-3.75
X9.4492Y-3.89
X9.4492Y-4.105
X9.4517Y-5.6515
X9.4542Y-8.5525
X9.4558Y-6.9693
X9.4592Y-8.41
X9.4608Y-6.6993
X9.4708Y-3.7243
X9.4908Y-3.6943
X9.5008Y-3.6443
X9.5542Y-3.88
X9.6392Y-3.8681
X9.6392Y-4.62
X9.6392Y-5.52
X9.6392Y-6.824
X9.6392Y-6.874
X9.6392Y-6.974
X9.6392Y-7.024
X9.6392Y-7.124
X9.6392Y-7.174
X9.6392Y-8.3359
X9.6392Y-8.3609
X9.6399Y-4.0181
X9.6399Y-4.1681
X9.6399Y-4.3181
X9.6399Y-4.4681
X9.6399Y-4.7681
X9.6399Y-4.9181
X9.6399Y-5.0681
X9.6399Y-5.2181
X9.6399Y-5.3681
X9.6399Y-5.6681
X9.6399Y-6.574
X9.6399Y-6.624
X9.6399Y-6.774
X9.6399Y-6.924
X9.6399Y-7.074
X9.6399Y-7.224
X9.6399Y-7.324
X9.6399Y-7.374
X9.6399Y-7.424
X9.6399Y-7.524
X9.6399Y-7.674
X9.6399Y-7.824
X9.6399Y-7.974
X9.6399Y-8.124
X9.6399Y-8.274
X9.6399Y-8.424
X9.6408Y-3.8193
X9.7492Y-3.8181
X9.7492Y-3.9181
X9.7492Y-4.0681
X9.7492Y-4.1181
X9.7492Y-4.2181
X9.7492Y-4.2681
X9.7492Y-4.3181
X9.7492Y-4.3681
X9.7492Y-4.4181
X9.7492Y-4.4681
X9.7492Y-4.5181
X9.7492Y-4.62
X9.7492Y-4.6681
X9.7492Y-4.77
X9.7492Y-4.82
X9.7492Y-4.92
X9.7492Y-4.97
X9.7492Y-5.12
X9.7492Y-5.22
X9.7492Y-5.27
X9.7492Y-5.37
X9.7492Y-5.42
X9.7492Y-5.52
X9.7492Y-5.5681
X9.7492Y-5.6181
X9.7492Y-5.7681
X9.7492Y-6.574
X9.7492Y-6.624
X9.7492Y-6.674
X9.7492Y-6.824
X9.7492Y-6.974
X9.7492Y-7.124
X9.7492Y-7.174
X9.7492Y-7.224
X9.7492Y-7.274
X9.7492Y-7.324
X9.7492Y-7.374
X9.7492Y-7.424
X9.7492Y-7.524
X9.7492Y-7.574
X9.7492Y-7.674
X9.7492Y-7.725
X9.7492Y-7.8259
X9.7492Y-7.874
X9.7492Y-7.9759
X9.7492Y-8.024
X9.7492Y-8.1259
X9.7492Y-8.174
X9.7492Y-8.2759
X9.7492Y-8.324
X9.7492Y-8.374
X9.7492Y-8.524
X9.7499Y-7.024
X9.7499Y-7.074
X9.7508Y-3.8693
X9.7508Y-7.4743
X9.7742Y-4.62
X9.7742Y-4.77
X9.7742Y-4.92
X9.7742Y-5.22
X9.7742Y-5.37
X9.7742Y-5.52
X9.7742Y-7.8259
X9.7742Y-7.9759
X9.7742Y-8.1259
X9.7742Y-8.2759
X9.8392Y-4.5181
X9.8392Y-4.72
X9.8392Y-4.78
X9.8392Y-4.805
X9.8392Y-5.08
X9.8392Y-5.105
X9.8392Y-5.23
X9.8392Y-5.255
X9.8392Y-5.32
X9.8392Y-5.38
X9.8392Y-5.405
X9.8392Y-7.024
X9.8392Y-7.074
X9.8392Y-7.224
X9.8392Y-7.5359
X9.8392Y-7.5609
X9.8392Y-7.6859
X9.8392Y-7.7109
X9.8392Y-7.8359
X9.8392Y-7.8609
X9.8392Y-7.9859
X9.8392Y-8.0109
X9.8399Y-3.8681
X9.8399Y-3.9681
X9.8399Y-4.0681
X9.8399Y-4.2181
X9.8399Y-4.2681
X9.8399Y-4.3181
X9.8399Y-4.4181
X9.8399Y-4.5681
X9.8399Y-4.8681
X9.8399Y-5.0181
X9.8399Y-5.1681
X9.8399Y-5.4681
X9.8399Y-5.5181
X9.8399Y-5.6681
X9.8399Y-5.7181
X9.8399Y-6.574
X9.8399Y-6.624
X9.8399Y-6.674
X9.8399Y-6.724
X9.8399Y-6.774
X9.8399Y-7.174
X9.8399Y-7.324
X9.8399Y-7.374
X9.8399Y-7.424
X9.8399Y-7.474
X9.8399Y-7.624
X9.8399Y-7.774
X9.8399Y-7.924
X9.8399Y-8.074
X9.8399Y-8.224
X9.8399Y-8.274
X9.8399Y-8.424
X9.8399Y-8.474
X9.8408Y-4.4693
X9.8692Y-6.27
X9.8692Y-6.36
X9.8717Y-6.0478
X9.8717Y-6.1975
X9.8742Y-6.115
X9.927Y-5.995
X9.9492Y-3.8181
X9.9492Y-3.9181
X9.9492Y-4.0181
X9.9492Y-4.1181
X9.9492Y-4.1681
X9.9492Y-4.2181
X9.9492Y-4.2681
X9.9492Y-4.3181
X9.9492Y-4.3681
X9.9492Y-4.4181
X9.9492Y-4.4681
X9.9492Y-4.5681
X9.9492Y-4.6181
X9.9492Y-4.72
X9.9492Y-4.7681
X9.9492Y-4.8181
X9.9492Y-4.88
X9.9492Y-4.905
X9.9492Y-4.9681
X9.9492Y-5.0181
X9.9492Y-5.12
X9.9492Y-5.1681
X9.9492Y-5.2181
X9.9492Y-5.32
X9.9492Y-5.3681
X9.9492Y-5.4181
X9.9492Y-5.5681
X9.9492Y-5.6181
X9.9492Y-5.7681
X9.9492Y-6.574
X9.9492Y-6.624
X9.9492Y-6.674
X9.9492Y-6.774
X9.9492Y-6.924
X9.9492Y-6.974
X9.9492Y-7.124
X9.9492Y-7.174
X9.9492Y-7.224
X9.9492Y-7.274
X9.9492Y-7.324
X9.9492Y-7.374
X9.9492Y-7.424
X9.9492Y-7.474
X9.9492Y-7.524
X9.9492Y-7.574
X9.9492Y-7.6759
X9.9492Y-7.724
X9.9492Y-7.774
X9.9492Y-7.8759
X9.9492Y-7.924
X9.9492Y-7.974
X9.9492Y-8.0759
X9.9492Y-8.124
X9.9492Y-8.174
X9.9492Y-8.324
X9.9492Y-8.374
X9.9492Y-8.524
X9.9508Y-4.5193
X9.9558Y-6.7243
X9.9558Y-6.8243
X9.9642Y-6.14
X9.9742Y-4.72
X9.9742Y-5.12
X9.9742Y-5.32
X9.9742Y-7.6759
X9.9742Y-7.8759
X9.9742Y-8.0759
X9.9808Y-3.9693
X9.9808Y-4.0693
X9.9942Y-6.14
X10.0042Y-6.4
X10.0192Y-6.0328
X10.0192Y-6.0675
X10.0358Y-3.9693
X10.0358Y-4.0693
X10.0358Y-6.7243
X10.0358Y-6.8243
X10.0508Y-6.3143
X10.0558Y-6.1993
X10.0558Y-6.2693
X10.0592Y-6.0
X10.0617Y-6.105
T3
X8.4692Y-7.04
X8.4692Y-7.075
X8.4692Y-7.11
X8.4692Y-7.145
X8.5042Y-7.04
X8.5042Y-7.075
X8.5042Y-7.11
X8.5042Y-7.145
X8.5392Y-7.04
X8.5392Y-7.075
X8.5392Y-7.11
X8.5392Y-7.145
X8.5742Y-7.04
X8.5742Y-7.075
X8.5742Y-7.11
X8.5742Y-7.145
T4
X7.6142Y-2.19
X7.6142Y-2.29
X7.7142Y-2.19
X7.7142Y-2.29
X7.8142Y-2.19
X7.8142Y-2.29
X7.9142Y-2.19
X7.9142Y-2.29
X8.0142Y-2.19
X8.0142Y-2.29
X8.1142Y-2.19
X8.1142Y-2.29
X8.2142Y-2.19
X8.2142Y-2.29
X8.4642Y-8.4193
X8.4642Y-8.5193
X8.5642Y-8.4193
X8.5642Y-8.5193
X8.6642Y-8.4193
X8.6642Y-8.5193
X8.7642Y-8.4193
X8.7642Y-8.5193
X8.8642Y-8.4193
X8.8642Y-8.5193
X8.9642Y-8.4193
X8.9642Y-8.5193
X9.0642Y-8.4193
X9.0642Y-8.5193
T5
X8.3635Y-1.95
X8.3635Y-2.05
T6
X8.4927Y-1.8797
X8.5163Y-2.0746
X9.0872Y-2.0746
X9.1108Y-1.8797
T7
X6.0392Y-2.0791
X6.0392Y-2.6791
X6.0392Y-3.2791
X6.0392Y-3.8791
X6.0392Y-4.4791
X6.0392Y-5.0791
X6.0392Y-5.6791
X6.0392Y-6.2791
X6.0392Y-6.8791
X6.0392Y-7.4791
X6.0392Y-8.0791
X6.0392Y-8.6791
T8
X5.9392Y-1.9791
X5.9392Y-2.1791
X5.9392Y-2.5791
X5.9392Y-2.7791
X5.9392Y-3.1791
X5.9392Y-3.3791
X5.9392Y-3.7791
X5.9392Y-3.9791
X5.9392Y-4.3791
X5.9392Y-4.5791
X5.9392Y-4.9791
X5.9392Y-5.1791
X5.9392Y-5.5791
X5.9392Y-5.7791
X5.9392Y-6.1791
X5.9392Y-6.3791
X5.9392Y-6.7791
X5.9392Y-6.9791
X5.9392Y-7.3791
X5.9392Y-7.5791
X5.9392Y-7.9791
X5.9392Y-8.1791
X5.9392Y-8.5791
X5.9392Y-8.7791
X6.1392Y-1.9791
X6.1392Y-2.1791
X6.1392Y-2.5791
X6.1392Y-2.7791
X6.1392Y-3.1791
X6.1392Y-3.3791
X6.1392Y-3.7791
X6.1392Y-3.9791
X6.1392Y-4.3791
X6.1392Y-4.5791
X6.1392Y-4.9791
X6.1392Y-5.1791
X6.1392Y-5.5791
X6.1392Y-5.7791
X6.1392Y-6.1791
X6.1392Y-6.3791
X6.1392Y-6.7791
X6.1392Y-6.9791
X6.1392Y-7.3791
X6.1392Y-7.5791
X6.1392Y-7.9791
X6.1392Y-8.1791
X6.1392Y-8.5791
X6.1392Y-8.7791
T9
X7.0908Y-7.5643
X7.2908Y-3.2143
X7.3358Y-4.8443
X9.7158Y-3.5531
X9.7158Y-6.0338
X9.7158Y-6.3094
X9.7158Y-8.7893
M30
