M48
; DRILL file {KiCad 8.0.5} date 2024-12-04T09:41:22-0800
; FORMAT={-:-/ absolute / inch / decimal}
; #@! TF.CreationDate,2024-12-04T09:41:22-08:00
; #@! TF.GenerationSoftware,Kicad,Pcbnew,8.0.5
; #@! TF.FileFunction,Plated,1,8,PTH
FMAT,2
INCH
; #@! TA.AperFunction,Plated,PTH,ComponentDrill
T1C0.0080
; #@! TA.AperFunction,Plated,PTH,ViaDrill
T2C0.0100
; #@! TA.AperFunction,Plated,PTH,ComponentDrill
T3C0.0100
; #@! TA.AperFunction,Plated,PTH,ComponentDrill
T4C0.0394
; #@! TA.AperFunction,Plated,PTH,ComponentDrill
T5C0.0500
; #@! TA.AperFunction,Plated,PTH,ComponentDrill
T6C0.0520
; #@! TA.AperFunction,Plated,PTH,ComponentDrill
T7C0.0650
; #@! TA.AperFunction,Plated,PTH,ComponentDrill
T8C0.0700
; #@! TA.AperFunction,Plated,PTH,ComponentDrill
T9C0.1063
%
G90
G05
T1
X5.3108Y-3.0558
X5.3108Y-3.105
X5.3108Y-3.1542
X5.36Y-3.0558
X5.36Y-3.105
X5.36Y-3.1542
X5.4092Y-3.0558
X5.4092Y-3.105
X5.4092Y-3.1542
T2
X4.345Y-2.8425
X4.345Y-3.2175
X4.345Y-3.2675
X4.3725Y-2.54
X4.375Y-2.935
X4.4416Y-3.6543
X4.4416Y-4.4
X4.4416Y-4.8593
X4.4416Y-5.59
X4.4416Y-6.0493
X4.4416Y-6.795
X4.4416Y-7.2493
X4.4416Y-7.99
X4.46Y-2.895
X4.4916Y-8.5743
X4.4916Y-9.1693
X4.5159Y-2.5225
X4.5475Y-2.905
X4.56Y-2.3675
X4.57Y-3.33
X4.585Y-2.7925
X4.585Y-2.8425
X4.59Y-3.105
X4.625Y-2.905
X4.6685Y-2.465
X4.67Y-2.62
X4.7Y-2.905
X4.71Y-2.58
X4.7266Y-8.5243
X4.7266Y-9.2193
X4.745Y-3.21
X4.745Y-3.235
X4.755Y-2.55
X4.77Y-7.215
X4.77Y-7.645
X4.775Y-2.905
X4.79Y-2.47
X4.795Y-2.59
X4.8435Y-3.94
X4.8435Y-4.545
X4.845Y-4.73
X4.845Y-5.145
X4.86Y-2.47
X4.86Y-3.315
X4.88Y-5.0291
X4.88Y-5.6191
X4.88Y-5.6941
X4.88Y-6.2241
X4.88Y-6.2991
X4.8816Y-5.4043
X4.8816Y-6.0143
X4.885Y-3.825
X4.885Y-4.4291
X4.885Y-6.825
X4.885Y-6.9
X4.885Y-7.4241
X4.885Y-7.4991
X4.885Y-8.025
X4.8866Y-4.7693
X4.8866Y-5.0893
X4.8866Y-6.5493
X4.8866Y-6.8593
X4.895Y-3.015
X4.9158Y-4.1293
X4.9168Y-4.53
X4.9216Y-6.2493
X4.925Y-3.215
X4.935Y-3.095
X4.935Y-3.12
X4.94Y-2.99
X4.965Y-8.029
X4.965Y-8.096
X4.9708Y-5.5998
X4.9916Y-8.0443
X4.9925Y-3.48
X4.9966Y-3.5743
X4.9966Y-3.8493
X5.0016Y-7.7793
X5.005Y-5.805
X5.0066Y-7.1743
X5.0066Y-7.4443
X5.015Y-3.315
X5.055Y-5.6941
X5.1Y-2.7675
X5.105Y-7.5893
X5.125Y-7.5593
X5.165Y-9.005
X5.1666Y-7.8443
X5.17Y-2.97
X5.17Y-3.195
X5.175Y-2.9
X5.175Y-3.015
X5.18Y-3.1495
X5.185Y-3.055
X5.185Y-3.48
X5.1855Y-3.08
X5.195Y-2.875
X5.195Y-9.025
X5.215Y-7.8443
X5.225Y-8.95
X5.23Y-3.39
X5.24Y-2.935
X5.25Y-3.28
X5.255Y-2.695
X5.255Y-3.035
X5.255Y-3.135
X5.26Y-3.205
X5.26Y-4.54
X5.26Y-4.615
X5.26Y-4.69
X5.26Y-4.765
X5.26Y-6.03
X5.26Y-9.15
X5.27Y-8.955
X5.28Y-4.83
X5.2816Y-7.8443
X5.285Y-2.92
X5.285Y-4.48
X5.295Y-3.435
X5.3Y-5.98
X5.31Y-2.92
X5.31Y-7.02
X5.31Y-7.095
X5.31Y-7.17
X5.31Y-7.235
X5.3116Y-6.6643
X5.315Y-8.815
X5.3266Y-7.8443
X5.33Y-6.86
X5.3316Y-6.9643
X5.335Y-2.77
X5.335Y-6.1
X5.335Y-7.695
X5.335Y-8.95
X5.335Y-9.15
X5.335Y-8.6793
X5.34Y-6.145
X5.3416Y-8.5043
X5.3416Y-8.6143
X5.3466Y-4.9893
X5.3698Y-3.0
X5.37Y-4.655
X5.37Y-2.875
X5.38Y-3.21
X5.38Y-3.285
X5.38Y-3.395
X5.3866Y-7.3893
X5.3916Y-6.7443
X5.395Y-4.39
X5.3966Y-7.5893
X5.4025Y-2.705
X5.4066Y-5.8543
X5.41Y-3.275
X5.41Y-9.15
X5.4148Y-4.625
X5.415Y-5.99
X5.415Y-7.5593
X5.42Y-7.06
X5.425Y-2.86
X5.4266Y-4.9093
X5.43Y-4.425
X5.4315Y-9.0665
X5.435Y-3.275
X5.435Y-4.7
X5.44Y-4.625
X5.4416Y-7.7743
X5.4418Y-8.68
X5.4418Y-8.95
X5.445Y-3.46
X5.445Y-4.89
X5.45Y-2.86
X5.45Y-6.805
X5.4518Y-8.66
X5.4518Y-8.97
X5.455Y-4.73
X5.455Y-7.32
X5.455Y-8.815
X5.4648Y-7.02
X5.465Y-3.115
X5.465Y-3.205
X5.465Y-4.585
X5.465Y-4.87
X5.465Y-8.68
X5.465Y-8.95
X5.4666Y-7.9393
X5.47Y-3.035
X5.47Y-4.465
X5.47Y-4.71
X5.4716Y-7.7743
X5.475Y-8.66
X5.475Y-8.97
X5.4775Y-2.705
X5.48Y-6.835
X5.485Y-4.73
X5.485Y-6.5942
X5.4866Y-6.5293
X5.4866Y-7.0943
X5.49Y-4.49
X5.49Y-4.52
X5.49Y-4.585
X5.49Y-4.795
X5.49Y-4.825
X5.49Y-7.02
X5.49Y-7.285
X5.495Y-4.71
X5.5Y-9.06
X5.5016Y-3.9193
X5.5016Y-4.0393
X5.5048Y-7.1239
X5.5066Y-5.5643
X5.5066Y-7.8293
X5.51Y-6.865
X5.5116Y-7.7643
X5.5168Y-7.105
X5.52Y-4.49
X5.52Y-4.52
X5.52Y-4.795
X5.52Y-4.825
X5.52Y-7.255
X5.5216Y-6.4443
X5.5228Y-6.984
X5.525Y-3.135
X5.525Y-7.46
X5.5266Y-5.6043
X5.5266Y-7.8843
X5.529Y-7.1239
X5.5316Y-7.7893
X5.535Y-3.255
X5.535Y-5.7529
X5.535Y-5.8809
X5.535Y-5.91
X5.535Y-5.9421
X5.535Y-6.645
X5.535Y-6.675
X5.535Y-9.11
X5.5354Y-6.6
X5.5366Y-5.0093
X5.5377Y-9.04
X5.5377Y-9.065
X5.539Y-7.105
X5.54Y-4.3
X5.54Y-4.37
X5.54Y-6.89
X5.54Y-6.92
X5.54Y-7.19
X5.54Y-7.22
X5.545Y-6.5172
X5.545Y-6.5489
X5.545Y-6.9861
X5.545Y-8.6967
X5.545Y-8.8148
X5.5475Y-8.7558
X5.5475Y-8.8739
X5.5475Y-8.933
X5.55Y-2.445
X5.55Y-7.46
X5.5525Y-2.705
X5.555Y-3.04
X5.5574Y-8.97
X5.56Y-5.99
X5.5616Y-8.5443
X5.5631Y-3.455
X5.565Y-5.855
X5.57Y-6.89
X5.57Y-6.92
X5.57Y-7.19
X5.57Y-7.22
X5.57Y-7.385
X5.575Y-2.86
X5.575Y-3.195
X5.575Y-4.32
X5.575Y-4.445
X5.575Y-4.47
X5.575Y-4.575
X5.575Y-4.625
X5.575Y-4.685
X5.575Y-4.735
X5.575Y-9.04
X5.58Y-4.825
X5.58Y-4.85
X5.58Y-8.32
X5.59Y-6.695
X5.595Y-9.095
X5.6Y-3.22
X5.6Y-4.84
X5.6Y-4.865
X5.6Y-9.04
X5.605Y-2.86
X5.605Y-4.47
X5.605Y-6.815
X5.61Y-3.62
X5.61Y-3.655
X5.61Y-3.76
X5.61Y-3.79
X5.61Y-6.745
X5.6164Y-8.97
X5.62Y-2.445
X5.625Y-3.165
X5.625Y-4.575
X5.625Y-4.625
X5.625Y-4.685
X5.625Y-4.735
X5.625Y-5.11
X5.625Y-6.975
X5.625Y-7.025
X5.625Y-7.085
X5.625Y-7.135
X5.625Y-9.165
X5.6255Y-4.49
X5.6275Y-2.705
X5.63Y-4.425
X5.63Y-4.455
X5.6316Y-5.1993
X5.6348Y-6.86
X5.635Y-6.755
X5.635Y-6.885
X5.635Y-7.23
X5.635Y-7.26
X5.635Y-8.325
X5.6361Y-8.565
X5.6361Y-9.038
X5.6361Y-9.062
X5.6366Y-7.6193
X5.6366Y-7.6643
X5.64Y-3.12
X5.64Y-7.782
X5.64Y-7.8076
X5.64Y-7.8588
X5.64Y-8.1428
X5.645Y-3.57
X5.645Y-6.4404
X5.645Y-8.04
X5.645Y-8.1734
X5.645Y-8.295
X5.645Y-8.745
X5.645Y-8.785
X5.645Y-8.825
X5.645Y-8.865
X5.6475Y-6.3892
X5.6475Y-8.2196
X5.6475Y-8.255
X5.65Y-3.255
X5.65Y-5.11
X5.65Y-6.595
X5.65Y-7.99
X5.65Y-8.535
X5.655Y-4.835
X5.655Y-4.86
X5.655Y-7.215
X5.655Y-7.245
X5.6558Y-8.64
X5.6558Y-8.97
X5.6566Y-7.6443
X5.66Y-5.755
X5.66Y-5.93
X5.66Y-7.8332
X5.665Y-3.04
X5.665Y-5.96
X5.675Y-6.975
X5.675Y-7.025
X5.675Y-7.085
X5.675Y-7.135
X5.675Y-8.55
X5.675Y-8.575
X5.675Y-9.165
X5.6755Y-9.039
X5.6755Y-9.063
X5.68Y-8.01
X5.685Y-4.575
X5.685Y-4.625
X5.685Y-4.685
X5.685Y-4.735
X5.685Y-8.745
X5.685Y-8.785
X5.685Y-8.825
X5.685Y-8.865
X5.69Y-4.295
X5.69Y-4.445
X5.69Y-4.47
X5.6916Y-6.4743
X5.6916Y-6.5593
X5.6968Y-5.6043
X5.697Y-8.535
X5.705Y-4.87
X5.71Y-7.225
X5.71Y-7.25
X5.7166Y-7.5943
X5.72Y-9.17
X5.725Y-8.745
X5.725Y-8.785
X5.725Y-8.825
X5.725Y-8.865
X5.735Y-3.015
X5.735Y-4.575
X5.735Y-4.625
X5.735Y-4.685
X5.735Y-4.735
X5.735Y-4.895
X5.735Y-6.864
X5.735Y-6.89
X5.735Y-6.975
X5.735Y-7.025
X5.735Y-7.085
X5.735Y-7.135
X5.735Y-8.31
X5.735Y-9.09
X5.7375Y-3.5425
X5.74Y-4.995
X5.7416Y-7.5743
X5.745Y-5.995
X5.7495Y-6.12
X5.75Y-8.0148
X5.755Y-6.84
X5.755Y-7.24
X5.755Y-7.265
X5.76Y-2.995
X5.76Y-7.755
X5.76Y-9.09
X5.765Y-4.405
X5.765Y-4.43
X5.765Y-6.3792
X5.765Y-6.4148
X5.765Y-7.6285
X5.765Y-8.245
X5.765Y-8.745
X5.765Y-8.785
X5.765Y-8.825
X5.765Y-8.865
X5.77Y-7.9892
X5.775Y-7.385
X5.775Y-7.88
X5.775Y-7.91
X5.775Y-9.06
X5.78Y-6.84
X5.78Y-7.6541
X5.785Y-2.9711
X5.785Y-6.975
X5.785Y-7.025
X5.785Y-7.085
X5.785Y-7.135
X5.79Y-4.49
X5.79Y-4.52
X5.79Y-4.79
X5.79Y-4.82
X5.7975Y-5.77
X5.8Y-6.07
X5.8Y-8.47
X5.8Y-9.06
X5.8016Y-5.2493
X5.82Y-4.49
X5.82Y-4.52
X5.82Y-4.79
X5.82Y-4.82
X5.825Y-8.47
X5.8366Y-7.4293
X5.8366Y-7.4693
X5.8366Y-7.5093
X5.84Y-6.89
X5.84Y-6.92
X5.84Y-7.19
X5.84Y-7.215
X5.845Y-4.85
X5.845Y-4.875
X5.845Y-7.27
X5.845Y-7.295
X5.845Y-6.81
X5.85Y-4.75
X5.85Y-4.775
X5.85Y-4.81
X5.855Y-4.45
X5.855Y-4.475
X5.855Y-4.51
X5.855Y-8.505
X5.855Y-8.53
X5.86Y-4.665
X5.86Y-4.69
X5.865Y-5.07
X5.865Y-8.795
X5.8666Y-5.095
X5.8666Y-5.1243
X5.8666Y-5.1543
X5.8692Y-8.28
X5.87Y-6.89
X5.87Y-6.92
X5.87Y-7.19
X5.87Y-7.215
X5.87Y-8.1172
X5.87Y-8.1684
X5.87Y-8.22
X5.875Y-6.466
X5.875Y-6.5684
X5.875Y-7.755
X5.875Y-9.17
X5.8754Y-7.8597
X5.8766Y-7.8243
X5.8766Y-7.8943
X5.88Y-6.68
X5.89Y-6.595
X5.89Y-8.0916
X5.89Y-8.1428
X5.89Y-8.194
X5.895Y-5.6
X5.895Y-6.9
X5.895Y-7.14
X5.895Y-7.165
X5.895Y-7.195
X5.895Y-8.555
X5.895Y-8.58
X5.8975Y-3.6553
X5.8984Y-3.595
X5.8984Y-3.69
X5.905Y-6.845
X5.905Y-6.87
X5.905Y-6.93
X5.905Y-6.955
X5.905Y-7.23
X5.905Y-7.255
X5.9095Y-3.445
X5.91Y-7.69
X5.9116Y-8.0343
X5.9128Y-6.09
X5.92Y-6.9
X5.92Y-7.195
X5.92Y-9.005
X5.92Y-9.03
X5.933Y-7.61
X5.9344Y-5.53
X5.95Y-8.7513
X5.95Y-8.7763
X5.96Y-5.78
X5.96Y-7.365
X5.96Y-7.5196
X5.96Y-7.5708
X5.96Y-8.31
X5.96Y-8.84
X5.96Y-8.865
X5.96Y-9.04
X5.96Y-9.065
X5.9616Y-7.4893
X5.965Y-6.715
X5.965Y-7.15
X5.965Y-7.31
X5.965Y-8.595
X5.965Y-8.62
X5.9716Y-3.53
X5.975Y-4.525
X5.975Y-4.55
X5.9766Y-2.8843
X5.977Y-7.61
X5.98Y-7.545
X5.98Y-8.8
X5.985Y-3.62
X5.985Y-3.665
X5.9975Y-5.8175
X5.9975Y-6.095
X6.0016Y-7.4693
X6.005Y-8.8
X6.01Y-5.448
X6.0116Y-2.8843
X6.015Y-8.675
X6.015Y-8.7
X6.0266Y-7.4443
X6.035Y-3.185
X6.035Y-3.62
X6.035Y-3.665
X6.0366Y-3.0193
X6.04Y-7.61
X6.0466Y-2.8843
X6.05Y-5.415
X6.0506Y-5.53
X6.0516Y-7.415
X6.0584Y-3.76
X6.07Y-7.71
X6.07Y-7.78
X6.0709Y-6.12
X6.0716Y-3.0193
X6.075Y-7.39
X6.08Y-7.57
X6.08Y-7.61
X6.085Y-3.48
X6.09Y-8.77
X6.095Y-5.6
X6.0975Y-3.22
X6.0975Y-5.2808
X6.105Y-6.96
X6.1066Y-3.0193
X6.11Y-5.205
X6.11Y-7.065
X6.11Y-7.09
X6.115Y-6.175
X6.115Y-6.67
X6.115Y-6.745
X6.1219Y-4.07
X6.1225Y-3.6553
X6.13Y-3.7
X6.13Y-8.475
X6.13Y-8.7315
X6.1325Y-3.605
X6.1369Y-5.53
X6.14Y-6.0122
X6.14Y-6.135
X6.15Y-3.4775
X6.16Y-6.96
X6.17Y-9.265
X6.1716Y-7.9693
X6.18Y-8.475
X6.185Y-7.29
X6.185Y-7.32
X6.185Y-7.4172
X6.185Y-7.4684
X6.185Y-7.5196
X6.1866Y-5.2943
X6.1866Y-5.3343
X6.1866Y-5.3943
X6.2Y-7.3916
X6.2Y-7.4428
X6.2125Y-3.155
X6.215Y-6.96
X6.215Y-7.695
X6.215Y-8.7985
X6.2166Y-7.8993
X6.22Y-5.165
X6.22Y-5.135
X6.2216Y-7.9893
X6.225Y-7.495
X6.23Y-8.475
X6.2475Y-3.22
X6.25Y-4.07
X6.2516Y-5.4943
X6.2531Y-5.53
X6.26Y-7.555
X6.2616Y-7.3593
X6.2616Y-7.9643
X6.265Y-7.63
X6.265Y-7.705
X6.265Y-7.78
X6.27Y-6.54
X6.28Y-8.475
X6.2816Y-6.3343
X6.285Y-4.108
X6.285Y-5.49
X6.295Y-6.62
X6.295Y-7.1643
X6.295Y-9.265
X6.304Y-7.44
X6.305Y-5.08
X6.3066Y-7.8993
X6.325Y-3.715
X6.325Y-6.215
X6.3275Y-3.6
X6.33Y-6.96
X6.33Y-8.475
X6.3325Y-5.5425
X6.335Y-3.8915
X6.335Y-3.92
X6.335Y-4.16
X6.335Y-5.205
X6.3415Y-3.255
X6.3566Y-6.3343
X6.3566Y-6.4843
X6.36Y-6.24
X6.38Y-3.655
X6.38Y-3.7675
X6.38Y-8.475
X6.3825Y-3.5425
X6.385Y-8.02
X6.39Y-4.108
X6.415Y-5.21
X6.415Y-6.96
X6.43Y-5.68
X6.43Y-8.475
X6.4316Y-6.3343
X6.46Y-8.02
X6.48Y-8.475
X6.49Y-7.305
X6.49Y-8.975
X6.4916Y-8.8643
X6.4966Y-7.7743
X6.5066Y-6.3343
X6.5066Y-6.4843
X6.515Y-5.16
X6.515Y-7.705
X6.5166Y-5.2543
X6.5216Y-7.7893
X6.5265Y-7.38
X6.53Y-6.1428
X6.53Y-8.475
X6.5316Y-3.4443
X6.5316Y-6.0993
X6.533Y-5.595
X6.535Y-8.02
X6.54Y-5.535
X6.5425Y-3.59
X6.5428Y-3.665
X6.5434Y-3.7
X6.5466Y-7.2343
X6.55Y-7.795
X6.56Y-7.395
X6.565Y-4.23
X6.565Y-4.305
X6.565Y-5.565
X6.565Y-6.71
X6.57Y-5.925
X6.575Y-7.815
X6.58Y-8.475
X6.5816Y-6.3343
X6.585Y-7.97
X6.5935Y-7.38
X6.6016Y-7.2343
X6.605Y-5.68
X6.6066Y-5.9843
X6.61Y-8.02
X6.62Y-7.395
X6.625Y-5.115
X6.625Y-5.15
X6.635Y-7.82
X6.635Y-3.62
X6.635Y-3.665
X6.6366Y-5.9843
X6.645Y-5.715
X6.6566Y-6.3343
X6.6566Y-6.4843
X6.6566Y-7.2343
X6.66Y-6.96
X6.6685Y-4.3425
X6.68Y-3.44
X6.68Y-5.805
X6.68Y-8.475
X6.685Y-5.713
X6.685Y-8.02
X6.685Y-3.62
X6.685Y-3.665
X6.6916Y-5.9993
X6.695Y-7.755
X6.6975Y-3.525
X6.7075Y-3.7591
X6.7116Y-7.2343
X6.72Y-5.51
X6.72Y-5.845
X6.72Y-5.925
X6.725Y-7.755
X6.73Y-8.475
X6.735Y-7.805
X6.74Y-7.995
X6.745Y-5.875
X6.745Y-6.1
X6.75Y-5.925
X6.7515Y-4.3425
X6.755Y-6.85
X6.755Y-6.96
X6.7552Y-2.54
X6.76Y-7.255
X6.76Y-7.405
X6.76Y-7.705
X6.7725Y-3.6809
X6.78Y-3.555
X6.78Y-5.875
X6.78Y-8.475
X6.805Y-7.81
X6.81Y-5.43
X6.81Y-6.85
X6.8142Y-2.54
X6.83Y-8.475
X6.835Y-7.255
X6.835Y-7.59
X6.84Y-6.96
X6.8475Y-5.705
X6.85Y-5.2783
X6.855Y-5.2075
X6.87Y-6.85
X6.8725Y-7.93
X6.8733Y-2.54
X6.88Y-8.475
X6.885Y-4.605
X6.885Y-4.655
X6.905Y-4.35
X6.91Y-7.255
X6.91Y-7.405
X6.92Y-7.61
X6.92Y-7.76
X6.9238Y-6.093
X6.925Y-6.85
X6.925Y-6.96
X6.93Y-2.54
X6.93Y-8.475
X6.9318Y-5.876
X6.935Y-5.3425
X6.9366Y-5.2943
X6.9366Y-5.3893
X6.945Y-5.725
X6.945Y-7.93
X6.9543Y-5.876
X6.9688Y-3.71
X6.97Y-6.675
X6.9708Y-3.5971
X6.975Y-5.595
X6.98Y-8.475
X6.995Y-6.61
X7.01Y-5.2075
X7.02Y-6.645
X7.0225Y-4.305
X7.0225Y-7.93
X7.0266Y-3.6543
X7.0266Y-3.7693
X7.0266Y-6.3293
X7.03Y-8.475
X7.035Y-4.84
X7.0366Y-5.3493
X7.0366Y-5.3793
X7.0366Y-5.4143
X7.0366Y-5.4393
X7.037Y-5.32
X7.055Y-6.85
X7.055Y-6.96
X7.07Y-2.685
X7.0716Y-7.7793
X7.0766Y-7.6793
X7.0766Y-7.7293
X7.08Y-8.475
X7.085Y-5.405
X7.095Y-5.595
X7.095Y-7.83
X7.0975Y-4.305
X7.0975Y-7.93
X7.1Y-5.7215
X7.11Y-4.84
X7.11Y-6.275
X7.13Y-8.475
X7.1366Y-4.6043
X7.1366Y-4.6543
X7.1416Y-4.5043
X7.15Y-6.96
X7.17Y-8.505
X7.195Y-2.78
X7.195Y-7.68
X7.205Y-7.765
X7.205Y-7.8
X7.21Y-7.655
X7.235Y-2.72
X7.2416Y-4.4293
X7.245Y-4.735
X7.245Y-4.8
X7.29Y-8.065
X7.2916Y-4.6043
X7.2916Y-4.6543
X7.32Y-7.935
X7.32Y-7.965
X7.325Y-7.6529
X7.33Y-7.86
X7.33Y-8.045
X7.36Y-9.015
X7.385Y-7.97
X7.405Y-7.89
X7.425Y-7.835
X7.43Y-7.7041
X7.43Y-7.76
X7.4435Y-7.65
X7.445Y-7.73
X7.46Y-4.19
X7.49Y-4.09
X7.49Y-7.65
X7.5566Y-4.1143
X7.5566Y-7.0293
X7.565Y-7.65
X7.57Y-4.245
X7.57Y-4.385
X7.57Y-4.6
X7.5725Y-6.1465
X7.575Y-9.0475
X7.5766Y-7.4643
X7.58Y-8.905
X7.5816Y-7.1943
X7.5916Y-4.2193
X7.6116Y-4.1893
X7.6216Y-4.1393
X7.675Y-4.375
X7.76Y-4.3631
X7.76Y-5.115
X7.76Y-6.015
X7.76Y-7.319
X7.76Y-7.369
X7.76Y-7.469
X7.76Y-7.519
X7.76Y-7.619
X7.76Y-7.669
X7.76Y-8.8309
X7.76Y-8.8559
X7.7606Y-4.5131
X7.7606Y-4.6631
X7.7606Y-4.8131
X7.7606Y-4.9631
X7.7606Y-5.2631
X7.7606Y-5.4131
X7.7606Y-5.5631
X7.7606Y-5.7131
X7.7606Y-5.8631
X7.7606Y-6.1631
X7.7606Y-7.069
X7.7606Y-7.119
X7.7606Y-7.269
X7.7606Y-7.419
X7.7606Y-7.569
X7.7606Y-7.719
X7.7606Y-7.819
X7.7606Y-7.869
X7.7606Y-7.919
X7.7606Y-8.019
X7.7606Y-8.169
X7.7606Y-8.319
X7.7606Y-8.469
X7.7606Y-8.619
X7.7606Y-8.769
X7.7606Y-8.919
X7.7616Y-4.3143
X7.87Y-4.3131
X7.87Y-4.4131
X7.87Y-4.5631
X7.87Y-4.6131
X7.87Y-4.7131
X7.87Y-4.7631
X7.87Y-4.8131
X7.87Y-4.8631
X7.87Y-4.9131
X7.87Y-4.9631
X7.87Y-5.0131
X7.87Y-5.115
X7.87Y-5.1631
X7.87Y-5.265
X7.87Y-5.315
X7.87Y-5.415
X7.87Y-5.465
X7.87Y-5.615
X7.87Y-5.715
X7.87Y-5.765
X7.87Y-5.865
X7.87Y-5.915
X7.87Y-6.015
X7.87Y-6.0631
X7.87Y-6.1131
X7.87Y-6.2631
X7.87Y-7.069
X7.87Y-7.119
X7.87Y-7.169
X7.87Y-7.319
X7.87Y-7.469
X7.87Y-7.619
X7.87Y-7.669
X7.87Y-7.719
X7.87Y-7.769
X7.87Y-7.819
X7.87Y-7.869
X7.87Y-7.919
X7.87Y-8.019
X7.87Y-8.069
X7.87Y-8.169
X7.87Y-8.22
X7.87Y-8.3209
X7.87Y-8.369
X7.87Y-8.4709
X7.87Y-8.519
X7.87Y-8.6209
X7.87Y-8.669
X7.87Y-8.7709
X7.87Y-8.819
X7.87Y-8.869
X7.87Y-9.019
X7.8706Y-7.519
X7.8706Y-7.569
X7.8716Y-4.3643
X7.8716Y-7.9693
X7.895Y-5.115
X7.895Y-5.265
X7.895Y-5.415
X7.895Y-5.715
X7.895Y-5.865
X7.895Y-6.015
X7.895Y-8.3209
X7.895Y-8.4709
X7.895Y-8.6209
X7.895Y-8.7709
X7.96Y-5.0131
X7.96Y-5.215
X7.96Y-5.275
X7.96Y-5.3
X7.96Y-5.575
X7.96Y-5.6
X7.96Y-5.725
X7.96Y-5.75
X7.96Y-5.815
X7.96Y-5.875
X7.96Y-5.9
X7.96Y-7.519
X7.96Y-7.569
X7.96Y-7.719
X7.96Y-8.0309
X7.96Y-8.0559
X7.96Y-8.1809
X7.96Y-8.2059
X7.96Y-8.3309
X7.96Y-8.3559
X7.96Y-8.4809
X7.96Y-8.5059
X7.9606Y-4.3631
X7.9606Y-4.4631
X7.9606Y-4.5631
X7.9606Y-4.7131
X7.9606Y-4.7631
X7.9606Y-4.8131
X7.9606Y-4.9131
X7.9606Y-5.0631
X7.9606Y-5.3631
X7.9606Y-5.5131
X7.9606Y-5.6631
X7.9606Y-5.9631
X7.9606Y-6.0131
X7.9606Y-6.1631
X7.9606Y-6.2131
X7.9606Y-7.069
X7.9606Y-7.119
X7.9606Y-7.169
X7.9606Y-7.219
X7.9606Y-7.269
X7.9606Y-7.669
X7.9606Y-7.819
X7.9606Y-7.869
X7.9606Y-7.919
X7.9606Y-7.969
X7.9606Y-8.119
X7.9606Y-8.269
X7.9606Y-8.419
X7.9606Y-8.569
X7.9606Y-8.719
X7.9606Y-8.769
X7.9606Y-8.919
X7.9606Y-8.969
X7.9616Y-4.9643
X7.99Y-6.765
X7.99Y-6.855
X7.99Y-6.825
X7.99Y-6.885
X7.9925Y-6.5428
X7.9925Y-6.6925
X7.995Y-6.61
X8.0478Y-6.49
X8.07Y-4.3131
X8.07Y-4.4131
X8.07Y-4.5131
X8.07Y-4.6131
X8.07Y-4.6631
X8.07Y-4.7131
X8.07Y-4.7631
X8.07Y-4.8131
X8.07Y-4.8631
X8.07Y-4.9131
X8.07Y-4.9631
X8.07Y-5.0631
X8.07Y-5.1131
X8.07Y-5.215
X8.07Y-5.2631
X8.07Y-5.3131
X8.07Y-5.375
X8.07Y-5.4
X8.07Y-5.4631
X8.07Y-5.5131
X8.07Y-5.615
X8.07Y-5.6631
X8.07Y-5.7131
X8.07Y-5.815
X8.07Y-5.8631
X8.07Y-5.9131
X8.07Y-6.0631
X8.07Y-6.1131
X8.07Y-6.2631
X8.07Y-7.069
X8.07Y-7.119
X8.07Y-7.169
X8.07Y-7.269
X8.07Y-7.419
X8.07Y-7.469
X8.07Y-7.619
X8.07Y-7.669
X8.07Y-7.719
X8.07Y-7.769
X8.07Y-7.819
X8.07Y-7.869
X8.07Y-7.919
X8.07Y-7.969
X8.07Y-8.019
X8.07Y-8.069
X8.07Y-8.1709
X8.07Y-8.219
X8.07Y-8.269
X8.07Y-8.3709
X8.07Y-8.419
X8.07Y-8.469
X8.07Y-8.5709
X8.07Y-8.619
X8.07Y-8.669
X8.07Y-8.819
X8.07Y-8.869
X8.07Y-9.019
X8.0716Y-5.0143
X8.0766Y-7.2193
X8.0766Y-7.3193
X8.085Y-6.635
X8.095Y-5.215
X8.095Y-5.615
X8.095Y-5.815
X8.095Y-8.1709
X8.095Y-8.3709
X8.095Y-8.5709
X8.1016Y-4.4643
X8.1016Y-4.5643
X8.115Y-6.635
X8.125Y-6.895
X8.125Y-6.92
X8.14Y-6.5278
X8.14Y-6.5625
X8.1566Y-4.4643
X8.1566Y-4.5643
X8.1566Y-7.2193
X8.1566Y-7.3193
X8.1716Y-6.8093
X8.1766Y-6.6943
X8.1766Y-6.7643
X8.18Y-6.495
X8.1825Y-6.6
T3
X6.59Y-7.535
X6.59Y-7.57
X6.59Y-7.605
X6.59Y-7.64
X6.625Y-7.535
X6.625Y-7.57
X6.625Y-7.605
X6.625Y-7.64
X6.66Y-7.535
X6.66Y-7.57
X6.66Y-7.605
X6.66Y-7.64
X6.695Y-7.535
X6.695Y-7.57
X6.695Y-7.605
X6.695Y-7.64
T4
X5.735Y-2.685
X5.735Y-2.785
X5.835Y-2.685
X5.835Y-2.785
X5.935Y-2.685
X5.935Y-2.785
X6.035Y-2.685
X6.035Y-2.785
X6.135Y-2.685
X6.135Y-2.785
X6.235Y-2.685
X6.235Y-2.785
X6.335Y-2.685
X6.335Y-2.785
X6.585Y-8.9143
X6.585Y-9.0143
X6.685Y-8.9143
X6.685Y-9.0143
X6.785Y-8.9143
X6.785Y-9.0143
X6.885Y-8.9143
X6.885Y-9.0143
X6.985Y-8.9143
X6.985Y-9.0143
X7.085Y-8.9143
X7.085Y-9.0143
X7.185Y-8.9143
X7.185Y-9.0143
T5
X6.4843Y-2.445
X6.4843Y-2.545
T6
X6.6134Y-2.3747
X6.6371Y-2.5696
X7.2079Y-2.5696
X7.2315Y-2.3747
T7
X4.16Y-2.5741
X4.16Y-3.1741
X4.16Y-3.7741
X4.16Y-4.3741
X4.16Y-4.9741
X4.16Y-5.5741
X4.16Y-6.1741
X4.16Y-6.7741
X4.16Y-7.3741
X4.16Y-7.9741
X4.16Y-8.5741
X4.16Y-9.1741
T8
X4.06Y-2.4741
X4.06Y-2.6741
X4.06Y-3.0741
X4.06Y-3.2741
X4.06Y-3.6741
X4.06Y-3.8741
X4.06Y-4.2741
X4.06Y-4.4741
X4.06Y-4.8741
X4.06Y-5.0741
X4.06Y-5.4741
X4.06Y-5.6741
X4.06Y-6.0741
X4.06Y-6.2741
X4.06Y-6.6741
X4.06Y-6.8741
X4.06Y-7.2741
X4.06Y-7.4741
X4.06Y-7.8741
X4.06Y-8.0741
X4.06Y-8.4741
X4.06Y-8.6741
X4.06Y-9.0741
X4.06Y-9.2741
X4.26Y-2.4741
X4.26Y-2.6741
X4.26Y-3.0741
X4.26Y-3.2741
X4.26Y-3.6741
X4.26Y-3.8741
X4.26Y-4.2741
X4.26Y-4.4741
X4.26Y-4.8741
X4.26Y-5.0741
X4.26Y-5.4741
X4.26Y-5.6741
X4.26Y-6.0741
X4.26Y-6.2741
X4.26Y-6.6741
X4.26Y-6.8741
X4.26Y-7.2741
X4.26Y-7.4741
X4.26Y-7.8741
X4.26Y-8.0741
X4.26Y-8.4741
X4.26Y-8.6741
X4.26Y-9.0741
X4.26Y-9.2741
T9
X5.2116Y-8.0593
X5.4116Y-3.7093
X5.4566Y-5.3393
X7.8366Y-4.0481
X7.8366Y-6.5288
X7.8366Y-6.8044
X7.8366Y-9.2843
M30
