%TF.GenerationSoftware,KiCad,Pcbnew,8.0.5*%
%TF.CreationDate,2024-11-23T04:47:03-08:00*%
%TF.ProjectId,zest,7a657374-2e6b-4696-9361-645f70636258,rev?*%
%TF.SameCoordinates,Original*%
%TF.FileFunction,Paste,Top*%
%TF.FilePolarity,Positive*%
%FSLAX46Y46*%
G04 Gerber Fmt 4.6, Leading zero omitted, Abs format (unit mm)*
G04 Created by KiCad (PCBNEW 8.0.5) date 2024-11-23 04:47:03*
%MOMM*%
%LPD*%
G01*
G04 APERTURE LIST*
G04 Aperture macros list*
%AMRoundRect*
0 Rectangle with rounded corners*
0 $1 Rounding radius*
0 $2 $3 $4 $5 $6 $7 $8 $9 X,Y pos of 4 corners*
0 Add a 4 corners polygon primitive as box body*
4,1,4,$2,$3,$4,$5,$6,$7,$8,$9,$2,$3,0*
0 Add four circle primitives for the rounded corners*
1,1,$1+$1,$2,$3*
1,1,$1+$1,$4,$5*
1,1,$1+$1,$6,$7*
1,1,$1+$1,$8,$9*
0 Add four rect primitives between the rounded corners*
20,1,$1+$1,$2,$3,$4,$5,0*
20,1,$1+$1,$4,$5,$6,$7,0*
20,1,$1+$1,$6,$7,$8,$9,0*
20,1,$1+$1,$8,$9,$2,$3,0*%
G04 Aperture macros list end*
%ADD10C,0.000000*%
%ADD11RoundRect,0.225000X0.250000X-0.225000X0.250000X0.225000X-0.250000X0.225000X-0.250000X-0.225000X0*%
%ADD12RoundRect,0.225000X-0.250000X0.225000X-0.250000X-0.225000X0.250000X-0.225000X0.250000X0.225000X0*%
%ADD13RoundRect,0.140000X0.170000X-0.140000X0.170000X0.140000X-0.170000X0.140000X-0.170000X-0.140000X0*%
%ADD14RoundRect,0.140000X0.140000X0.170000X-0.140000X0.170000X-0.140000X-0.170000X0.140000X-0.170000X0*%
%ADD15R,0.990600X1.041400*%
%ADD16R,1.041400X2.209800*%
%ADD17RoundRect,0.200000X-0.275000X0.200000X-0.275000X-0.200000X0.275000X-0.200000X0.275000X0.200000X0*%
%ADD18RoundRect,0.200000X-0.200000X-0.275000X0.200000X-0.275000X0.200000X0.275000X-0.200000X0.275000X0*%
%ADD19RoundRect,0.200000X0.200000X0.275000X-0.200000X0.275000X-0.200000X-0.275000X0.200000X-0.275000X0*%
%ADD20R,0.249999X0.599999*%
%ADD21R,0.599999X0.249999*%
%ADD22R,0.274600X0.804800*%
%ADD23R,0.804800X0.274600*%
%ADD24R,5.700001X5.700001*%
%ADD25RoundRect,0.225000X0.225000X0.250000X-0.225000X0.250000X-0.225000X-0.250000X0.225000X-0.250000X0*%
%ADD26R,2.489200X2.260600*%
%ADD27RoundRect,0.225000X-0.225000X-0.250000X0.225000X-0.250000X0.225000X0.250000X-0.225000X0.250000X0*%
%ADD28RoundRect,0.218750X0.256250X-0.218750X0.256250X0.218750X-0.256250X0.218750X-0.256250X-0.218750X0*%
%ADD29RoundRect,0.218750X0.381250X-0.218750X0.381250X0.218750X-0.381250X0.218750X-0.381250X-0.218750X0*%
%ADD30RoundRect,0.200000X0.275000X-0.200000X0.275000X0.200000X-0.275000X0.200000X-0.275000X-0.200000X0*%
%ADD31RoundRect,0.218750X-0.381250X0.218750X-0.381250X-0.218750X0.381250X-0.218750X0.381250X0.218750X0*%
%ADD32RoundRect,0.200000X0.052423X-0.335971X0.335779X-0.053643X-0.052423X0.335971X-0.335779X0.053643X0*%
%ADD33RoundRect,0.200000X-0.335876X-0.053033X-0.053033X-0.335876X0.335876X0.053033X0.053033X0.335876X0*%
%ADD34RoundRect,0.190000X-0.635000X-0.190000X0.635000X-0.190000X0.635000X0.190000X-0.635000X0.190000X0*%
%ADD35R,0.558800X1.320800*%
%ADD36RoundRect,0.218750X-0.256250X0.218750X-0.256250X-0.218750X0.256250X-0.218750X0.256250X0.218750X0*%
%ADD37RoundRect,0.218750X0.218750X0.256250X-0.218750X0.256250X-0.218750X-0.256250X0.218750X-0.256250X0*%
%ADD38R,0.330200X1.905000*%
%ADD39C,0.640000*%
%ADD40R,0.450800X1.111200*%
%ADD41RoundRect,0.140000X-0.170000X0.140000X-0.170000X-0.140000X0.170000X-0.140000X0.170000X0.140000X0*%
%ADD42RoundRect,0.140000X-0.140000X-0.170000X0.140000X-0.170000X0.140000X0.170000X-0.140000X0.170000X0*%
%ADD43RoundRect,0.250000X-0.312500X-0.625000X0.312500X-0.625000X0.312500X0.625000X-0.312500X0.625000X0*%
%ADD44RoundRect,0.218750X-0.218750X-0.381250X0.218750X-0.381250X0.218750X0.381250X-0.218750X0.381250X0*%
%ADD45RoundRect,0.218750X-0.218750X-0.256250X0.218750X-0.256250X0.218750X0.256250X-0.218750X0.256250X0*%
%ADD46RoundRect,0.218750X0.218750X0.381250X-0.218750X0.381250X-0.218750X-0.381250X0.218750X-0.381250X0*%
%ADD47R,0.965200X0.381000*%
%ADD48R,0.381000X0.965200*%
%ADD49R,2.159000X2.159000*%
%ADD50R,0.876300X0.355600*%
%ADD51RoundRect,0.225000X-0.017678X0.335876X-0.335876X0.017678X0.017678X-0.335876X0.335876X-0.017678X0*%
%ADD52R,1.473200X0.355600*%
%ADD53RoundRect,0.250000X0.650000X-0.325000X0.650000X0.325000X-0.650000X0.325000X-0.650000X-0.325000X0*%
%ADD54R,1.219200X0.660400*%
%ADD55RoundRect,0.200000X0.053033X-0.335876X0.335876X-0.053033X-0.053033X0.335876X-0.335876X0.053033X0*%
%ADD56RoundRect,0.250000X0.325000X0.650000X-0.325000X0.650000X-0.325000X-0.650000X0.325000X-0.650000X0*%
%ADD57R,1.651000X0.762000*%
%ADD58R,0.760000X2.400000*%
%ADD59R,1.981200X0.560800*%
%ADD60R,1.600200X2.209800*%
%ADD61RoundRect,0.250000X-0.650000X0.325000X-0.650000X-0.325000X0.650000X-0.325000X0.650000X0.325000X0*%
%ADD62R,1.676400X0.355600*%
%ADD63R,0.812800X0.304800*%
%ADD64R,1.701800X3.200400*%
%ADD65RoundRect,0.225000X-0.335876X-0.017678X-0.017678X-0.335876X0.335876X0.017678X0.017678X0.335876X0*%
%ADD66R,0.254000X0.812800*%
%ADD67R,0.812800X0.254000*%
%ADD68R,4.699000X4.699000*%
%ADD69RoundRect,0.250000X-0.325000X-0.650000X0.325000X-0.650000X0.325000X0.650000X-0.325000X0.650000X0*%
%ADD70R,1.400000X1.000000*%
%ADD71C,0.812800*%
%ADD72RoundRect,0.175000X0.575000X-0.175000X0.575000X0.175000X-0.575000X0.175000X-0.575000X-0.175000X0*%
%ADD73RoundRect,0.175000X0.175000X-0.575000X0.175000X0.575000X-0.175000X0.575000X-0.175000X-0.575000X0*%
%ADD74RoundRect,0.175000X-0.575000X-0.175000X0.575000X-0.175000X0.575000X0.175000X-0.575000X0.175000X0*%
%ADD75RoundRect,0.175000X0.175000X-1.075000X0.175000X1.075000X-0.175000X1.075000X-0.175000X-1.075000X0*%
%ADD76RoundRect,0.087500X0.087500X-0.187500X0.087500X0.187500X-0.087500X0.187500X-0.087500X-0.187500X0*%
%ADD77RoundRect,0.087500X0.187500X-0.087500X0.187500X0.087500X-0.187500X0.087500X-0.187500X-0.087500X0*%
%ADD78R,1.041400X0.990600*%
%ADD79R,2.209800X1.041400*%
%TA.AperFunction,Profile*%
%ADD80C,0.050800*%
%TD*%
G04 APERTURE END LIST*
D10*
%TO.C,U1002*%
G36*
X182484187Y-66394981D02*
G01*
X182494035Y-66397968D01*
X182503113Y-66402820D01*
X182511068Y-66409350D01*
X182517598Y-66417305D01*
X182522450Y-66426383D01*
X182525437Y-66436231D01*
X182526445Y-66446472D01*
X182526445Y-67391474D01*
X182525437Y-67401715D01*
X182522450Y-67411563D01*
X182517598Y-67420641D01*
X182511068Y-67428596D01*
X182503113Y-67435126D01*
X182494035Y-67439978D01*
X182484187Y-67442965D01*
X182473946Y-67443973D01*
X181528944Y-67443973D01*
X181518703Y-67442965D01*
X181508855Y-67439978D01*
X181499777Y-67435126D01*
X181491822Y-67428596D01*
X181485292Y-67420641D01*
X181480440Y-67411563D01*
X181477453Y-67401715D01*
X181476445Y-67391474D01*
X181476445Y-66446472D01*
X181477453Y-66436231D01*
X181480440Y-66426383D01*
X181485292Y-66417305D01*
X181491822Y-66409350D01*
X181499777Y-66402820D01*
X181508855Y-66397968D01*
X181518703Y-66394981D01*
X181528944Y-66393973D01*
X182473946Y-66393973D01*
X182484187Y-66394981D01*
G37*
G36*
X182484187Y-67644981D02*
G01*
X182494035Y-67647968D01*
X182503113Y-67652820D01*
X182511068Y-67659350D01*
X182517598Y-67667305D01*
X182522450Y-67676383D01*
X182525437Y-67686231D01*
X182526445Y-67696472D01*
X182526445Y-68641474D01*
X182525437Y-68651715D01*
X182522450Y-68661563D01*
X182517598Y-68670641D01*
X182511068Y-68678596D01*
X182503113Y-68685126D01*
X182494035Y-68689978D01*
X182484187Y-68692965D01*
X182473946Y-68693973D01*
X181528944Y-68693973D01*
X181518703Y-68692965D01*
X181508855Y-68689978D01*
X181499777Y-68685126D01*
X181491822Y-68678596D01*
X181485292Y-68670641D01*
X181480440Y-68661563D01*
X181477453Y-68651715D01*
X181476445Y-68641474D01*
X181476445Y-67696472D01*
X181477453Y-67686231D01*
X181480440Y-67676383D01*
X181485292Y-67667305D01*
X181491822Y-67659350D01*
X181499777Y-67652820D01*
X181508855Y-67647968D01*
X181518703Y-67644981D01*
X181528944Y-67643973D01*
X182473946Y-67643973D01*
X182484187Y-67644981D01*
G37*
G36*
X182484187Y-63894981D02*
G01*
X182494035Y-63897968D01*
X182503113Y-63902820D01*
X182511068Y-63909350D01*
X182517598Y-63917305D01*
X182522450Y-63926383D01*
X182525437Y-63936231D01*
X182526445Y-63946472D01*
X182526445Y-64891474D01*
X182525437Y-64901715D01*
X182522450Y-64911563D01*
X182517598Y-64920641D01*
X182511068Y-64928596D01*
X182503113Y-64935126D01*
X182494035Y-64939978D01*
X182484187Y-64942965D01*
X182473946Y-64943973D01*
X181528944Y-64943973D01*
X181518703Y-64942965D01*
X181508855Y-64939978D01*
X181499777Y-64935126D01*
X181491822Y-64928596D01*
X181485292Y-64920641D01*
X181480440Y-64911563D01*
X181477453Y-64901715D01*
X181476445Y-64891474D01*
X181476445Y-63946472D01*
X181477453Y-63936231D01*
X181480440Y-63926383D01*
X181485292Y-63917305D01*
X181491822Y-63909350D01*
X181499777Y-63902820D01*
X181508855Y-63897968D01*
X181518703Y-63894981D01*
X181528944Y-63893973D01*
X182473946Y-63893973D01*
X182484187Y-63894981D01*
G37*
G36*
X182484187Y-65144981D02*
G01*
X182494035Y-65147968D01*
X182503113Y-65152820D01*
X182511068Y-65159350D01*
X182517598Y-65167305D01*
X182522450Y-65176383D01*
X182525437Y-65186231D01*
X182526445Y-65196472D01*
X182526445Y-66141474D01*
X182525437Y-66151715D01*
X182522450Y-66161563D01*
X182517598Y-66170641D01*
X182511068Y-66178596D01*
X182503113Y-66185126D01*
X182494035Y-66189978D01*
X182484187Y-66192965D01*
X182473946Y-66193973D01*
X181528944Y-66193973D01*
X181518703Y-66192965D01*
X181508855Y-66189978D01*
X181499777Y-66185126D01*
X181491822Y-66178596D01*
X181485292Y-66170641D01*
X181480440Y-66161563D01*
X181477453Y-66151715D01*
X181476445Y-66141474D01*
X181476445Y-65196472D01*
X181477453Y-65186231D01*
X181480440Y-65176383D01*
X181485292Y-65167305D01*
X181491822Y-65159350D01*
X181499777Y-65152820D01*
X181508855Y-65147968D01*
X181518703Y-65144981D01*
X181528944Y-65143973D01*
X182473946Y-65143973D01*
X182484187Y-65144981D01*
G37*
G36*
X183734187Y-66394981D02*
G01*
X183744035Y-66397968D01*
X183753113Y-66402820D01*
X183761068Y-66409350D01*
X183767598Y-66417305D01*
X183772450Y-66426383D01*
X183775437Y-66436231D01*
X183776445Y-66446472D01*
X183776445Y-67391474D01*
X183775437Y-67401715D01*
X183772450Y-67411563D01*
X183767598Y-67420641D01*
X183761068Y-67428596D01*
X183753113Y-67435126D01*
X183744035Y-67439978D01*
X183734187Y-67442965D01*
X183723946Y-67443973D01*
X182778944Y-67443973D01*
X182768703Y-67442965D01*
X182758855Y-67439978D01*
X182749777Y-67435126D01*
X182741822Y-67428596D01*
X182735292Y-67420641D01*
X182730440Y-67411563D01*
X182727453Y-67401715D01*
X182726445Y-67391474D01*
X182726445Y-66446472D01*
X182727453Y-66436231D01*
X182730440Y-66426383D01*
X182735292Y-66417305D01*
X182741822Y-66409350D01*
X182749777Y-66402820D01*
X182758855Y-66397968D01*
X182768703Y-66394981D01*
X182778944Y-66393973D01*
X183723946Y-66393973D01*
X183734187Y-66394981D01*
G37*
G36*
X183734187Y-67644981D02*
G01*
X183744035Y-67647968D01*
X183753113Y-67652820D01*
X183761068Y-67659350D01*
X183767598Y-67667305D01*
X183772450Y-67676383D01*
X183775437Y-67686231D01*
X183776445Y-67696472D01*
X183776445Y-68641474D01*
X183775437Y-68651715D01*
X183772450Y-68661563D01*
X183767598Y-68670641D01*
X183761068Y-68678596D01*
X183753113Y-68685126D01*
X183744035Y-68689978D01*
X183734187Y-68692965D01*
X183723946Y-68693973D01*
X182778944Y-68693973D01*
X182768703Y-68692965D01*
X182758855Y-68689978D01*
X182749777Y-68685126D01*
X182741822Y-68678596D01*
X182735292Y-68670641D01*
X182730440Y-68661563D01*
X182727453Y-68651715D01*
X182726445Y-68641474D01*
X182726445Y-67696472D01*
X182727453Y-67686231D01*
X182730440Y-67676383D01*
X182735292Y-67667305D01*
X182741822Y-67659350D01*
X182749777Y-67652820D01*
X182758855Y-67647968D01*
X182768703Y-67644981D01*
X182778944Y-67643973D01*
X183723946Y-67643973D01*
X183734187Y-67644981D01*
G37*
G36*
X183734187Y-63894981D02*
G01*
X183744035Y-63897968D01*
X183753113Y-63902820D01*
X183761068Y-63909350D01*
X183767598Y-63917305D01*
X183772450Y-63926383D01*
X183775437Y-63936231D01*
X183776445Y-63946472D01*
X183776445Y-64891474D01*
X183775437Y-64901715D01*
X183772450Y-64911563D01*
X183767598Y-64920641D01*
X183761068Y-64928596D01*
X183753113Y-64935126D01*
X183744035Y-64939978D01*
X183734187Y-64942965D01*
X183723946Y-64943973D01*
X182778944Y-64943973D01*
X182768703Y-64942965D01*
X182758855Y-64939978D01*
X182749777Y-64935126D01*
X182741822Y-64928596D01*
X182735292Y-64920641D01*
X182730440Y-64911563D01*
X182727453Y-64901715D01*
X182726445Y-64891474D01*
X182726445Y-63946472D01*
X182727453Y-63936231D01*
X182730440Y-63926383D01*
X182735292Y-63917305D01*
X182741822Y-63909350D01*
X182749777Y-63902820D01*
X182758855Y-63897968D01*
X182768703Y-63894981D01*
X182778944Y-63893973D01*
X183723946Y-63893973D01*
X183734187Y-63894981D01*
G37*
G36*
X183734187Y-65144981D02*
G01*
X183744035Y-65147968D01*
X183753113Y-65152820D01*
X183761068Y-65159350D01*
X183767598Y-65167305D01*
X183772450Y-65176383D01*
X183775437Y-65186231D01*
X183776445Y-65196472D01*
X183776445Y-66141474D01*
X183775437Y-66151715D01*
X183772450Y-66161563D01*
X183767598Y-66170641D01*
X183761068Y-66178596D01*
X183753113Y-66185126D01*
X183744035Y-66189978D01*
X183734187Y-66192965D01*
X183723946Y-66193973D01*
X182778944Y-66193973D01*
X182768703Y-66192965D01*
X182758855Y-66189978D01*
X182749777Y-66185126D01*
X182741822Y-66178596D01*
X182735292Y-66170641D01*
X182730440Y-66161563D01*
X182727453Y-66151715D01*
X182726445Y-66141474D01*
X182726445Y-65196472D01*
X182727453Y-65186231D01*
X182730440Y-65176383D01*
X182735292Y-65167305D01*
X182741822Y-65159350D01*
X182749777Y-65152820D01*
X182758855Y-65147968D01*
X182768703Y-65144981D01*
X182778944Y-65143973D01*
X183723946Y-65143973D01*
X183734187Y-65144981D01*
G37*
G36*
X184984187Y-66394981D02*
G01*
X184994035Y-66397968D01*
X185003113Y-66402820D01*
X185011068Y-66409350D01*
X185017598Y-66417305D01*
X185022450Y-66426383D01*
X185025437Y-66436231D01*
X185026445Y-66446472D01*
X185026445Y-67391474D01*
X185025437Y-67401715D01*
X185022450Y-67411563D01*
X185017598Y-67420641D01*
X185011068Y-67428596D01*
X185003113Y-67435126D01*
X184994035Y-67439978D01*
X184984187Y-67442965D01*
X184973946Y-67443973D01*
X184028944Y-67443973D01*
X184018703Y-67442965D01*
X184008855Y-67439978D01*
X183999777Y-67435126D01*
X183991822Y-67428596D01*
X183985292Y-67420641D01*
X183980440Y-67411563D01*
X183977453Y-67401715D01*
X183976445Y-67391474D01*
X183976445Y-66446472D01*
X183977453Y-66436231D01*
X183980440Y-66426383D01*
X183985292Y-66417305D01*
X183991822Y-66409350D01*
X183999777Y-66402820D01*
X184008855Y-66397968D01*
X184018703Y-66394981D01*
X184028944Y-66393973D01*
X184973946Y-66393973D01*
X184984187Y-66394981D01*
G37*
G36*
X184984187Y-67644981D02*
G01*
X184994035Y-67647968D01*
X185003113Y-67652820D01*
X185011068Y-67659350D01*
X185017598Y-67667305D01*
X185022450Y-67676383D01*
X185025437Y-67686231D01*
X185026445Y-67696472D01*
X185026445Y-68641474D01*
X185025437Y-68651715D01*
X185022450Y-68661563D01*
X185017598Y-68670641D01*
X185011068Y-68678596D01*
X185003113Y-68685126D01*
X184994035Y-68689978D01*
X184984187Y-68692965D01*
X184973946Y-68693973D01*
X184028944Y-68693973D01*
X184018703Y-68692965D01*
X184008855Y-68689978D01*
X183999777Y-68685126D01*
X183991822Y-68678596D01*
X183985292Y-68670641D01*
X183980440Y-68661563D01*
X183977453Y-68651715D01*
X183976445Y-68641474D01*
X183976445Y-67696472D01*
X183977453Y-67686231D01*
X183980440Y-67676383D01*
X183985292Y-67667305D01*
X183991822Y-67659350D01*
X183999777Y-67652820D01*
X184008855Y-67647968D01*
X184018703Y-67644981D01*
X184028944Y-67643973D01*
X184973946Y-67643973D01*
X184984187Y-67644981D01*
G37*
G36*
X184984187Y-63894981D02*
G01*
X184994035Y-63897968D01*
X185003113Y-63902820D01*
X185011068Y-63909350D01*
X185017598Y-63917305D01*
X185022450Y-63926383D01*
X185025437Y-63936231D01*
X185026445Y-63946472D01*
X185026445Y-64891474D01*
X185025437Y-64901715D01*
X185022450Y-64911563D01*
X185017598Y-64920641D01*
X185011068Y-64928596D01*
X185003113Y-64935126D01*
X184994035Y-64939978D01*
X184984187Y-64942965D01*
X184973946Y-64943973D01*
X184028944Y-64943973D01*
X184018703Y-64942965D01*
X184008855Y-64939978D01*
X183999777Y-64935126D01*
X183991822Y-64928596D01*
X183985292Y-64920641D01*
X183980440Y-64911563D01*
X183977453Y-64901715D01*
X183976445Y-64891474D01*
X183976445Y-63946472D01*
X183977453Y-63936231D01*
X183980440Y-63926383D01*
X183985292Y-63917305D01*
X183991822Y-63909350D01*
X183999777Y-63902820D01*
X184008855Y-63897968D01*
X184018703Y-63894981D01*
X184028944Y-63893973D01*
X184973946Y-63893973D01*
X184984187Y-63894981D01*
G37*
G36*
X184984187Y-65144981D02*
G01*
X184994035Y-65147968D01*
X185003113Y-65152820D01*
X185011068Y-65159350D01*
X185017598Y-65167305D01*
X185022450Y-65176383D01*
X185025437Y-65186231D01*
X185026445Y-65196472D01*
X185026445Y-66141474D01*
X185025437Y-66151715D01*
X185022450Y-66161563D01*
X185017598Y-66170641D01*
X185011068Y-66178596D01*
X185003113Y-66185126D01*
X184994035Y-66189978D01*
X184984187Y-66192965D01*
X184973946Y-66193973D01*
X184028944Y-66193973D01*
X184018703Y-66192965D01*
X184008855Y-66189978D01*
X183999777Y-66185126D01*
X183991822Y-66178596D01*
X183985292Y-66170641D01*
X183980440Y-66161563D01*
X183977453Y-66151715D01*
X183976445Y-66141474D01*
X183976445Y-65196472D01*
X183977453Y-65186231D01*
X183980440Y-65176383D01*
X183985292Y-65167305D01*
X183991822Y-65159350D01*
X183999777Y-65152820D01*
X184008855Y-65147968D01*
X184018703Y-65144981D01*
X184028944Y-65143973D01*
X184973946Y-65143973D01*
X184984187Y-65144981D01*
G37*
G36*
X186234187Y-66394981D02*
G01*
X186244035Y-66397968D01*
X186253113Y-66402820D01*
X186261068Y-66409350D01*
X186267598Y-66417305D01*
X186272450Y-66426383D01*
X186275437Y-66436231D01*
X186276445Y-66446472D01*
X186276445Y-67391474D01*
X186275437Y-67401715D01*
X186272450Y-67411563D01*
X186267598Y-67420641D01*
X186261068Y-67428596D01*
X186253113Y-67435126D01*
X186244035Y-67439978D01*
X186234187Y-67442965D01*
X186223946Y-67443973D01*
X185278944Y-67443973D01*
X185268703Y-67442965D01*
X185258855Y-67439978D01*
X185249777Y-67435126D01*
X185241822Y-67428596D01*
X185235292Y-67420641D01*
X185230440Y-67411563D01*
X185227453Y-67401715D01*
X185226445Y-67391474D01*
X185226445Y-66446472D01*
X185227453Y-66436231D01*
X185230440Y-66426383D01*
X185235292Y-66417305D01*
X185241822Y-66409350D01*
X185249777Y-66402820D01*
X185258855Y-66397968D01*
X185268703Y-66394981D01*
X185278944Y-66393973D01*
X186223946Y-66393973D01*
X186234187Y-66394981D01*
G37*
G36*
X186234187Y-67644981D02*
G01*
X186244035Y-67647968D01*
X186253113Y-67652820D01*
X186261068Y-67659350D01*
X186267598Y-67667305D01*
X186272450Y-67676383D01*
X186275437Y-67686231D01*
X186276445Y-67696472D01*
X186276445Y-68641474D01*
X186275437Y-68651715D01*
X186272450Y-68661563D01*
X186267598Y-68670641D01*
X186261068Y-68678596D01*
X186253113Y-68685126D01*
X186244035Y-68689978D01*
X186234187Y-68692965D01*
X186223946Y-68693973D01*
X185278944Y-68693973D01*
X185268703Y-68692965D01*
X185258855Y-68689978D01*
X185249777Y-68685126D01*
X185241822Y-68678596D01*
X185235292Y-68670641D01*
X185230440Y-68661563D01*
X185227453Y-68651715D01*
X185226445Y-68641474D01*
X185226445Y-67696472D01*
X185227453Y-67686231D01*
X185230440Y-67676383D01*
X185235292Y-67667305D01*
X185241822Y-67659350D01*
X185249777Y-67652820D01*
X185258855Y-67647968D01*
X185268703Y-67644981D01*
X185278944Y-67643973D01*
X186223946Y-67643973D01*
X186234187Y-67644981D01*
G37*
G36*
X186234187Y-63894981D02*
G01*
X186244035Y-63897968D01*
X186253113Y-63902820D01*
X186261068Y-63909350D01*
X186267598Y-63917305D01*
X186272450Y-63926383D01*
X186275437Y-63936231D01*
X186276445Y-63946472D01*
X186276445Y-64891474D01*
X186275437Y-64901715D01*
X186272450Y-64911563D01*
X186267598Y-64920641D01*
X186261068Y-64928596D01*
X186253113Y-64935126D01*
X186244035Y-64939978D01*
X186234187Y-64942965D01*
X186223946Y-64943973D01*
X185278944Y-64943973D01*
X185268703Y-64942965D01*
X185258855Y-64939978D01*
X185249777Y-64935126D01*
X185241822Y-64928596D01*
X185235292Y-64920641D01*
X185230440Y-64911563D01*
X185227453Y-64901715D01*
X185226445Y-64891474D01*
X185226445Y-63946472D01*
X185227453Y-63936231D01*
X185230440Y-63926383D01*
X185235292Y-63917305D01*
X185241822Y-63909350D01*
X185249777Y-63902820D01*
X185258855Y-63897968D01*
X185268703Y-63894981D01*
X185278944Y-63893973D01*
X186223946Y-63893973D01*
X186234187Y-63894981D01*
G37*
G36*
X186234187Y-65144981D02*
G01*
X186244035Y-65147968D01*
X186253113Y-65152820D01*
X186261068Y-65159350D01*
X186267598Y-65167305D01*
X186272450Y-65176383D01*
X186275437Y-65186231D01*
X186276445Y-65196472D01*
X186276445Y-66141474D01*
X186275437Y-66151715D01*
X186272450Y-66161563D01*
X186267598Y-66170641D01*
X186261068Y-66178596D01*
X186253113Y-66185126D01*
X186244035Y-66189978D01*
X186234187Y-66192965D01*
X186223946Y-66193973D01*
X185278944Y-66193973D01*
X185268703Y-66192965D01*
X185258855Y-66189978D01*
X185249777Y-66185126D01*
X185241822Y-66178596D01*
X185235292Y-66170641D01*
X185230440Y-66161563D01*
X185227453Y-66151715D01*
X185226445Y-66141474D01*
X185226445Y-65196472D01*
X185227453Y-65186231D01*
X185230440Y-65176383D01*
X185235292Y-65167305D01*
X185241822Y-65159350D01*
X185249777Y-65152820D01*
X185258855Y-65147968D01*
X185268703Y-65144981D01*
X185278944Y-65143973D01*
X186223946Y-65143973D01*
X186234187Y-65144981D01*
G37*
%TO.C,U701*%
G36*
X189844571Y-104138998D02*
G01*
X188619570Y-104138998D01*
X188619570Y-102913997D01*
X189844571Y-102913997D01*
X189844571Y-104138998D01*
G37*
G36*
X189844571Y-105563998D02*
G01*
X188619570Y-105563998D01*
X188619570Y-104338997D01*
X189844571Y-104338997D01*
X189844571Y-105563998D01*
G37*
G36*
X189844571Y-106988999D02*
G01*
X188619570Y-106988999D01*
X188619570Y-105763998D01*
X189844571Y-105763998D01*
X189844571Y-106988999D01*
G37*
G36*
X189844571Y-108413999D02*
G01*
X188619570Y-108413999D01*
X188619570Y-107188998D01*
X189844571Y-107188998D01*
X189844571Y-108413999D01*
G37*
G36*
X191269571Y-104138998D02*
G01*
X190044570Y-104138998D01*
X190044570Y-102913997D01*
X191269571Y-102913997D01*
X191269571Y-104138998D01*
G37*
G36*
X191269571Y-105563998D02*
G01*
X190044570Y-105563998D01*
X190044570Y-104338997D01*
X191269571Y-104338997D01*
X191269571Y-105563998D01*
G37*
G36*
X191269571Y-106988999D02*
G01*
X190044570Y-106988999D01*
X190044570Y-105763998D01*
X191269571Y-105763998D01*
X191269571Y-106988999D01*
G37*
G36*
X191269571Y-108413999D02*
G01*
X190044570Y-108413999D01*
X190044570Y-107188998D01*
X191269571Y-107188998D01*
X191269571Y-108413999D01*
G37*
G36*
X192694572Y-104138998D02*
G01*
X191469571Y-104138998D01*
X191469571Y-102913997D01*
X192694572Y-102913997D01*
X192694572Y-104138998D01*
G37*
G36*
X192694572Y-105563998D02*
G01*
X191469571Y-105563998D01*
X191469571Y-104338997D01*
X192694572Y-104338997D01*
X192694572Y-105563998D01*
G37*
G36*
X192694572Y-106988999D02*
G01*
X191469571Y-106988999D01*
X191469571Y-105763998D01*
X192694572Y-105763998D01*
X192694572Y-106988999D01*
G37*
G36*
X192694572Y-108413999D02*
G01*
X191469571Y-108413999D01*
X191469571Y-107188998D01*
X192694572Y-107188998D01*
X192694572Y-108413999D01*
G37*
G36*
X194119572Y-104138998D02*
G01*
X192894571Y-104138998D01*
X192894571Y-102913997D01*
X194119572Y-102913997D01*
X194119572Y-104138998D01*
G37*
G36*
X194119572Y-105563998D02*
G01*
X192894571Y-105563998D01*
X192894571Y-104338997D01*
X194119572Y-104338997D01*
X194119572Y-105563998D01*
G37*
G36*
X194119572Y-106988999D02*
G01*
X192894571Y-106988999D01*
X192894571Y-105763998D01*
X194119572Y-105763998D01*
X194119572Y-106988999D01*
G37*
G36*
X194119572Y-108413999D02*
G01*
X192894571Y-108413999D01*
X192894571Y-107188998D01*
X194119572Y-107188998D01*
X194119572Y-108413999D01*
G37*
%TO.C,U201*%
G36*
X191114445Y-165098973D02*
G01*
X189889444Y-165098973D01*
X189889444Y-163873972D01*
X191114445Y-163873972D01*
X191114445Y-165098973D01*
G37*
G36*
X191114445Y-166523973D02*
G01*
X189889444Y-166523973D01*
X189889444Y-165298972D01*
X191114445Y-165298972D01*
X191114445Y-166523973D01*
G37*
G36*
X191114445Y-167948974D02*
G01*
X189889444Y-167948974D01*
X189889444Y-166723973D01*
X191114445Y-166723973D01*
X191114445Y-167948974D01*
G37*
G36*
X191114445Y-169373974D02*
G01*
X189889444Y-169373974D01*
X189889444Y-168148973D01*
X191114445Y-168148973D01*
X191114445Y-169373974D01*
G37*
G36*
X192539445Y-165098973D02*
G01*
X191314444Y-165098973D01*
X191314444Y-163873972D01*
X192539445Y-163873972D01*
X192539445Y-165098973D01*
G37*
G36*
X192539445Y-166523973D02*
G01*
X191314444Y-166523973D01*
X191314444Y-165298972D01*
X192539445Y-165298972D01*
X192539445Y-166523973D01*
G37*
G36*
X192539445Y-167948974D02*
G01*
X191314444Y-167948974D01*
X191314444Y-166723973D01*
X192539445Y-166723973D01*
X192539445Y-167948974D01*
G37*
G36*
X192539445Y-169373974D02*
G01*
X191314444Y-169373974D01*
X191314444Y-168148973D01*
X192539445Y-168148973D01*
X192539445Y-169373974D01*
G37*
G36*
X193964446Y-165098973D02*
G01*
X192739445Y-165098973D01*
X192739445Y-163873972D01*
X193964446Y-163873972D01*
X193964446Y-165098973D01*
G37*
G36*
X193964446Y-166523973D02*
G01*
X192739445Y-166523973D01*
X192739445Y-165298972D01*
X193964446Y-165298972D01*
X193964446Y-166523973D01*
G37*
G36*
X193964446Y-167948974D02*
G01*
X192739445Y-167948974D01*
X192739445Y-166723973D01*
X193964446Y-166723973D01*
X193964446Y-167948974D01*
G37*
G36*
X193964446Y-169373974D02*
G01*
X192739445Y-169373974D01*
X192739445Y-168148973D01*
X193964446Y-168148973D01*
X193964446Y-169373974D01*
G37*
G36*
X195389446Y-165098973D02*
G01*
X194164445Y-165098973D01*
X194164445Y-163873972D01*
X195389446Y-163873972D01*
X195389446Y-165098973D01*
G37*
G36*
X195389446Y-166523973D02*
G01*
X194164445Y-166523973D01*
X194164445Y-165298972D01*
X195389446Y-165298972D01*
X195389446Y-166523973D01*
G37*
G36*
X195389446Y-167948974D02*
G01*
X194164445Y-167948974D01*
X194164445Y-166723973D01*
X195389446Y-166723973D01*
X195389446Y-167948974D01*
G37*
G36*
X195389446Y-169373974D02*
G01*
X194164445Y-169373974D01*
X194164445Y-168148973D01*
X195389446Y-168148973D01*
X195389446Y-169373974D01*
G37*
%TO.C,U1201*%
G36*
X191756279Y-210190807D02*
G01*
X190389945Y-210190807D01*
X190389945Y-208824473D01*
X191756279Y-208824473D01*
X191756279Y-210190807D01*
G37*
G36*
X191756279Y-211757140D02*
G01*
X190389945Y-211757140D01*
X190389945Y-210390806D01*
X191756279Y-210390806D01*
X191756279Y-211757140D01*
G37*
G36*
X191756279Y-213323473D02*
G01*
X190389945Y-213323473D01*
X190389945Y-211957139D01*
X191756279Y-211957139D01*
X191756279Y-213323473D01*
G37*
G36*
X193322612Y-210190807D02*
G01*
X191956278Y-210190807D01*
X191956278Y-208824473D01*
X193322612Y-208824473D01*
X193322612Y-210190807D01*
G37*
G36*
X193322612Y-211757140D02*
G01*
X191956278Y-211757140D01*
X191956278Y-210390806D01*
X193322612Y-210390806D01*
X193322612Y-211757140D01*
G37*
G36*
X193322612Y-213323473D02*
G01*
X191956278Y-213323473D01*
X191956278Y-211957139D01*
X193322612Y-211957139D01*
X193322612Y-213323473D01*
G37*
G36*
X194888945Y-210190807D02*
G01*
X193522611Y-210190807D01*
X193522611Y-208824473D01*
X194888945Y-208824473D01*
X194888945Y-210190807D01*
G37*
G36*
X194888945Y-211757140D02*
G01*
X193522611Y-211757140D01*
X193522611Y-210390806D01*
X194888945Y-210390806D01*
X194888945Y-211757140D01*
G37*
G36*
X194888945Y-213323473D02*
G01*
X193522611Y-213323473D01*
X193522611Y-211957139D01*
X194888945Y-211957139D01*
X194888945Y-213323473D01*
G37*
%TO.C,U1301*%
G36*
X213813444Y-178014473D02*
G01*
X213013445Y-178014473D01*
X213013445Y-177784474D01*
X213813444Y-177784474D01*
X213813444Y-178014473D01*
G37*
G36*
X213813444Y-178514472D02*
G01*
X213013445Y-178514472D01*
X213013445Y-178284473D01*
X213813444Y-178284473D01*
X213813444Y-178514472D01*
G37*
G36*
X213813444Y-179014474D02*
G01*
X213013445Y-179014474D01*
X213013445Y-178784472D01*
X213813444Y-178784472D01*
X213813444Y-179014474D01*
G37*
G36*
X213813444Y-179514473D02*
G01*
X213013445Y-179514473D01*
X213013445Y-179284473D01*
X213813444Y-179284473D01*
X213813444Y-179514473D01*
G37*
G36*
X213813444Y-180014472D02*
G01*
X213013445Y-180014472D01*
X213013445Y-179784472D01*
X213813444Y-179784472D01*
X213813444Y-180014472D01*
G37*
G36*
X213813444Y-180514474D02*
G01*
X213013445Y-180514474D01*
X213013445Y-180284474D01*
X213813444Y-180284474D01*
X213813444Y-180514474D01*
G37*
G36*
X213813444Y-181014473D02*
G01*
X213013445Y-181014473D01*
X213013445Y-180784473D01*
X213813444Y-180784473D01*
X213813444Y-181014473D01*
G37*
G36*
X213813444Y-181514474D02*
G01*
X213013445Y-181514474D01*
X213013445Y-181284472D01*
X213813444Y-181284472D01*
X213813444Y-181514474D01*
G37*
G36*
X213813444Y-182014473D02*
G01*
X213013445Y-182014473D01*
X213013445Y-181784474D01*
X213813444Y-181784474D01*
X213813444Y-182014473D01*
G37*
G36*
X213813444Y-182514472D02*
G01*
X213013445Y-182514472D01*
X213013445Y-182284473D01*
X213813444Y-182284473D01*
X213813444Y-182514472D01*
G37*
G36*
X214252879Y-177574472D02*
G01*
X214022877Y-177574472D01*
X214022877Y-176774473D01*
X214252879Y-176774473D01*
X214252879Y-177574472D01*
G37*
G36*
X214252879Y-183524473D02*
G01*
X214022877Y-183524473D01*
X214022877Y-182724474D01*
X214252879Y-182724474D01*
X214252879Y-183524473D01*
G37*
G36*
X214753005Y-177574472D02*
G01*
X214523003Y-177574472D01*
X214523003Y-176774473D01*
X214753005Y-176774473D01*
X214753005Y-177574472D01*
G37*
G36*
X214753005Y-183524473D02*
G01*
X214523003Y-183524473D01*
X214523003Y-182724474D01*
X214753005Y-182724474D01*
X214753005Y-183524473D01*
G37*
G36*
X215253131Y-177574472D02*
G01*
X215023129Y-177574472D01*
X215023129Y-176774473D01*
X215253131Y-176774473D01*
X215253131Y-177574472D01*
G37*
G36*
X215253131Y-183524473D02*
G01*
X215023129Y-183524473D01*
X215023129Y-182724474D01*
X215253131Y-182724474D01*
X215253131Y-183524473D01*
G37*
G36*
X215753257Y-177574472D02*
G01*
X215523255Y-177574472D01*
X215523255Y-176774473D01*
X215753257Y-176774473D01*
X215753257Y-177574472D01*
G37*
G36*
X215753257Y-183524473D02*
G01*
X215523255Y-183524473D01*
X215523255Y-182724474D01*
X215753257Y-182724474D01*
X215753257Y-183524473D01*
G37*
G36*
X216253383Y-177574472D02*
G01*
X216023381Y-177574472D01*
X216023381Y-176774473D01*
X216253383Y-176774473D01*
X216253383Y-177574472D01*
G37*
G36*
X216253383Y-183524473D02*
G01*
X216023381Y-183524473D01*
X216023381Y-182724474D01*
X216253383Y-182724474D01*
X216253383Y-183524473D01*
G37*
G36*
X216753509Y-177574472D02*
G01*
X216523507Y-177574472D01*
X216523507Y-176774473D01*
X216753509Y-176774473D01*
X216753509Y-177574472D01*
G37*
G36*
X216753509Y-183524473D02*
G01*
X216523507Y-183524473D01*
X216523507Y-182724474D01*
X216753509Y-182724474D01*
X216753509Y-183524473D01*
G37*
G36*
X217253635Y-177574472D02*
G01*
X217023633Y-177574472D01*
X217023633Y-176774473D01*
X217253635Y-176774473D01*
X217253635Y-177574472D01*
G37*
G36*
X217253635Y-183524473D02*
G01*
X217023633Y-183524473D01*
X217023633Y-182724474D01*
X217253635Y-182724474D01*
X217253635Y-183524473D01*
G37*
G36*
X217753761Y-177574472D02*
G01*
X217523759Y-177574472D01*
X217523759Y-176774473D01*
X217753761Y-176774473D01*
X217753761Y-177574472D01*
G37*
G36*
X217753761Y-183524473D02*
G01*
X217523759Y-183524473D01*
X217523759Y-182724474D01*
X217753761Y-182724474D01*
X217753761Y-183524473D01*
G37*
G36*
X218253887Y-177574472D02*
G01*
X218023885Y-177574472D01*
X218023885Y-176774473D01*
X218253887Y-176774473D01*
X218253887Y-177574472D01*
G37*
G36*
X218253887Y-183524473D02*
G01*
X218023885Y-183524473D01*
X218023885Y-182724474D01*
X218253887Y-182724474D01*
X218253887Y-183524473D01*
G37*
G36*
X218754013Y-177574472D02*
G01*
X218524011Y-177574472D01*
X218524011Y-176774473D01*
X218754013Y-176774473D01*
X218754013Y-177574472D01*
G37*
G36*
X218754013Y-183524473D02*
G01*
X218524011Y-183524473D01*
X218524011Y-182724474D01*
X218754013Y-182724474D01*
X218754013Y-183524473D01*
G37*
G36*
X219763445Y-178014473D02*
G01*
X218963446Y-178014473D01*
X218963446Y-177784474D01*
X219763445Y-177784474D01*
X219763445Y-178014473D01*
G37*
G36*
X219763445Y-178514472D02*
G01*
X218963446Y-178514472D01*
X218963446Y-178284473D01*
X219763445Y-178284473D01*
X219763445Y-178514472D01*
G37*
G36*
X219763445Y-179014474D02*
G01*
X218963446Y-179014474D01*
X218963446Y-178784472D01*
X219763445Y-178784472D01*
X219763445Y-179014474D01*
G37*
G36*
X219763445Y-179514473D02*
G01*
X218963446Y-179514473D01*
X218963446Y-179284473D01*
X219763445Y-179284473D01*
X219763445Y-179514473D01*
G37*
G36*
X219763445Y-180014472D02*
G01*
X218963446Y-180014472D01*
X218963446Y-179784472D01*
X219763445Y-179784472D01*
X219763445Y-180014472D01*
G37*
G36*
X219763445Y-180514474D02*
G01*
X218963446Y-180514474D01*
X218963446Y-180284474D01*
X219763445Y-180284474D01*
X219763445Y-180514474D01*
G37*
G36*
X219763445Y-181014473D02*
G01*
X218963446Y-181014473D01*
X218963446Y-180784473D01*
X219763445Y-180784473D01*
X219763445Y-181014473D01*
G37*
G36*
X219763445Y-181514474D02*
G01*
X218963446Y-181514474D01*
X218963446Y-181284472D01*
X219763445Y-181284472D01*
X219763445Y-181514474D01*
G37*
G36*
X219763445Y-182014473D02*
G01*
X218963446Y-182014473D01*
X218963446Y-181784474D01*
X219763445Y-181784474D01*
X219763445Y-182014473D01*
G37*
G36*
X219763445Y-182514472D02*
G01*
X218963446Y-182514472D01*
X218963446Y-182284473D01*
X219763445Y-182284473D01*
X219763445Y-182514472D01*
G37*
G36*
X214713645Y-178333252D02*
G01*
X214572224Y-178474673D01*
X214329775Y-178474673D01*
X214329775Y-178090803D01*
X214713645Y-178090803D01*
X214713645Y-178333252D01*
G37*
G36*
X214713645Y-181965694D02*
G01*
X214713645Y-182208143D01*
X214329775Y-182208143D01*
X214329775Y-181824273D01*
X214572224Y-181824273D01*
X214713645Y-181965694D01*
G37*
G36*
X218447115Y-178474673D02*
G01*
X218204666Y-178474673D01*
X218063245Y-178333252D01*
X218063245Y-178090803D01*
X218447115Y-178090803D01*
X218447115Y-178474673D01*
G37*
G36*
X218447115Y-182208143D02*
G01*
X218063245Y-182208143D01*
X218063245Y-181965694D01*
X218204666Y-181824273D01*
X218447115Y-181824273D01*
X218447115Y-182208143D01*
G37*
G36*
X214713645Y-178816094D02*
G01*
X214713645Y-179120652D01*
X214572224Y-179262073D01*
X214329775Y-179262073D01*
X214329775Y-178674673D01*
X214572224Y-178674673D01*
X214713645Y-178816094D01*
G37*
G36*
X214713645Y-179603494D02*
G01*
X214713645Y-179908052D01*
X214572224Y-180049473D01*
X214329775Y-180049473D01*
X214329775Y-179462073D01*
X214572224Y-179462073D01*
X214713645Y-179603494D01*
G37*
G36*
X214713645Y-180390894D02*
G01*
X214713645Y-180695452D01*
X214572224Y-180836873D01*
X214329775Y-180836873D01*
X214329775Y-180249473D01*
X214572224Y-180249473D01*
X214713645Y-180390894D01*
G37*
G36*
X214713645Y-181178294D02*
G01*
X214713645Y-181482852D01*
X214572224Y-181624273D01*
X214329775Y-181624273D01*
X214329775Y-181036873D01*
X214572224Y-181036873D01*
X214713645Y-181178294D01*
G37*
G36*
X215501045Y-178333252D02*
G01*
X215359624Y-178474673D01*
X215055066Y-178474673D01*
X214913645Y-178333252D01*
X214913645Y-178090803D01*
X215501045Y-178090803D01*
X215501045Y-178333252D01*
G37*
G36*
X215501045Y-181965694D02*
G01*
X215501045Y-182208143D01*
X214913645Y-182208143D01*
X214913645Y-181965694D01*
X215055066Y-181824273D01*
X215359624Y-181824273D01*
X215501045Y-181965694D01*
G37*
G36*
X216288445Y-178333252D02*
G01*
X216147024Y-178474673D01*
X215842466Y-178474673D01*
X215701045Y-178333252D01*
X215701045Y-178090803D01*
X216288445Y-178090803D01*
X216288445Y-178333252D01*
G37*
G36*
X216288445Y-181965694D02*
G01*
X216288445Y-182208143D01*
X215701045Y-182208143D01*
X215701045Y-181965694D01*
X215842466Y-181824273D01*
X216147024Y-181824273D01*
X216288445Y-181965694D01*
G37*
G36*
X217075845Y-178333252D02*
G01*
X216934424Y-178474673D01*
X216629866Y-178474673D01*
X216488445Y-178333252D01*
X216488445Y-178090803D01*
X217075845Y-178090803D01*
X217075845Y-178333252D01*
G37*
G36*
X217075845Y-181965694D02*
G01*
X217075845Y-182208143D01*
X216488445Y-182208143D01*
X216488445Y-181965694D01*
X216629866Y-181824273D01*
X216934424Y-181824273D01*
X217075845Y-181965694D01*
G37*
G36*
X217863245Y-178333252D02*
G01*
X217721824Y-178474673D01*
X217417266Y-178474673D01*
X217275845Y-178333252D01*
X217275845Y-178090803D01*
X217863245Y-178090803D01*
X217863245Y-178333252D01*
G37*
G36*
X217863245Y-181965694D02*
G01*
X217863245Y-182208143D01*
X217275845Y-182208143D01*
X217275845Y-181965694D01*
X217417266Y-181824273D01*
X217721824Y-181824273D01*
X217863245Y-181965694D01*
G37*
G36*
X218447115Y-179262073D02*
G01*
X218204666Y-179262073D01*
X218063245Y-179120652D01*
X218063245Y-178816094D01*
X218204666Y-178674673D01*
X218447115Y-178674673D01*
X218447115Y-179262073D01*
G37*
G36*
X218447115Y-180049473D02*
G01*
X218204666Y-180049473D01*
X218063245Y-179908052D01*
X218063245Y-179603494D01*
X218204666Y-179462073D01*
X218447115Y-179462073D01*
X218447115Y-180049473D01*
G37*
G36*
X218447115Y-180836873D02*
G01*
X218204666Y-180836873D01*
X218063245Y-180695452D01*
X218063245Y-180390894D01*
X218204666Y-180249473D01*
X218447115Y-180249473D01*
X218447115Y-180836873D01*
G37*
G36*
X218447115Y-181624273D02*
G01*
X218204666Y-181624273D01*
X218063245Y-181482852D01*
X218063245Y-181178294D01*
X218204666Y-181036873D01*
X218447115Y-181036873D01*
X218447115Y-181624273D01*
G37*
G36*
X215501045Y-178816094D02*
G01*
X215501045Y-179120652D01*
X215359624Y-179262073D01*
X215055066Y-179262073D01*
X214913645Y-179120652D01*
X214913645Y-178816094D01*
X215055066Y-178674673D01*
X215359624Y-178674673D01*
X215501045Y-178816094D01*
G37*
G36*
X215501045Y-179603494D02*
G01*
X215501045Y-179908052D01*
X215359624Y-180049473D01*
X215055066Y-180049473D01*
X214913645Y-179908052D01*
X214913645Y-179603494D01*
X215055066Y-179462073D01*
X215359624Y-179462073D01*
X215501045Y-179603494D01*
G37*
G36*
X215501045Y-180390894D02*
G01*
X215501045Y-180695452D01*
X215359624Y-180836873D01*
X215055066Y-180836873D01*
X214913645Y-180695452D01*
X214913645Y-180390894D01*
X215055066Y-180249473D01*
X215359624Y-180249473D01*
X215501045Y-180390894D01*
G37*
G36*
X215501045Y-181178294D02*
G01*
X215501045Y-181482852D01*
X215359624Y-181624273D01*
X215055066Y-181624273D01*
X214913645Y-181482852D01*
X214913645Y-181178294D01*
X215055066Y-181036873D01*
X215359624Y-181036873D01*
X215501045Y-181178294D01*
G37*
G36*
X216288445Y-178816094D02*
G01*
X216288445Y-179120652D01*
X216147024Y-179262073D01*
X215842466Y-179262073D01*
X215701045Y-179120652D01*
X215701045Y-178816094D01*
X215842466Y-178674673D01*
X216147024Y-178674673D01*
X216288445Y-178816094D01*
G37*
G36*
X216288445Y-179603494D02*
G01*
X216288445Y-179908052D01*
X216147024Y-180049473D01*
X215842466Y-180049473D01*
X215701045Y-179908052D01*
X215701045Y-179603494D01*
X215842466Y-179462073D01*
X216147024Y-179462073D01*
X216288445Y-179603494D01*
G37*
G36*
X216288445Y-180390894D02*
G01*
X216288445Y-180695452D01*
X216147024Y-180836873D01*
X215842466Y-180836873D01*
X215701045Y-180695452D01*
X215701045Y-180390894D01*
X215842466Y-180249473D01*
X216147024Y-180249473D01*
X216288445Y-180390894D01*
G37*
G36*
X216288445Y-181178294D02*
G01*
X216288445Y-181482852D01*
X216147024Y-181624273D01*
X215842466Y-181624273D01*
X215701045Y-181482852D01*
X215701045Y-181178294D01*
X215842466Y-181036873D01*
X216147024Y-181036873D01*
X216288445Y-181178294D01*
G37*
G36*
X217075845Y-178816094D02*
G01*
X217075845Y-179120652D01*
X216934424Y-179262073D01*
X216629866Y-179262073D01*
X216488445Y-179120652D01*
X216488445Y-178816094D01*
X216629866Y-178674673D01*
X216934424Y-178674673D01*
X217075845Y-178816094D01*
G37*
G36*
X217075845Y-179603494D02*
G01*
X217075845Y-179908052D01*
X216934424Y-180049473D01*
X216629866Y-180049473D01*
X216488445Y-179908052D01*
X216488445Y-179603494D01*
X216629866Y-179462073D01*
X216934424Y-179462073D01*
X217075845Y-179603494D01*
G37*
G36*
X217075845Y-180390894D02*
G01*
X217075845Y-180695452D01*
X216934424Y-180836873D01*
X216629866Y-180836873D01*
X216488445Y-180695452D01*
X216488445Y-180390894D01*
X216629866Y-180249473D01*
X216934424Y-180249473D01*
X217075845Y-180390894D01*
G37*
G36*
X217075845Y-181178294D02*
G01*
X217075845Y-181482852D01*
X216934424Y-181624273D01*
X216629866Y-181624273D01*
X216488445Y-181482852D01*
X216488445Y-181178294D01*
X216629866Y-181036873D01*
X216934424Y-181036873D01*
X217075845Y-181178294D01*
G37*
G36*
X217863245Y-178816094D02*
G01*
X217863245Y-179120652D01*
X217721824Y-179262073D01*
X217417266Y-179262073D01*
X217275845Y-179120652D01*
X217275845Y-178816094D01*
X217417266Y-178674673D01*
X217721824Y-178674673D01*
X217863245Y-178816094D01*
G37*
G36*
X217863245Y-179603494D02*
G01*
X217863245Y-179908052D01*
X217721824Y-180049473D01*
X217417266Y-180049473D01*
X217275845Y-179908052D01*
X217275845Y-179603494D01*
X217417266Y-179462073D01*
X217721824Y-179462073D01*
X217863245Y-179603494D01*
G37*
G36*
X217863245Y-180390894D02*
G01*
X217863245Y-180695452D01*
X217721824Y-180836873D01*
X217417266Y-180836873D01*
X217275845Y-180695452D01*
X217275845Y-180390894D01*
X217417266Y-180249473D01*
X217721824Y-180249473D01*
X217863245Y-180390894D01*
G37*
G36*
X217863245Y-181178294D02*
G01*
X217863245Y-181482852D01*
X217721824Y-181624273D01*
X217417266Y-181624273D01*
X217275845Y-181482852D01*
X217275845Y-181178294D01*
X217417266Y-181036873D01*
X217721824Y-181036873D01*
X217863245Y-181178294D01*
G37*
%TD*%
D11*
%TO.C,C10*%
X159893000Y-204229000D03*
X159893000Y-202679000D03*
%TD*%
D12*
%TO.C,C9*%
X159893000Y-221348000D03*
X159893000Y-222898000D03*
%TD*%
D13*
%TO.C,C1301*%
X212578445Y-214474973D03*
X212578445Y-213514973D03*
%TD*%
D14*
%TO.C,C709*%
X183721445Y-110108973D03*
X182761445Y-110108973D03*
%TD*%
D15*
%TO.C,J1002*%
X179748945Y-59245873D03*
D16*
X181223946Y-57721473D03*
X178273944Y-57721473D03*
%TD*%
D17*
%TO.C,R503*%
X160548450Y-96566980D03*
X160548450Y-98216980D03*
%TD*%
D18*
%TO.C,R2701*%
X204958945Y-77660473D03*
X206608945Y-77660473D03*
%TD*%
D19*
%TO.C,R3501*%
X220896445Y-96773973D03*
X219246445Y-96773973D03*
%TD*%
D20*
%TO.C,U1002*%
X186626445Y-62893975D03*
X186126446Y-62893975D03*
X185626447Y-62893975D03*
X185126445Y-62893975D03*
X184626446Y-62893975D03*
X184126447Y-62893975D03*
X183626445Y-62893975D03*
X183126447Y-62893975D03*
X182626445Y-62893975D03*
X182126446Y-62893975D03*
X181626447Y-62893975D03*
X181126445Y-62893975D03*
D21*
X180476447Y-63543976D03*
X180476447Y-64043975D03*
X180476447Y-64543974D03*
X180476447Y-65043976D03*
X180476447Y-65543975D03*
X180476447Y-66043973D03*
X180476447Y-66543975D03*
X180476447Y-67043974D03*
X180476447Y-67543976D03*
X180476447Y-68043975D03*
X180476447Y-68543974D03*
X180476447Y-69043975D03*
D20*
X181126445Y-69693974D03*
X181626447Y-69693974D03*
X182126446Y-69693974D03*
X182626445Y-69693974D03*
X183126447Y-69693974D03*
X183626445Y-69693974D03*
X184126447Y-69693974D03*
X184626446Y-69693974D03*
X185126445Y-69693974D03*
X185626447Y-69693974D03*
X186126446Y-69693974D03*
X186626445Y-69693974D03*
D21*
X187276446Y-69043975D03*
X187276446Y-68543974D03*
X187276446Y-68043975D03*
X187276446Y-67543976D03*
X187276446Y-67043974D03*
X187276446Y-66543975D03*
X187276446Y-66043973D03*
X187276446Y-65543975D03*
X187276446Y-65043976D03*
X187276446Y-64543974D03*
X187276446Y-64043975D03*
X187276446Y-63543976D03*
%TD*%
D17*
%TO.C,R1204*%
X181336445Y-220853473D03*
X181336445Y-222503473D03*
%TD*%
D19*
%TO.C,R701*%
X184066445Y-102806473D03*
X182416445Y-102806473D03*
%TD*%
D22*
%TO.C,U701*%
X188619571Y-109116399D03*
X189119570Y-109116399D03*
X189619572Y-109116399D03*
X190119571Y-109116399D03*
X190619570Y-109116399D03*
X191119571Y-109116399D03*
X191619571Y-109116399D03*
X192119572Y-109116399D03*
X192619571Y-109116399D03*
X193119570Y-109116399D03*
X193619572Y-109116399D03*
X194119571Y-109116399D03*
D23*
X194821972Y-108413998D03*
X194821972Y-107913999D03*
X194821972Y-107413997D03*
X194821972Y-106913998D03*
X194821972Y-106413999D03*
X194821972Y-105913998D03*
X194821972Y-105413998D03*
X194821972Y-104913997D03*
X194821972Y-104413998D03*
X194821972Y-103913999D03*
X194821972Y-103413997D03*
X194821972Y-102913998D03*
D22*
X194119571Y-102211597D03*
X193619572Y-102211597D03*
X193119570Y-102211597D03*
X192619571Y-102211597D03*
X192119572Y-102211597D03*
X191619571Y-102211597D03*
X191119571Y-102211597D03*
X190619570Y-102211597D03*
X190119571Y-102211597D03*
X189619572Y-102211597D03*
X189119570Y-102211597D03*
X188619571Y-102211597D03*
D23*
X187917170Y-102913998D03*
X187917170Y-103413997D03*
X187917170Y-103913999D03*
X187917170Y-104413998D03*
X187917170Y-104913997D03*
X187917170Y-105413998D03*
X187917170Y-105913998D03*
X187917170Y-106413999D03*
X187917170Y-106913998D03*
X187917170Y-107413997D03*
X187917170Y-107913999D03*
X187917170Y-108413998D03*
D24*
X191369571Y-105663998D03*
%TD*%
D17*
%TO.C,R303*%
X160548450Y-126792980D03*
X160548450Y-128442980D03*
%TD*%
D25*
%TO.C,C1203*%
X175951945Y-65277973D03*
X174401945Y-65277973D03*
%TD*%
%TO.C,C1005*%
X173856445Y-71627973D03*
X172306445Y-71627973D03*
%TD*%
D11*
%TO.C,C1204*%
X204450445Y-210832973D03*
X204450445Y-209282973D03*
%TD*%
D26*
%TO.C,C902*%
X195092450Y-129116580D03*
X195092450Y-123579380D03*
%TD*%
D25*
%TO.C,C703*%
X184016445Y-104711473D03*
X182466445Y-104711473D03*
%TD*%
D27*
%TO.C,C2502*%
X172941445Y-222486980D03*
X174491445Y-222486980D03*
%TD*%
D17*
%TO.C,R1901*%
X224198945Y-97853973D03*
X224198945Y-99503973D03*
%TD*%
D18*
%TO.C,R506*%
X178606445Y-98338359D03*
X180256445Y-98338359D03*
%TD*%
D27*
%TO.C,C3006*%
X215740445Y-137921973D03*
X217290445Y-137921973D03*
%TD*%
D12*
%TO.C,C3103*%
X208323945Y-122033973D03*
X208323945Y-123583973D03*
%TD*%
D28*
%TO.C,FB1004*%
X169080944Y-63906473D03*
X169080944Y-62331473D03*
%TD*%
D19*
%TO.C,R3504*%
X217086445Y-94868973D03*
X215436445Y-94868973D03*
%TD*%
D17*
%TO.C,R806*%
X209593945Y-172783973D03*
X209593945Y-174433973D03*
%TD*%
D28*
%TO.C,D903*%
X227056445Y-132740473D03*
X227056445Y-131165473D03*
%TD*%
D29*
%TO.C,FB3002*%
X213213445Y-124506473D03*
X213213445Y-122381473D03*
%TD*%
D18*
%TO.C,R406*%
X178606445Y-113664973D03*
X180256445Y-113664973D03*
%TD*%
%TO.C,R3503*%
X219246445Y-94868973D03*
X220896445Y-94868973D03*
%TD*%
D25*
%TO.C,C1211*%
X185032445Y-207771973D03*
X183482445Y-207771973D03*
%TD*%
D11*
%TO.C,C701*%
X192258445Y-99199973D03*
X192258445Y-97649973D03*
%TD*%
%TO.C,C3003*%
X216515445Y-131457973D03*
X216515445Y-129907973D03*
%TD*%
D30*
%TO.C,R804*%
X214904450Y-151048980D03*
X214904450Y-149398980D03*
%TD*%
D14*
%TO.C,C1304*%
X216487445Y-185292973D03*
X215527445Y-185292973D03*
%TD*%
D30*
%TO.C,R1702*%
X205593445Y-181672973D03*
X205593445Y-180022973D03*
%TD*%
D11*
%TO.C,C804*%
X213721445Y-193751473D03*
X213721445Y-192201473D03*
%TD*%
D31*
%TO.C,FB1001*%
X160952944Y-61929473D03*
X160952944Y-64054473D03*
%TD*%
D15*
%TO.C,J1003*%
X177018445Y-74294573D03*
D16*
X175543444Y-75818973D03*
X178493446Y-75818973D03*
%TD*%
D13*
%TO.C,C1710*%
X255504445Y-154276973D03*
X255504445Y-153316973D03*
%TD*%
D18*
%TO.C,R2301*%
X169081444Y-141708859D03*
X170731444Y-141708859D03*
%TD*%
D32*
%TO.C,R306*%
X181387024Y-121486276D03*
X182555866Y-120321670D03*
%TD*%
D17*
%TO.C,R1601*%
X200680450Y-187117980D03*
X200680450Y-188767980D03*
%TD*%
D14*
%TO.C,C1205*%
X192484445Y-203453973D03*
X191524445Y-203453973D03*
%TD*%
%TO.C,C1210*%
X185118445Y-214756973D03*
X184158445Y-214756973D03*
%TD*%
D33*
%TO.C,R606*%
X181515082Y-90094610D03*
X182681808Y-91261336D03*
%TD*%
D19*
%TO.C,R913*%
X209593445Y-117601973D03*
X207943445Y-117601973D03*
%TD*%
D34*
%TO.C,XMER401*%
X166416444Y-111355859D03*
X166416444Y-112625859D03*
X166416444Y-113895859D03*
X163236444Y-113895859D03*
X163236444Y-111355859D03*
%TD*%
D30*
%TO.C,R907*%
X209189450Y-151048980D03*
X209189450Y-149398980D03*
%TD*%
D35*
%TO.C,U902*%
X200005445Y-68255173D03*
X198980446Y-66364773D03*
X201030444Y-66364773D03*
%TD*%
D36*
%TO.C,L301*%
X174605445Y-126466473D03*
X174605445Y-128041473D03*
%TD*%
D37*
%TO.C,D901*%
X208793945Y-71056473D03*
X207218945Y-71056473D03*
%TD*%
D30*
%TO.C,R1504*%
X238994445Y-215327973D03*
X238994445Y-213677973D03*
%TD*%
D12*
%TO.C,C502*%
X172867450Y-93314980D03*
X172867450Y-94864980D03*
%TD*%
D25*
%TO.C,C213*%
X185286445Y-169544973D03*
X183736445Y-169544973D03*
%TD*%
D12*
%TO.C,C2204*%
X172827445Y-156958973D03*
X172827445Y-158508973D03*
%TD*%
D18*
%TO.C,R604*%
X169081444Y-86486973D03*
X170731444Y-86486973D03*
%TD*%
D30*
%TO.C,R1706*%
X237978445Y-184593973D03*
X237978445Y-182943973D03*
%TD*%
%TO.C,R801*%
X221341445Y-174433973D03*
X221341445Y-172783973D03*
%TD*%
D27*
%TO.C,C1206*%
X194150445Y-220344973D03*
X195700445Y-220344973D03*
%TD*%
D25*
%TO.C,C2203*%
X170681444Y-160781973D03*
X169131444Y-160781973D03*
%TD*%
D33*
%TO.C,R2305*%
X182531082Y-149022610D03*
X183697808Y-150189336D03*
%TD*%
D38*
%TO.C,J1501*%
X218813893Y-53694077D03*
X219313895Y-53694077D03*
X219813894Y-53694077D03*
X220313893Y-53694077D03*
X220813894Y-53694077D03*
X221313893Y-53694077D03*
X221813895Y-53694077D03*
X222313894Y-53694077D03*
X222813893Y-53694077D03*
X223313894Y-53694077D03*
X223813894Y-53694077D03*
X224313895Y-53694077D03*
X224813894Y-53694077D03*
X225313893Y-53694077D03*
X225813895Y-53694077D03*
X226313894Y-53694077D03*
X226813895Y-53694077D03*
X227313894Y-53694077D03*
X227813893Y-53694077D03*
%TD*%
D33*
%TO.C,R605*%
X182912082Y-88697610D03*
X184078808Y-89864336D03*
%TD*%
D19*
%TO.C,R2904*%
X212641445Y-77406473D03*
X210991445Y-77406473D03*
%TD*%
D12*
%TO.C,C2402*%
X174645450Y-186024980D03*
X174645450Y-187574980D03*
%TD*%
D34*
%TO.C,XMER301*%
X166416444Y-126341859D03*
X166416444Y-127611859D03*
X166416444Y-128881859D03*
X163236444Y-128881859D03*
X163236444Y-126341859D03*
%TD*%
D39*
%TO.C,J1401*%
X251956445Y-146518984D03*
X251956445Y-145248984D03*
X251956445Y-143978984D03*
X251956445Y-142708984D03*
X251956445Y-141438984D03*
X251956445Y-140168984D03*
X251956445Y-138898984D03*
X251956445Y-137628984D03*
X251956445Y-136358984D03*
X251956445Y-135088984D03*
X251956445Y-133818984D03*
X251956445Y-132548984D03*
X251956445Y-131278984D03*
X251956445Y-130008984D03*
X251956445Y-128738984D03*
X251956445Y-127468984D03*
X251956445Y-126198984D03*
X251956445Y-124928984D03*
X251956445Y-123658984D03*
X251956445Y-122388984D03*
X251956445Y-121118984D03*
X251956445Y-119848984D03*
X251956445Y-118578984D03*
X251956445Y-117308984D03*
X251956445Y-116038984D03*
X251956445Y-114768984D03*
X251956445Y-113498984D03*
X251956445Y-112228984D03*
X251956445Y-110958984D03*
X251956445Y-109688984D03*
X251956445Y-108418984D03*
X251956445Y-107148984D03*
X251956445Y-105878984D03*
X251956445Y-104608984D03*
X251956445Y-103338984D03*
X251956445Y-102068984D03*
X251956445Y-100798984D03*
X251956445Y-99528984D03*
X251956445Y-98258984D03*
X251956445Y-96988984D03*
X250686445Y-146518984D03*
X250686445Y-145248984D03*
X250686445Y-143978984D03*
X250686445Y-142708984D03*
X250686445Y-141438984D03*
X250686445Y-140168984D03*
X250686445Y-138898984D03*
X250686445Y-137628984D03*
X250686445Y-136358984D03*
X250686445Y-135088984D03*
X250686445Y-133818984D03*
X250686445Y-132548984D03*
X250686445Y-131278984D03*
X250686445Y-130008984D03*
X250686445Y-128738984D03*
X250686445Y-127468984D03*
X250686445Y-126198984D03*
X250686445Y-124928984D03*
X250686445Y-123658984D03*
X250686445Y-122388984D03*
X250686445Y-121118984D03*
X250686445Y-119848984D03*
X250686445Y-118578984D03*
X250686445Y-117308984D03*
X250686445Y-116038984D03*
X250686445Y-114768984D03*
X250686445Y-113498984D03*
X250686445Y-112228984D03*
X250686445Y-110958984D03*
X250686445Y-109688984D03*
X250686445Y-108418984D03*
X250686445Y-107148984D03*
X250686445Y-105878984D03*
X250686445Y-104608984D03*
X250686445Y-103338984D03*
X250686445Y-102068984D03*
X250686445Y-100798984D03*
X250686445Y-99528984D03*
X250686445Y-98258984D03*
X250686445Y-96988984D03*
X246876445Y-146518984D03*
X246876445Y-145248984D03*
X246876445Y-143978984D03*
X246876445Y-142708984D03*
X246876445Y-141438984D03*
X246876445Y-140168984D03*
X246876445Y-138898984D03*
X246876445Y-137628984D03*
X246876445Y-136358984D03*
X246876445Y-135088984D03*
X246876445Y-133818984D03*
X246876445Y-132548984D03*
X246876445Y-131278984D03*
X246876445Y-130008984D03*
X246876445Y-128738984D03*
X246876445Y-127468984D03*
X246876445Y-126198984D03*
X246876445Y-124928984D03*
X246876445Y-123658984D03*
X246876445Y-122388984D03*
X246876445Y-121118984D03*
X246876445Y-119848984D03*
X246876445Y-118578984D03*
X246876445Y-117308984D03*
X246876445Y-116038984D03*
X246876445Y-114768984D03*
X246876445Y-113498984D03*
X246876445Y-112228984D03*
X246876445Y-110958984D03*
X246876445Y-109688984D03*
X246876445Y-108418984D03*
X246876445Y-107148984D03*
X246876445Y-105878984D03*
X246876445Y-104608984D03*
X246876445Y-103338984D03*
X246876445Y-102068984D03*
X246876445Y-100798984D03*
X246876445Y-99528984D03*
X246876445Y-98258984D03*
X246876445Y-96988984D03*
X245606445Y-146518984D03*
X245606445Y-145248984D03*
X245606445Y-143978984D03*
X245606445Y-142708984D03*
X245606445Y-141438984D03*
X245606445Y-140168984D03*
X245606445Y-138898984D03*
X245606445Y-137628984D03*
X245606445Y-136358984D03*
X245606445Y-135088984D03*
X245606445Y-133818984D03*
X245606445Y-132548984D03*
X245606445Y-131278984D03*
X245606445Y-130008984D03*
X245606445Y-128738984D03*
X245606445Y-127468984D03*
X245606445Y-126198984D03*
X245606445Y-124928984D03*
X245606445Y-123658984D03*
X245606445Y-122388984D03*
X245606445Y-121118984D03*
X245606445Y-119848984D03*
X245606445Y-118578984D03*
X245606445Y-117308984D03*
X245606445Y-116038984D03*
X245606445Y-114768984D03*
X245606445Y-113498984D03*
X245606445Y-112228984D03*
X245606445Y-110958984D03*
X245606445Y-109688984D03*
X245606445Y-108418984D03*
X245606445Y-107148984D03*
X245606445Y-105878984D03*
X245606445Y-104608984D03*
X245606445Y-103338984D03*
X245606445Y-102068984D03*
X245606445Y-100798984D03*
X245606445Y-99528984D03*
X245606445Y-98258984D03*
X245606445Y-96988984D03*
%TD*%
D17*
%TO.C,R3304*%
X211498945Y-220091473D03*
X211498945Y-221741473D03*
%TD*%
D40*
%TO.C,U901*%
X203496444Y-66241474D03*
X204896446Y-66241474D03*
X204196445Y-64441473D03*
%TD*%
D30*
%TO.C,R3404*%
X182352445Y-138365973D03*
X182352445Y-136715973D03*
%TD*%
D37*
%TO.C,L2601*%
X174543950Y-203182980D03*
X172968950Y-203182980D03*
%TD*%
D30*
%TO.C,R805*%
X216832945Y-188911973D03*
X216832945Y-187261973D03*
%TD*%
D18*
%TO.C,R402*%
X169081444Y-113260859D03*
X170731444Y-113260859D03*
%TD*%
%TO.C,R502*%
X169081444Y-98020859D03*
X170731444Y-98020859D03*
%TD*%
D19*
%TO.C,R1007*%
X176001945Y-69087973D03*
X174351945Y-69087973D03*
%TD*%
D26*
%TO.C,C3005*%
X221595445Y-136677373D03*
X221595445Y-142214573D03*
%TD*%
D41*
%TO.C,C1207*%
X190607445Y-218467973D03*
X190607445Y-219427973D03*
%TD*%
D17*
%TO.C,R1905*%
X228326445Y-107696473D03*
X228326445Y-109346473D03*
%TD*%
D11*
%TO.C,C210*%
X172763945Y-192989473D03*
X172763945Y-191439473D03*
%TD*%
D42*
%TO.C,C1014*%
X189111445Y-66674973D03*
X190071445Y-66674973D03*
%TD*%
D14*
%TO.C,C1701*%
X199215445Y-157225973D03*
X198255445Y-157225973D03*
%TD*%
D43*
%TO.C,R905*%
X198098445Y-70865973D03*
X201023445Y-70865973D03*
%TD*%
D44*
%TO.C,FB2801*%
X199831945Y-144271973D03*
X201956945Y-144271973D03*
%TD*%
D25*
%TO.C,C1209*%
X187318444Y-218820973D03*
X185768444Y-218820973D03*
%TD*%
D45*
%TO.C,FB1801*%
X164673944Y-52958973D03*
X166248944Y-52958973D03*
%TD*%
D46*
%TO.C,FB2701*%
X206846445Y-73532973D03*
X204721445Y-73532973D03*
%TD*%
D18*
%TO.C,R2205*%
X178606445Y-156717973D03*
X180256445Y-156717973D03*
%TD*%
D17*
%TO.C,R1004*%
X188765945Y-57150473D03*
X188765945Y-58800473D03*
%TD*%
D12*
%TO.C,C2302*%
X172740450Y-140177980D03*
X172740450Y-141727980D03*
%TD*%
%TO.C,C1002*%
X167112444Y-62343973D03*
X167112444Y-63893973D03*
%TD*%
D22*
%TO.C,U201*%
X189889445Y-170076374D03*
X190389444Y-170076374D03*
X190889446Y-170076374D03*
X191389445Y-170076374D03*
X191889444Y-170076374D03*
X192389445Y-170076374D03*
X192889445Y-170076374D03*
X193389446Y-170076374D03*
X193889445Y-170076374D03*
X194389444Y-170076374D03*
X194889446Y-170076374D03*
X195389445Y-170076374D03*
D23*
X196091846Y-169373973D03*
X196091846Y-168873974D03*
X196091846Y-168373972D03*
X196091846Y-167873973D03*
X196091846Y-167373974D03*
X196091846Y-166873973D03*
X196091846Y-166373973D03*
X196091846Y-165873972D03*
X196091846Y-165373973D03*
X196091846Y-164873974D03*
X196091846Y-164373972D03*
X196091846Y-163873973D03*
D22*
X195389445Y-163171572D03*
X194889446Y-163171572D03*
X194389444Y-163171572D03*
X193889445Y-163171572D03*
X193389446Y-163171572D03*
X192889445Y-163171572D03*
X192389445Y-163171572D03*
X191889444Y-163171572D03*
X191389445Y-163171572D03*
X190889446Y-163171572D03*
X190389444Y-163171572D03*
X189889445Y-163171572D03*
D23*
X189187044Y-163873973D03*
X189187044Y-164373972D03*
X189187044Y-164873974D03*
X189187044Y-165373973D03*
X189187044Y-165873972D03*
X189187044Y-166373973D03*
X189187044Y-166873973D03*
X189187044Y-167373974D03*
X189187044Y-167873973D03*
X189187044Y-168373972D03*
X189187044Y-168873974D03*
X189187044Y-169373973D03*
D24*
X192639445Y-166623973D03*
%TD*%
D41*
%TO.C,C1017*%
X180574445Y-71782973D03*
X180574445Y-72742973D03*
%TD*%
D47*
%TO.C,U2701*%
X202291445Y-80911673D03*
X202291445Y-80276673D03*
X202291445Y-79616273D03*
X202291445Y-78981273D03*
D48*
X201351645Y-78041473D03*
X200716645Y-78041473D03*
X200056245Y-78041473D03*
X199421245Y-78041473D03*
D47*
X198481445Y-78981273D03*
X198481445Y-79616273D03*
X198481445Y-80276673D03*
X198481445Y-80911673D03*
D48*
X199421245Y-81851473D03*
X200056245Y-81851473D03*
X200716645Y-81851473D03*
X201351645Y-81851473D03*
D49*
X200386445Y-79946473D03*
%TD*%
D12*
%TO.C,C2201*%
X172867450Y-160116980D03*
X172867450Y-161666980D03*
%TD*%
D50*
%TO.C,U1801*%
X160222694Y-49451474D03*
X160222694Y-50101473D03*
X160222694Y-50751472D03*
X162445194Y-50751472D03*
X162445194Y-50101473D03*
X162445194Y-49451474D03*
%TD*%
D25*
%TO.C,C503*%
X170681444Y-99925859D03*
X169131444Y-99925859D03*
%TD*%
D12*
%TO.C,C1804*%
X223500445Y-181850973D03*
X223500445Y-183400973D03*
%TD*%
D18*
%TO.C,R202*%
X190925445Y-177037973D03*
X192575445Y-177037973D03*
%TD*%
D51*
%TO.C,C2304*%
X180995453Y-147787965D03*
X179899437Y-148883981D03*
%TD*%
D27*
%TO.C,C2602*%
X172941445Y-204960980D03*
X174491445Y-204960980D03*
%TD*%
D18*
%TO.C,R1205*%
X183472450Y-204452980D03*
X185122450Y-204452980D03*
%TD*%
D14*
%TO.C,C801*%
X204612945Y-67563973D03*
X203652945Y-67563973D03*
%TD*%
D18*
%TO.C,R2302*%
X169081444Y-143613859D03*
X170731444Y-143613859D03*
%TD*%
%TO.C,R404*%
X169081444Y-117070859D03*
X170731444Y-117070859D03*
%TD*%
D19*
%TO.C,R2703*%
X196131445Y-83121473D03*
X194481445Y-83121473D03*
%TD*%
D52*
%TO.C,U1101*%
X195676010Y-188342381D03*
X195676010Y-187692382D03*
X195676010Y-187042384D03*
X195676010Y-186392383D03*
X195676010Y-185742384D03*
X195676010Y-185092383D03*
X195676010Y-184442384D03*
X195676010Y-183792383D03*
X195676010Y-183142384D03*
X195676010Y-182492383D03*
X195676010Y-181842384D03*
X195676010Y-181192383D03*
X189703210Y-181192383D03*
X189703210Y-181842382D03*
X189703210Y-182492383D03*
X189703210Y-183142381D03*
X189703210Y-183792383D03*
X189703210Y-184442381D03*
X189703210Y-185092380D03*
X189703210Y-185742381D03*
X189703210Y-186392380D03*
X189703210Y-187042381D03*
X189703210Y-187692380D03*
X189703210Y-188342381D03*
%TD*%
D26*
%TO.C,C2803*%
X206101445Y-137185373D03*
X206101445Y-142722573D03*
%TD*%
D53*
%TO.C,C3201*%
X218420445Y-125553973D03*
X218420445Y-122603973D03*
%TD*%
D18*
%TO.C,R3502*%
X215436445Y-96773973D03*
X217086445Y-96773973D03*
%TD*%
D15*
%TO.C,J906*%
X226421445Y-126364573D03*
D16*
X224946444Y-127888973D03*
X227896446Y-127888973D03*
%TD*%
D30*
%TO.C,R807*%
X211498945Y-174433973D03*
X211498945Y-172783973D03*
%TD*%
D36*
%TO.C,L601*%
X172763945Y-80936973D03*
X172763945Y-82511973D03*
%TD*%
D54*
%TO.C,U3001*%
X212070445Y-130748973D03*
X212070445Y-131698973D03*
X212070445Y-132648973D03*
X214356445Y-132648973D03*
X214356445Y-131698973D03*
X214356445Y-130748973D03*
%TD*%
D17*
%TO.C,R2203*%
X160548450Y-157399980D03*
X160548450Y-159049980D03*
%TD*%
D18*
%TO.C,R401*%
X169081444Y-111355859D03*
X170731444Y-111355859D03*
%TD*%
%TO.C,R1507*%
X228771445Y-56514973D03*
X230421445Y-56514973D03*
%TD*%
D27*
%TO.C,C1012*%
X165321444Y-68198973D03*
X166871444Y-68198973D03*
%TD*%
D36*
%TO.C,L401*%
X176573945Y-111838359D03*
X176573945Y-113413359D03*
%TD*%
D14*
%TO.C,C708*%
X183848445Y-101218973D03*
X182888445Y-101218973D03*
%TD*%
D17*
%TO.C,R1903*%
X228008945Y-97853973D03*
X228008945Y-99503973D03*
%TD*%
D30*
%TO.C,R1303*%
X223246445Y-174433973D03*
X223246445Y-172783973D03*
%TD*%
D39*
%TO.C,J1402*%
X251956445Y-216518971D03*
X251956445Y-215248971D03*
X251956445Y-213978971D03*
X251956445Y-212708971D03*
X251956445Y-211438971D03*
X251956445Y-210168971D03*
X251956445Y-208898971D03*
X251956445Y-207628971D03*
X251956445Y-206358971D03*
X251956445Y-205088971D03*
X251956445Y-203818971D03*
X251956445Y-202548971D03*
X251956445Y-201278971D03*
X251956445Y-200008971D03*
X251956445Y-198738971D03*
X251956445Y-197468971D03*
X251956445Y-196198971D03*
X251956445Y-194928971D03*
X251956445Y-193658971D03*
X251956445Y-192388971D03*
X251956445Y-191118971D03*
X251956445Y-189848971D03*
X251956445Y-188578971D03*
X251956445Y-187308971D03*
X251956445Y-186038971D03*
X251956445Y-184768971D03*
X251956445Y-183498971D03*
X251956445Y-182228971D03*
X251956445Y-180958971D03*
X251956445Y-179688971D03*
X251956445Y-178418971D03*
X251956445Y-177148971D03*
X251956445Y-175878971D03*
X251956445Y-174608971D03*
X251956445Y-173338971D03*
X251956445Y-172068971D03*
X251956445Y-170798971D03*
X251956445Y-169528971D03*
X251956445Y-168258971D03*
X251956445Y-166988971D03*
X250686445Y-216518971D03*
X250686445Y-215248971D03*
X250686445Y-213978971D03*
X250686445Y-212708971D03*
X250686445Y-211438971D03*
X250686445Y-210168971D03*
X250686445Y-208898971D03*
X250686445Y-207628971D03*
X250686445Y-206358971D03*
X250686445Y-205088971D03*
X250686445Y-203818971D03*
X250686445Y-202548971D03*
X250686445Y-201278971D03*
X250686445Y-200008971D03*
X250686445Y-198738971D03*
X250686445Y-197468971D03*
X250686445Y-196198971D03*
X250686445Y-194928971D03*
X250686445Y-193658971D03*
X250686445Y-192388971D03*
X250686445Y-191118971D03*
X250686445Y-189848971D03*
X250686445Y-188578971D03*
X250686445Y-187308971D03*
X250686445Y-186038971D03*
X250686445Y-184768971D03*
X250686445Y-183498971D03*
X250686445Y-182228971D03*
X250686445Y-180958971D03*
X250686445Y-179688971D03*
X250686445Y-178418971D03*
X250686445Y-177148971D03*
X250686445Y-175878971D03*
X250686445Y-174608971D03*
X250686445Y-173338971D03*
X250686445Y-172068971D03*
X250686445Y-170798971D03*
X250686445Y-169528971D03*
X250686445Y-168258971D03*
X250686445Y-166988971D03*
X246876445Y-216518971D03*
X246876445Y-215248971D03*
X246876445Y-213978971D03*
X246876445Y-212708971D03*
X246876445Y-211438971D03*
X246876445Y-210168971D03*
X246876445Y-208898971D03*
X246876445Y-207628971D03*
X246876445Y-206358971D03*
X246876445Y-205088971D03*
X246876445Y-203818971D03*
X246876445Y-202548971D03*
X246876445Y-201278971D03*
X246876445Y-200008971D03*
X246876445Y-198738971D03*
X246876445Y-197468971D03*
X246876445Y-196198971D03*
X246876445Y-194928971D03*
X246876445Y-193658971D03*
X246876445Y-192388971D03*
X246876445Y-191118971D03*
X246876445Y-189848971D03*
X246876445Y-188578971D03*
X246876445Y-187308971D03*
X246876445Y-186038971D03*
X246876445Y-184768971D03*
X246876445Y-183498971D03*
X246876445Y-182228971D03*
X246876445Y-180958971D03*
X246876445Y-179688971D03*
X246876445Y-178418971D03*
X246876445Y-177148971D03*
X246876445Y-175878971D03*
X246876445Y-174608971D03*
X246876445Y-173338971D03*
X246876445Y-172068971D03*
X246876445Y-170798971D03*
X246876445Y-169528971D03*
X246876445Y-168258971D03*
X246876445Y-166988971D03*
X245606445Y-216518971D03*
X245606445Y-215248971D03*
X245606445Y-213978971D03*
X245606445Y-212708971D03*
X245606445Y-211438971D03*
X245606445Y-210168971D03*
X245606445Y-208898971D03*
X245606445Y-207628971D03*
X245606445Y-206358971D03*
X245606445Y-205088971D03*
X245606445Y-203818971D03*
X245606445Y-202548971D03*
X245606445Y-201278971D03*
X245606445Y-200008971D03*
X245606445Y-198738971D03*
X245606445Y-197468971D03*
X245606445Y-196198971D03*
X245606445Y-194928971D03*
X245606445Y-193658971D03*
X245606445Y-192388971D03*
X245606445Y-191118971D03*
X245606445Y-189848971D03*
X245606445Y-188578971D03*
X245606445Y-187308971D03*
X245606445Y-186038971D03*
X245606445Y-184768971D03*
X245606445Y-183498971D03*
X245606445Y-182228971D03*
X245606445Y-180958971D03*
X245606445Y-179688971D03*
X245606445Y-178418971D03*
X245606445Y-177148971D03*
X245606445Y-175878971D03*
X245606445Y-174608971D03*
X245606445Y-173338971D03*
X245606445Y-172068971D03*
X245606445Y-170798971D03*
X245606445Y-169528971D03*
X245606445Y-168258971D03*
X245606445Y-166988971D03*
%TD*%
D12*
%TO.C,C6*%
X158750000Y-96634000D03*
X158750000Y-98184000D03*
%TD*%
D55*
%TO.C,R2406*%
X182023082Y-181939336D03*
X183189808Y-180772610D03*
%TD*%
D35*
%TO.C,U3002*%
X211752945Y-128770673D03*
X213657945Y-128770673D03*
X212705445Y-126978223D03*
%TD*%
D18*
%TO.C,R2401*%
X169081444Y-187451973D03*
X170731444Y-187451973D03*
%TD*%
D56*
%TO.C,C2902*%
X224721445Y-80263973D03*
X221771445Y-80263973D03*
%TD*%
D25*
%TO.C,C203*%
X185286445Y-167639973D03*
X183736445Y-167639973D03*
%TD*%
D55*
%TO.C,R2405*%
X180626082Y-180542336D03*
X181792808Y-179375610D03*
%TD*%
D18*
%TO.C,R2104*%
X169081444Y-177903859D03*
X170731444Y-177903859D03*
%TD*%
D34*
%TO.C,XMER2501*%
X166416444Y-220344973D03*
X166416444Y-221614973D03*
X166416444Y-222884973D03*
X163236444Y-222884973D03*
X163236444Y-220344973D03*
%TD*%
D17*
%TO.C,R2403*%
X160548450Y-187752980D03*
X160548450Y-189402980D03*
%TD*%
D13*
%TO.C,C1305*%
X218928445Y-189709973D03*
X218928445Y-188749973D03*
%TD*%
D14*
%TO.C,C208*%
X184991445Y-161670973D03*
X184031445Y-161670973D03*
%TD*%
D25*
%TO.C,C1202*%
X175951945Y-67182973D03*
X174401945Y-67182973D03*
%TD*%
D57*
%TO.C,U1001*%
X159428944Y-59626473D03*
X159428944Y-58356473D03*
X159428944Y-57086473D03*
X162603944Y-57086473D03*
X162603944Y-58356473D03*
X162603944Y-59626473D03*
%TD*%
D17*
%TO.C,R3602*%
X184828945Y-50546473D03*
X184828945Y-52196473D03*
%TD*%
D30*
%TO.C,R1602*%
X202585450Y-188767980D03*
X202585450Y-187117980D03*
%TD*%
D12*
%TO.C,C601*%
X174645450Y-82646980D03*
X174645450Y-84196980D03*
%TD*%
D27*
%TO.C,C1004*%
X169512444Y-49148973D03*
X171062444Y-49148973D03*
%TD*%
D12*
%TO.C,C504*%
X172763945Y-96610859D03*
X172763945Y-98160859D03*
%TD*%
D27*
%TO.C,C1006*%
X173258945Y-59308973D03*
X174808945Y-59308973D03*
%TD*%
D19*
%TO.C,R904*%
X205338945Y-69214973D03*
X203688945Y-69214973D03*
%TD*%
D18*
%TO.C,R2902*%
X221151445Y-75818973D03*
X222801445Y-75818973D03*
%TD*%
D12*
%TO.C,C402*%
X172867450Y-108554980D03*
X172867450Y-110104980D03*
%TD*%
%TO.C,C3203*%
X227691445Y-122097473D03*
X227691445Y-123647473D03*
%TD*%
D42*
%TO.C,C1212*%
X184579450Y-206103980D03*
X185539450Y-206103980D03*
%TD*%
D58*
%TO.C,J801*%
X214864445Y-197058973D03*
X214864445Y-200958973D03*
X213594445Y-197058973D03*
X213594445Y-200958973D03*
X212324445Y-197058973D03*
X212324445Y-200958973D03*
X211054445Y-197058973D03*
X211054445Y-200958973D03*
X209784445Y-197058973D03*
X209784445Y-200958973D03*
X208514445Y-197058973D03*
X208514445Y-200958973D03*
X207244445Y-197058973D03*
X207244445Y-200958973D03*
X205974445Y-197058973D03*
X205974445Y-200958973D03*
X204704445Y-197058973D03*
X204704445Y-200958973D03*
X203434445Y-197058973D03*
X203434445Y-200958973D03*
%TD*%
D25*
%TO.C,C706*%
X184016445Y-106616473D03*
X182466445Y-106616473D03*
%TD*%
D11*
%TO.C,C1013*%
X182225445Y-73672973D03*
X182225445Y-72122973D03*
%TD*%
D12*
%TO.C,C302*%
X172867450Y-124683980D03*
X172867450Y-126233980D03*
%TD*%
D17*
%TO.C,R1904*%
X226421445Y-107696473D03*
X226421445Y-109346473D03*
%TD*%
%TO.C,R1002*%
X171176444Y-57531473D03*
X171176444Y-59181473D03*
%TD*%
D25*
%TO.C,C713*%
X184016445Y-108521473D03*
X182466445Y-108521473D03*
%TD*%
D30*
%TO.C,R2601*%
X168953944Y-204913973D03*
X168953944Y-203263973D03*
%TD*%
%TO.C,R1503*%
X239121445Y-145223973D03*
X239121445Y-143573973D03*
%TD*%
D18*
%TO.C,R301*%
X169081444Y-126341859D03*
X170731444Y-126341859D03*
%TD*%
D27*
%TO.C,C1011*%
X165321444Y-70103973D03*
X166871444Y-70103973D03*
%TD*%
D11*
%TO.C,C711*%
X189972445Y-113995473D03*
X189972445Y-112445473D03*
%TD*%
D42*
%TO.C,C1201*%
X201430445Y-210946973D03*
X202390445Y-210946973D03*
%TD*%
D18*
%TO.C,R601*%
X169081444Y-80771973D03*
X170731444Y-80771973D03*
%TD*%
D59*
%TO.C,U1901*%
X224161705Y-101847902D03*
X224161705Y-103117902D03*
X224161705Y-104387902D03*
X224161705Y-105657902D03*
X230562703Y-105657902D03*
X230562703Y-104387902D03*
X230562703Y-103117902D03*
X230562703Y-101847902D03*
%TD*%
D13*
%TO.C,C1008*%
X178288445Y-63852973D03*
X178288445Y-62892973D03*
%TD*%
D41*
%TO.C,C202*%
X189210445Y-173128973D03*
X189210445Y-174088973D03*
%TD*%
D17*
%TO.C,R1605*%
X214927945Y-187261973D03*
X214927945Y-188911973D03*
%TD*%
D14*
%TO.C,C1708*%
X234902445Y-187832973D03*
X233942445Y-187832973D03*
%TD*%
D57*
%TO.C,T1001*%
X165461444Y-59626473D03*
X165461444Y-58356473D03*
X165461444Y-57086473D03*
X168636444Y-57086473D03*
X168636444Y-58356473D03*
X168636444Y-59626473D03*
%TD*%
D12*
%TO.C,C404*%
X172763945Y-111850859D03*
X172763945Y-113400859D03*
%TD*%
D18*
%TO.C,R2702*%
X204958945Y-75755473D03*
X206608945Y-75755473D03*
%TD*%
D11*
%TO.C,C3102*%
X201402445Y-123964973D03*
X201402445Y-122414973D03*
%TD*%
D42*
%TO.C,C1707*%
X191651445Y-139699973D03*
X192611445Y-139699973D03*
%TD*%
D11*
%TO.C,C2704*%
X196258945Y-81038973D03*
X196258945Y-79488973D03*
%TD*%
D18*
%TO.C,R1001*%
X160191444Y-54863973D03*
X161841444Y-54863973D03*
%TD*%
D42*
%TO.C,C1709*%
X186952444Y-139572973D03*
X187912444Y-139572973D03*
%TD*%
D25*
%TO.C,C2103*%
X170681444Y-176021973D03*
X169131444Y-176021973D03*
%TD*%
D17*
%TO.C,R1003*%
X190670945Y-57150473D03*
X190670945Y-58800473D03*
%TD*%
D14*
%TO.C,C209*%
X184356445Y-171195973D03*
X183396445Y-171195973D03*
%TD*%
D45*
%TO.C,D1502*%
X207980945Y-157860973D03*
X209555945Y-157860973D03*
%TD*%
D37*
%TO.C,D902*%
X213238945Y-117601973D03*
X211663945Y-117601973D03*
%TD*%
D25*
%TO.C,C2701*%
X201161445Y-75818973D03*
X199611445Y-75818973D03*
%TD*%
D18*
%TO.C,R2105*%
X178606445Y-172211973D03*
X180256445Y-172211973D03*
%TD*%
D11*
%TO.C,C211*%
X190861445Y-174891973D03*
X190861445Y-173341973D03*
%TD*%
D18*
%TO.C,R405*%
X178606445Y-111759973D03*
X180256445Y-111759973D03*
%TD*%
D12*
%TO.C,C5*%
X158750000Y-82918000D03*
X158750000Y-84468000D03*
%TD*%
D60*
%TO.C,L2901*%
X218001345Y-88391973D03*
X211600545Y-88391973D03*
%TD*%
D36*
%TO.C,L2301*%
X174605445Y-141937359D03*
X174605445Y-143512359D03*
%TD*%
D34*
%TO.C,XMER2401*%
X166416444Y-187451973D03*
X166416444Y-188721973D03*
X166416444Y-189991973D03*
X163236444Y-189991973D03*
X163236444Y-187451973D03*
%TD*%
D19*
%TO.C,R1604*%
X209529945Y-183133973D03*
X207879945Y-183133973D03*
%TD*%
D12*
%TO.C,C401*%
X172867450Y-115158980D03*
X172867450Y-116708980D03*
%TD*%
D41*
%TO.C,C702*%
X188361450Y-112786980D03*
X188361450Y-113746980D03*
%TD*%
D19*
%TO.C,R901*%
X254106945Y-161543973D03*
X252456945Y-161543973D03*
%TD*%
D27*
%TO.C,C1303*%
X218915445Y-186689973D03*
X220465445Y-186689973D03*
%TD*%
%TO.C,C3007*%
X208501445Y-126872973D03*
X210051445Y-126872973D03*
%TD*%
D41*
%TO.C,C1704*%
X191877445Y-218467973D03*
X191877445Y-219427973D03*
%TD*%
D17*
%TO.C,R3402*%
X180447445Y-136715973D03*
X180447445Y-138365973D03*
%TD*%
%TO.C,R914*%
X225151445Y-131127973D03*
X225151445Y-132777973D03*
%TD*%
D61*
%TO.C,C3008*%
X210673445Y-121333973D03*
X210673445Y-124283973D03*
%TD*%
D62*
%TO.C,U1702*%
X203459845Y-179723972D03*
X203459845Y-179073973D03*
X203459845Y-178423975D03*
X203459845Y-177773974D03*
X203459845Y-177123975D03*
X203459845Y-176473974D03*
X203459845Y-175823975D03*
X203459845Y-175173974D03*
X203459845Y-174523975D03*
X203459845Y-173873974D03*
X203459845Y-173223975D03*
X203459845Y-172573974D03*
X197821045Y-172573974D03*
X197821045Y-173223973D03*
X197821045Y-173873974D03*
X197821045Y-174523972D03*
X197821045Y-175173974D03*
X197821045Y-175823972D03*
X197821045Y-176473971D03*
X197821045Y-177123972D03*
X197821045Y-177773971D03*
X197821045Y-178423972D03*
X197821045Y-179073971D03*
X197821045Y-179723972D03*
%TD*%
D63*
%TO.C,U3101*%
X206279245Y-124371073D03*
X206279245Y-123888473D03*
X206279245Y-123380473D03*
X206279245Y-122872473D03*
X206279245Y-122364473D03*
X206279245Y-121881873D03*
X203383645Y-121881873D03*
X203383645Y-122364473D03*
X203383645Y-122872473D03*
X203383645Y-123380473D03*
X203383645Y-123888473D03*
X203383645Y-124371073D03*
D64*
X204831445Y-123126473D03*
%TD*%
D19*
%TO.C,R2001*%
X254106945Y-157416473D03*
X252456945Y-157416473D03*
%TD*%
D12*
%TO.C,C2102*%
X174772450Y-170657980D03*
X174772450Y-172207980D03*
%TD*%
D25*
%TO.C,C3104*%
X205606445Y-119633973D03*
X204056445Y-119633973D03*
%TD*%
D30*
%TO.C,R3401*%
X180447445Y-142302973D03*
X180447445Y-140652973D03*
%TD*%
%TO.C,R811*%
X228008945Y-191642473D03*
X228008945Y-189992473D03*
%TD*%
D19*
%TO.C,R1703*%
X200830445Y-196214973D03*
X199180445Y-196214973D03*
%TD*%
D11*
%TO.C,C712*%
X191877445Y-113995473D03*
X191877445Y-112445473D03*
%TD*%
D18*
%TO.C,R2204*%
X169081444Y-162686973D03*
X170731444Y-162686973D03*
%TD*%
D65*
%TO.C,C304*%
X178629437Y-121625965D03*
X179725453Y-122721981D03*
%TD*%
D17*
%TO.C,R3002*%
X208577945Y-129222973D03*
X208577945Y-130872973D03*
%TD*%
D15*
%TO.C,J1005*%
X187559444Y-72135573D03*
D16*
X186084443Y-73659973D03*
X189034445Y-73659973D03*
%TD*%
D19*
%TO.C,R903*%
X199727450Y-64117980D03*
X198077450Y-64117980D03*
%TD*%
D53*
%TO.C,C2905*%
X208641445Y-91517973D03*
X208641445Y-88567973D03*
%TD*%
D42*
%TO.C,C1015*%
X189428945Y-70103973D03*
X190388945Y-70103973D03*
%TD*%
D30*
%TO.C,R1704*%
X194988945Y-136651473D03*
X194988945Y-135001473D03*
%TD*%
D14*
%TO.C,C3004*%
X213693445Y-133984973D03*
X212733445Y-133984973D03*
%TD*%
D34*
%TO.C,XMER501*%
X166416444Y-96115859D03*
X166416444Y-97385859D03*
X166416444Y-98655859D03*
X163236444Y-98655859D03*
X163236444Y-96115859D03*
%TD*%
D17*
%TO.C,R1008*%
X184955945Y-57150473D03*
X184955945Y-58800473D03*
%TD*%
D34*
%TO.C,XMER2601*%
X166416444Y-202691973D03*
X166416444Y-203961973D03*
X166416444Y-205231973D03*
X163236444Y-205231973D03*
X163236444Y-202691973D03*
%TD*%
%TO.C,XMER2101*%
X166416444Y-172211973D03*
X166416444Y-173481973D03*
X166416444Y-174751973D03*
X163236444Y-174751973D03*
X163236444Y-172211973D03*
%TD*%
D61*
%TO.C,C2705*%
X191623445Y-80058973D03*
X191623445Y-83008973D03*
%TD*%
D12*
%TO.C,C1101*%
X186583450Y-186405980D03*
X186583450Y-187955980D03*
%TD*%
D25*
%TO.C,C603*%
X170681444Y-84581973D03*
X169131444Y-84581973D03*
%TD*%
D30*
%TO.C,R911*%
X212999450Y-151048980D03*
X212999450Y-149398980D03*
%TD*%
D60*
%TO.C,L2701*%
X200729345Y-88518973D03*
X194328545Y-88518973D03*
%TD*%
D53*
%TO.C,C3002*%
X218928445Y-132284973D03*
X218928445Y-129334973D03*
%TD*%
D12*
%TO.C,C2101*%
X174772450Y-173959980D03*
X174772450Y-175509980D03*
%TD*%
D53*
%TO.C,C3101*%
X199116445Y-125553973D03*
X199116445Y-122603973D03*
%TD*%
D30*
%TO.C,R1202*%
X188956445Y-222503473D03*
X188956445Y-220853473D03*
%TD*%
D17*
%TO.C,R908*%
X207284450Y-149398980D03*
X207284450Y-151048980D03*
%TD*%
D15*
%TO.C,J903*%
X199941945Y-131191373D03*
D16*
X201416946Y-129666973D03*
X198466944Y-129666973D03*
%TD*%
D66*
%TO.C,U1201*%
X188389446Y-216026973D03*
X188889445Y-216026973D03*
X189389444Y-216026973D03*
X189889445Y-216026973D03*
X190389444Y-216026973D03*
X190889446Y-216026973D03*
X191389445Y-216026973D03*
X191889444Y-216026973D03*
X192389445Y-216026973D03*
X192889445Y-216026973D03*
X193389446Y-216026973D03*
X193889445Y-216026973D03*
X194389444Y-216026973D03*
X194889446Y-216026973D03*
X195389445Y-216026973D03*
X195889446Y-216026973D03*
X196389445Y-216026973D03*
X196889444Y-216026973D03*
D67*
X197592445Y-215323972D03*
X197592445Y-214823973D03*
X197592445Y-214323974D03*
X197592445Y-213823973D03*
X197592445Y-213323974D03*
X197592445Y-212823972D03*
X197592445Y-212323973D03*
X197592445Y-211823974D03*
X197592445Y-211323973D03*
X197592445Y-210823973D03*
X197592445Y-210323975D03*
X197592445Y-209823973D03*
X197592445Y-209323974D03*
X197592445Y-208823972D03*
X197592445Y-208323973D03*
X197592445Y-207823974D03*
X197592445Y-207323973D03*
X197592445Y-206823974D03*
D66*
X196889444Y-206120973D03*
X196389445Y-206120973D03*
X195889446Y-206120973D03*
X195389445Y-206120973D03*
X194889446Y-206120973D03*
X194389444Y-206120973D03*
X193889445Y-206120973D03*
X193389446Y-206120973D03*
X192889445Y-206120973D03*
X192389445Y-206120973D03*
X191889447Y-206120973D03*
X191389445Y-206120973D03*
X190889446Y-206120973D03*
X190389444Y-206120973D03*
X189889445Y-206120973D03*
X189389446Y-206120973D03*
X188889445Y-206120973D03*
X188389446Y-206120973D03*
D67*
X187686445Y-206823974D03*
X187686445Y-207323973D03*
X187686445Y-207823972D03*
X187686445Y-208323973D03*
X187686445Y-208823972D03*
X187686445Y-209323974D03*
X187686445Y-209823973D03*
X187686445Y-210323972D03*
X187686445Y-210823973D03*
X187686445Y-211323973D03*
X187686445Y-211823971D03*
X187686445Y-212323973D03*
X187686445Y-212823972D03*
X187686445Y-213323974D03*
X187686445Y-213823973D03*
X187686445Y-214323972D03*
X187686445Y-214823973D03*
X187686445Y-215323972D03*
D68*
X192639445Y-211073973D03*
%TD*%
D30*
%TO.C,R3302*%
X209593945Y-221741473D03*
X209593945Y-220091473D03*
%TD*%
D51*
%TO.C,C604*%
X181376453Y-87462965D03*
X180280437Y-88558981D03*
%TD*%
D11*
%TO.C,C212*%
X192766445Y-174891973D03*
X192766445Y-173341973D03*
%TD*%
D17*
%TO.C,R912*%
X211094450Y-149398980D03*
X211094450Y-151048980D03*
%TD*%
D27*
%TO.C,C1001*%
X153573944Y-58356473D03*
X155123944Y-58356473D03*
%TD*%
D18*
%TO.C,R302*%
X169081444Y-128246859D03*
X170731444Y-128246859D03*
%TD*%
D11*
%TO.C,C705*%
X187432444Y-98310973D03*
X187432444Y-96760973D03*
%TD*%
D18*
%TO.C,R909*%
X203117445Y-133222973D03*
X204767445Y-133222973D03*
%TD*%
D56*
%TO.C,C2702*%
X208211445Y-80263973D03*
X205261445Y-80263973D03*
%TD*%
D25*
%TO.C,C2403*%
X170681444Y-191261973D03*
X169131444Y-191261973D03*
%TD*%
%TO.C,C403*%
X170681444Y-115165859D03*
X169131444Y-115165859D03*
%TD*%
D18*
%TO.C,R2106*%
X178606445Y-174116973D03*
X180256445Y-174116973D03*
%TD*%
%TO.C,R2206*%
X178606445Y-158622973D03*
X180256445Y-158622973D03*
%TD*%
D30*
%TO.C,R1502*%
X238803945Y-180148973D03*
X238803945Y-178498973D03*
%TD*%
%TO.C,R1102*%
X185694449Y-183433980D03*
X185694449Y-181783980D03*
%TD*%
D18*
%TO.C,R702*%
X190099945Y-116077973D03*
X191749945Y-116077973D03*
%TD*%
D15*
%TO.C,J904*%
X204704445Y-87375573D03*
D16*
X203229444Y-88899973D03*
X206179446Y-88899973D03*
%TD*%
D18*
%TO.C,R1603*%
X207879945Y-185038973D03*
X209529945Y-185038973D03*
%TD*%
D69*
%TO.C,C2802*%
X194021945Y-144271973D03*
X196971945Y-144271973D03*
%TD*%
D11*
%TO.C,C1003*%
X171049444Y-63893973D03*
X171049444Y-62343973D03*
%TD*%
D70*
%TO.C,Q1502*%
X203858445Y-156910973D03*
X203858445Y-158810973D03*
X206058445Y-157860973D03*
%TD*%
D17*
%TO.C,R603*%
X160548450Y-81326980D03*
X160548450Y-82976980D03*
%TD*%
D25*
%TO.C,C1302*%
X215131445Y-173926473D03*
X213581445Y-173926473D03*
%TD*%
D28*
%TO.C,D1501*%
X236962445Y-215163473D03*
X236962445Y-213588473D03*
%TD*%
D30*
%TO.C,R2905*%
X210863945Y-81088973D03*
X210863945Y-79438973D03*
%TD*%
D44*
%TO.C,FB3101*%
X196783945Y-119633973D03*
X198908945Y-119633973D03*
%TD*%
D19*
%TO.C,R201*%
X184828445Y-163321973D03*
X183178445Y-163321973D03*
%TD*%
D15*
%TO.C,J902*%
X205021945Y-131191373D03*
D16*
X206496946Y-129666973D03*
X203546944Y-129666973D03*
%TD*%
D19*
%TO.C,R2903*%
X212641445Y-83121473D03*
X210991445Y-83121473D03*
%TD*%
D30*
%TO.C,R3301*%
X207688945Y-221741473D03*
X207688945Y-220091473D03*
%TD*%
D17*
%TO.C,R1902*%
X226103945Y-97853973D03*
X226103945Y-99503973D03*
%TD*%
D30*
%TO.C,R3604*%
X186733944Y-52196473D03*
X186733944Y-50546473D03*
%TD*%
D71*
%TO.C,MIC1601*%
X198648445Y-183299972D03*
X201108445Y-183299972D03*
X201108445Y-184999974D03*
X198648445Y-184999974D03*
%TD*%
D11*
%TO.C,C2801*%
X195052445Y-140474973D03*
X195052445Y-138924973D03*
%TD*%
D28*
%TO.C,FB1002*%
X165143944Y-63906473D03*
X165143944Y-62331473D03*
%TD*%
D12*
%TO.C,C2202*%
X172867450Y-153766980D03*
X172867450Y-155316980D03*
%TD*%
D25*
%TO.C,C1602*%
X209479945Y-181228973D03*
X207929945Y-181228973D03*
%TD*%
D12*
%TO.C,C7*%
X158750000Y-113398000D03*
X158750000Y-114948000D03*
%TD*%
D41*
%TO.C,C204*%
X194417445Y-173128973D03*
X194417445Y-174088973D03*
%TD*%
D69*
%TO.C,C901*%
X198085945Y-73532973D03*
X201035945Y-73532973D03*
%TD*%
D19*
%TO.C,R2704*%
X196131445Y-77406473D03*
X194481445Y-77406473D03*
%TD*%
D30*
%TO.C,R1705*%
X239883445Y-184593973D03*
X239883445Y-182943973D03*
%TD*%
%TO.C,R803*%
X216809450Y-151048980D03*
X216809450Y-149398980D03*
%TD*%
D27*
%TO.C,C1802*%
X160241444Y-52958973D03*
X161791444Y-52958973D03*
%TD*%
D62*
%TO.C,U1701*%
X195458845Y-156863972D03*
X195458845Y-156213973D03*
X195458845Y-155563975D03*
X195458845Y-154913974D03*
X195458845Y-154263975D03*
X195458845Y-153613974D03*
X195458845Y-152963975D03*
X195458845Y-152313974D03*
X195458845Y-151663975D03*
X195458845Y-151013974D03*
X195458845Y-150363975D03*
X195458845Y-149713974D03*
X189820045Y-149713974D03*
X189820045Y-150363973D03*
X189820045Y-151013974D03*
X189820045Y-151663972D03*
X189820045Y-152313974D03*
X189820045Y-152963972D03*
X189820045Y-153613971D03*
X189820045Y-154263972D03*
X189820045Y-154913971D03*
X189820045Y-155563972D03*
X189820045Y-156213971D03*
X189820045Y-156863972D03*
%TD*%
D11*
%TO.C,C201*%
X187051444Y-156921473D03*
X187051444Y-155371473D03*
%TD*%
D56*
%TO.C,C2703*%
X208211445Y-83121473D03*
X205261445Y-83121473D03*
%TD*%
D12*
%TO.C,C602*%
X174645450Y-79217980D03*
X174645450Y-80767980D03*
%TD*%
D34*
%TO.C,XMER601*%
X166416444Y-80771973D03*
X166416444Y-82041973D03*
X166416444Y-83311973D03*
X163236444Y-83311973D03*
X163236444Y-80771973D03*
%TD*%
D11*
%TO.C,C802*%
X217531445Y-193751473D03*
X217531445Y-192201473D03*
%TD*%
D18*
%TO.C,R2201*%
X169081444Y-156971973D03*
X170731444Y-156971973D03*
%TD*%
D12*
%TO.C,C2301*%
X172740450Y-143606980D03*
X172740450Y-145156980D03*
%TD*%
D30*
%TO.C,R802*%
X219436445Y-174433973D03*
X219436445Y-172783973D03*
%TD*%
D17*
%TO.C,R2103*%
X160548450Y-172639980D03*
X160548450Y-174289980D03*
%TD*%
D25*
%TO.C,C3204*%
X224656445Y-119697473D03*
X223106445Y-119697473D03*
%TD*%
D62*
%TO.C,U1705*%
X234955845Y-186361472D03*
X234955845Y-185711474D03*
X234955845Y-185061472D03*
X234955845Y-184411474D03*
X234955845Y-183761475D03*
X234955845Y-183111474D03*
X234955845Y-182461475D03*
X234955845Y-181811474D03*
X229317045Y-181811474D03*
X229317045Y-182461472D03*
X229317045Y-183111474D03*
X229317045Y-183761472D03*
X229317045Y-184411471D03*
X229317045Y-185061472D03*
X229317045Y-185711471D03*
X229317045Y-186361472D03*
%TD*%
D55*
%TO.C,R305*%
X179991082Y-120090336D03*
X181157808Y-118923610D03*
%TD*%
D17*
%TO.C,R3403*%
X182352445Y-140652973D03*
X182352445Y-142302973D03*
%TD*%
%TO.C,R1203*%
X183241445Y-220853473D03*
X183241445Y-222503473D03*
%TD*%
D30*
%TO.C,R1501*%
X230548945Y-109346473D03*
X230548945Y-107696473D03*
%TD*%
D19*
%TO.C,R1010*%
X166921444Y-72008973D03*
X165271444Y-72008973D03*
%TD*%
D26*
%TO.C,C3001*%
X211181445Y-137185373D03*
X211181445Y-142722573D03*
%TD*%
D31*
%TO.C,FB3001*%
X221595445Y-129112473D03*
X221595445Y-131237473D03*
%TD*%
D65*
%TO.C,C2404*%
X179264437Y-182204965D03*
X180360453Y-183300981D03*
%TD*%
D30*
%TO.C,R1201*%
X187051444Y-222503473D03*
X187051444Y-220853473D03*
%TD*%
D25*
%TO.C,C206*%
X185286445Y-165734973D03*
X183736445Y-165734973D03*
%TD*%
D11*
%TO.C,C2904*%
X212768945Y-81038973D03*
X212768945Y-79488973D03*
%TD*%
D12*
%TO.C,C8*%
X158750000Y-126860000D03*
X158750000Y-128410000D03*
%TD*%
D17*
%TO.C,R2303*%
X160548450Y-142159980D03*
X160548450Y-143809980D03*
%TD*%
D12*
%TO.C,C3*%
X158750000Y-174231000D03*
X158750000Y-175781000D03*
%TD*%
%TO.C,C2401*%
X174645450Y-189199980D03*
X174645450Y-190749980D03*
%TD*%
%TO.C,C1*%
X158750000Y-143751000D03*
X158750000Y-145301000D03*
%TD*%
D25*
%TO.C,C303*%
X170681444Y-130151859D03*
X169131444Y-130151859D03*
%TD*%
D54*
%TO.C,U1601*%
X206903450Y-189019980D03*
X206903450Y-188069980D03*
X206903450Y-187119980D03*
X204617450Y-187119980D03*
X204617450Y-188069980D03*
X204617450Y-189019980D03*
%TD*%
D58*
%TO.C,J802*%
X228834445Y-197058973D03*
X228834445Y-200958973D03*
X227564445Y-197058973D03*
X227564445Y-200958973D03*
X226294445Y-197058973D03*
X226294445Y-200958973D03*
X225024445Y-197058973D03*
X225024445Y-200958973D03*
X223754445Y-197058973D03*
X223754445Y-200958973D03*
X222484445Y-197058973D03*
X222484445Y-200958973D03*
X221214445Y-197058973D03*
X221214445Y-200958973D03*
X219944445Y-197058973D03*
X219944445Y-200958973D03*
X218674445Y-197058973D03*
X218674445Y-200958973D03*
X217404445Y-197058973D03*
X217404445Y-200958973D03*
%TD*%
D25*
%TO.C,C1803*%
X162426444Y-47561473D03*
X160876444Y-47561473D03*
%TD*%
D17*
%TO.C,R1006*%
X186860944Y-57150473D03*
X186860944Y-58800473D03*
%TD*%
%TO.C,R1801*%
X158793944Y-49276473D03*
X158793944Y-50926473D03*
%TD*%
D62*
%TO.C,U1703*%
X195458845Y-197503972D03*
X195458845Y-196853973D03*
X195458845Y-196203975D03*
X195458845Y-195553974D03*
X195458845Y-194903975D03*
X195458845Y-194253974D03*
X195458845Y-193603975D03*
X195458845Y-192953974D03*
X195458845Y-192303975D03*
X195458845Y-191653974D03*
X195458845Y-191003975D03*
X195458845Y-190353974D03*
X189820045Y-190353974D03*
X189820045Y-191003973D03*
X189820045Y-191653974D03*
X189820045Y-192303972D03*
X189820045Y-192953974D03*
X189820045Y-193603972D03*
X189820045Y-194253971D03*
X189820045Y-194903972D03*
X189820045Y-195553971D03*
X189820045Y-196203972D03*
X189820045Y-196853971D03*
X189820045Y-197503972D03*
%TD*%
D42*
%TO.C,C1706*%
X198509445Y-181482973D03*
X199469445Y-181482973D03*
%TD*%
D18*
%TO.C,R2901*%
X221151445Y-77723973D03*
X222801445Y-77723973D03*
%TD*%
D19*
%TO.C,R2002*%
X254106945Y-159321473D03*
X252456945Y-159321473D03*
%TD*%
D18*
%TO.C,R1506*%
X211626445Y-157860973D03*
X213276445Y-157860973D03*
%TD*%
%TO.C,R505*%
X178606445Y-96433359D03*
X180256445Y-96433359D03*
%TD*%
%TO.C,R304*%
X169081444Y-132056859D03*
X170731444Y-132056859D03*
%TD*%
D25*
%TO.C,C1801*%
X166236444Y-51053973D03*
X164686444Y-51053973D03*
%TD*%
D18*
%TO.C,R2304*%
X169081444Y-147423859D03*
X170731444Y-147423859D03*
%TD*%
D36*
%TO.C,D801*%
X207688945Y-172821473D03*
X207688945Y-174396473D03*
%TD*%
D12*
%TO.C,C301*%
X172867450Y-128112980D03*
X172867450Y-129662980D03*
%TD*%
D18*
%TO.C,R2404*%
X169081444Y-193166973D03*
X170731444Y-193166973D03*
%TD*%
D72*
%TO.C,U2801*%
X197918945Y-137413973D03*
X197918945Y-138683973D03*
X197918945Y-139953973D03*
D73*
X200068945Y-140833973D03*
D74*
X202218945Y-139953973D03*
X202218945Y-138683973D03*
X202218945Y-137413973D03*
D75*
X200068945Y-136933973D03*
%TD*%
D18*
%TO.C,R504*%
X169081444Y-101830859D03*
X170731444Y-101830859D03*
%TD*%
D46*
%TO.C,FB2901*%
X215736445Y-73596473D03*
X213611445Y-73596473D03*
%TD*%
D17*
%TO.C,R3601*%
X190543945Y-50546473D03*
X190543945Y-52196473D03*
%TD*%
D14*
%TO.C,C1705*%
X190706445Y-199643973D03*
X189746445Y-199643973D03*
%TD*%
D33*
%TO.C,R2306*%
X181134082Y-150419610D03*
X182300808Y-151586336D03*
%TD*%
D14*
%TO.C,C1703*%
X199088445Y-197738973D03*
X198128445Y-197738973D03*
%TD*%
D41*
%TO.C,C1018*%
X184384445Y-71782973D03*
X184384445Y-72742973D03*
%TD*%
D18*
%TO.C,R2202*%
X169081444Y-158876973D03*
X170731444Y-158876973D03*
%TD*%
D30*
%TO.C,R2705*%
X194353945Y-81088973D03*
X194353945Y-79438973D03*
%TD*%
D15*
%TO.C,J905*%
X216301450Y-140825580D03*
D16*
X214826449Y-142349980D03*
X217776451Y-142349980D03*
%TD*%
D30*
%TO.C,R808*%
X222293945Y-191642473D03*
X222293945Y-189992473D03*
%TD*%
D47*
%TO.C,U2901*%
X218801445Y-80911673D03*
X218801445Y-80276673D03*
X218801445Y-79616273D03*
X218801445Y-78981273D03*
D48*
X217861645Y-78041473D03*
X217226645Y-78041473D03*
X216566245Y-78041473D03*
X215931245Y-78041473D03*
D47*
X214991445Y-78981273D03*
X214991445Y-79616273D03*
X214991445Y-80276673D03*
X214991445Y-80911673D03*
D48*
X215931245Y-81851473D03*
X216566245Y-81851473D03*
X217226645Y-81851473D03*
X217861645Y-81851473D03*
D49*
X216896445Y-79946473D03*
%TD*%
D57*
%TO.C,T1002*%
X159428944Y-70421473D03*
X159428944Y-69151473D03*
X159428944Y-67881473D03*
X162603944Y-67881473D03*
X162603944Y-69151473D03*
X162603944Y-70421473D03*
%TD*%
D18*
%TO.C,R3003*%
X215690445Y-135889973D03*
X217340445Y-135889973D03*
%TD*%
D76*
%TO.C,U2001*%
X251646945Y-155339473D03*
X252146945Y-155339473D03*
X252646945Y-155339473D03*
X253146945Y-155339473D03*
X253646945Y-155339473D03*
D77*
X253871945Y-154614473D03*
X253871945Y-154114473D03*
X253871945Y-153614473D03*
D76*
X253646945Y-152889473D03*
X253146945Y-152889473D03*
X252646945Y-152889473D03*
X252146945Y-152889473D03*
X251646945Y-152889473D03*
D77*
X251421945Y-153614473D03*
X251421945Y-154114473D03*
X251421945Y-154614473D03*
%TD*%
D78*
%TO.C,J901*%
X190901850Y-88501980D03*
D79*
X189377450Y-87026979D03*
X189377450Y-89976981D03*
%TD*%
D30*
%TO.C,R3603*%
X188638945Y-52196473D03*
X188638945Y-50546473D03*
%TD*%
D17*
%TO.C,R403*%
X160548450Y-111800859D03*
X160548450Y-113450859D03*
%TD*%
D19*
%TO.C,R1005*%
X176001945Y-63372973D03*
X174351945Y-63372973D03*
%TD*%
D18*
%TO.C,R2101*%
X169081444Y-172188859D03*
X170731444Y-172188859D03*
%TD*%
D12*
%TO.C,C4*%
X158750000Y-187820000D03*
X158750000Y-189370000D03*
%TD*%
D19*
%TO.C,R1009*%
X166921444Y-66293973D03*
X165271444Y-66293973D03*
%TD*%
D13*
%TO.C,C707*%
X189337445Y-99031973D03*
X189337445Y-98071973D03*
%TD*%
D36*
%TO.C,L501*%
X176573945Y-96598359D03*
X176573945Y-98173359D03*
%TD*%
D30*
%TO.C,R2501*%
X169017444Y-222439973D03*
X169017444Y-220789973D03*
%TD*%
D17*
%TO.C,R1101*%
X187726450Y-181783980D03*
X187726450Y-183433980D03*
%TD*%
D18*
%TO.C,R501*%
X169081444Y-96115859D03*
X170731444Y-96115859D03*
%TD*%
D41*
%TO.C,C704*%
X193528445Y-112549973D03*
X193528445Y-113509973D03*
%TD*%
D25*
%TO.C,C2303*%
X170681444Y-145518859D03*
X169131444Y-145518859D03*
%TD*%
D36*
%TO.C,L2201*%
X176637445Y-156946473D03*
X176637445Y-158521473D03*
%TD*%
D19*
%TO.C,R902*%
X199727450Y-62212980D03*
X198077450Y-62212980D03*
%TD*%
D34*
%TO.C,XMER2301*%
X166416444Y-141708859D03*
X166416444Y-142978859D03*
X166416444Y-144248859D03*
X163236444Y-144248859D03*
X163236444Y-141708859D03*
%TD*%
D19*
%TO.C,R3001*%
X208831445Y-133222973D03*
X207181445Y-133222973D03*
%TD*%
D34*
%TO.C,XMER2201*%
X166416444Y-156948859D03*
X166416444Y-158218859D03*
X166416444Y-159488859D03*
X163236444Y-159488859D03*
X163236444Y-156948859D03*
%TD*%
D37*
%TO.C,L2501*%
X174503945Y-220708980D03*
X172928945Y-220708980D03*
%TD*%
D36*
%TO.C,L2401*%
X172763945Y-187616973D03*
X172763945Y-189191973D03*
%TD*%
D56*
%TO.C,C2903*%
X224721445Y-83121473D03*
X221771445Y-83121473D03*
%TD*%
D17*
%TO.C,R1505*%
X234930445Y-213550973D03*
X234930445Y-215200973D03*
%TD*%
D18*
%TO.C,R1301*%
X207879945Y-177418973D03*
X209529945Y-177418973D03*
%TD*%
D12*
%TO.C,C501*%
X172867450Y-99918980D03*
X172867450Y-101468980D03*
%TD*%
D54*
%TO.C,U903*%
X191409450Y-130726980D03*
X191409450Y-129776980D03*
X191409450Y-128826980D03*
X189123450Y-128826980D03*
X189123450Y-129776980D03*
X189123450Y-130726980D03*
%TD*%
D30*
%TO.C,R810*%
X226103945Y-191642473D03*
X226103945Y-189992473D03*
%TD*%
D18*
%TO.C,R602*%
X169081444Y-82676973D03*
X170731444Y-82676973D03*
%TD*%
D28*
%TO.C,FB1003*%
X163238944Y-63906473D03*
X163238944Y-62331473D03*
%TD*%
D18*
%TO.C,R2402*%
X169081444Y-189356973D03*
X170731444Y-189356973D03*
%TD*%
D12*
%TO.C,C2*%
X158750000Y-157467000D03*
X158750000Y-159017000D03*
%TD*%
D63*
%TO.C,U3201*%
X225329245Y-124371073D03*
X225329245Y-123888473D03*
X225329245Y-123380473D03*
X225329245Y-122872473D03*
X225329245Y-122364473D03*
X225329245Y-121881873D03*
X222433645Y-121881873D03*
X222433645Y-122364473D03*
X222433645Y-122872473D03*
X222433645Y-123380473D03*
X222433645Y-123888473D03*
X222433645Y-124371073D03*
D64*
X223881445Y-123126473D03*
%TD*%
D19*
%TO.C,R1701*%
X200957445Y-155574973D03*
X199307445Y-155574973D03*
%TD*%
D11*
%TO.C,C805*%
X211816445Y-193751473D03*
X211816445Y-192201473D03*
%TD*%
D36*
%TO.C,L2101*%
X172827445Y-172313473D03*
X172827445Y-173888473D03*
%TD*%
D11*
%TO.C,C2601*%
X170858944Y-204863973D03*
X170858944Y-203313973D03*
%TD*%
D42*
%TO.C,C1016*%
X189746445Y-64706473D03*
X190706445Y-64706473D03*
%TD*%
D12*
%TO.C,C2104*%
X176637445Y-172325973D03*
X176637445Y-173875973D03*
%TD*%
D44*
%TO.C,FB3201*%
X215960945Y-119633973D03*
X218085945Y-119633973D03*
%TD*%
D11*
%TO.C,C1208*%
X185146445Y-222453473D03*
X185146445Y-220903473D03*
%TD*%
%TO.C,C1901*%
X232938450Y-101595980D03*
X232938450Y-100045980D03*
%TD*%
D19*
%TO.C,R906*%
X205338945Y-71056473D03*
X203688945Y-71056473D03*
%TD*%
D30*
%TO.C,R809*%
X224198945Y-191642473D03*
X224198945Y-189992473D03*
%TD*%
D11*
%TO.C,C205*%
X189210445Y-160413973D03*
X189210445Y-158863973D03*
%TD*%
%TO.C,C806*%
X209911445Y-193751473D03*
X209911445Y-192201473D03*
%TD*%
D17*
%TO.C,R3303*%
X205783945Y-220091473D03*
X205783945Y-221741473D03*
%TD*%
D42*
%TO.C,C1702*%
X201176445Y-181482973D03*
X202136445Y-181482973D03*
%TD*%
D11*
%TO.C,C1601*%
X198775450Y-188717980D03*
X198775450Y-187167980D03*
%TD*%
D18*
%TO.C,R2102*%
X169081444Y-174093859D03*
X170731444Y-174093859D03*
%TD*%
D11*
%TO.C,C3202*%
X220706445Y-123964973D03*
X220706445Y-122414973D03*
%TD*%
D18*
%TO.C,R910*%
X199180445Y-133222973D03*
X200830445Y-133222973D03*
%TD*%
D27*
%TO.C,C1007*%
X173258945Y-57403973D03*
X174808945Y-57403973D03*
%TD*%
D11*
%TO.C,C803*%
X215626445Y-193751473D03*
X215626445Y-192201473D03*
%TD*%
%TO.C,C2501*%
X170922444Y-222389973D03*
X170922444Y-220839973D03*
%TD*%
D41*
%TO.C,C1010*%
X178415445Y-67591973D03*
X178415445Y-68551973D03*
%TD*%
D13*
%TO.C,C207*%
X190861445Y-160880973D03*
X190861445Y-159920973D03*
%TD*%
D25*
%TO.C,C2901*%
X217353945Y-75818973D03*
X215803945Y-75818973D03*
%TD*%
D19*
%TO.C,R1302*%
X209529945Y-179323973D03*
X207879945Y-179323973D03*
%TD*%
D70*
%TO.C,Q1501*%
X239078445Y-219135973D03*
X239078445Y-217235973D03*
X236878445Y-218185973D03*
%TD*%
D13*
%TO.C,C1009*%
X183241445Y-60042973D03*
X183241445Y-59082973D03*
%TD*%
D27*
%TO.C,C710*%
X173449445Y-132056859D03*
X174999445Y-132056859D03*
%TD*%
D62*
%TO.C,U1704*%
X192728345Y-138101472D03*
X192728345Y-137451474D03*
X192728345Y-136801472D03*
X192728345Y-136151474D03*
X192728345Y-135501475D03*
X192728345Y-134851474D03*
X192728345Y-134201475D03*
X192728345Y-133551474D03*
X187089545Y-133551474D03*
X187089545Y-134201472D03*
X187089545Y-134851474D03*
X187089545Y-135501472D03*
X187089545Y-136151471D03*
X187089545Y-136801472D03*
X187089545Y-137451471D03*
X187089545Y-138101472D03*
%TD*%
D80*
X257681350Y-226949000D02*
X257681350Y-86949020D01*
X257681350Y-86949020D02*
X236681390Y-86949020D01*
X236681390Y-86949020D02*
X236681390Y-45188880D01*
X236681390Y-45188880D02*
X147681570Y-45188880D01*
X147681570Y-226949000D02*
X257681350Y-226949000D01*
X147681570Y-45188880D02*
X147681570Y-226949000D01*
M02*
