%TF.GenerationSoftware,KiCad,Pcbnew,8.0.5*%
%TF.CreationDate,2024-11-23T04:47:03-08:00*%
%TF.ProjectId,zest,7a657374-2e6b-4696-9361-645f70636258,rev?*%
%TF.SameCoordinates,Original*%
%TF.FileFunction,Copper,L5,Inr*%
%TF.FilePolarity,Positive*%
%FSLAX46Y46*%
G04 Gerber Fmt 4.6, Leading zero omitted, Abs format (unit mm)*
G04 Created by KiCad (PCBNEW 8.0.5) date 2024-11-23 04:47:03*
%MOMM*%
%LPD*%
G01*
G04 APERTURE LIST*
%TA.AperFunction,ComponentPad*%
%ADD10C,0.499999*%
%TD*%
%TA.AperFunction,ComponentPad*%
%ADD11C,5.800000*%
%TD*%
%TA.AperFunction,ComponentPad*%
%ADD12C,2.159000*%
%TD*%
%TA.AperFunction,ComponentPad*%
%ADD13C,2.286000*%
%TD*%
%TA.AperFunction,ComponentPad*%
%ADD14C,1.828800*%
%TD*%
%TA.AperFunction,ComponentPad*%
%ADD15R,1.778000X1.778000*%
%TD*%
%TA.AperFunction,ComponentPad*%
%ADD16C,1.778000*%
%TD*%
%TA.AperFunction,ComponentPad*%
%ADD17R,1.700000X1.700000*%
%TD*%
%TA.AperFunction,ComponentPad*%
%ADD18O,1.700000X1.700000*%
%TD*%
%TA.AperFunction,ComponentPad*%
%ADD19C,0.508000*%
%TD*%
%TA.AperFunction,ViaPad*%
%ADD20C,0.508000*%
%TD*%
%TA.AperFunction,Conductor*%
%ADD21C,0.127000*%
%TD*%
%TA.AperFunction,Conductor*%
%ADD22C,0.914400*%
%TD*%
%TA.AperFunction,Conductor*%
%ADD23C,0.203200*%
%TD*%
%TA.AperFunction,Conductor*%
%ADD24C,0.635000*%
%TD*%
%TA.AperFunction,Conductor*%
%ADD25C,1.016000*%
%TD*%
%TA.AperFunction,Conductor*%
%ADD26C,0.508000*%
%TD*%
%TA.AperFunction,Profile*%
%ADD27C,0.050800*%
%TD*%
G04 APERTURE END LIST*
D10*
%TO.N,GND*%
%TO.C,U1002*%
X185126445Y-65043973D03*
X183876445Y-65043973D03*
X182626445Y-65043973D03*
X185126445Y-66293973D03*
X183876445Y-66293973D03*
X182626445Y-66293973D03*
X185126445Y-67543973D03*
X183876445Y-67543973D03*
X182626445Y-67543973D03*
%TD*%
D11*
%TO.N,unconnected-(H104-Pad1)*%
%TO.C,H104*%
X246781450Y-90248993D03*
%TD*%
D12*
%TO.N,Net-(J1202-In)*%
%TO.C,J1202*%
X153396444Y-205208859D03*
D13*
%TO.N,GND*%
X155936444Y-207748859D03*
X155936444Y-202668859D03*
X150856444Y-202668859D03*
X150856444Y-207748859D03*
%TD*%
D12*
%TO.N,Net-(J202-In)*%
%TO.C,J202*%
X153396444Y-159488859D03*
D13*
%TO.N,GND*%
X155936444Y-162028859D03*
X155936444Y-156948859D03*
X150856444Y-156948859D03*
X150856444Y-162028859D03*
%TD*%
D11*
%TO.N,unconnected-(H106-Pad1)*%
%TO.C,H106*%
X185186450Y-81643980D03*
%TD*%
D12*
%TO.N,Net-(J704-In)*%
%TO.C,J704*%
X153396444Y-129008859D03*
D13*
%TO.N,GND*%
X155936444Y-131548859D03*
X155936444Y-126468859D03*
X150856444Y-126468859D03*
X150856444Y-131548859D03*
%TD*%
D12*
%TO.N,Net-(J703-In)*%
%TO.C,J703*%
X153396444Y-83288859D03*
D13*
%TO.N,GND*%
X155936444Y-85828859D03*
X155936444Y-80748859D03*
X150856444Y-80748859D03*
X150856444Y-85828859D03*
%TD*%
D14*
%TO.N,unconnected-(J1501-Pad20)*%
%TO.C,J1501*%
X230813892Y-52694076D03*
%TO.N,unconnected-(J1501-Pad21)*%
X216313896Y-52694076D03*
%TO.N,unconnected-(J1501-Pad22)*%
X231413894Y-47744076D03*
%TO.N,unconnected-(J1501-Pad23)*%
X215713894Y-47744076D03*
%TD*%
D12*
%TO.N,Net-(J204-In)*%
%TO.C,J204*%
X153396444Y-189968859D03*
D13*
%TO.N,GND*%
X155936444Y-192508859D03*
X155936444Y-187428859D03*
X150856444Y-187428859D03*
X150856444Y-192508859D03*
%TD*%
D12*
%TO.N,Net-(J702-In)*%
%TO.C,J702*%
X153396444Y-98528859D03*
D13*
%TO.N,GND*%
X155936444Y-101068859D03*
X155936444Y-95988859D03*
X150856444Y-95988859D03*
X150856444Y-101068859D03*
%TD*%
D12*
%TO.N,Net-(J1201-In)*%
%TO.C,J1201*%
X153396444Y-220448859D03*
D13*
%TO.N,GND*%
X155936444Y-222988859D03*
X155936444Y-217908859D03*
X150856444Y-217908859D03*
X150856444Y-222988859D03*
%TD*%
D12*
%TO.N,Net-(J203-In)*%
%TO.C,J203*%
X153396444Y-144248859D03*
D13*
%TO.N,GND*%
X155936444Y-146788859D03*
X155936444Y-141708859D03*
X150856444Y-141708859D03*
X150856444Y-146788859D03*
%TD*%
D11*
%TO.N,unconnected-(H101-Pad1)*%
%TO.C,H101*%
X246781450Y-223248980D03*
%TD*%
D15*
%TO.N,/P1_3P3VAUX*%
%TO.C,J1901*%
X212432900Y-49530000D03*
D16*
%TO.N,Net-(U1901-WP)*%
X212432900Y-52070000D03*
%TD*%
D11*
%TO.N,unconnected-(H107-Pad1)*%
%TO.C,H107*%
X186329450Y-123045980D03*
%TD*%
D12*
%TO.N,Net-(J1001-In)*%
%TO.C,J1001*%
X153396444Y-52808859D03*
D13*
%TO.N,GND*%
X155936444Y-55348859D03*
X155936444Y-50268859D03*
X150856444Y-50268859D03*
X150856444Y-55348859D03*
%TD*%
D12*
%TO.N,Net-(J701-In)*%
%TO.C,J701*%
X153396444Y-113768859D03*
D13*
%TO.N,GND*%
X155936444Y-116308859D03*
X155936444Y-111228859D03*
X150856444Y-111228859D03*
X150856444Y-116308859D03*
%TD*%
D12*
%TO.N,Net-(J1004-In)*%
%TO.C,J1004*%
X153396444Y-68048859D03*
D13*
%TO.N,GND*%
X155936444Y-70588859D03*
X155936444Y-65508859D03*
X150856444Y-65508859D03*
X150856444Y-70588859D03*
%TD*%
D11*
%TO.N,unconnected-(H102-Pad1)*%
%TO.C,H102*%
X246781450Y-160258987D03*
%TD*%
%TO.N,unconnected-(H103-Pad1)*%
%TO.C,H103*%
X246781450Y-153258976D03*
%TD*%
D12*
%TO.N,Net-(J201-In)*%
%TO.C,J201*%
X153396444Y-174728859D03*
D13*
%TO.N,GND*%
X155936444Y-177268859D03*
X155936444Y-172188859D03*
X150856444Y-172188859D03*
X150856444Y-177268859D03*
%TD*%
D17*
%TO.N,/P2_VADJ*%
%TO.C,J1503*%
X214991571Y-213850980D03*
D18*
X214991571Y-216390980D03*
%TO.N,/VDD3P3V*%
X217531571Y-213850980D03*
X217531571Y-216390980D03*
%TO.N,GND*%
X220071571Y-213850980D03*
X220071571Y-216390980D03*
%TO.N,/fmc_misc/PMOD2_4*%
X222611571Y-213850980D03*
%TO.N,/fmc_misc/PMOD2_10*%
X222611571Y-216390980D03*
%TO.N,/fmc_misc/PMOD2_3*%
X225151571Y-213850980D03*
%TO.N,/fmc_misc/PMOD2_9*%
X225151571Y-216390980D03*
%TO.N,/fmc_misc/PMOD2_2*%
X227691571Y-213850980D03*
%TO.N,/fmc_misc/PMOD2_8*%
X227691571Y-216390980D03*
%TO.N,/fmc_misc/PMOD2_1*%
X230231571Y-213850980D03*
%TO.N,/fmc_misc/PMOD2_7*%
X230231571Y-216390980D03*
%TD*%
D17*
%TO.N,/P1_VADJ*%
%TO.C,J1502*%
X208641445Y-58165973D03*
D18*
X208641445Y-55625973D03*
%TO.N,/VDD3P3V*%
X206101445Y-58165973D03*
X206101445Y-55625973D03*
%TO.N,GND*%
X203561445Y-58165973D03*
X203561445Y-55625973D03*
%TO.N,/fmclpc/PMOD1_4*%
X201021445Y-58165973D03*
%TO.N,/fmclpc/PMOD1_10*%
X201021445Y-55625973D03*
%TO.N,/fmclpc/PMOD1_3*%
X198481445Y-58165973D03*
%TO.N,/fmclpc/PMOD1_9*%
X198481445Y-55625973D03*
%TO.N,/fmclpc/PMOD1_2*%
X195941445Y-58165973D03*
%TO.N,/fmclpc/PMOD1_8*%
X195941445Y-55625973D03*
%TO.N,/fmclpc/PMOD1_1*%
X193401445Y-58165973D03*
%TO.N,/fmclpc/PMOD1_7*%
X193401445Y-55625973D03*
%TD*%
D11*
%TO.N,unconnected-(H105-Pad1)*%
%TO.C,H105*%
X180106450Y-192133980D03*
%TD*%
D19*
%TO.N,GND*%
%TO.C,U1301*%
X215118445Y-178815973D03*
X215118445Y-179704973D03*
X215118445Y-180593973D03*
X215118445Y-181482973D03*
X216007445Y-178815973D03*
X216007445Y-179704973D03*
X216007445Y-180593973D03*
X216007445Y-181482973D03*
X216896445Y-178815973D03*
X216896445Y-179704973D03*
X216896445Y-180593973D03*
X216896445Y-181482973D03*
X217785445Y-178815973D03*
X217785445Y-179704973D03*
X217785445Y-180593973D03*
X217785445Y-181482973D03*
%TD*%
D20*
%TO.N,GND*%
X244836318Y-117347998D03*
X252710318Y-191110106D03*
X210038318Y-91770198D03*
X199116318Y-198500998D03*
X206863318Y-181228998D03*
X171851450Y-116695980D03*
X208387318Y-81787998D03*
X171684318Y-130151884D03*
X252710318Y-141429992D03*
X207854934Y-176402998D03*
X203688318Y-143255998D03*
X158095318Y-69151498D03*
X249932320Y-168250106D03*
X184551450Y-175115980D03*
X215499318Y-131698998D03*
X244852320Y-183490106D03*
X179050318Y-62864998D03*
X203434318Y-202691998D03*
X247630318Y-114759992D03*
X229342318Y-164210998D03*
X197551424Y-78739998D03*
X188638818Y-209824064D03*
X190226318Y-79374998D03*
X187472450Y-90025980D03*
X188575318Y-211324188D03*
X244852320Y-136349992D03*
X252710318Y-122379992D03*
X228072318Y-132753098D03*
X196957318Y-220344998D03*
X161818450Y-220327980D03*
X223921450Y-124315980D03*
X189337318Y-103631998D03*
X175113318Y-71627998D03*
X249916318Y-119887998D03*
X188575318Y-208324194D03*
X188107450Y-129776980D03*
X224790000Y-78792320D03*
X186162318Y-160273998D03*
X193401318Y-103631998D03*
X203053318Y-158749998D03*
X190988318Y-185089798D03*
X247630318Y-96979992D03*
X233787318Y-181810658D03*
X213213318Y-183133998D03*
X185693434Y-217717114D03*
X194671318Y-168655998D03*
X209784318Y-80263998D03*
X214610318Y-137921998D03*
X198100318Y-162686998D03*
X252710318Y-172060106D03*
X230739318Y-185546998D03*
X252710318Y-121109992D03*
X166311202Y-50037998D03*
X223500318Y-180720998D03*
X186035318Y-75310998D03*
X180828318Y-61975998D03*
X204831318Y-172592998D03*
X239883318Y-181736998D03*
X200393430Y-79946498D03*
X173843318Y-191364614D03*
X196068318Y-163194998D03*
X244852320Y-124919992D03*
X237978318Y-181736998D03*
X194163318Y-149459948D03*
X182606318Y-169544998D03*
X191242318Y-190372998D03*
X193147318Y-211581998D03*
X194163318Y-212597998D03*
X194417318Y-175005998D03*
X197918708Y-142112998D03*
X191115318Y-211581998D03*
X216903430Y-79946498D03*
X198100318Y-170179998D03*
X167787450Y-203944980D03*
X189464318Y-198754998D03*
X221468318Y-164210998D03*
X218674318Y-202691998D03*
X206418818Y-69214998D03*
X194988818Y-133984998D03*
X244852320Y-198730106D03*
X186543318Y-111124998D03*
X180574318Y-73532998D03*
X174518450Y-191752980D03*
X193401318Y-104901998D03*
X160548450Y-129413000D03*
X252710318Y-216510106D03*
X220706318Y-125348998D03*
X196068318Y-170687998D03*
X199548118Y-180720998D03*
X249932320Y-112219992D03*
X174645450Y-78214980D03*
X174541818Y-75818998D03*
X181336318Y-106552998D03*
X252710318Y-211430106D03*
X207919450Y-188069980D03*
X249932320Y-208890106D03*
X160548450Y-171559980D03*
X186289318Y-173354998D03*
X189210318Y-175005998D03*
X223754318Y-51942998D03*
X190607318Y-164591998D03*
X186035318Y-111632998D03*
X201148318Y-180720998D03*
X173208318Y-63372998D03*
X252710318Y-99519992D03*
X196068318Y-162432998D03*
X247630318Y-207620106D03*
X226929318Y-161416998D03*
X190607318Y-104901998D03*
X196703318Y-210819998D03*
X184955818Y-56133998D03*
X183241318Y-57784998D03*
X216515318Y-132587998D03*
X185146318Y-219836998D03*
X205633450Y-188069980D03*
X244852320Y-132539992D03*
X199116318Y-134238998D03*
X202799318Y-164210998D03*
X244852320Y-121109992D03*
X210673318Y-164210998D03*
X158095318Y-70421498D03*
X252710318Y-196190106D03*
X219313890Y-51942998D03*
X213213318Y-118490998D03*
X204871450Y-124442980D03*
X249932320Y-186030106D03*
X190226318Y-80263998D03*
X163810318Y-72008998D03*
X209911318Y-191134998D03*
X244852320Y-143969992D03*
X209784318Y-202691998D03*
X189210318Y-170814998D03*
X213594318Y-202691998D03*
X247630318Y-142699992D03*
X193147318Y-210565998D03*
X193147318Y-212597998D03*
X188638818Y-212824058D03*
X172740450Y-146159980D03*
X191178818Y-196204076D03*
X201615424Y-82930998D03*
X231668450Y-99931980D03*
X252710318Y-136349992D03*
X244852320Y-102059992D03*
X252146946Y-152272998D03*
X244852320Y-172060106D03*
X213594318Y-143454118D03*
X181971318Y-101218998D03*
X172827318Y-69087998D03*
X196830318Y-170052998D03*
X188448318Y-162432998D03*
X162435288Y-51497358D03*
X188321318Y-136801858D03*
X244852320Y-105869992D03*
X186583450Y-189085980D03*
X209847818Y-77406498D03*
X206863318Y-183133998D03*
X190607318Y-106425998D03*
X183408450Y-203436980D03*
X208514318Y-202691998D03*
X203688318Y-140138148D03*
X247630318Y-103329992D03*
X161818450Y-205214980D03*
X174899450Y-176512980D03*
X183154450Y-164320980D03*
X201416796Y-127888998D03*
X252710318Y-166980106D03*
X247630318Y-184760106D03*
X188448318Y-170814998D03*
X203434318Y-81406998D03*
X204831318Y-173354998D03*
X191877318Y-164591998D03*
X212578318Y-215391998D03*
X195560318Y-101472998D03*
X193782318Y-191004188D03*
X220813760Y-51942998D03*
X219753818Y-80921604D03*
X244852320Y-179680106D03*
X252710318Y-177140106D03*
X252710318Y-180950106D03*
X187178318Y-101472998D03*
X252710318Y-175870106D03*
X202926318Y-119633998D03*
X181844318Y-110108998D03*
X240137318Y-217233498D03*
X252710318Y-207620106D03*
X204196318Y-164210998D03*
X199116318Y-178424076D03*
X185273318Y-139572998D03*
X189210318Y-162432998D03*
X171851450Y-161653980D03*
X193401318Y-106425998D03*
X244852320Y-109679992D03*
X191115318Y-212597998D03*
X219309318Y-164210998D03*
X187940318Y-109981998D03*
X198466840Y-127888998D03*
X188321318Y-137540998D03*
X187178318Y-109981998D03*
X192131318Y-210565998D03*
X186860818Y-56133998D03*
X189210318Y-163194998D03*
X247630318Y-146509992D03*
X211054318Y-202691998D03*
X189337318Y-106425998D03*
X252710318Y-206350106D03*
X160548450Y-160020000D03*
X249932320Y-170790106D03*
X247630318Y-133857998D03*
X240073818Y-143549114D03*
X197528818Y-80271618D03*
X249916318Y-135127998D03*
X182646450Y-156700980D03*
X206560296Y-127888998D03*
X195052318Y-141604998D03*
X197551424Y-81152998D03*
X191877318Y-165861998D03*
X196068318Y-170052998D03*
X172065318Y-64007998D03*
X183495318Y-65912998D03*
X194163318Y-150364188D03*
X202418318Y-210184998D03*
X249932320Y-116029992D03*
X187686318Y-161797998D03*
X203434318Y-209208114D03*
X160548450Y-80246980D03*
X213721318Y-191134998D03*
X197833618Y-74929998D03*
X247630318Y-188570106D03*
X249932320Y-100789992D03*
X171684318Y-145518884D03*
X217531318Y-132537198D03*
X188448318Y-163194998D03*
X191496318Y-133603998D03*
X190607318Y-165861998D03*
X189337318Y-107695998D03*
X227945318Y-129539998D03*
X194163318Y-211581998D03*
X202291318Y-75818998D03*
X213919438Y-80517998D03*
X190607318Y-220217998D03*
X249932320Y-145239992D03*
X214356318Y-175259998D03*
X247630318Y-173330106D03*
X190861318Y-159003998D03*
X182606318Y-165734998D03*
X190988318Y-185741054D03*
X255567818Y-155066998D03*
X177272318Y-57721498D03*
X193769618Y-142874998D03*
X227564318Y-202691998D03*
X247630318Y-141429992D03*
X204704318Y-202691998D03*
X244836318Y-140207998D03*
X194671318Y-167385998D03*
X224738948Y-81660998D03*
X187051318Y-154241498D03*
X184765318Y-98932998D03*
X193464818Y-77406498D03*
X247630318Y-169520106D03*
X179431318Y-75818998D03*
X219944318Y-202691998D03*
X196830318Y-162432998D03*
X191242318Y-70103998D03*
X200068818Y-135191498D03*
X181336318Y-104647998D03*
X192131318Y-103631998D03*
X211054318Y-131698998D03*
X187940318Y-102234998D03*
X171811318Y-160781998D03*
X222230318Y-161416998D03*
X194163318Y-209549998D03*
X202545318Y-129666998D03*
X216896318Y-164210998D03*
X204871450Y-122918980D03*
X187940318Y-109219998D03*
X252710318Y-96979992D03*
X195560318Y-109092998D03*
X207244318Y-202691998D03*
X181336318Y-219836998D03*
X185654318Y-99821998D03*
X194798318Y-101472998D03*
X192258318Y-96519998D03*
X252710318Y-201270106D03*
X247630318Y-122427998D03*
X181209318Y-55879998D03*
X171684318Y-115165884D03*
X194798318Y-109854998D03*
X211816318Y-191134998D03*
X164191318Y-58356498D03*
X205529818Y-67563998D03*
X230866318Y-181863998D03*
X196449318Y-101980998D03*
X223921450Y-121902980D03*
X233914318Y-187070998D03*
X247630318Y-200000106D03*
X226929318Y-164210998D03*
X247630318Y-99519992D03*
X252710318Y-169520106D03*
X191115318Y-78104998D03*
X224897318Y-129539998D03*
X201402318Y-124967998D03*
X217531318Y-191134998D03*
X192131318Y-107695998D03*
X213934424Y-81406998D03*
X185567450Y-112123980D03*
X253853318Y-155955998D03*
X244852320Y-191110106D03*
X221214318Y-202691998D03*
X187178318Y-109219998D03*
X171811318Y-191261998D03*
X252710318Y-105869992D03*
X195092450Y-120759980D03*
X249932320Y-210160106D03*
X206482318Y-90804998D03*
X201910318Y-185038998D03*
X214864318Y-202691998D03*
X249932320Y-197460106D03*
X181336318Y-108457998D03*
X182606318Y-167639998D03*
X226207450Y-83167980D03*
X222313884Y-51942998D03*
X190389386Y-215264998D03*
X217404318Y-202691998D03*
X221849318Y-119697498D03*
X252710318Y-192380106D03*
X199243318Y-157987998D03*
X213506434Y-174878998D03*
X158095318Y-59626498D03*
X220579318Y-185800998D03*
X219055318Y-142366998D03*
X226207450Y-80246980D03*
X244852320Y-175870106D03*
X187940318Y-101472998D03*
X171811318Y-175998884D03*
X164318318Y-66293998D03*
X228008818Y-96773998D03*
X190607318Y-107695998D03*
X220706318Y-161416998D03*
X199243318Y-173100998D03*
X192131318Y-211581998D03*
X171851450Y-108567980D03*
X160548450Y-141079980D03*
X197465318Y-162686998D03*
X188889262Y-215264998D03*
X247630318Y-180950106D03*
X222484318Y-202691998D03*
X205974318Y-202691998D03*
X208806418Y-70103998D03*
X192131318Y-212597998D03*
X214904450Y-148318980D03*
X249932320Y-189840106D03*
X167787450Y-221597980D03*
X191389384Y-206882998D03*
X213634450Y-142349980D03*
X244852320Y-213970106D03*
X208514318Y-164210998D03*
X249932320Y-201270106D03*
X182606318Y-171195998D03*
X200068818Y-142239998D03*
X190226318Y-158749998D03*
X182392450Y-207754980D03*
X203229340Y-90804998D03*
X247630318Y-177140106D03*
X244852320Y-210160106D03*
X221722318Y-121495564D03*
X171851450Y-153779980D03*
X190607318Y-167385998D03*
X192131318Y-209549998D03*
X164191318Y-59626498D03*
X249932320Y-140159992D03*
X187178318Y-102234998D03*
X247630318Y-166980106D03*
X252710318Y-102059992D03*
X249932320Y-193650106D03*
X207371318Y-91770198D03*
X249932320Y-131269992D03*
X252710318Y-137619992D03*
X244852320Y-194920106D03*
X191242318Y-204215998D03*
X244852320Y-113489992D03*
X186924318Y-161035998D03*
X252710318Y-186030106D03*
X244852320Y-202540106D03*
X171811318Y-99925884D03*
X193655318Y-139699998D03*
X247630318Y-130047998D03*
X223627318Y-164210998D03*
X171811318Y-84581998D03*
X247630318Y-212700106D03*
X247630318Y-118569992D03*
X252710318Y-187300106D03*
X252710318Y-110949992D03*
X244852320Y-206350106D03*
X171724450Y-140190980D03*
X215626318Y-191134998D03*
X247630318Y-192380106D03*
X249932320Y-123649992D03*
X244852320Y-128729992D03*
X196322318Y-109600998D03*
X249932320Y-213970106D03*
X187940318Y-171703998D03*
X247630318Y-211430106D03*
X191623318Y-64642998D03*
X183114318Y-161670998D03*
X252710318Y-112219992D03*
X184384318Y-73659998D03*
X244836318Y-98249992D03*
X191178818Y-149713948D03*
X247630318Y-196214998D03*
X191389384Y-215264998D03*
X218420318Y-127380998D03*
X223881318Y-123126498D03*
X249932320Y-215240106D03*
X218102818Y-82908646D03*
X176129318Y-132056884D03*
X194163318Y-210565998D03*
X171724450Y-124696980D03*
X185948450Y-184894980D03*
X191877318Y-220217998D03*
X249932320Y-182220106D03*
X173990000Y-129662980D03*
X191115318Y-209549998D03*
X188321318Y-133550658D03*
X230739318Y-184657998D03*
X172618400Y-102489000D03*
X223754318Y-202691998D03*
X188361450Y-114663980D03*
X252710318Y-127459992D03*
X219436318Y-171703998D03*
X195560318Y-102234998D03*
X252710318Y-202540106D03*
X196830318Y-170687998D03*
X252710318Y-182220106D03*
X201910318Y-183260998D03*
X189210318Y-170052998D03*
X249932320Y-138889992D03*
X174899450Y-169654980D03*
X194671318Y-165861998D03*
X252710318Y-126189992D03*
X252710318Y-107139992D03*
X240264318Y-213613998D03*
X191877318Y-167385998D03*
X193401318Y-167385998D03*
X190607318Y-103631998D03*
X244852320Y-168250106D03*
X190988318Y-66674998D03*
X207371318Y-126872998D03*
X203610340Y-127888998D03*
X195560318Y-109854998D03*
X205593318Y-164210998D03*
X174645450Y-85199980D03*
X225024318Y-202691998D03*
X193401318Y-165861998D03*
X252710318Y-146509992D03*
X197465318Y-129666998D03*
X247630318Y-203810106D03*
X228834318Y-202691998D03*
X191115318Y-210565998D03*
X252710318Y-117299992D03*
X167112318Y-61213998D03*
X214737318Y-185927998D03*
X222611318Y-104393998D03*
X190607318Y-168655998D03*
X192131318Y-104901998D03*
X196830318Y-163194998D03*
X187178318Y-172465998D03*
X189034296Y-75183998D03*
X208450818Y-78866998D03*
X217698450Y-139809980D03*
X252710318Y-116029992D03*
X249932320Y-127459992D03*
X223627318Y-161416998D03*
X252710318Y-132539992D03*
X249932320Y-98249992D03*
X186670318Y-100837998D03*
X208641318Y-93090998D03*
X247630318Y-216510106D03*
X194671318Y-164591998D03*
X184678450Y-158732980D03*
X188765818Y-56133998D03*
X183408450Y-206230980D03*
X252710318Y-142699992D03*
X226294318Y-202691998D03*
X244852320Y-187300106D03*
X193401318Y-164591998D03*
X160548450Y-110853980D03*
X188448318Y-96646998D03*
X187472450Y-86977980D03*
X247630318Y-137667998D03*
X194798318Y-109092998D03*
X169398318Y-50164998D03*
X200386318Y-125806198D03*
X211094450Y-148318980D03*
X208577818Y-128206498D03*
X210673318Y-119760998D03*
X192131318Y-106425998D03*
X172593000Y-92311980D03*
X252710318Y-131269992D03*
X191877318Y-168655998D03*
X193401318Y-107695998D03*
X190670818Y-56133998D03*
X189337318Y-104901998D03*
X227310318Y-55625998D03*
X249932320Y-143969992D03*
X199243318Y-169036998D03*
X222611318Y-105663998D03*
X212324318Y-202691998D03*
X193401318Y-168655998D03*
X254488318Y-154114498D03*
X174772450Y-185021980D03*
X183535450Y-114155980D03*
X223596200Y-142189200D03*
X252710318Y-197460106D03*
X160548450Y-190373000D03*
X247630318Y-107139992D03*
X213911818Y-78612998D03*
X193528318Y-114299998D03*
X219309318Y-161416998D03*
X160548450Y-99187000D03*
X202608818Y-121559064D03*
X193147318Y-209549998D03*
X190607318Y-67817998D03*
X217404318Y-74802998D03*
X188448318Y-170052998D03*
X194290318Y-190353948D03*
X249932320Y-205080106D03*
X197465318Y-170179998D03*
X179050318Y-68579998D03*
X247630318Y-126237998D03*
X192430400Y-129776980D03*
X218928318Y-190499998D03*
X204871450Y-121902980D03*
X183241318Y-214756998D03*
X188332240Y-155066998D03*
X252710318Y-212700106D03*
X188638818Y-214324182D03*
X194798318Y-102234998D03*
X207284450Y-148318980D03*
X163556318Y-47561498D03*
X181336318Y-102742998D03*
X189337318Y-97154998D03*
X209784318Y-83121498D03*
X247630318Y-110949992D03*
%TO.N,/VDD1P8V*%
X192639318Y-111124998D03*
X225786318Y-119697498D03*
X191889256Y-217627200D03*
X193401318Y-111759998D03*
X191877318Y-205231998D03*
X226461450Y-124061980D03*
X226461450Y-125585980D03*
X226461450Y-123299980D03*
X192258318Y-100330000D03*
X227691318Y-124713998D03*
X193909318Y-171322998D03*
X192436118Y-204215998D03*
X188956318Y-139572998D03*
X193401318Y-161772600D03*
X226472880Y-122554998D03*
X192258318Y-100964998D03*
X188321318Y-138356338D03*
X226461450Y-124950980D03*
X191877318Y-204596998D03*
X191889256Y-217017600D03*
X193909318Y-171957998D03*
X188321318Y-156209998D03*
X188321318Y-156971998D03*
X193401318Y-162432998D03*
X189718318Y-157479998D03*
X193020318Y-220344998D03*
%TO.N,/VSS1P8V*%
X186289318Y-107568998D03*
X185908318Y-104901998D03*
X224370648Y-136677398D03*
X191369318Y-170687998D03*
X187051318Y-107568998D03*
X219944318Y-136651998D03*
X183241318Y-219836998D03*
X186543318Y-103885998D03*
X187553600Y-168374060D03*
X187178318Y-103885998D03*
X188010800Y-164820600D03*
X189464318Y-109981998D03*
X189337318Y-100329998D03*
X186537600Y-165735000D03*
X188389390Y-217678000D03*
X188321318Y-218820998D03*
X189464318Y-110616998D03*
X188575318Y-164874192D03*
X215539450Y-139428980D03*
X190855600Y-161671000D03*
X187178318Y-165734998D03*
X168890318Y-170687998D03*
X168890318Y-181609998D03*
X188422918Y-167893998D03*
X190861318Y-171830998D03*
X192766318Y-170941998D03*
X191369318Y-171449998D03*
X188168918Y-168374058D03*
X223799400Y-136677398D03*
X192766318Y-171576998D03*
X214483318Y-128777998D03*
X187305318Y-107060998D03*
X218420318Y-135889998D03*
X213670518Y-129539998D03*
X190861318Y-171068998D03*
X191369318Y-110235998D03*
X219182318Y-137921998D03*
X188448318Y-98424998D03*
X189972318Y-110362998D03*
X187432318Y-217550998D03*
X189337318Y-100964998D03*
X190889258Y-217601800D03*
X191369318Y-110871000D03*
X217404318Y-134873998D03*
X218420318Y-137921998D03*
X189972318Y-110997998D03*
X216301450Y-139428980D03*
X186670318Y-107060998D03*
X189845318Y-218439998D03*
X185267600Y-104901998D03*
X190099318Y-160527998D03*
X213848318Y-128015998D03*
X219055318Y-136651998D03*
X187858400Y-167893998D03*
X190861318Y-162305998D03*
X190889258Y-216992200D03*
X188389390Y-217042998D03*
%TO.N,/VREFADC_1P25V*%
X184130318Y-105663998D03*
X185400318Y-166750998D03*
X187599450Y-128760980D03*
%TO.N,/ADC0/se2diff_0/CM*%
X171811318Y-162686998D03*
X173843318Y-193064636D03*
X171811318Y-177903884D03*
X171684318Y-147423884D03*
%TO.N,/ADC0/ADC0_CLK-*%
X188702318Y-176910998D03*
X185527318Y-60070998D03*
%TO.N,/ADC0/ADC0_CLK+*%
X186162318Y-60070998D03*
X188067318Y-176910998D03*
%TO.N,/ADC1/se2diff_4/CM*%
X170795318Y-107568998D03*
X170756202Y-87502998D03*
X170756202Y-102869998D03*
X171684318Y-132056884D03*
X170795318Y-118109998D03*
%TO.N,/ADC1/ADC1_CLK-*%
X190607318Y-117220998D03*
X190099318Y-60070998D03*
%TO.N,/ADC1/ADC1_CLK+*%
X189337318Y-60070998D03*
X191242318Y-117220998D03*
%TO.N,/slowmon/I_Mon*%
X218547318Y-184403998D03*
X202608818Y-69214998D03*
X201021318Y-68325998D03*
%TO.N,/slowmon/ADC3*%
X214102318Y-185419998D03*
X216809450Y-152128980D03*
%TO.N,/slowmon/V3P7V_Mon*%
X209189450Y-152128980D03*
X213380450Y-185275980D03*
%TO.N,/slowmon/V2P2V_Mon*%
X212745450Y-184894980D03*
X212999450Y-152128980D03*
%TO.N,/V12P0V_bus*%
X216809450Y-148318980D03*
X213634450Y-74912980D03*
%TO.N,/lmk01801/LMK57_plane*%
X188067318Y-67055998D03*
X169017318Y-61213998D03*
X186543318Y-66547998D03*
X184384318Y-68960998D03*
X184384318Y-70865998D03*
%TO.N,/lmk01801/LMK13_plane*%
X171176318Y-50164998D03*
X163238818Y-61213998D03*
X181209318Y-67055998D03*
X184126254Y-63626998D03*
%TO.N,/lmk01801/LMK2468_plane*%
X181209318Y-64515998D03*
X186543318Y-68833998D03*
X165207318Y-61213998D03*
X181336318Y-68833998D03*
X186670318Y-64515998D03*
X181082318Y-70738998D03*
X179177318Y-64007998D03*
X188321318Y-70103998D03*
X188829318Y-64642998D03*
X182225318Y-74675998D03*
X171176318Y-71627998D03*
%TO.N,/lmk01801/CLKinN*%
X189337318Y-68579998D03*
X179177318Y-61086998D03*
%TO.N,/lmk01801/CLKinP*%
X189972318Y-69214998D03*
X179685318Y-60451998D03*
%TO.N,/lmk01801/aux_clk_p*%
X185146318Y-70611998D03*
X168255318Y-69595998D03*
%TO.N,/lmk01801/aux_clk_n*%
X168255318Y-68960998D03*
X185781318Y-70611998D03*
%TO.N,/VSS3P3V*%
X186207400Y-215264998D03*
X186289318Y-207263998D03*
X191496318Y-186391040D03*
X207879318Y-116458998D03*
X174859318Y-134873998D03*
X178963450Y-186672980D03*
X186289318Y-207898998D03*
X187726450Y-184640980D03*
X187599450Y-186291980D03*
X205720318Y-118617998D03*
X158857318Y-61975998D03*
X186543318Y-214756998D03*
X161016318Y-60959998D03*
X180193318Y-186672980D03*
X190988318Y-187041026D03*
X186797318Y-215264998D03*
X185953400Y-214757000D03*
X183027450Y-186672980D03*
X181884450Y-186672980D03*
%TO.N,/VDD3P3V*%
X250678318Y-159257998D03*
X250678318Y-161543998D03*
X227945318Y-186308998D03*
X250805318Y-155320998D03*
X205593318Y-210908136D03*
X223246318Y-171703998D03*
X198430518Y-180720998D03*
X250741818Y-157416498D03*
X201934448Y-142874998D03*
X199624318Y-179069998D03*
X199624318Y-210946998D03*
X197846318Y-182752998D03*
X166350318Y-53974998D03*
X199116318Y-179724302D03*
X215206202Y-174878998D03*
X228008818Y-188848998D03*
X212578318Y-172973998D03*
X231501318Y-56514998D03*
X218801318Y-185673998D03*
X250741818Y-153614626D03*
X224135318Y-132841998D03*
X255504318Y-152399998D03*
X226103818Y-188848998D03*
X191178818Y-197103998D03*
X224135318Y-188848998D03*
X191115318Y-198119998D03*
X206776450Y-174353980D03*
X200259318Y-210946998D03*
X203053318Y-144271998D03*
X204490450Y-189847980D03*
X239669450Y-165971980D03*
X206736318Y-179323998D03*
X212618450Y-212580980D03*
X190861318Y-198881998D03*
X215880318Y-175259998D03*
X216261318Y-186054998D03*
X222293818Y-188848998D03*
X221658818Y-132333998D03*
X206863318Y-185038998D03*
X254488318Y-153233626D03*
X230485318Y-58038998D03*
X167366318Y-52958998D03*
X221341318Y-171703998D03*
%TO.N,Net-(U1201-CLKP)*%
X189337318Y-217042998D03*
X173081318Y-66674998D03*
%TO.N,Net-(U1201-CLKN)*%
X173081318Y-66039998D03*
X189972318Y-217042998D03*
%TO.N,/P2_VADJ*%
X244852320Y-166980106D03*
X197084318Y-157098998D03*
X236327318Y-186435998D03*
X205593318Y-182879998D03*
X203053318Y-156844998D03*
X247630318Y-168250106D03*
X235819318Y-187832998D03*
X191496318Y-138048998D03*
X196811014Y-197738998D03*
X202164318Y-180720998D03*
X191623318Y-138810998D03*
X202164318Y-179704998D03*
%TO.N,/slowmon/LO_MON*%
X217785318Y-184403998D03*
X223500318Y-184530998D03*
X158793818Y-51942998D03*
X183241318Y-182879998D03*
%TO.N,/P1_3P3VAUX*%
X249932320Y-107139992D03*
X229128450Y-101836980D03*
X226421318Y-110362998D03*
X228326318Y-110362998D03*
%TO.N,Net-(U2701-VINA)*%
X203243818Y-80271618D03*
X199411212Y-77088998D03*
%TO.N,/PowerSupply/DC3P7V*%
X206522450Y-126982980D03*
X196743450Y-117584980D03*
X190226318Y-83692998D03*
X190226318Y-82930998D03*
X209189450Y-148318980D03*
X196743450Y-116839998D03*
X196703318Y-116204998D03*
X196743450Y-118346980D03*
%TO.N,/PowerSupply/DC2P2V*%
X208641318Y-86994998D03*
X216007318Y-117347998D03*
X208641318Y-86272114D03*
X212999450Y-148318980D03*
X213253450Y-120886980D03*
X216007318Y-118236998D03*
%TO.N,/ADC1/ADC1_D1C_N*%
X196322318Y-108711998D03*
X247630318Y-124967998D03*
%TO.N,/ADC1/ADC1_DCO_P*%
X196576318Y-105917998D03*
X249916318Y-121411998D03*
%TO.N,/ADC0/ADC0_D1C_N*%
X197465318Y-169417998D03*
X252710318Y-135127998D03*
%TO.N,/fmclpc/P1_TDO*%
X249932320Y-108409992D03*
X231755318Y-107695998D03*
%TO.N,/fmclpc/P1_GA0*%
X223119318Y-97916998D03*
X252710318Y-104599992D03*
%TO.N,/ADC0/ADC0_DCO_P*%
X248265318Y-140207998D03*
X202926318Y-166877998D03*
%TO.N,/ADC0/ADC0_D0D_N*%
X247630318Y-136397998D03*
X197719318Y-171703998D03*
%TO.N,/fmc_misc/HDMI_CEC*%
X240010318Y-104266998D03*
X240010318Y-98805998D03*
%TO.N,/ADC0/ADC0_D0B_N*%
X249916318Y-133476998D03*
X197719318Y-164083998D03*
%TO.N,/ADC0/ADC0_D0D_P*%
X248265318Y-136397998D03*
X197719318Y-171068998D03*
%TO.N,/fmclpc/PMOD1_8*%
X247630318Y-112219992D03*
X241066450Y-93835980D03*
%TO.N,/ADC1/ADC1_D0A_P*%
X194163318Y-99313998D03*
X248265318Y-117347998D03*
%TO.N,/ADC0/ADC0_D1D_N*%
X196195318Y-172719998D03*
X249916318Y-137286998D03*
%TO.N,/P1_VADJ*%
X244876450Y-97010980D03*
X247670450Y-98280980D03*
%TO.N,/ADC1/ADC1_D0A_N*%
X247630318Y-117347998D03*
X194163318Y-99948998D03*
%TO.N,/ADC1/ADC1_D1C_P*%
X248265318Y-124967998D03*
X196322318Y-108076998D03*
%TO.N,/ADC1/ADC1_D1A_P*%
X248265318Y-121157998D03*
X196449318Y-100456998D03*
%TO.N,/fmclpc/PMOD1_4*%
X249916318Y-114759992D03*
X237978318Y-91312998D03*
%TO.N,/ADC0/ADC0_D1A_N*%
X247630318Y-132587998D03*
X197719318Y-161924998D03*
%TO.N,/P1_12PV0*%
X253512450Y-103360980D03*
X254909450Y-100820980D03*
X199537450Y-60688980D03*
X200426450Y-60688980D03*
X201315450Y-60688980D03*
X253512450Y-100820980D03*
X254909450Y-103360980D03*
%TO.N,/fmclpc/PMOD1_3*%
X252750450Y-114790980D03*
X241320450Y-92565980D03*
%TO.N,/ADC0/ADC0_D0B_P*%
X197719318Y-163448998D03*
X249916318Y-132841998D03*
%TO.N,/fmclpc/LMK_CLKout3_P*%
X181971318Y-61594998D03*
X252710318Y-130047998D03*
%TO.N,/ADC1/ADC1_D0B_P*%
X199497318Y-102361998D03*
X253345318Y-119887998D03*
%TO.N,/fmclpc/P1_GA1*%
X249932320Y-103329992D03*
X226103818Y-96773998D03*
%TO.N,/ADC1/ADC1_D1A_N*%
X196449318Y-101091998D03*
X247630318Y-121157998D03*
%TO.N,/ADC0/ADC0_DCO_N*%
X247630318Y-140207998D03*
X202926318Y-167512998D03*
%TO.N,/ADC0/ADC0_D1C_P*%
X253345318Y-135127998D03*
X197465318Y-168782998D03*
%TO.N,/ADC1/ADC1_D0B_N*%
X252710318Y-119887998D03*
X199497318Y-102996998D03*
%TO.N,/ADC0/ADC0_D0A_N*%
X194544318Y-161162998D03*
X249916318Y-129666998D03*
%TO.N,/fmclpc/LMK_CLKout3_N*%
X253345318Y-130047998D03*
X182606318Y-61594998D03*
%TO.N,/ADC1/ADC1_D0D_N*%
X252710318Y-124586998D03*
X196195318Y-111251998D03*
%TO.N,/fmclpc/PMOD1_2*%
X237216318Y-93852998D03*
X247630318Y-113489992D03*
%TO.N,/fmclpc/PMOD1_9*%
X239669450Y-91930980D03*
X252710318Y-113489992D03*
%TO.N,/fmclpc/PMOD1_1*%
X247630318Y-109679992D03*
X240010318Y-95249998D03*
%TO.N,/fmc_misc/HDMI_SCL*%
X247630318Y-104599992D03*
X242677318Y-98551998D03*
%TO.N,/fmclpc/PMOD1_7*%
X247630318Y-108409992D03*
X240558450Y-94597980D03*
%TO.N,/ADC1/ADC1_DCO_N*%
X196576318Y-106552998D03*
X249916318Y-122046998D03*
%TO.N,/ADC0/ADC0_D0A_P*%
X249916318Y-129031998D03*
X193909318Y-161162998D03*
%TO.N,/fmclpc/P1_TDI*%
X249932320Y-109679992D03*
X231755318Y-109346998D03*
%TO.N,/ADC1/ADC1_D0D_P*%
X252710318Y-123951998D03*
X196195318Y-110616998D03*
%TO.N,/fmclpc/PMOD1_10*%
X249956450Y-113520980D03*
%TO.N,/ADC0/ADC0_D1A_P*%
X248265318Y-132587998D03*
X197719318Y-161289998D03*
%TO.N,/ADC0/ADC0_D1D_P*%
X196195318Y-172084998D03*
X249916318Y-136651998D03*
%TO.N,/fmclpc/P1_SDA*%
X232938450Y-105646980D03*
X229001450Y-105646980D03*
X252710318Y-108409992D03*
%TO.N,/fmclpc/P1_SCL*%
X232938450Y-104376980D03*
X229001450Y-104376980D03*
X252710318Y-109679992D03*
%TO.N,/fmclpc/P2_ADC_SDIO_DIR*%
X228326318Y-146811998D03*
X240177450Y-177020980D03*
X244836318Y-177140106D03*
%TO.N,/fmclpc/P2_ADC0_CSB*%
X197338318Y-154939998D03*
X224770318Y-156971998D03*
%TO.N,/fmclpc/P2_AMC7823_SPI_MISO*%
X244836318Y-182220106D03*
X236454318Y-184530998D03*
%TO.N,/fmclpc/P2_SDI*%
X204831318Y-178424076D03*
X247646320Y-179680106D03*
X196830318Y-193604132D03*
%TO.N,/fmclpc/P2_TDI*%
X249916318Y-179680106D03*
%TO.N,/ad9781/D_P_0*%
X252710318Y-194968112D03*
X195687318Y-202564998D03*
%TO.N,/fmc_misc/PMOD2_9*%
X247630318Y-183490106D03*
%TO.N,/ad9781/D_N_4*%
X200513318Y-207771998D03*
X248265318Y-202588112D03*
%TO.N,/ad9781/D_N_12*%
X194036318Y-218312998D03*
X248265318Y-210208112D03*
%TO.N,/fmclpc/P2_DAC_CSB*%
X196830318Y-196214998D03*
X244852320Y-188570106D03*
%TO.N,/ad9781/D_N_0*%
X195052318Y-202564998D03*
X253345318Y-194968112D03*
%TO.N,/ad9781/DCO_P*%
X249916318Y-192047112D03*
X199116318Y-212597998D03*
%TO.N,/ad9781/D_N_3*%
X249916318Y-199032112D03*
X199243318Y-205739998D03*
%TO.N,/fmclpc/P2_POLL_SCLK*%
X233914318Y-191769998D03*
X194163318Y-196849998D03*
%TO.N,/fmclpc/P2_ADC_SDIO*%
X244836318Y-178410106D03*
X226207450Y-148191980D03*
%TO.N,/fmclpc/P2_ADC1_CSB*%
X196957318Y-151664160D03*
X225405318Y-155320998D03*
%TO.N,/fmc_misc/PMOD2_2*%
X252710318Y-188570106D03*
%TO.N,/fmclpc/P2_AD7794_DOUT{slash}RDYb*%
X236454318Y-183111138D03*
X249916318Y-183490106D03*
%TO.N,/ad9781/D_P_12*%
X247630318Y-210208112D03*
X193401318Y-218312998D03*
%TO.N,/ad9781/DCO_N*%
X249916318Y-191412112D03*
X199116318Y-211962998D03*
%TO.N,/fmc_misc/PMOD2_4*%
X249932320Y-187300106D03*
%TO.N,/fmclpc/P2_SCLK*%
X206990318Y-153542998D03*
X247646320Y-178410106D03*
X205847318Y-177799998D03*
X197338318Y-194254118D03*
%TO.N,/fmclpc/P2_AMC7823_SPI_SS*%
X244836318Y-180950106D03*
X197338318Y-195554090D03*
%TO.N,/fmc_misc/PMOD2_7*%
X247630318Y-191110106D03*
%TO.N,/ad9781/D_P_3*%
X249916318Y-199667112D03*
X199243318Y-206374998D03*
%TO.N,/ad9781/D_P_9*%
X198100318Y-216788998D03*
X249916318Y-203477112D03*
%TO.N,/fmclpc/P2_PWR_SYNC*%
X252710318Y-184760106D03*
X205212318Y-176474118D03*
%TO.N,/ad9781/D_N_1*%
X249916318Y-195222112D03*
X196449318Y-203453998D03*
%TO.N,/ad9781/D_P_4*%
X247630318Y-202588112D03*
X200513318Y-208406998D03*
%TO.N,/fmclpc/P2_LMK_LEuWire{slash}CLKoutDIV_2*%
X244852320Y-186030106D03*
X204831318Y-177124104D03*
%TO.N,/fmclpc/P2_POLL_MOSI*%
X240304450Y-170162980D03*
X196997450Y-186164980D03*
%TO.N,/fmclpc/P2_TDO*%
X249916318Y-178410106D03*
%TO.N,/P2_3P3V*%
X249932320Y-166980106D03*
X249932320Y-172060106D03*
X254107318Y-162559998D03*
X252710318Y-168250106D03*
X234676318Y-216407998D03*
X249932320Y-169520106D03*
X214483318Y-157860998D03*
%TO.N,/ad9781/D_N_10*%
X199116318Y-217042998D03*
X253345318Y-205128112D03*
%TO.N,/ad9781/DCI_P*%
X252710318Y-200048112D03*
X198862318Y-210344002D03*
%TO.N,/fmclpc/P2_DAC_SDO*%
X235311318Y-189864998D03*
X236797218Y-181736998D03*
%TO.N,/fmclpc/P2_LMK_DATAuWire{slash}CLKoutDIV_0*%
X247630318Y-186030106D03*
X236835318Y-183768998D03*
%TO.N,/ad9781/D_N_9*%
X249916318Y-202842112D03*
X198100318Y-216153998D03*
%TO.N,/fmclpc/LMK_CLKout4_P*%
X244836318Y-212367112D03*
X179431318Y-65023998D03*
%TO.N,/fmclpc/P2_ADC_PDWN*%
X207625318Y-155574998D03*
X207625318Y-169400980D03*
X247630318Y-194920106D03*
%TO.N,/fmclpc/P2_AD7794_CSb*%
X233660318Y-189737998D03*
X196830318Y-194904104D03*
%TO.N,/ad9781/DCI_N*%
X253345318Y-200048112D03*
X198862318Y-209709002D03*
%TO.N,/fmclpc/P2_AD7794_FCLK*%
X205212318Y-175174146D03*
X247630318Y-187300106D03*
%TO.N,/fmc_misc/PMOD2_1*%
X252710318Y-189840106D03*
%TO.N,/ad9781/D_N_11*%
X248265318Y-206398112D03*
X195052318Y-217550998D03*
%TO.N,/fmclpc/LMK_CLKout4_N*%
X244836318Y-211732112D03*
X179443256Y-65658998D03*
%TO.N,/ad9781/D_N_2*%
X197465318Y-204723998D03*
X248265318Y-198778112D03*
%TO.N,/fmc_misc/PMOD2_8*%
X247670450Y-189847980D03*
%TO.N,/fmc_misc/PMOD2_10*%
X247630318Y-182220106D03*
%TO.N,/fmclpc/P2_APP_I2C_SDA*%
X255417450Y-159240980D03*
X244836318Y-173330106D03*
X255290450Y-160383980D03*
%TO.N,/ad9781/D_P_10*%
X252710318Y-205128112D03*
X199116318Y-217677998D03*
%TO.N,/fmclpc/P2_DAC_RESET*%
X197338318Y-192954146D03*
X233660318Y-188975998D03*
%TO.N,/fmc_misc/PMOD2_3*%
X249932320Y-188570106D03*
%TO.N,/fmclpc/P2_ADC_SYNC*%
X226040318Y-156209998D03*
X196957318Y-154264104D03*
%TO.N,/ad9781/D_P_2*%
X197465318Y-205358998D03*
X247630318Y-198778112D03*
%TO.N,/ad9781/D_P_1*%
X196449318Y-204088998D03*
X249916318Y-195857112D03*
%TO.N,/ad9781/D_P_11*%
X194417318Y-217550998D03*
X247630318Y-206398112D03*
%TO.N,/fmclpc/P2_APP_I2C_SCL*%
X244836318Y-174600106D03*
X255417450Y-157462980D03*
X253091318Y-155955998D03*
%TO.N,/fmclpc/P2_PWR_EN*%
X252710318Y-183490106D03*
X204831318Y-175824132D03*
%TO.N,/slowmon/ADC7*%
X219436318Y-175513998D03*
X219436318Y-183133998D03*
%TO.N,/ad7794/thermometer_bridge_1/VIN*%
X204450318Y-222757998D03*
X214483318Y-96773998D03*
X183368318Y-143509998D03*
X190480318Y-49529998D03*
X209276318Y-145922998D03*
X207625318Y-222757998D03*
X191409450Y-181592980D03*
X188234450Y-185275980D03*
X179685318Y-216661998D03*
%TO.N,/ad7794/thermometer_bridge_1/SENGND*%
X190901450Y-182100980D03*
X178923318Y-216153998D03*
X208387318Y-145287998D03*
X214483318Y-94868998D03*
X190901450Y-180957980D03*
X183241318Y-142366998D03*
X188702318Y-49529998D03*
X186710450Y-184894980D03*
%TO.N,Net-(U1301-\u002ARESET)*%
X223246318Y-175513998D03*
X221341318Y-180212998D03*
%TO.N,Net-(U1601-OUT)*%
X214991318Y-189864998D03*
X205760450Y-190355980D03*
X206776450Y-189720980D03*
%TO.N,/PWR_EN*%
X219944318Y-77723998D03*
X203497818Y-78993998D03*
X202037318Y-175132998D03*
%TO.N,/PWR_SYNC*%
X201442450Y-175767998D03*
X203942318Y-75755498D03*
X217848818Y-76961998D03*
%TO.N,/ad7794/thermometer_bridge_1/VOUT_P*%
X180447318Y-214756998D03*
X196957318Y-184403998D03*
%TO.N,/ad7794/thermometer_bridge_1/VOUT_N*%
X181590318Y-214883998D03*
X194036318Y-184403998D03*
%TO.N,/ad7794/thermometer_bridge_2/VOUT_P*%
X192933450Y-180322980D03*
X181336318Y-140588998D03*
%TO.N,/ad7794/thermometer_bridge_2/VOUT_N*%
X193568450Y-179814980D03*
X182352318Y-139318998D03*
%TO.N,/ad7794/thermometer_bridge_3/VOUT_P*%
X194544318Y-181841138D03*
X219221434Y-97726498D03*
%TO.N,/ad7794/thermometer_bridge_3/VOUT_N*%
X217111202Y-97726498D03*
X194163318Y-181191152D03*
%TO.N,/ad7794/thermometer_bridge_4/VOUT_P*%
X177399318Y-180195980D03*
X184805450Y-180195980D03*
X169525318Y-53212998D03*
%TO.N,/ad7794/thermometer_bridge_4/VOUT_N*%
X177907318Y-179433980D03*
X185273318Y-179433980D03*
X168509318Y-52196998D03*
%TO.N,/ADC0/ADC0_CSB*%
X187091450Y-153271980D03*
%TO.N,/level_shift/LEuWire_CLKoutDIV_2*%
X200807450Y-176512980D03*
X194671318Y-62894208D03*
X195981450Y-176131980D03*
%TO.N,/level_shift/CLKuWire_CLKoutDIV_1*%
X195981450Y-177147980D03*
X200172450Y-177147980D03*
X194036318Y-63499998D03*
%TO.N,/level_shift/DATAuWire_CLKoutDIV_0*%
X197886450Y-191498980D03*
X195981450Y-178163980D03*
X199156450Y-177655980D03*
X227477450Y-183751980D03*
X193401318Y-64007998D03*
%TO.N,/ad7794/CSb*%
X196966915Y-187062941D03*
X190988318Y-194254118D03*
X194417318Y-187578998D03*
%TO.N,/ad7794/DOUT{slash}RDYb*%
X193401318Y-198500998D03*
X188107450Y-187688980D03*
X232898318Y-192277998D03*
%TO.N,/amc7823/SCLK*%
X191115318Y-191642998D03*
X218206450Y-171178980D03*
X194417318Y-188340998D03*
%TO.N,/amc7823/MOSI*%
X192004318Y-190880998D03*
X216809450Y-171178980D03*
%TO.N,/ad7794/CLK*%
X196997450Y-187942980D03*
X199116318Y-174497998D03*
%TO.N,/ad9781/DAC_SDO*%
X230485318Y-182498998D03*
X190889258Y-204977998D03*
X227477450Y-182481980D03*
X229850318Y-203453998D03*
%TO.N,/ad9781/DAC_CSB*%
X188996450Y-204452980D03*
%TO.N,/amc7823/SS*%
X214015450Y-171178980D03*
X191115318Y-195031104D03*
%TO.N,/amc7823/MISO*%
X227350450Y-185021980D03*
X215412450Y-171178980D03*
%TO.N,/ADC0/ADC01_SDIO*%
X192298450Y-154033980D03*
X189083318Y-136143998D03*
X185059450Y-136126980D03*
X190734318Y-100583998D03*
X192298450Y-151874980D03*
%TO.N,/ADC0/ADC01_PDWN*%
X190099318Y-100964998D03*
X191242318Y-154939998D03*
%TO.N,/ADC0/ADC01_SYNC*%
X188575318Y-153769058D03*
X185781318Y-106806998D03*
X190774450Y-119489980D03*
X187091450Y-167622980D03*
%TO.N,/ADC0/ADC01_SCLK*%
X190734318Y-99821998D03*
X188575318Y-152964132D03*
%TO.N,/ADC0/ADC1_CSB*%
X191115318Y-151014174D03*
X190619256Y-101472998D03*
X187980450Y-151112980D03*
%TO.N,/P2_12P0V*%
X201950450Y-64117980D03*
X252877450Y-173337980D03*
X202839450Y-64117980D03*
X252877450Y-170797980D03*
X254909450Y-173337980D03*
X254909450Y-170797980D03*
X201061450Y-64117980D03*
%TO.N,/lmk01801/LMK13_plane*%
X179304318Y-67425060D03*
%TD*%
D21*
%TO.N,/fmclpc/LMK_CLKout3_P*%
X182225570Y-61849000D02*
X181971570Y-61595000D01*
X182225570Y-62103000D02*
X182225570Y-61849000D01*
X182479570Y-62357000D02*
X182225570Y-62103000D01*
X182987570Y-62357000D02*
X182479570Y-62357000D01*
X183495570Y-58801000D02*
X183495570Y-61849000D01*
X183495570Y-61849000D02*
X182987570Y-62357000D01*
X184130570Y-58166000D02*
X183495570Y-58801000D01*
X191160400Y-58166000D02*
X184130570Y-58166000D01*
X199542400Y-66548000D02*
X191160400Y-58166000D01*
X215880570Y-66548000D02*
X199542400Y-66548000D01*
X227350450Y-78017880D02*
X215880570Y-66548000D01*
X227350450Y-94019880D02*
X227350450Y-78017880D01*
X237216570Y-123825000D02*
X234549570Y-121158000D01*
X248265570Y-123825000D02*
X237216570Y-123825000D01*
X251186570Y-126746000D02*
X248265570Y-123825000D01*
X251186570Y-127889000D02*
X251186570Y-126746000D01*
X252837570Y-129540000D02*
X251186570Y-127889000D01*
X252837570Y-129921000D02*
X252837570Y-129540000D01*
X252710570Y-130048000D02*
X252837570Y-129921000D01*
X234549570Y-121158000D02*
X234549570Y-101219000D01*
X234549570Y-101219000D02*
X227350450Y-94019880D01*
%TO.N,/fmclpc/LMK_CLKout3_N*%
X182479570Y-61722000D02*
X182606570Y-61595000D01*
X182479570Y-61976000D02*
X182479570Y-61722000D01*
X182606570Y-62103000D02*
X182479570Y-61976000D01*
X183241570Y-61722000D02*
X182860570Y-62103000D01*
X183241570Y-58674000D02*
X183241570Y-61722000D01*
X184003570Y-57912000D02*
X183241570Y-58674000D01*
X191300100Y-57912000D02*
X184003570Y-57912000D01*
X199682100Y-66294000D02*
X191300100Y-57912000D01*
X216007570Y-66294000D02*
X199682100Y-66294000D01*
X227604450Y-77890880D02*
X216007570Y-66294000D01*
X227604450Y-93892880D02*
X227604450Y-77890880D01*
X234803570Y-101092000D02*
X227604450Y-93892880D01*
X237343570Y-123571000D02*
X234803570Y-121031000D01*
X234803570Y-121031000D02*
X234803570Y-101092000D01*
X251440570Y-127762000D02*
X251440570Y-126619000D01*
X253091570Y-129794000D02*
X253091570Y-129413000D01*
X251440570Y-126619000D02*
X248392570Y-123571000D01*
X182860570Y-62103000D02*
X182606570Y-62103000D01*
X253345570Y-130048000D02*
X253091570Y-129794000D01*
X253091570Y-129413000D02*
X251440570Y-127762000D01*
X248392570Y-123571000D02*
X237343570Y-123571000D01*
D22*
%TO.N,/P1_12PV0*%
X201315450Y-60688980D02*
X200426450Y-60688980D01*
D23*
%TO.N,*%
X234346880Y-55799480D02*
X234300910Y-56370980D01*
X234808910Y-56942480D02*
X234716450Y-57069480D01*
X234854880Y-56434480D02*
X234901110Y-56624980D01*
X234808910Y-55799480D02*
X234346880Y-55799480D01*
X234300910Y-57069480D02*
X234254680Y-57005980D01*
X234254680Y-57005980D02*
X234208450Y-56878980D01*
X234623990Y-56243980D02*
X234762680Y-56307480D01*
X234485560Y-56243980D02*
X234623990Y-56243980D01*
X234901110Y-56624980D02*
X234854880Y-56751980D01*
X234578020Y-57132980D02*
X234439340Y-57132980D01*
X234346880Y-56307480D02*
X234485560Y-56243980D01*
X234439340Y-57132980D02*
X234300910Y-57069480D01*
X234762680Y-56307480D02*
X234854880Y-56434480D01*
X234716450Y-57069480D02*
X234578020Y-57132980D01*
X234300910Y-56370980D02*
X234346880Y-56307480D01*
X234854880Y-56751980D02*
X234808910Y-56942480D01*
D24*
%TO.N,/VSS1P8V*%
X181971570Y-221107000D02*
X183241570Y-219837000D01*
X181971570Y-221107000D02*
X172827570Y-221107000D01*
X168890570Y-181610000D02*
X168890570Y-170688000D01*
X168890570Y-217170000D02*
X168890570Y-181610000D01*
X172827570Y-221107000D02*
X168890570Y-217170000D01*
D23*
%TO.N,/VREFADC_1P25V*%
X185400570Y-166751000D02*
X185400570Y-158431990D01*
X185948450Y-157883860D02*
X185948450Y-130411980D01*
X185400570Y-158431990D02*
X185948450Y-157883860D01*
X185948450Y-130411980D02*
X187599450Y-128760980D01*
D21*
%TO.N,/ADC0/se2diff_0/CM*%
X172827570Y-178919880D02*
X171811570Y-177903880D01*
X173867960Y-193040000D02*
X173208570Y-193040000D01*
X173843570Y-193064380D02*
X173867960Y-193040000D01*
X173208570Y-193040000D02*
X172827570Y-192659000D01*
X172827570Y-192659000D02*
X172827570Y-178919880D01*
%TO.N,/ADC0/ADC0_CLK-*%
X181844570Y-64389000D02*
X185654570Y-60579000D01*
X175113570Y-77851000D02*
X181844570Y-71120000D01*
X180320570Y-177800000D02*
X188067570Y-177800000D01*
X180320570Y-177800000D02*
X179050570Y-176530000D01*
X188448570Y-177419000D02*
X188448570Y-177165000D01*
X185654570Y-60579000D02*
X185654570Y-60198000D01*
X185654570Y-60198000D02*
X185527570Y-60071000D01*
X188067570Y-177800000D02*
X188448570Y-177419000D01*
X175113570Y-118364000D02*
X175113570Y-77851000D01*
X179050570Y-122301000D02*
X175113570Y-118364000D01*
X181844570Y-71120000D02*
X181844570Y-64389000D01*
X188448570Y-177165000D02*
X188702570Y-176911000D01*
X179050570Y-176530000D02*
X179050570Y-122301000D01*
%TO.N,/ADC0/ADC0_CLK+*%
X180447570Y-177546000D02*
X179304570Y-176403000D01*
X187940570Y-177546000D02*
X188194570Y-177292000D01*
X180447570Y-177546000D02*
X187940570Y-177546000D01*
X188194570Y-177292000D02*
X188194570Y-177038000D01*
X182098570Y-71247000D02*
X182098570Y-64516000D01*
X179304570Y-176403000D02*
X179304570Y-122174000D01*
X185908570Y-60325000D02*
X186162570Y-60071000D01*
X179304570Y-122174000D02*
X175367570Y-118237000D01*
X185908570Y-60706000D02*
X185908570Y-60325000D01*
X175367570Y-77978000D02*
X182098570Y-71247000D01*
X188194570Y-177038000D02*
X188067570Y-176911000D01*
X182098570Y-64516000D02*
X185908570Y-60706000D01*
X175367570Y-118237000D02*
X175367570Y-77978000D01*
%TO.N,/ADC1/ADC1_CLK-*%
X186035570Y-62611000D02*
X186543570Y-62103000D01*
X183114570Y-71882000D02*
X183114570Y-70612000D01*
X190353570Y-118110000D02*
X190734570Y-117729000D01*
X189845570Y-61410590D02*
X189845570Y-60325000D01*
X181463570Y-73533000D02*
X183114570Y-71882000D01*
X184892570Y-69850000D02*
X186035570Y-68707000D01*
X189845570Y-60325000D02*
X190099570Y-60071000D01*
X189153170Y-62103000D02*
X189845570Y-61410590D01*
X180574570Y-118110000D02*
X190353570Y-118110000D01*
X179177570Y-116713000D02*
X179177570Y-80645000D01*
X181463570Y-78359000D02*
X181463570Y-73533000D01*
X186035570Y-68707000D02*
X186035570Y-62611000D01*
X190734570Y-117348000D02*
X190607570Y-117221000D01*
X190734570Y-117729000D02*
X190734570Y-117348000D01*
X180574570Y-118110000D02*
X179177570Y-116713000D01*
X186543570Y-62103000D02*
X189153170Y-62103000D01*
X183114570Y-70612000D02*
X183876570Y-69850000D01*
X179177570Y-80645000D02*
X181463570Y-78359000D01*
X183876570Y-69850000D02*
X184892570Y-69850000D01*
%TO.N,/ADC1/ADC1_CLK+*%
X190988570Y-117856000D02*
X190988570Y-117475000D01*
X180447570Y-118364000D02*
X190480570Y-118364000D01*
X189591570Y-61214000D02*
X189591570Y-60325000D01*
X180447570Y-118364000D02*
X178923570Y-116840000D01*
X178923570Y-116840000D02*
X178923570Y-80518000D01*
X185781570Y-68580000D02*
X185781570Y-62484000D01*
X178923570Y-80518000D02*
X181209570Y-78232000D01*
X183749570Y-69596000D02*
X184765570Y-69596000D01*
X182860570Y-71755000D02*
X182860570Y-70485000D01*
X181209570Y-73406000D02*
X182860570Y-71755000D01*
X190988570Y-117475000D02*
X191242570Y-117221000D01*
X184765570Y-69596000D02*
X185781570Y-68580000D01*
X186416570Y-61849000D02*
X188956570Y-61849000D01*
X181209570Y-78232000D02*
X181209570Y-73406000D01*
X185781570Y-62484000D02*
X186416570Y-61849000D01*
X182860570Y-70485000D02*
X183749570Y-69596000D01*
X188956570Y-61849000D02*
X189591570Y-61214000D01*
X189591570Y-60325000D02*
X189337570Y-60071000D01*
X190480570Y-118364000D02*
X190988570Y-117856000D01*
%TO.N,/slowmon/I_Mon*%
X218547570Y-184404000D02*
X218547570Y-176657000D01*
X202609070Y-69215000D02*
X201720070Y-68326000D01*
X218547570Y-176657000D02*
X214777450Y-172886880D01*
X214864570Y-73660000D02*
X213848570Y-72644000D01*
X214864570Y-88589100D02*
X214864570Y-73660000D01*
X201720070Y-68326000D02*
X201021570Y-68326000D01*
X220492450Y-94216980D02*
X214864570Y-88589100D01*
X214777450Y-172886880D02*
X214777450Y-159113980D01*
X214777450Y-159113980D02*
X223119570Y-150771860D01*
X220492450Y-123553980D02*
X220492450Y-94216980D01*
X223119570Y-126220980D02*
X220492450Y-123553980D01*
X213848570Y-72644000D02*
X206038070Y-72644000D01*
X223119570Y-150771860D02*
X223119570Y-126220980D01*
X206038070Y-72644000D02*
X202609070Y-69215000D01*
%TO.N,/slowmon/ADC3*%
X212364450Y-183878980D02*
X211856450Y-183370980D01*
X214102570Y-185420000D02*
X214102570Y-184132980D01*
X213848570Y-183878980D02*
X212364450Y-183878980D01*
X214102570Y-184132980D02*
X213848570Y-183878980D01*
X211856450Y-183370980D02*
X211856450Y-167241980D01*
X211856450Y-167241980D02*
X213507450Y-165590980D01*
X213507450Y-165590980D02*
X213507450Y-155430980D01*
X213507450Y-155430980D02*
X216809450Y-152128980D01*
%TO.N,/slowmon/V3P7V_Mon*%
X210586450Y-184513980D02*
X210586450Y-165844980D01*
X213253450Y-185402980D02*
X213380450Y-185275980D01*
X211475450Y-154414980D02*
X209189450Y-152128980D01*
X211475450Y-164955980D02*
X211475450Y-154414980D01*
X211475450Y-185402980D02*
X210586450Y-184513980D01*
X211475450Y-185402980D02*
X213253450Y-185402980D01*
X210586450Y-165844980D02*
X211475450Y-164955980D01*
%TO.N,/slowmon/V2P2V_Mon*%
X211602450Y-184894980D02*
X211094450Y-184386980D01*
X212999450Y-165336980D02*
X212999450Y-152128980D01*
X211094450Y-167241980D02*
X212999450Y-165336980D01*
X212745450Y-184894980D02*
X211602450Y-184894980D01*
X211094450Y-184386980D02*
X211094450Y-167241980D01*
%TO.N,/V12P0V_bus*%
X220111450Y-128633980D02*
X220111450Y-94597980D01*
X216809450Y-148318980D02*
X220746450Y-144381980D01*
X220111450Y-94597980D02*
X214523450Y-89009980D01*
X220746450Y-144381980D02*
X220746450Y-129268980D01*
X214523450Y-89009980D02*
X214523450Y-76382370D01*
X214523450Y-76382370D02*
X213634450Y-75493370D01*
X213634450Y-75493370D02*
X213634450Y-74912980D01*
X220746450Y-129268980D02*
X220111450Y-128633980D01*
D25*
%TO.N,/VSS3P3V*%
X176129570Y-134874000D02*
X174859570Y-134874000D01*
X183027450Y-186672980D02*
X181884450Y-186672980D01*
X181884450Y-186672980D02*
X180193570Y-186672980D01*
X177526570Y-186672980D02*
X176129570Y-185293000D01*
X180193570Y-186672980D02*
X178963450Y-186672980D01*
X176129570Y-176639980D02*
X176764570Y-176004980D01*
X176129570Y-185293000D02*
X176129570Y-176639980D01*
X178963450Y-186672980D02*
X177526570Y-186672980D01*
X176764570Y-135509000D02*
X176129570Y-134874000D01*
X176764570Y-176004980D02*
X176764570Y-135509000D01*
D26*
%TO.N,/VDD3P3V*%
X250805570Y-155321000D02*
X250805570Y-153677870D01*
D24*
X237487340Y-165971980D02*
X239669450Y-165971980D01*
X229279070Y-184975500D02*
X229279070Y-174180500D01*
X229279070Y-174180500D02*
X226802570Y-171704000D01*
X206736570Y-179324000D02*
X203942570Y-179324000D01*
D26*
X250742070Y-157416500D02*
X250742070Y-155384500D01*
D24*
X229279070Y-174180500D02*
X237487340Y-165971980D01*
X199116570Y-179724300D02*
X199624570Y-179216300D01*
X204490450Y-190570100D02*
X204490450Y-189847980D01*
X203942570Y-179324000D02*
X203307570Y-178689000D01*
X199624570Y-179216300D02*
X199624570Y-179070000D01*
X226802570Y-171704000D02*
X223246570Y-171704000D01*
D26*
X250742070Y-155384500D02*
X250805570Y-155321000D01*
D24*
X228009070Y-188849000D02*
X227945570Y-188404500D01*
X199370570Y-200152000D02*
X192131570Y-200152000D01*
D26*
X190861570Y-198882000D02*
X191115570Y-198628000D01*
X250678570Y-157480000D02*
X250742070Y-157416500D01*
D24*
X198430770Y-180410100D02*
X199116570Y-179724300D01*
X199624570Y-179070000D02*
X200005570Y-178689000D01*
D26*
X250678570Y-159258000D02*
X250678570Y-157480000D01*
D24*
X203307570Y-178689000D02*
X200005570Y-178689000D01*
X198430770Y-180721000D02*
X198430770Y-180410100D01*
X192131570Y-200152000D02*
X190861570Y-198882000D01*
X227945570Y-186309000D02*
X229279070Y-184975500D01*
X227945570Y-188404500D02*
X227945570Y-186309000D01*
D26*
X191115570Y-198628000D02*
X191115570Y-198120000D01*
D24*
X199370570Y-200152000D02*
X200259570Y-199263000D01*
D26*
X191115570Y-198120000D02*
X191115570Y-197167500D01*
X250678570Y-161544000D02*
X250678570Y-159258000D01*
X250805570Y-153677870D02*
X250742070Y-153614370D01*
D24*
X200259570Y-194800980D02*
X204490450Y-190570100D01*
X200259570Y-199263000D02*
X200259570Y-194800980D01*
D26*
X191115570Y-197167500D02*
X191179070Y-197104000D01*
D21*
%TO.N,Net-(U1201-CLKP)*%
X173970570Y-186817000D02*
X173970570Y-139319000D01*
X176383570Y-217932000D02*
X183114570Y-217932000D01*
X189464570Y-216281000D02*
X184765570Y-216281000D01*
X173081570Y-66675000D02*
X173335570Y-66421000D01*
X175113570Y-216662000D02*
X175113570Y-187960000D01*
X189591570Y-216408000D02*
X189464570Y-216281000D01*
X173208570Y-133096000D02*
X173208570Y-74803000D01*
X173843570Y-74168000D02*
X173843570Y-66548000D01*
X172446570Y-137795000D02*
X172446570Y-133858000D01*
X173970570Y-139319000D02*
X172446570Y-137795000D01*
X176383570Y-217932000D02*
X175113570Y-216662000D01*
X173843570Y-66548000D02*
X173716570Y-66421000D01*
X173208570Y-74803000D02*
X173843570Y-74168000D01*
X175113570Y-187960000D02*
X173970570Y-186817000D01*
X173716570Y-66421000D02*
X173335570Y-66421000D01*
X183114570Y-217932000D02*
X184765570Y-216281000D01*
X189591570Y-216789000D02*
X189591570Y-216408000D01*
X189337570Y-217043000D02*
X189591570Y-216789000D01*
X172446570Y-133858000D02*
X173208570Y-133096000D01*
%TO.N,Net-(U1201-CLKN)*%
X173462570Y-133223000D02*
X173462570Y-74930000D01*
X175367570Y-216535000D02*
X175367570Y-187833000D01*
X174097570Y-74295000D02*
X174097570Y-66421000D01*
X174224570Y-186690000D02*
X174224570Y-139192000D01*
X176510570Y-217678000D02*
X182987570Y-217678000D01*
X174224570Y-139192000D02*
X172700570Y-137668000D01*
X176510570Y-217678000D02*
X175367570Y-216535000D01*
X173208570Y-66167000D02*
X173081570Y-66040000D01*
X172700570Y-137668000D02*
X172700570Y-133985000D01*
X172700570Y-133985000D02*
X173462570Y-133223000D01*
X175367570Y-187833000D02*
X174224570Y-186690000D01*
X174097570Y-66421000D02*
X173843570Y-66167000D01*
X189591570Y-216027000D02*
X184638570Y-216027000D01*
X182987570Y-217678000D02*
X184638570Y-216027000D01*
X189972570Y-217043000D02*
X189845570Y-216916000D01*
X173462570Y-74930000D02*
X174097570Y-74295000D01*
X173843570Y-66167000D02*
X173208570Y-66167000D01*
X189845570Y-216281000D02*
X189591570Y-216027000D01*
X189845570Y-216916000D02*
X189845570Y-216281000D01*
D24*
%TO.N,/P2_VADJ*%
X214991570Y-213850980D02*
X214991570Y-210040980D01*
X236494450Y-190863980D02*
X236494450Y-188507880D01*
X228620450Y-207881980D02*
X235351450Y-201150980D01*
X235351450Y-192006980D02*
X236494450Y-190863980D01*
X214991570Y-216390980D02*
X214991570Y-213850980D01*
X235351450Y-201150980D02*
X235351450Y-192006980D01*
X236494450Y-188507880D02*
X235819570Y-187833000D01*
X214991570Y-210040980D02*
X217150570Y-207881980D01*
X217150570Y-207881980D02*
X228620450Y-207881980D01*
D21*
%TO.N,/slowmon/LO_MON*%
X207267430Y-186545980D02*
X204871450Y-184150000D01*
X216174450Y-184404000D02*
X217785570Y-184404000D01*
X215666450Y-186037980D02*
X215666450Y-184912000D01*
X204871450Y-184150000D02*
X197846570Y-184150000D01*
X215158450Y-186545980D02*
X215666450Y-186037980D01*
X215666450Y-184912000D02*
X216174450Y-184404000D01*
X207267430Y-186545980D02*
X215158450Y-186545980D01*
X197846570Y-184150000D02*
X196576570Y-182880000D01*
X196576570Y-182880000D02*
X183241570Y-182880000D01*
D22*
%TO.N,/PowerSupply/DC3P7V*%
X197886450Y-99861880D02*
X190226570Y-92202000D01*
X196743450Y-118346980D02*
X196743450Y-117584980D01*
D21*
X207284450Y-127744980D02*
X206522450Y-126982980D01*
D22*
X197886450Y-115021870D02*
X197886450Y-99861880D01*
X196743450Y-116840000D02*
X196703570Y-116799870D01*
D21*
X207284450Y-146413980D02*
X207284450Y-127744980D01*
D22*
X196743450Y-117584980D02*
X196743450Y-116840000D01*
D21*
X209189450Y-148318980D02*
X207284450Y-146413980D01*
D22*
X190226570Y-92202000D02*
X190226570Y-83693000D01*
X196703570Y-116205000D02*
X197886450Y-115021870D01*
X196703570Y-116799870D02*
X196703570Y-116205000D01*
X190226570Y-83693000D02*
X190226570Y-82931000D01*
%TO.N,/PowerSupply/DC2P2V*%
X216007570Y-94361000D02*
X208641570Y-86995000D01*
X208641570Y-86995000D02*
X208641570Y-86271860D01*
X216007570Y-118237000D02*
X216007570Y-117348000D01*
X216007570Y-117348000D02*
X216007570Y-94361000D01*
D21*
X212999450Y-121140980D02*
X213253450Y-120886980D01*
X212999450Y-148318980D02*
X212999450Y-121140980D01*
%TO.N,/fmclpc/PMOD1_8*%
X242177700Y-101074980D02*
X241955450Y-100852730D01*
X248813450Y-111036860D02*
X248813450Y-103360980D01*
X246527450Y-101074980D02*
X242177700Y-101074980D01*
X248813450Y-103360980D02*
X246527450Y-101074980D01*
X247630570Y-112219990D02*
X248813450Y-111036860D01*
X241955450Y-100852730D02*
X241955450Y-94724980D01*
X241955450Y-94724980D02*
X241066450Y-93835980D01*
%TO.N,/fmclpc/PMOD1_4*%
X248059320Y-112903000D02*
X243566570Y-112903000D01*
X243566570Y-112903000D02*
X237978570Y-107315000D01*
X237978570Y-107315000D02*
X237978570Y-91313000D01*
X249916570Y-114759990D02*
X248059320Y-112903000D01*
D22*
%TO.N,/P1_12PV0*%
X244495450Y-95994980D02*
X243860450Y-95359980D01*
X254909450Y-97264980D02*
X253639450Y-95994980D01*
X253639450Y-95994980D02*
X244495450Y-95994980D01*
X243860450Y-95359980D02*
X243860450Y-94089980D01*
X199537450Y-60688980D02*
X200426450Y-60688980D01*
X231414450Y-87485980D02*
X231414450Y-76182980D01*
X254909450Y-103360980D02*
X254909450Y-100820980D01*
X253512450Y-100820980D02*
X254909450Y-100820980D01*
X253512450Y-103360980D02*
X254909450Y-103360980D01*
X243225450Y-92057980D02*
X241066450Y-89898980D01*
X215920450Y-60688980D02*
X201315450Y-60688980D01*
X254909450Y-100820980D02*
X254909450Y-97264980D01*
X243225450Y-93454980D02*
X243225450Y-92057980D01*
X231414450Y-76182980D02*
X215920450Y-60688980D01*
X243860450Y-94089980D02*
X243225450Y-93454980D01*
X241066450Y-89898980D02*
X233827450Y-89898980D01*
X233827450Y-89898980D02*
X231414450Y-87485980D01*
D21*
%TO.N,/fmclpc/PMOD1_3*%
X241828450Y-93073980D02*
X241320450Y-92565980D01*
X251226450Y-113266980D02*
X251226450Y-103487980D01*
X243479450Y-98280980D02*
X242336450Y-97137980D01*
X243479450Y-99550980D02*
X243479450Y-98280980D01*
X248305450Y-100566980D02*
X244495450Y-100566980D01*
X252750450Y-114790980D02*
X251226450Y-113266980D01*
X242336450Y-97137980D02*
X242336450Y-94597980D01*
X251226450Y-103487980D02*
X248305450Y-100566980D01*
X241828450Y-94089980D02*
X241828450Y-93073980D01*
X244495450Y-100566980D02*
X243479450Y-99550980D01*
X242336450Y-94597980D02*
X241828450Y-94089980D01*
%TO.N,/fmclpc/PMOD1_2*%
X237216570Y-107569000D02*
X237216570Y-93853000D01*
X246947570Y-114173000D02*
X243820570Y-114173000D01*
X243820570Y-114173000D02*
X237216570Y-107569000D01*
X246947570Y-114173000D02*
X247630570Y-113489990D01*
%TO.N,/fmclpc/PMOD1_9*%
X242209450Y-93835980D02*
X242209450Y-92565980D01*
X242717450Y-94343980D02*
X242209450Y-93835980D01*
X243860450Y-98026980D02*
X242717450Y-96883980D01*
X244749450Y-100185980D02*
X243860450Y-99296980D01*
X243860450Y-99296980D02*
X243860450Y-98026980D01*
X251226450Y-100185980D02*
X244749450Y-100185980D01*
X242209450Y-92565980D02*
X241574450Y-91930980D01*
X241574450Y-91930980D02*
X239669450Y-91930980D01*
X252211460Y-113489990D02*
X251734450Y-113012980D01*
X252710570Y-113489990D02*
X252211460Y-113489990D01*
X251734450Y-113012980D02*
X251734450Y-100693980D01*
X251734450Y-100693980D02*
X251226450Y-100185980D01*
X242717450Y-96883980D02*
X242717450Y-94343980D01*
%TO.N,/fmclpc/PMOD1_1*%
X240010570Y-96901000D02*
X240010570Y-95250000D01*
X241153570Y-107569000D02*
X241153570Y-98044000D01*
X247074570Y-110236000D02*
X243820570Y-110236000D01*
X241153570Y-98044000D02*
X240010570Y-96901000D01*
X243820570Y-110236000D02*
X241153570Y-107569000D01*
X247630570Y-109679990D02*
X247074570Y-110236000D01*
%TO.N,/fmclpc/PMOD1_7*%
X241574450Y-95613980D02*
X240558450Y-94597980D01*
X243479450Y-108409990D02*
X241574450Y-106504990D01*
X247630570Y-108409990D02*
X243479450Y-108409990D01*
X241574450Y-106504990D02*
X241574450Y-95613980D01*
%TO.N,/fmclpc/P2_ADC_SDIO_DIR*%
X242423570Y-155575000D02*
X233660570Y-146812000D01*
X244836570Y-177140110D02*
X244811430Y-177140110D01*
X244811430Y-177140110D02*
X242423570Y-174752000D01*
X233660570Y-146812000D02*
X228326570Y-146812000D01*
X242423570Y-174752000D02*
X242423570Y-155575000D01*
%TO.N,/fmc_misc/PMOD2_9*%
X222143450Y-210802980D02*
X234081450Y-210802980D01*
X221381450Y-214358980D02*
X221381450Y-211564980D01*
X225151570Y-216390980D02*
X223881570Y-215120980D01*
X237002450Y-207881980D02*
X237002450Y-192641980D01*
X237002450Y-192641980D02*
X244368450Y-185275980D01*
X245844440Y-185275980D02*
X247630570Y-183490110D01*
X221381450Y-211564980D02*
X222143450Y-210802980D01*
X223881570Y-215120980D02*
X222143450Y-215120980D01*
X244368450Y-185275980D02*
X245844440Y-185275980D01*
X234081450Y-210802980D02*
X237002450Y-207881980D01*
X222143450Y-215120980D02*
X221381450Y-214358980D01*
%TO.N,/ad9781/D_N_12*%
X193909570Y-218440000D02*
X194036570Y-218313000D01*
X210165570Y-219329000D02*
X194163570Y-219329000D01*
X193909570Y-219075000D02*
X193909570Y-218440000D01*
X247757570Y-209042000D02*
X243312570Y-209042000D01*
X210673570Y-219837000D02*
X210165570Y-219329000D01*
X210673570Y-219837000D02*
X240137570Y-219837000D01*
X248138570Y-210058000D02*
X248138570Y-209423000D01*
X248265570Y-210207860D02*
X248138570Y-210058000D01*
X242931570Y-217043000D02*
X242931570Y-209423000D01*
X242931570Y-209423000D02*
X243312570Y-209042000D01*
X194163570Y-219329000D02*
X193909570Y-219075000D01*
X248138570Y-209423000D02*
X247757570Y-209042000D01*
X240137570Y-219837000D02*
X242931570Y-217043000D01*
%TO.N,/fmclpc/P2_ADC_SDIO*%
X241801020Y-175272440D02*
X241788570Y-175260000D01*
X244836570Y-178410110D02*
X244811430Y-178410110D01*
X241788570Y-175260000D02*
X241788570Y-156446980D01*
X233533570Y-148191980D02*
X226207450Y-148191980D01*
X241801020Y-175399440D02*
X241801020Y-175272440D01*
X244811430Y-178410110D02*
X241801020Y-175399440D01*
X241788570Y-156446980D02*
X233533570Y-148191980D01*
%TO.N,/fmc_misc/PMOD2_2*%
X251107320Y-188570110D02*
X252710570Y-188570110D01*
X250591450Y-189085980D02*
X251107320Y-188570110D01*
X234843450Y-211945980D02*
X238145450Y-208643980D01*
X238145450Y-208643980D02*
X238145450Y-194419980D01*
X238145450Y-194419980D02*
X242590450Y-189974980D01*
X227691570Y-213850980D02*
X227691570Y-212538560D01*
X246544470Y-189974980D02*
X247433470Y-189085980D01*
X228284150Y-211945980D02*
X234843450Y-211945980D01*
X242590450Y-189974980D02*
X246544470Y-189974980D01*
X247433470Y-189085980D02*
X250591450Y-189085980D01*
X227691570Y-212538560D02*
X228284150Y-211945980D01*
%TO.N,/ad9781/D_P_12*%
X243185570Y-217170000D02*
X243185570Y-209550000D01*
X240264570Y-220091000D02*
X243185570Y-217170000D01*
X194036570Y-219583000D02*
X193655570Y-219202000D01*
X193655570Y-218567000D02*
X193401570Y-218313000D01*
X247630570Y-210207860D02*
X247884570Y-209953860D01*
X210546570Y-220091000D02*
X210038570Y-219583000D01*
X247884570Y-209550000D02*
X247630570Y-209296000D01*
X193655570Y-219202000D02*
X193655570Y-218567000D01*
X210038570Y-219583000D02*
X194036570Y-219583000D01*
X247630570Y-209296000D02*
X243439570Y-209296000D01*
X247884570Y-209953860D02*
X247884570Y-209550000D01*
X243185570Y-209550000D02*
X243439570Y-209296000D01*
X210546570Y-220091000D02*
X240264570Y-220091000D01*
%TO.N,/fmc_misc/PMOD2_4*%
X249928760Y-187300110D02*
X249301640Y-186672980D01*
X222611570Y-211691980D02*
X223119570Y-211183980D01*
X243606450Y-187942980D02*
X245892450Y-187942980D01*
X237383450Y-208135980D02*
X237383450Y-194165980D01*
X245892450Y-187942980D02*
X247162450Y-186672980D01*
X223119570Y-211183980D02*
X234335450Y-211183980D01*
X234335450Y-211183980D02*
X237383450Y-208135980D01*
X237383450Y-194165980D02*
X243606450Y-187942980D01*
X222611570Y-213850980D02*
X222611570Y-211818980D01*
X247162450Y-186672980D02*
X249301640Y-186672980D01*
X222611570Y-211818980D02*
X222611570Y-211691980D01*
X249932570Y-187300110D02*
X249928760Y-187300110D01*
%TO.N,/fmclpc/P2_SCLK*%
X205847570Y-177800000D02*
X205847570Y-173972980D01*
X206990570Y-172829980D02*
X206990570Y-153543000D01*
X205847570Y-173972980D02*
X206990570Y-172829980D01*
%TO.N,/fmc_misc/PMOD2_7*%
X232303450Y-216390980D02*
X239288450Y-209405980D01*
X239288450Y-199451970D02*
X247630570Y-191110110D01*
X239288450Y-209405980D02*
X239288450Y-199451970D01*
X230231570Y-216390980D02*
X232303450Y-216390980D01*
%TO.N,/ad9781/D_P_9*%
X240899570Y-205613000D02*
X242677570Y-203835000D01*
X198100570Y-216789000D02*
X198354570Y-216535000D01*
X212762470Y-217805000D02*
X234930570Y-217805000D01*
X210857470Y-215900000D02*
X199370570Y-215900000D01*
X234930570Y-217805000D02*
X240899570Y-211836000D01*
X242677570Y-203835000D02*
X245725570Y-203835000D01*
X212762470Y-217805000D02*
X210857470Y-215900000D01*
X245725570Y-203835000D02*
X246233570Y-203327000D01*
X240899570Y-211836000D02*
X240899570Y-205613000D01*
X249916570Y-203476860D02*
X249662570Y-203327000D01*
X249662570Y-203327000D02*
X246233570Y-203327000D01*
X198354570Y-216535000D02*
X198735570Y-216535000D01*
X198735570Y-216535000D02*
X199370570Y-215900000D01*
%TO.N,/ad9781/D_N_10*%
X211181570Y-217170000D02*
X199243570Y-217170000D01*
X253114430Y-204365860D02*
X252837570Y-204089000D01*
X241407570Y-206121000D02*
X242931570Y-204597000D01*
X237089570Y-218313000D02*
X241407570Y-213995000D01*
X253345570Y-205105000D02*
X253114430Y-204873860D01*
X199243570Y-217170000D02*
X199116570Y-217043000D01*
X237089570Y-218313000D02*
X212324570Y-218313000D01*
X249027570Y-204089000D02*
X252837570Y-204089000D01*
X212324570Y-218313000D02*
X211181570Y-217170000D01*
X242931570Y-204597000D02*
X248519570Y-204597000D01*
X241407570Y-213995000D02*
X241407570Y-206121000D01*
X248519570Y-204597000D02*
X249027570Y-204089000D01*
X253114430Y-204873860D02*
X253114430Y-204365860D01*
X253345570Y-205127860D02*
X253345570Y-205105000D01*
%TO.N,/ad9781/D_N_9*%
X240645570Y-211709000D02*
X240645570Y-205486000D01*
X240645570Y-205486000D02*
X242550570Y-203581000D01*
X210984470Y-215646000D02*
X199243570Y-215646000D01*
X234803570Y-217551000D02*
X240645570Y-211709000D01*
X212889470Y-217551000D02*
X210984470Y-215646000D01*
X245598570Y-203581000D02*
X246106570Y-203073000D01*
X198608570Y-216281000D02*
X199243570Y-215646000D01*
X198227570Y-216281000D02*
X198608570Y-216281000D01*
X212889470Y-217551000D02*
X234803570Y-217551000D01*
X198227570Y-216281000D02*
X198100570Y-216154000D01*
X249685430Y-203073000D02*
X249916570Y-202841860D01*
X242550570Y-203581000D02*
X245598570Y-203581000D01*
X246106570Y-203073000D02*
X249685430Y-203073000D01*
%TO.N,/fmclpc/LMK_CLKout4_P*%
X244836570Y-212366860D02*
X244686460Y-212217000D01*
X244686460Y-212217000D02*
X244455570Y-212217000D01*
X244074570Y-218821000D02*
X244074570Y-212598000D01*
X169017570Y-66802000D02*
X171176570Y-64643000D01*
X185908570Y-218948000D02*
X172827570Y-218948000D01*
X241026570Y-221869000D02*
X244074570Y-218821000D01*
X170287570Y-216408000D02*
X170287570Y-164973000D01*
X178274600Y-65151000D02*
X177766600Y-64643000D01*
X188829570Y-221869000D02*
X185908570Y-218948000D01*
X188829570Y-221869000D02*
X241026570Y-221869000D01*
X170287570Y-164973000D02*
X169017570Y-163703000D01*
X169017570Y-163703000D02*
X169017570Y-66802000D01*
X172827570Y-218948000D02*
X170287570Y-216408000D01*
X179302290Y-65151000D02*
X179431570Y-65024000D01*
X244074570Y-212598000D02*
X244455570Y-212217000D01*
X179302290Y-65151000D02*
X178274600Y-65151000D01*
X171176570Y-64643000D02*
X177766600Y-64643000D01*
%TO.N,/fmclpc/P2_ADC_PDWN*%
X207625570Y-169400980D02*
X207625570Y-155575000D01*
%TO.N,/fmc_misc/PMOD2_1*%
X238907450Y-209151980D02*
X238907450Y-198864980D01*
X238907450Y-198864980D02*
X247289450Y-190482980D01*
X247289450Y-190482980D02*
X252067440Y-190482980D01*
X234208450Y-213850980D02*
X238907450Y-209151980D01*
X230231570Y-213850980D02*
X234208450Y-213850980D01*
X252067440Y-190482980D02*
X252710570Y-189840110D01*
%TO.N,/ad9781/D_N_11*%
X211308570Y-219075000D02*
X210673570Y-218440000D01*
X239883570Y-219075000D02*
X211308570Y-219075000D01*
X194925570Y-217932000D02*
X194925570Y-217678000D01*
X239883570Y-219075000D02*
X242169570Y-216789000D01*
X242169570Y-216789000D02*
X242169570Y-206756000D01*
X210673570Y-218440000D02*
X195433570Y-218440000D01*
X243439570Y-205486000D02*
X247907430Y-205486000D01*
X195433570Y-218440000D02*
X194925570Y-217932000D01*
X194925570Y-217678000D02*
X195052570Y-217551000D01*
X248161430Y-206502000D02*
X248161430Y-205740000D01*
X242169570Y-206756000D02*
X243439570Y-205486000D01*
X248161430Y-205740000D02*
X247907430Y-205486000D01*
X248161430Y-206502000D02*
X248265570Y-206397860D01*
%TO.N,/fmclpc/LMK_CLKout4_N*%
X244605430Y-211963000D02*
X244836570Y-211731860D01*
X170541570Y-164846000D02*
X169271570Y-163576000D01*
X179431570Y-65659000D02*
X179177570Y-65405000D01*
X179177570Y-65405000D02*
X178161570Y-65405000D01*
X186035570Y-218694000D02*
X172954570Y-218694000D01*
X243820570Y-218694000D02*
X243820570Y-212471000D01*
X169271570Y-163576000D02*
X169271570Y-66929000D01*
X188956570Y-221615000D02*
X240899570Y-221615000D01*
X240899570Y-221615000D02*
X243820570Y-218694000D01*
X170541570Y-216281000D02*
X170541570Y-164846000D01*
X179443510Y-65659000D02*
X179431570Y-65659000D01*
X244328570Y-211963000D02*
X244605430Y-211963000D01*
X172954570Y-218694000D02*
X170541570Y-216281000D01*
X188956570Y-221615000D02*
X186035570Y-218694000D01*
X169271570Y-66929000D02*
X171303570Y-64897000D01*
X243820570Y-212471000D02*
X244328570Y-211963000D01*
X171303570Y-64897000D02*
X177653570Y-64897000D01*
X178161570Y-65405000D02*
X177653570Y-64897000D01*
%TO.N,/fmc_misc/PMOD2_8*%
X238526450Y-198483980D02*
X247162450Y-189847980D01*
X228874450Y-212961980D02*
X229509450Y-212326980D01*
X229509450Y-212326980D02*
X235097450Y-212326980D01*
X247162450Y-189847980D02*
X247670450Y-189847980D01*
X228874450Y-215208100D02*
X228874450Y-212961980D01*
X238526450Y-208897980D02*
X238526450Y-198483980D01*
X227691570Y-216390980D02*
X228874450Y-215208100D01*
X235097450Y-212326980D02*
X238526450Y-208897980D01*
%TO.N,/fmc_misc/PMOD2_10*%
X236621450Y-207627980D02*
X236621450Y-192387980D01*
X222611570Y-216390980D02*
X221341570Y-215120980D01*
X233827450Y-210421980D02*
X236621450Y-207627980D01*
X219476450Y-215120980D02*
X218841450Y-214485980D01*
X236621450Y-192387980D02*
X244241450Y-184767980D01*
X218841450Y-211056980D02*
X219476450Y-210421980D01*
X219476450Y-210421980D02*
X233827450Y-210421980D01*
X221341570Y-215120980D02*
X219476450Y-215120980D01*
X245082440Y-184767980D02*
X247630570Y-182220110D01*
X218841450Y-214485980D02*
X218841450Y-211056980D01*
X244241450Y-184767980D02*
X245082440Y-184767980D01*
%TO.N,/fmclpc/P2_APP_I2C_SDA*%
X252750450Y-166243000D02*
X255290450Y-163703000D01*
X244328570Y-166243000D02*
X252750450Y-166243000D01*
X243820570Y-166751000D02*
X244328570Y-166243000D01*
X243820570Y-172314110D02*
X243820570Y-166751000D01*
X255290450Y-163703000D02*
X255290450Y-160383980D01*
X244836570Y-173330110D02*
X243820570Y-172314110D01*
%TO.N,/ad9781/D_P_10*%
X249154570Y-204343000D02*
X252710570Y-204343000D01*
X237216570Y-218567000D02*
X241661570Y-214122000D01*
X237216570Y-218567000D02*
X212197570Y-218567000D01*
X252837570Y-205254860D02*
X252710570Y-205127860D01*
X241661570Y-206248000D02*
X243058570Y-204851000D01*
X199116570Y-217678000D02*
X199370570Y-217424000D01*
X252837570Y-204470000D02*
X252710570Y-204343000D01*
X212197570Y-218567000D02*
X211054570Y-217424000D01*
X241661570Y-214122000D02*
X241661570Y-206248000D01*
X252837570Y-205254860D02*
X252837570Y-204470000D01*
X243058570Y-204851000D02*
X248646570Y-204851000D01*
X199370570Y-217424000D02*
X211054570Y-217424000D01*
X248646570Y-204851000D02*
X249154570Y-204343000D01*
%TO.N,/fmc_misc/PMOD2_3*%
X237764450Y-208389980D02*
X237764450Y-194292980D01*
X246908450Y-187942980D02*
X248948320Y-187942980D01*
X234589450Y-211564980D02*
X237764450Y-208389980D01*
X225151570Y-212072980D02*
X225659570Y-211564980D01*
X242844450Y-189212980D02*
X245638450Y-189212980D01*
X249575450Y-188570110D02*
X248948320Y-187942980D01*
X245638450Y-189212980D02*
X246908450Y-187942980D01*
X249932570Y-188570110D02*
X249575450Y-188570110D01*
X225151570Y-213850980D02*
X225151570Y-212199980D01*
X225151570Y-212199980D02*
X225151570Y-212072980D01*
X237764450Y-194292980D02*
X242844450Y-189212980D01*
X225659570Y-211564980D02*
X234589450Y-211564980D01*
%TO.N,/ad9781/D_P_11*%
X247861460Y-205867000D02*
X247734460Y-205740000D01*
X240010570Y-219329000D02*
X242423570Y-216916000D01*
X195306570Y-218694000D02*
X194671570Y-218059000D01*
X240010570Y-219329000D02*
X211181570Y-219329000D01*
X242423570Y-206883000D02*
X243566570Y-205740000D01*
X247861460Y-206143860D02*
X247861460Y-205867000D01*
X243566570Y-205740000D02*
X247734460Y-205740000D01*
X211181570Y-219329000D02*
X210546570Y-218694000D01*
X194671570Y-217805000D02*
X194417570Y-217551000D01*
X194671570Y-218059000D02*
X194671570Y-217805000D01*
X247630570Y-206397860D02*
X247630570Y-206375000D01*
X210546570Y-218694000D02*
X195306570Y-218694000D01*
X247630570Y-206375000D02*
X247861460Y-206143860D01*
X242423570Y-216916000D02*
X242423570Y-206883000D01*
%TO.N,/fmclpc/P2_APP_I2C_SCL*%
X244074570Y-165862000D02*
X249408570Y-165862000D01*
X243312570Y-166624000D02*
X244074570Y-165862000D01*
X243312570Y-173101000D02*
X243312570Y-166624000D01*
X253091570Y-162179000D02*
X253091570Y-155956000D01*
X244836570Y-174600110D02*
X244811430Y-174600110D01*
X249408570Y-165862000D02*
X253091570Y-162179000D01*
X244811430Y-174600110D02*
X243312570Y-173101000D01*
%TO.N,/slowmon/ADC7*%
X219436570Y-183134000D02*
X219436570Y-175514000D01*
%TO.N,/ad7794/thermometer_bridge_1/VIN*%
X191409450Y-174625000D02*
X190774450Y-173990000D01*
X184805450Y-187942980D02*
X187472450Y-185275980D01*
X184091460Y-147788880D02*
X183368570Y-147066000D01*
X191409450Y-181592980D02*
X191409450Y-174625000D01*
X209276570Y-129413000D02*
X211729450Y-126959870D01*
X184091460Y-159494980D02*
X184091460Y-147788880D01*
X179685570Y-203730860D02*
X184805450Y-198610980D01*
X187472450Y-185275980D02*
X188234450Y-185275980D01*
X185654570Y-173990000D02*
X184765570Y-173101000D01*
X184765570Y-160169100D02*
X184091460Y-159494980D01*
X179685570Y-216662000D02*
X179685570Y-203730860D01*
X184765570Y-173101000D02*
X184765570Y-160169100D01*
X209276570Y-145923000D02*
X209276570Y-129413000D01*
X214483570Y-115425980D02*
X214483570Y-96774000D01*
X211729450Y-118180100D02*
X214483570Y-115425980D01*
X190774450Y-173990000D02*
X185654570Y-173990000D01*
X211729450Y-126959870D02*
X211729450Y-118180100D01*
X183368570Y-147066000D02*
X183368570Y-143510000D01*
X184805450Y-198610980D02*
X184805450Y-187942980D01*
X204450570Y-222758000D02*
X207625570Y-222758000D01*
%TO.N,/ad7794/thermometer_bridge_1/SENGND*%
X183368570Y-159328100D02*
X183368570Y-148209000D01*
X184384570Y-173228000D02*
X184384570Y-160344100D01*
X211348450Y-126705870D02*
X211348450Y-117799100D01*
X190901450Y-180957980D02*
X190901450Y-175006000D01*
X183368570Y-148209000D02*
X182733570Y-147574000D01*
X185527570Y-174371000D02*
X184384570Y-173228000D01*
X184424450Y-198356980D02*
X184424450Y-187688980D01*
X182733570Y-147574000D02*
X182733570Y-142875000D01*
X178923570Y-203857860D02*
X184424450Y-198356980D01*
X208387570Y-145288000D02*
X208895570Y-144780000D01*
X182733570Y-142875000D02*
X183241570Y-142367000D01*
X190901450Y-175006000D02*
X190266450Y-174371000D01*
X208895570Y-129159000D02*
X211348450Y-126705870D01*
X186710450Y-185402980D02*
X186710450Y-184894980D01*
X211348450Y-117799100D02*
X213721570Y-115425980D01*
X184424450Y-187688980D02*
X186710450Y-185402980D01*
X213721570Y-115425980D02*
X213721570Y-95631000D01*
X190266450Y-174371000D02*
X185527570Y-174371000D01*
X190901450Y-182100980D02*
X190901450Y-180957980D01*
X208895570Y-144780000D02*
X208895570Y-129159000D01*
X213721570Y-95631000D02*
X214483570Y-94869000D01*
X184384570Y-160344100D02*
X183368570Y-159328100D01*
X178923570Y-216154000D02*
X178923570Y-203857860D01*
%TO.N,Net-(U1301-\u002ARESET)*%
X223246570Y-179324000D02*
X223246570Y-175514000D01*
X222357570Y-180213000D02*
X223246570Y-179324000D01*
X221341570Y-180213000D02*
X222357570Y-180213000D01*
%TO.N,/PWR_EN*%
X205720570Y-83185000D02*
X204196570Y-81661000D01*
X204196570Y-81661000D02*
X204196570Y-79692500D01*
X207117570Y-125222000D02*
X207117570Y-117475000D01*
X202037570Y-175133000D02*
X202037570Y-148336000D01*
X205720570Y-126619000D02*
X207117570Y-125222000D01*
X207117570Y-117475000D02*
X205720570Y-116078000D01*
X202037570Y-148336000D02*
X205720570Y-144653000D01*
X204196570Y-79692500D02*
X203498070Y-78994000D01*
X205720570Y-116078000D02*
X205720570Y-83185000D01*
X205720570Y-144653000D02*
X205720570Y-126619000D01*
%TO.N,/PWR_SYNC*%
X201442450Y-148336000D02*
X205339570Y-144438880D01*
X206736570Y-117856000D02*
X205339570Y-116459000D01*
X205339570Y-144438880D02*
X205339570Y-125857000D01*
X205339570Y-125857000D02*
X206736570Y-124460000D01*
X201442450Y-175768000D02*
X201442450Y-148336000D01*
X205339570Y-85121750D02*
X202259820Y-82042000D01*
X205339570Y-116459000D02*
X205339570Y-85121750D01*
X202259820Y-82042000D02*
X202259820Y-77438250D01*
X202259820Y-77438250D02*
X203942570Y-75755500D01*
X206736570Y-124460000D02*
X206736570Y-117856000D01*
%TO.N,/ad7794/thermometer_bridge_1/VOUT_P*%
X185175020Y-198876410D02*
X185175020Y-194431410D01*
X185175020Y-194431410D02*
X193187450Y-186418980D01*
X193187450Y-186418980D02*
X193187450Y-184023000D01*
X180447570Y-214757000D02*
X180447570Y-203603860D01*
X193568450Y-183642000D02*
X196195570Y-183642000D01*
X180447570Y-203603860D02*
X185175020Y-198876410D01*
X193187450Y-184023000D02*
X193568450Y-183642000D01*
X196957570Y-184404000D02*
X196195570Y-183642000D01*
%TO.N,/ad7794/thermometer_bridge_1/VOUT_N*%
X194036570Y-186153550D02*
X194036570Y-184404000D01*
X185556020Y-194634100D02*
X194036570Y-186153550D01*
X181590570Y-214884000D02*
X181590570Y-203095860D01*
X185556020Y-199130410D02*
X185556020Y-194634100D01*
X181590570Y-203095860D02*
X185556020Y-199130410D01*
%TO.N,/ad7794/thermometer_bridge_3/VOUT_P*%
X208427450Y-153779980D02*
X208427450Y-150692100D01*
X212197570Y-148826980D02*
X212197570Y-128016000D01*
X212607020Y-127606550D02*
X212607020Y-120378980D01*
X209570450Y-181737000D02*
X209570450Y-154922980D01*
X218039570Y-119870980D02*
X218420570Y-119489980D01*
X208427450Y-150692100D02*
X209062450Y-150057100D01*
X204577570Y-182245000D02*
X204450570Y-182118000D01*
X209570450Y-154922980D02*
X208427450Y-153779980D01*
X209062450Y-182245000D02*
X209570450Y-181737000D01*
X218420570Y-119489980D02*
X218420570Y-98527360D01*
X218420570Y-98527360D02*
X219221430Y-97726500D01*
X209062450Y-182245000D02*
X204577570Y-182245000D01*
X195710430Y-182118000D02*
X195433570Y-181840880D01*
X212607020Y-120378980D02*
X213115020Y-119870980D01*
X209062450Y-150057100D02*
X210967450Y-150057100D01*
X204450570Y-182118000D02*
X195710430Y-182118000D01*
X210967450Y-150057100D02*
X212197570Y-148826980D01*
X213115020Y-119870980D02*
X218039570Y-119870980D01*
X212197570Y-128016000D02*
X212607020Y-127606550D01*
X195433570Y-181840880D02*
X194544570Y-181840880D01*
%TO.N,/ad7794/thermometer_bridge_3/VOUT_N*%
X208935450Y-149715980D02*
X210800570Y-149715980D01*
X211816570Y-148699980D02*
X211816570Y-127889000D01*
X208681450Y-181864000D02*
X205212570Y-181864000D01*
X210800570Y-149715980D02*
X211816570Y-148699980D01*
X218166570Y-119108980D02*
X218166570Y-98781360D01*
X204958570Y-181610000D02*
X196449570Y-181610000D01*
X209189450Y-181356000D02*
X209189450Y-155049980D01*
X212226020Y-120124980D02*
X212861020Y-119489980D01*
X212861020Y-119489980D02*
X217785570Y-119489980D01*
X217785570Y-119489980D02*
X218166570Y-119108980D01*
X208046450Y-153906980D02*
X208046450Y-150604980D01*
X196030470Y-181190900D02*
X194163570Y-181190900D01*
X208681450Y-181864000D02*
X209189450Y-181356000D01*
X196449570Y-181610000D02*
X196030470Y-181190900D01*
X211816570Y-127889000D02*
X212226020Y-127479550D01*
X205212570Y-181864000D02*
X204958570Y-181610000D01*
X208046450Y-150604980D02*
X208935450Y-149715980D01*
X209189450Y-155049980D02*
X208046450Y-153906980D01*
X212226020Y-127479550D02*
X212226020Y-120124980D01*
X218166570Y-98781360D02*
X217111460Y-97726500D01*
%TO.N,/ad7794/thermometer_bridge_4/VOUT_P*%
X177399570Y-180195980D02*
X184805450Y-180195980D01*
%TO.N,/ad7794/thermometer_bridge_4/VOUT_N*%
X177907570Y-179433980D02*
X185273570Y-179433980D01*
%TO.N,/level_shift/LEuWire_CLKoutDIV_2*%
X192766570Y-76073000D02*
X194671570Y-74168000D01*
X201188450Y-100312980D02*
X192766570Y-91891100D01*
X196703570Y-145778980D02*
X196703570Y-122721880D01*
X200807450Y-149882860D02*
X196703570Y-145778980D01*
X200807450Y-176512980D02*
X200807450Y-149882860D01*
X192766570Y-91891100D02*
X192766570Y-76073000D01*
X196703570Y-122721880D02*
X201188450Y-118237000D01*
X194671570Y-74168000D02*
X194671570Y-62893950D01*
X201188450Y-118237000D02*
X201188450Y-100312980D01*
%TO.N,/level_shift/CLKuWire_CLKoutDIV_1*%
X200807450Y-117838980D02*
X200807450Y-100566980D01*
X192258570Y-92018100D02*
X192258570Y-76073000D01*
X194036570Y-74295000D02*
X194036570Y-63500000D01*
X200426450Y-175260000D02*
X200426450Y-150241000D01*
X200172450Y-175514000D02*
X200426450Y-175260000D01*
X200426450Y-150241000D02*
X196322570Y-146136870D01*
X192258570Y-76073000D02*
X194036570Y-74295000D01*
X196322570Y-122323860D02*
X200807450Y-117838980D01*
X196322570Y-146136870D02*
X196322570Y-122323860D01*
X200172450Y-177147980D02*
X200172450Y-175514000D01*
X200807450Y-100566980D02*
X192258570Y-92018100D01*
%TO.N,/level_shift/DATAuWire_CLKoutDIV_0*%
X199156450Y-175641000D02*
X199878570Y-174918880D01*
X191750570Y-76073000D02*
X193401570Y-74422000D01*
X199156450Y-177655980D02*
X199156450Y-175641000D01*
X200426450Y-117457980D02*
X200426450Y-100820980D01*
X199878570Y-174918880D02*
X199878570Y-150495000D01*
X195941570Y-121942860D02*
X200426450Y-117457980D01*
X191750570Y-92145100D02*
X191750570Y-76073000D01*
X199878570Y-150495000D02*
X195941570Y-146558000D01*
X200426450Y-100820980D02*
X191750570Y-92145100D01*
X195941570Y-146558000D02*
X195941570Y-121942860D01*
X193401570Y-74422000D02*
X193401570Y-64008000D01*
%TO.N,/ad7794/CSb*%
X194417570Y-187579000D02*
X193655570Y-187579000D01*
X192766570Y-192475860D02*
X190988570Y-194253860D01*
X192766570Y-188468000D02*
X192766570Y-192475860D01*
X193655570Y-187579000D02*
X192766570Y-188468000D01*
%TO.N,/ad9781/DAC_SDO*%
X232898570Y-184912000D02*
X230485570Y-182499000D01*
X232898570Y-188214000D02*
X232898570Y-184912000D01*
X229850570Y-191262000D02*
X232898570Y-188214000D01*
X229850570Y-203454000D02*
X229850570Y-191262000D01*
%TO.N,/amc7823/MISO*%
X215412450Y-171577000D02*
X215412450Y-171178980D01*
X226675570Y-175514000D02*
X224135570Y-172974000D01*
X216809450Y-172974000D02*
X215412450Y-171577000D01*
X227350450Y-185021980D02*
X226675570Y-184347100D01*
X224135570Y-172974000D02*
X216809450Y-172974000D01*
X226675570Y-184347100D02*
X226675570Y-175514000D01*
%TO.N,/ADC0/ADC01_SDIO*%
X186924570Y-99822000D02*
X189972570Y-99822000D01*
X189758450Y-135468870D02*
X189758450Y-128379980D01*
X191877570Y-115697000D02*
X187235470Y-115697000D01*
X190734570Y-100584000D02*
X189972570Y-99822000D01*
X189758450Y-128379980D02*
X192639570Y-125498860D01*
X184765570Y-113227100D02*
X184765570Y-101981000D01*
X192298450Y-154033980D02*
X192298450Y-151874980D01*
X184765570Y-101981000D02*
X186924570Y-99822000D01*
X192639570Y-116459000D02*
X191877570Y-115697000D01*
X187235470Y-115697000D02*
X184765570Y-113227100D01*
X189083570Y-136144000D02*
X189758450Y-135468870D01*
X192639570Y-125498860D02*
X192639570Y-116459000D01*
%TO.N,/ADC0/ADC01_PDWN*%
X194036570Y-103124000D02*
X193401570Y-102489000D01*
X189972570Y-141605000D02*
X193147570Y-138430000D01*
X189972570Y-154305000D02*
X189972570Y-141605000D01*
X193147570Y-116205000D02*
X194036570Y-115316000D01*
X194036570Y-115316000D02*
X194036570Y-103124000D01*
X191242570Y-154940000D02*
X190607570Y-154940000D01*
X190607570Y-154940000D02*
X189972570Y-154305000D01*
X190099570Y-101986590D02*
X190099570Y-100965000D01*
X193147570Y-138430000D02*
X193147570Y-116205000D01*
X190601730Y-102489000D02*
X190099570Y-101986590D01*
X193401570Y-102489000D02*
X190601730Y-102489000D01*
%TO.N,/ADC0/ADC01_SYNC*%
X190774450Y-125839980D02*
X190774450Y-119489980D01*
X186416570Y-136507980D02*
X189123450Y-133801100D01*
X187980450Y-153515060D02*
X187980450Y-153057860D01*
X189123450Y-127490980D02*
X190774450Y-125839980D01*
X188575570Y-153769060D02*
X188234450Y-153769060D01*
X187091450Y-167622980D02*
X186035570Y-166567100D01*
X188234450Y-153769060D02*
X187980450Y-153515060D01*
X189210570Y-154404060D02*
X188575570Y-153769060D01*
X189210570Y-159512000D02*
X189210570Y-154404060D01*
X186416570Y-151493980D02*
X186416570Y-136507980D01*
X186035570Y-166567100D02*
X186035570Y-162687000D01*
X186035570Y-162687000D02*
X189210570Y-159512000D01*
X187980450Y-153057860D02*
X186416570Y-151493980D01*
X189123450Y-133801100D02*
X189123450Y-127490980D01*
%TO.N,/ADC0/ADC01_SCLK*%
X183241570Y-112268000D02*
X183241570Y-102997000D01*
X187051570Y-136634980D02*
X189438920Y-134247630D01*
X187178570Y-116205000D02*
X183241570Y-112268000D01*
X186797570Y-99441000D02*
X190353570Y-99441000D01*
X189438920Y-127937510D02*
X192131570Y-125244860D01*
X183241570Y-102997000D02*
X186797570Y-99441000D01*
X188575570Y-152963880D02*
X187051570Y-151439880D01*
X191623570Y-116205000D02*
X187178570Y-116205000D01*
X192131570Y-125244860D02*
X192131570Y-116713000D01*
X189438920Y-134247630D02*
X189438920Y-127937510D01*
X190734570Y-99822000D02*
X190353570Y-99441000D01*
X187051570Y-151439880D02*
X187051570Y-136634980D01*
X192131570Y-116713000D02*
X191623570Y-116205000D01*
%TO.N,/ADC0/ADC1_CSB*%
X193655570Y-138684000D02*
X193655570Y-116586000D01*
X190353570Y-141986000D02*
X193655570Y-138684000D01*
X190353570Y-150251920D02*
X190353570Y-141986000D01*
X193655570Y-116586000D02*
X194290570Y-115951000D01*
X191254510Y-102108000D02*
X190619510Y-101473000D01*
X191115570Y-151013920D02*
X190353570Y-150251920D01*
X193655570Y-102108000D02*
X191254510Y-102108000D01*
X194290570Y-115951000D02*
X194290570Y-102743000D01*
X194290570Y-102743000D02*
X193655570Y-102108000D01*
D22*
%TO.N,/P2_12P0V*%
X250795160Y-118480580D02*
X248392570Y-116078000D01*
X229128450Y-77319380D02*
X215880570Y-64117980D01*
X254909450Y-173337980D02*
X254909450Y-170797980D01*
X256687450Y-151358600D02*
X254917830Y-149588980D01*
X254917830Y-170789600D02*
X254917830Y-165709600D01*
X254917830Y-165709600D02*
X256687450Y-163939980D01*
X252877450Y-170797980D02*
X254909450Y-170797980D01*
X254917830Y-149588980D02*
X254917830Y-118473980D01*
X201950450Y-64117980D02*
X202839450Y-64117980D01*
X238232570Y-116078000D02*
X235946570Y-113792000D01*
X229128450Y-92622880D02*
X229128450Y-77319380D01*
X254909450Y-170797980D02*
X254917830Y-170789600D01*
X215880570Y-64117980D02*
X202839450Y-64117980D01*
X254917830Y-118473980D02*
X250795160Y-118480580D01*
X256687450Y-163939980D02*
X256687450Y-151358600D01*
X235946570Y-113792000D02*
X235946570Y-99441000D01*
X248392570Y-116078000D02*
X238232570Y-116078000D01*
X235946570Y-99441000D02*
X229128450Y-92622880D01*
X252877450Y-173337980D02*
X254909450Y-173337980D01*
X201061450Y-64117980D02*
X201950450Y-64117980D01*
%TD*%
D27*
X257681350Y-226949000D02*
X257681350Y-86949020D01*
X257681350Y-86949020D02*
X236681390Y-86949020D01*
X236681390Y-86949020D02*
X236681390Y-45188880D01*
X236681390Y-45188880D02*
X147681570Y-45188880D01*
X147681570Y-226949000D02*
X257681350Y-226949000D01*
X147681570Y-45188880D02*
X147681570Y-226949000D01*
M02*
