%TF.GenerationSoftware,KiCad,Pcbnew,8.0.5*%
%TF.CreationDate,2024-11-23T04:47:03-08:00*%
%TF.ProjectId,zest,7a657374-2e6b-4696-9361-645f70636258,rev?*%
%TF.SameCoordinates,Original*%
%TF.FileFunction,Copper,L3,Inr*%
%TF.FilePolarity,Positive*%
%FSLAX46Y46*%
G04 Gerber Fmt 4.6, Leading zero omitted, Abs format (unit mm)*
G04 Created by KiCad (PCBNEW 8.0.5) date 2024-11-23 04:47:03*
%MOMM*%
%LPD*%
G01*
G04 APERTURE LIST*
%TA.AperFunction,ComponentPad*%
%ADD10C,0.499999*%
%TD*%
%TA.AperFunction,ComponentPad*%
%ADD11C,5.800000*%
%TD*%
%TA.AperFunction,ComponentPad*%
%ADD12C,2.159000*%
%TD*%
%TA.AperFunction,ComponentPad*%
%ADD13C,2.286000*%
%TD*%
%TA.AperFunction,ComponentPad*%
%ADD14C,1.828800*%
%TD*%
%TA.AperFunction,ComponentPad*%
%ADD15R,1.778000X1.778000*%
%TD*%
%TA.AperFunction,ComponentPad*%
%ADD16C,1.778000*%
%TD*%
%TA.AperFunction,ComponentPad*%
%ADD17R,1.700000X1.700000*%
%TD*%
%TA.AperFunction,ComponentPad*%
%ADD18O,1.700000X1.700000*%
%TD*%
%TA.AperFunction,ComponentPad*%
%ADD19C,0.508000*%
%TD*%
%TA.AperFunction,ViaPad*%
%ADD20C,0.508000*%
%TD*%
%TA.AperFunction,Conductor*%
%ADD21C,1.143000*%
%TD*%
%TA.AperFunction,Conductor*%
%ADD22C,0.635000*%
%TD*%
%TA.AperFunction,Conductor*%
%ADD23C,0.203200*%
%TD*%
%TA.AperFunction,Conductor*%
%ADD24C,0.127000*%
%TD*%
%TA.AperFunction,Conductor*%
%ADD25C,0.381000*%
%TD*%
%TA.AperFunction,Conductor*%
%ADD26C,0.508000*%
%TD*%
%TA.AperFunction,Conductor*%
%ADD27C,0.304800*%
%TD*%
%TA.AperFunction,Profile*%
%ADD28C,0.050800*%
%TD*%
G04 APERTURE END LIST*
D10*
%TO.N,GND*%
%TO.C,U1002*%
X185126445Y-65043973D03*
X183876445Y-65043973D03*
X182626445Y-65043973D03*
X185126445Y-66293973D03*
X183876445Y-66293973D03*
X182626445Y-66293973D03*
X185126445Y-67543973D03*
X183876445Y-67543973D03*
X182626445Y-67543973D03*
%TD*%
D11*
%TO.N,unconnected-(H104-Pad1)*%
%TO.C,H104*%
X246781450Y-90248993D03*
%TD*%
D12*
%TO.N,Net-(J1202-In)*%
%TO.C,J1202*%
X153396444Y-205208859D03*
D13*
%TO.N,GND*%
X155936444Y-207748859D03*
X155936444Y-202668859D03*
X150856444Y-202668859D03*
X150856444Y-207748859D03*
%TD*%
D12*
%TO.N,Net-(J202-In)*%
%TO.C,J202*%
X153396444Y-159488859D03*
D13*
%TO.N,GND*%
X155936444Y-162028859D03*
X155936444Y-156948859D03*
X150856444Y-156948859D03*
X150856444Y-162028859D03*
%TD*%
D11*
%TO.N,unconnected-(H106-Pad1)*%
%TO.C,H106*%
X185186450Y-81643980D03*
%TD*%
D12*
%TO.N,Net-(J704-In)*%
%TO.C,J704*%
X153396444Y-129008859D03*
D13*
%TO.N,GND*%
X155936444Y-131548859D03*
X155936444Y-126468859D03*
X150856444Y-126468859D03*
X150856444Y-131548859D03*
%TD*%
D12*
%TO.N,Net-(J703-In)*%
%TO.C,J703*%
X153396444Y-83288859D03*
D13*
%TO.N,GND*%
X155936444Y-85828859D03*
X155936444Y-80748859D03*
X150856444Y-80748859D03*
X150856444Y-85828859D03*
%TD*%
D14*
%TO.N,unconnected-(J1501-Pad20)*%
%TO.C,J1501*%
X230813892Y-52694076D03*
%TO.N,unconnected-(J1501-Pad21)*%
X216313896Y-52694076D03*
%TO.N,unconnected-(J1501-Pad22)*%
X231413894Y-47744076D03*
%TO.N,unconnected-(J1501-Pad23)*%
X215713894Y-47744076D03*
%TD*%
D12*
%TO.N,Net-(J204-In)*%
%TO.C,J204*%
X153396444Y-189968859D03*
D13*
%TO.N,GND*%
X155936444Y-192508859D03*
X155936444Y-187428859D03*
X150856444Y-187428859D03*
X150856444Y-192508859D03*
%TD*%
D12*
%TO.N,Net-(J702-In)*%
%TO.C,J702*%
X153396444Y-98528859D03*
D13*
%TO.N,GND*%
X155936444Y-101068859D03*
X155936444Y-95988859D03*
X150856444Y-95988859D03*
X150856444Y-101068859D03*
%TD*%
D12*
%TO.N,Net-(J1201-In)*%
%TO.C,J1201*%
X153396444Y-220448859D03*
D13*
%TO.N,GND*%
X155936444Y-222988859D03*
X155936444Y-217908859D03*
X150856444Y-217908859D03*
X150856444Y-222988859D03*
%TD*%
D12*
%TO.N,Net-(J203-In)*%
%TO.C,J203*%
X153396444Y-144248859D03*
D13*
%TO.N,GND*%
X155936444Y-146788859D03*
X155936444Y-141708859D03*
X150856444Y-141708859D03*
X150856444Y-146788859D03*
%TD*%
D11*
%TO.N,unconnected-(H101-Pad1)*%
%TO.C,H101*%
X246781450Y-223248980D03*
%TD*%
D15*
%TO.N,/P1_3P3VAUX*%
%TO.C,J1901*%
X212432900Y-49530000D03*
D16*
%TO.N,Net-(U1901-WP)*%
X212432900Y-52070000D03*
%TD*%
D11*
%TO.N,unconnected-(H107-Pad1)*%
%TO.C,H107*%
X186329450Y-123045980D03*
%TD*%
D12*
%TO.N,Net-(J1001-In)*%
%TO.C,J1001*%
X153396444Y-52808859D03*
D13*
%TO.N,GND*%
X155936444Y-55348859D03*
X155936444Y-50268859D03*
X150856444Y-50268859D03*
X150856444Y-55348859D03*
%TD*%
D12*
%TO.N,Net-(J701-In)*%
%TO.C,J701*%
X153396444Y-113768859D03*
D13*
%TO.N,GND*%
X155936444Y-116308859D03*
X155936444Y-111228859D03*
X150856444Y-111228859D03*
X150856444Y-116308859D03*
%TD*%
D12*
%TO.N,Net-(J1004-In)*%
%TO.C,J1004*%
X153396444Y-68048859D03*
D13*
%TO.N,GND*%
X155936444Y-70588859D03*
X155936444Y-65508859D03*
X150856444Y-65508859D03*
X150856444Y-70588859D03*
%TD*%
D11*
%TO.N,unconnected-(H102-Pad1)*%
%TO.C,H102*%
X246781450Y-160258987D03*
%TD*%
%TO.N,unconnected-(H103-Pad1)*%
%TO.C,H103*%
X246781450Y-153258976D03*
%TD*%
D12*
%TO.N,Net-(J201-In)*%
%TO.C,J201*%
X153396444Y-174728859D03*
D13*
%TO.N,GND*%
X155936444Y-177268859D03*
X155936444Y-172188859D03*
X150856444Y-172188859D03*
X150856444Y-177268859D03*
%TD*%
D17*
%TO.N,/P2_VADJ*%
%TO.C,J1503*%
X214991571Y-213850980D03*
D18*
X214991571Y-216390980D03*
%TO.N,/VDD3P3V*%
X217531571Y-213850980D03*
X217531571Y-216390980D03*
%TO.N,GND*%
X220071571Y-213850980D03*
X220071571Y-216390980D03*
%TO.N,/fmc_misc/PMOD2_4*%
X222611571Y-213850980D03*
%TO.N,/fmc_misc/PMOD2_10*%
X222611571Y-216390980D03*
%TO.N,/fmc_misc/PMOD2_3*%
X225151571Y-213850980D03*
%TO.N,/fmc_misc/PMOD2_9*%
X225151571Y-216390980D03*
%TO.N,/fmc_misc/PMOD2_2*%
X227691571Y-213850980D03*
%TO.N,/fmc_misc/PMOD2_8*%
X227691571Y-216390980D03*
%TO.N,/fmc_misc/PMOD2_1*%
X230231571Y-213850980D03*
%TO.N,/fmc_misc/PMOD2_7*%
X230231571Y-216390980D03*
%TD*%
D17*
%TO.N,/P1_VADJ*%
%TO.C,J1502*%
X208641445Y-58165973D03*
D18*
X208641445Y-55625973D03*
%TO.N,/VDD3P3V*%
X206101445Y-58165973D03*
X206101445Y-55625973D03*
%TO.N,GND*%
X203561445Y-58165973D03*
X203561445Y-55625973D03*
%TO.N,/fmclpc/PMOD1_4*%
X201021445Y-58165973D03*
%TO.N,/fmclpc/PMOD1_10*%
X201021445Y-55625973D03*
%TO.N,/fmclpc/PMOD1_3*%
X198481445Y-58165973D03*
%TO.N,/fmclpc/PMOD1_9*%
X198481445Y-55625973D03*
%TO.N,/fmclpc/PMOD1_2*%
X195941445Y-58165973D03*
%TO.N,/fmclpc/PMOD1_8*%
X195941445Y-55625973D03*
%TO.N,/fmclpc/PMOD1_1*%
X193401445Y-58165973D03*
%TO.N,/fmclpc/PMOD1_7*%
X193401445Y-55625973D03*
%TD*%
D11*
%TO.N,unconnected-(H105-Pad1)*%
%TO.C,H105*%
X180106450Y-192133980D03*
%TD*%
D19*
%TO.N,GND*%
%TO.C,U1301*%
X215118445Y-178815973D03*
X215118445Y-179704973D03*
X215118445Y-180593973D03*
X215118445Y-181482973D03*
X216007445Y-178815973D03*
X216007445Y-179704973D03*
X216007445Y-180593973D03*
X216007445Y-181482973D03*
X216896445Y-178815973D03*
X216896445Y-179704973D03*
X216896445Y-180593973D03*
X216896445Y-181482973D03*
X217785445Y-178815973D03*
X217785445Y-179704973D03*
X217785445Y-180593973D03*
X217785445Y-181482973D03*
%TD*%
D20*
%TO.N,GND*%
X244836318Y-117347998D03*
X252710318Y-191110106D03*
X210038318Y-91770198D03*
X199116318Y-198500998D03*
X206863318Y-181228998D03*
X171851450Y-116695980D03*
X208387318Y-81787998D03*
X171684318Y-130151884D03*
X252710318Y-141429992D03*
X207854934Y-176402998D03*
X203688318Y-143255998D03*
X158095318Y-69151498D03*
X249932320Y-168250106D03*
X184551450Y-175115980D03*
X215499318Y-131698998D03*
X244852320Y-183490106D03*
X179050318Y-62864998D03*
X203434318Y-202691998D03*
X247630318Y-114759992D03*
X229342318Y-164210998D03*
X197551424Y-78739998D03*
X188638818Y-209824064D03*
X190226318Y-79374998D03*
X187472450Y-90025980D03*
X188575318Y-211324188D03*
X244852320Y-136349992D03*
X252710318Y-122379992D03*
X228072318Y-132753098D03*
X196957318Y-220344998D03*
X161818450Y-220327980D03*
X223921450Y-124315980D03*
X189337318Y-103631998D03*
X175113318Y-71627998D03*
X249916318Y-119887998D03*
X188575318Y-208324194D03*
X188107450Y-129776980D03*
X224790000Y-78792320D03*
X186162318Y-160273998D03*
X193401318Y-103631998D03*
X203053318Y-158749998D03*
X190988318Y-185089798D03*
X247630318Y-96979992D03*
X233787318Y-181810658D03*
X213213318Y-183133998D03*
X185693434Y-217717114D03*
X194671318Y-168655998D03*
X209784318Y-80263998D03*
X214610318Y-137921998D03*
X198100318Y-162686998D03*
X252710318Y-172060106D03*
X230739318Y-185546998D03*
X252710318Y-121109992D03*
X166311202Y-50037998D03*
X223500318Y-180720998D03*
X186035318Y-75310998D03*
X180828318Y-61975998D03*
X204831318Y-172592998D03*
X239883318Y-181736998D03*
X200393430Y-79946498D03*
X173843318Y-191364614D03*
X196068318Y-163194998D03*
X244852320Y-124919992D03*
X237978318Y-181736998D03*
X194163318Y-149459948D03*
X182606318Y-169544998D03*
X191242318Y-190372998D03*
X193147318Y-211581998D03*
X194163318Y-212597998D03*
X194417318Y-175005998D03*
X197918708Y-142112998D03*
X191115318Y-211581998D03*
X216903430Y-79946498D03*
X198100318Y-170179998D03*
X167787450Y-203944980D03*
X189464318Y-198754998D03*
X221468318Y-164210998D03*
X218674318Y-202691998D03*
X206418818Y-69214998D03*
X194988818Y-133984998D03*
X244852320Y-198730106D03*
X186543318Y-111124998D03*
X180574318Y-73532998D03*
X174518450Y-191752980D03*
X193401318Y-104901998D03*
X160548450Y-129413000D03*
X252710318Y-216510106D03*
X220706318Y-125348998D03*
X196068318Y-170687998D03*
X199548118Y-180720998D03*
X249932320Y-112219992D03*
X174645450Y-78214980D03*
X174541818Y-75818998D03*
X181336318Y-106552998D03*
X252710318Y-211430106D03*
X207919450Y-188069980D03*
X249932320Y-208890106D03*
X160548450Y-171559980D03*
X186289318Y-173354998D03*
X189210318Y-175005998D03*
X223754318Y-51942998D03*
X190607318Y-164591998D03*
X186035318Y-111632998D03*
X201148318Y-180720998D03*
X173208318Y-63372998D03*
X252710318Y-99519992D03*
X196068318Y-162432998D03*
X247630318Y-207620106D03*
X226929318Y-161416998D03*
X190607318Y-104901998D03*
X196703318Y-210819998D03*
X184955818Y-56133998D03*
X183241318Y-57784998D03*
X216515318Y-132587998D03*
X185146318Y-219836998D03*
X205633450Y-188069980D03*
X244852320Y-132539992D03*
X199116318Y-134238998D03*
X202799318Y-164210998D03*
X244852320Y-121109992D03*
X210673318Y-164210998D03*
X158095318Y-70421498D03*
X252710318Y-196190106D03*
X219313890Y-51942998D03*
X213213318Y-118490998D03*
X204871450Y-124442980D03*
X249932320Y-186030106D03*
X190226318Y-80263998D03*
X163810318Y-72008998D03*
X209911318Y-191134998D03*
X244852320Y-143969992D03*
X209784318Y-202691998D03*
X189210318Y-170814998D03*
X213594318Y-202691998D03*
X247630318Y-142699992D03*
X193147318Y-210565998D03*
X193147318Y-212597998D03*
X188638818Y-212824058D03*
X172740450Y-146159980D03*
X191178818Y-196204076D03*
X201615424Y-82930998D03*
X231668450Y-99931980D03*
X252710318Y-136349992D03*
X244852320Y-102059992D03*
X252146946Y-152272998D03*
X244852320Y-172060106D03*
X213594318Y-143454118D03*
X181971318Y-101218998D03*
X172827318Y-69087998D03*
X196830318Y-170052998D03*
X188448318Y-162432998D03*
X162435288Y-51497358D03*
X188321318Y-136801858D03*
X244852320Y-105869992D03*
X186583450Y-189085980D03*
X209847818Y-77406498D03*
X206863318Y-183133998D03*
X190607318Y-106425998D03*
X183408450Y-203436980D03*
X208514318Y-202691998D03*
X203688318Y-140138148D03*
X247630318Y-103329992D03*
X161818450Y-205214980D03*
X174899450Y-176512980D03*
X183154450Y-164320980D03*
X201416796Y-127888998D03*
X252710318Y-166980106D03*
X247630318Y-184760106D03*
X188448318Y-170814998D03*
X203434318Y-81406998D03*
X204831318Y-173354998D03*
X191877318Y-164591998D03*
X212578318Y-215391998D03*
X195560318Y-101472998D03*
X193782318Y-191004188D03*
X220813760Y-51942998D03*
X219753818Y-80921604D03*
X244852320Y-179680106D03*
X252710318Y-177140106D03*
X252710318Y-180950106D03*
X187178318Y-101472998D03*
X252710318Y-175870106D03*
X202926318Y-119633998D03*
X181844318Y-110108998D03*
X240137318Y-217233498D03*
X252710318Y-207620106D03*
X204196318Y-164210998D03*
X199116318Y-178424076D03*
X185273318Y-139572998D03*
X189210318Y-162432998D03*
X171851450Y-161653980D03*
X193401318Y-106425998D03*
X244852320Y-109679992D03*
X191115318Y-212597998D03*
X219309318Y-164210998D03*
X187940318Y-109981998D03*
X198466840Y-127888998D03*
X188321318Y-137540998D03*
X187178318Y-109981998D03*
X192131318Y-210565998D03*
X186860818Y-56133998D03*
X189210318Y-163194998D03*
X247630318Y-146509992D03*
X211054318Y-202691998D03*
X189337318Y-106425998D03*
X252710318Y-206350106D03*
X160548450Y-160020000D03*
X249932320Y-170790106D03*
X247630318Y-133857998D03*
X240073818Y-143549114D03*
X197528818Y-80271618D03*
X249916318Y-135127998D03*
X182646450Y-156700980D03*
X206560296Y-127888998D03*
X195052318Y-141604998D03*
X197551424Y-81152998D03*
X191877318Y-165861998D03*
X196068318Y-170052998D03*
X172065318Y-64007998D03*
X183495318Y-65912998D03*
X194163318Y-150364188D03*
X202418318Y-210184998D03*
X249932320Y-116029992D03*
X187686318Y-161797998D03*
X203434318Y-209208114D03*
X160548450Y-80246980D03*
X213721318Y-191134998D03*
X197833618Y-74929998D03*
X247630318Y-188570106D03*
X249932320Y-100789992D03*
X171684318Y-145518884D03*
X217531318Y-132537198D03*
X188448318Y-163194998D03*
X191496318Y-133603998D03*
X190607318Y-165861998D03*
X189337318Y-107695998D03*
X227945318Y-129539998D03*
X194163318Y-211581998D03*
X202291318Y-75818998D03*
X213919438Y-80517998D03*
X190607318Y-220217998D03*
X249932320Y-145239992D03*
X214356318Y-175259998D03*
X247630318Y-173330106D03*
X190861318Y-159003998D03*
X182606318Y-165734998D03*
X190988318Y-185741054D03*
X255567818Y-155066998D03*
X177272318Y-57721498D03*
X193769618Y-142874998D03*
X227564318Y-202691998D03*
X247630318Y-141429992D03*
X204704318Y-202691998D03*
X244836318Y-140207998D03*
X194671318Y-167385998D03*
X224738948Y-81660998D03*
X187051318Y-154241498D03*
X184765318Y-98932998D03*
X193464818Y-77406498D03*
X247630318Y-169520106D03*
X179431318Y-75818998D03*
X219944318Y-202691998D03*
X196830318Y-162432998D03*
X191242318Y-70103998D03*
X200068818Y-135191498D03*
X181336318Y-104647998D03*
X192131318Y-103631998D03*
X211054318Y-131698998D03*
X187940318Y-102234998D03*
X171811318Y-160781998D03*
X222230318Y-161416998D03*
X194163318Y-209549998D03*
X202545318Y-129666998D03*
X216896318Y-164210998D03*
X204871450Y-122918980D03*
X187940318Y-109219998D03*
X252710318Y-96979992D03*
X195560318Y-109092998D03*
X207244318Y-202691998D03*
X181336318Y-219836998D03*
X185654318Y-99821998D03*
X194798318Y-101472998D03*
X192258318Y-96519998D03*
X252710318Y-201270106D03*
X247630318Y-122427998D03*
X181209318Y-55879998D03*
X171684318Y-115165884D03*
X194798318Y-109854998D03*
X211816318Y-191134998D03*
X164191318Y-58356498D03*
X205529818Y-67563998D03*
X230866318Y-181863998D03*
X196449318Y-101980998D03*
X223921450Y-121902980D03*
X233914318Y-187070998D03*
X247630318Y-200000106D03*
X226929318Y-164210998D03*
X247630318Y-99519992D03*
X252710318Y-169520106D03*
X191115318Y-78104998D03*
X224897318Y-129539998D03*
X201402318Y-124967998D03*
X217531318Y-191134998D03*
X192131318Y-107695998D03*
X213934424Y-81406998D03*
X185567450Y-112123980D03*
X253853318Y-155955998D03*
X244852320Y-191110106D03*
X221214318Y-202691998D03*
X187178318Y-109219998D03*
X171811318Y-191261998D03*
X252710318Y-105869992D03*
X195092450Y-120759980D03*
X249932320Y-210160106D03*
X206482318Y-90804998D03*
X201910318Y-185038998D03*
X214864318Y-202691998D03*
X249932320Y-197460106D03*
X181336318Y-108457998D03*
X182606318Y-167639998D03*
X226207450Y-83167980D03*
X222313884Y-51942998D03*
X190389386Y-215264998D03*
X217404318Y-202691998D03*
X221849318Y-119697498D03*
X252710318Y-192380106D03*
X199243318Y-157987998D03*
X213506434Y-174878998D03*
X158095318Y-59626498D03*
X220579318Y-185800998D03*
X219055318Y-142366998D03*
X226207450Y-80246980D03*
X244852320Y-175870106D03*
X187940318Y-101472998D03*
X171811318Y-175998884D03*
X164318318Y-66293998D03*
X228008818Y-96773998D03*
X190607318Y-107695998D03*
X220706318Y-161416998D03*
X199243318Y-173100998D03*
X192131318Y-211581998D03*
X171851450Y-108567980D03*
X160548450Y-141079980D03*
X197465318Y-162686998D03*
X188889262Y-215264998D03*
X247630318Y-180950106D03*
X222484318Y-202691998D03*
X205974318Y-202691998D03*
X208806418Y-70103998D03*
X192131318Y-212597998D03*
X214904450Y-148318980D03*
X249932320Y-189840106D03*
X167787450Y-221597980D03*
X191389384Y-206882998D03*
X213634450Y-142349980D03*
X244852320Y-213970106D03*
X208514318Y-164210998D03*
X249932320Y-201270106D03*
X182606318Y-171195998D03*
X200068818Y-142239998D03*
X190226318Y-158749998D03*
X182392450Y-207754980D03*
X203229340Y-90804998D03*
X247630318Y-177140106D03*
X244852320Y-210160106D03*
X221722318Y-121495564D03*
X171851450Y-153779980D03*
X190607318Y-167385998D03*
X192131318Y-209549998D03*
X164191318Y-59626498D03*
X249932320Y-140159992D03*
X187178318Y-102234998D03*
X247630318Y-166980106D03*
X252710318Y-102059992D03*
X249932320Y-193650106D03*
X207371318Y-91770198D03*
X249932320Y-131269992D03*
X252710318Y-137619992D03*
X244852320Y-194920106D03*
X191242318Y-204215998D03*
X244852320Y-113489992D03*
X186924318Y-161035998D03*
X252710318Y-186030106D03*
X244852320Y-202540106D03*
X171811318Y-99925884D03*
X193655318Y-139699998D03*
X247630318Y-130047998D03*
X223627318Y-164210998D03*
X171811318Y-84581998D03*
X247630318Y-212700106D03*
X247630318Y-118569992D03*
X252710318Y-187300106D03*
X252710318Y-110949992D03*
X244852320Y-206350106D03*
X171724450Y-140190980D03*
X215626318Y-191134998D03*
X247630318Y-192380106D03*
X249932320Y-123649992D03*
X244852320Y-128729992D03*
X196322318Y-109600998D03*
X249932320Y-213970106D03*
X187940318Y-171703998D03*
X247630318Y-211430106D03*
X191623318Y-64642998D03*
X183114318Y-161670998D03*
X252710318Y-112219992D03*
X184384318Y-73659998D03*
X244836318Y-98249992D03*
X191178818Y-149713948D03*
X247630318Y-196214998D03*
X191389384Y-215264998D03*
X218420318Y-127380998D03*
X223881318Y-123126498D03*
X249932320Y-215240106D03*
X218102818Y-82908646D03*
X176129318Y-132056884D03*
X194163318Y-210565998D03*
X171724450Y-124696980D03*
X185948450Y-184894980D03*
X191877318Y-220217998D03*
X249932320Y-182220106D03*
X173990000Y-129662980D03*
X191115318Y-209549998D03*
X188321318Y-133550658D03*
X230739318Y-184657998D03*
X172618400Y-102489000D03*
X223754318Y-202691998D03*
X188361450Y-114663980D03*
X252710318Y-127459992D03*
X219436318Y-171703998D03*
X195560318Y-102234998D03*
X252710318Y-202540106D03*
X196830318Y-170687998D03*
X252710318Y-182220106D03*
X201910318Y-183260998D03*
X189210318Y-170052998D03*
X249932320Y-138889992D03*
X174899450Y-169654980D03*
X194671318Y-165861998D03*
X252710318Y-126189992D03*
X252710318Y-107139992D03*
X240264318Y-213613998D03*
X191877318Y-167385998D03*
X193401318Y-167385998D03*
X190607318Y-103631998D03*
X244852320Y-168250106D03*
X190988318Y-66674998D03*
X207371318Y-126872998D03*
X203610340Y-127888998D03*
X195560318Y-109854998D03*
X205593318Y-164210998D03*
X174645450Y-85199980D03*
X225024318Y-202691998D03*
X193401318Y-165861998D03*
X252710318Y-146509992D03*
X197465318Y-129666998D03*
X247630318Y-203810106D03*
X228834318Y-202691998D03*
X191115318Y-210565998D03*
X252710318Y-117299992D03*
X167112318Y-61213998D03*
X214737318Y-185927998D03*
X222611318Y-104393998D03*
X190607318Y-168655998D03*
X192131318Y-104901998D03*
X196830318Y-163194998D03*
X187178318Y-172465998D03*
X189034296Y-75183998D03*
X208450818Y-78866998D03*
X217698450Y-139809980D03*
X252710318Y-116029992D03*
X249932320Y-127459992D03*
X223627318Y-161416998D03*
X252710318Y-132539992D03*
X249932320Y-98249992D03*
X186670318Y-100837998D03*
X208641318Y-93090998D03*
X247630318Y-216510106D03*
X194671318Y-164591998D03*
X184678450Y-158732980D03*
X188765818Y-56133998D03*
X183408450Y-206230980D03*
X252710318Y-142699992D03*
X226294318Y-202691998D03*
X244852320Y-187300106D03*
X193401318Y-164591998D03*
X160548450Y-110853980D03*
X188448318Y-96646998D03*
X187472450Y-86977980D03*
X247630318Y-137667998D03*
X194798318Y-109092998D03*
X169398318Y-50164998D03*
X200386318Y-125806198D03*
X211094450Y-148318980D03*
X208577818Y-128206498D03*
X210673318Y-119760998D03*
X192131318Y-106425998D03*
X172593000Y-92311980D03*
X252710318Y-131269992D03*
X191877318Y-168655998D03*
X193401318Y-107695998D03*
X190670818Y-56133998D03*
X189337318Y-104901998D03*
X227310318Y-55625998D03*
X249932320Y-143969992D03*
X199243318Y-169036998D03*
X222611318Y-105663998D03*
X212324318Y-202691998D03*
X193401318Y-168655998D03*
X254488318Y-154114498D03*
X174772450Y-185021980D03*
X183535450Y-114155980D03*
X223596200Y-142189200D03*
X252710318Y-197460106D03*
X160548450Y-190373000D03*
X247630318Y-107139992D03*
X213911818Y-78612998D03*
X193528318Y-114299998D03*
X219309318Y-161416998D03*
X160548450Y-99187000D03*
X202608818Y-121559064D03*
X193147318Y-209549998D03*
X190607318Y-67817998D03*
X217404318Y-74802998D03*
X188448318Y-170052998D03*
X194290318Y-190353948D03*
X249932320Y-205080106D03*
X197465318Y-170179998D03*
X179050318Y-68579998D03*
X247630318Y-126237998D03*
X192430400Y-129776980D03*
X218928318Y-190499998D03*
X204871450Y-121902980D03*
X183241318Y-214756998D03*
X188332240Y-155066998D03*
X252710318Y-212700106D03*
X188638818Y-214324182D03*
X194798318Y-102234998D03*
X207284450Y-148318980D03*
X163556318Y-47561498D03*
X181336318Y-102742998D03*
X189337318Y-97154998D03*
X209784318Y-83121498D03*
X247630318Y-110949992D03*
%TO.N,/VDD1P8V*%
X192639318Y-111124998D03*
X225786318Y-119697498D03*
X191889256Y-217627200D03*
X193401318Y-111759998D03*
X191877318Y-205231998D03*
X226461450Y-124061980D03*
X226461450Y-125585980D03*
X226461450Y-123299980D03*
X192258318Y-100330000D03*
X227691318Y-124713998D03*
X193909318Y-171322998D03*
X192436118Y-204215998D03*
X188956318Y-139572998D03*
X193401318Y-161772600D03*
X226472880Y-122554998D03*
X192258318Y-100964998D03*
X188321318Y-138356338D03*
X226461450Y-124950980D03*
X191877318Y-204596998D03*
X191889256Y-217017600D03*
X193909318Y-171957998D03*
X188321318Y-156209998D03*
X188321318Y-156971998D03*
X193401318Y-162432998D03*
X189718318Y-157479998D03*
X193020318Y-220344998D03*
%TO.N,/VSS1P8V*%
X186289318Y-107568998D03*
X185908318Y-104901998D03*
X224370648Y-136677398D03*
X191369318Y-170687998D03*
X187051318Y-107568998D03*
X219944318Y-136651998D03*
X183241318Y-219836998D03*
X186543318Y-103885998D03*
X187553600Y-168374060D03*
X187178318Y-103885998D03*
X188010800Y-164820600D03*
X189464318Y-109981998D03*
X189337318Y-100329998D03*
X186537600Y-165735000D03*
X188389390Y-217678000D03*
X188321318Y-218820998D03*
X189464318Y-110616998D03*
X188575318Y-164874192D03*
X215539450Y-139428980D03*
X190855600Y-161671000D03*
X187178318Y-165734998D03*
X168890318Y-170687998D03*
X168890318Y-181609998D03*
X188422918Y-167893998D03*
X190861318Y-171830998D03*
X192766318Y-170941998D03*
X191369318Y-171449998D03*
X188168918Y-168374058D03*
X223799400Y-136677398D03*
X192766318Y-171576998D03*
X214483318Y-128777998D03*
X187305318Y-107060998D03*
X218420318Y-135889998D03*
X213670518Y-129539998D03*
X190861318Y-171068998D03*
X191369318Y-110235998D03*
X219182318Y-137921998D03*
X188448318Y-98424998D03*
X189972318Y-110362998D03*
X187432318Y-217550998D03*
X189337318Y-100964998D03*
X190889258Y-217601800D03*
X191369318Y-110871000D03*
X217404318Y-134873998D03*
X218420318Y-137921998D03*
X189972318Y-110997998D03*
X216301450Y-139428980D03*
X186670318Y-107060998D03*
X189845318Y-218439998D03*
X185267600Y-104901998D03*
X190099318Y-160527998D03*
X213848318Y-128015998D03*
X219055318Y-136651998D03*
X187858400Y-167893998D03*
X190861318Y-162305998D03*
X190889258Y-216992200D03*
X188389390Y-217042998D03*
%TO.N,/VREFADC_1P25V*%
X184130318Y-105663998D03*
X185400318Y-166750998D03*
X187599450Y-128760980D03*
%TO.N,/ADC0/se2diff_0/CM*%
X171811318Y-162686998D03*
X173843318Y-193064636D03*
X171811318Y-177903884D03*
X171684318Y-147423884D03*
%TO.N,/ADC0/ADC0_CLK-*%
X188702318Y-176910998D03*
X185527318Y-60070998D03*
%TO.N,/ADC0/ADC0_CLK+*%
X186162318Y-60070998D03*
X188067318Y-176910998D03*
%TO.N,/ADC1/se2diff_4/CM*%
X170795318Y-107568998D03*
X170756202Y-87502998D03*
X170756202Y-102869998D03*
X171684318Y-132056884D03*
X170795318Y-118109998D03*
%TO.N,/ADC1/ADC1_CLK-*%
X190607318Y-117220998D03*
X190099318Y-60070998D03*
%TO.N,/ADC1/ADC1_CLK+*%
X189337318Y-60070998D03*
X191242318Y-117220998D03*
%TO.N,/slowmon/I_Mon*%
X218547318Y-184403998D03*
X202608818Y-69214998D03*
X201021318Y-68325998D03*
%TO.N,/slowmon/ADC3*%
X214102318Y-185419998D03*
X216809450Y-152128980D03*
%TO.N,/slowmon/V3P7V_Mon*%
X209189450Y-152128980D03*
X213380450Y-185275980D03*
%TO.N,/slowmon/V2P2V_Mon*%
X212745450Y-184894980D03*
X212999450Y-152128980D03*
%TO.N,/V12P0V_bus*%
X216809450Y-148318980D03*
X213634450Y-74912980D03*
%TO.N,/lmk01801/LMK57_plane*%
X188067318Y-67055998D03*
X169017318Y-61213998D03*
X186543318Y-66547998D03*
X184384318Y-68960998D03*
X184384318Y-70865998D03*
%TO.N,/lmk01801/LMK13_plane*%
X171176318Y-50164998D03*
X163238818Y-61213998D03*
X181209318Y-67055998D03*
X184126254Y-63626998D03*
%TO.N,/lmk01801/LMK2468_plane*%
X181209318Y-64515998D03*
X186543318Y-68833998D03*
X165207318Y-61213998D03*
X181336318Y-68833998D03*
X186670318Y-64515998D03*
X181082318Y-70738998D03*
X179177318Y-64007998D03*
X188321318Y-70103998D03*
X188829318Y-64642998D03*
X182225318Y-74675998D03*
X171176318Y-71627998D03*
%TO.N,/lmk01801/CLKinN*%
X189337318Y-68579998D03*
X179177318Y-61086998D03*
%TO.N,/lmk01801/CLKinP*%
X189972318Y-69214998D03*
X179685318Y-60451998D03*
%TO.N,/lmk01801/aux_clk_p*%
X185146318Y-70611998D03*
X168255318Y-69595998D03*
%TO.N,/lmk01801/aux_clk_n*%
X168255318Y-68960998D03*
X185781318Y-70611998D03*
%TO.N,/VSS3P3V*%
X186207400Y-215264998D03*
X186289318Y-207263998D03*
X191496318Y-186391040D03*
X207879318Y-116458998D03*
X174859318Y-134873998D03*
X178963450Y-186672980D03*
X186289318Y-207898998D03*
X187726450Y-184640980D03*
X187599450Y-186291980D03*
X205720318Y-118617998D03*
X158857318Y-61975998D03*
X186543318Y-214756998D03*
X161016318Y-60959998D03*
X180193318Y-186672980D03*
X190988318Y-187041026D03*
X186797318Y-215264998D03*
X185953400Y-214757000D03*
X183027450Y-186672980D03*
X181884450Y-186672980D03*
%TO.N,/VDD3P3V*%
X250678318Y-159257998D03*
X250678318Y-161543998D03*
X227945318Y-186308998D03*
X250805318Y-155320998D03*
X205593318Y-210908136D03*
X223246318Y-171703998D03*
X198430518Y-180720998D03*
X250741818Y-157416498D03*
X201934448Y-142874998D03*
X199624318Y-179069998D03*
X199624318Y-210946998D03*
X197846318Y-182752998D03*
X166350318Y-53974998D03*
X199116318Y-179724302D03*
X215206202Y-174878998D03*
X228008818Y-188848998D03*
X212578318Y-172973998D03*
X231501318Y-56514998D03*
X218801318Y-185673998D03*
X250741818Y-153614626D03*
X224135318Y-132841998D03*
X255504318Y-152399998D03*
X226103818Y-188848998D03*
X191178818Y-197103998D03*
X224135318Y-188848998D03*
X191115318Y-198119998D03*
X206776450Y-174353980D03*
X200259318Y-210946998D03*
X203053318Y-144271998D03*
X204490450Y-189847980D03*
X239669450Y-165971980D03*
X206736318Y-179323998D03*
X212618450Y-212580980D03*
X190861318Y-198881998D03*
X215880318Y-175259998D03*
X216261318Y-186054998D03*
X222293818Y-188848998D03*
X221658818Y-132333998D03*
X206863318Y-185038998D03*
X254488318Y-153233626D03*
X230485318Y-58038998D03*
X167366318Y-52958998D03*
X221341318Y-171703998D03*
%TO.N,Net-(U1201-CLKP)*%
X189337318Y-217042998D03*
X173081318Y-66674998D03*
%TO.N,Net-(U1201-CLKN)*%
X173081318Y-66039998D03*
X189972318Y-217042998D03*
%TO.N,/P2_VADJ*%
X244852320Y-166980106D03*
X197084318Y-157098998D03*
X236327318Y-186435998D03*
X205593318Y-182879998D03*
X203053318Y-156844998D03*
X247630318Y-168250106D03*
X235819318Y-187832998D03*
X191496318Y-138048998D03*
X196811014Y-197738998D03*
X202164318Y-180720998D03*
X191623318Y-138810998D03*
X202164318Y-179704998D03*
%TO.N,/slowmon/LO_MON*%
X217785318Y-184403998D03*
X223500318Y-184530998D03*
X158793818Y-51942998D03*
X183241318Y-182879998D03*
%TO.N,/P1_3P3VAUX*%
X249932320Y-107139992D03*
X229128450Y-101836980D03*
X226421318Y-110362998D03*
X228326318Y-110362998D03*
%TO.N,Net-(U2701-VINA)*%
X203243818Y-80271618D03*
X199411212Y-77088998D03*
%TO.N,/PowerSupply/DC3P7V*%
X206522450Y-126982980D03*
X196743450Y-117584980D03*
X190226318Y-83692998D03*
X190226318Y-82930998D03*
X209189450Y-148318980D03*
X196743450Y-116839998D03*
X196703318Y-116204998D03*
X196743450Y-118346980D03*
%TO.N,/PowerSupply/DC2P2V*%
X208641318Y-86994998D03*
X216007318Y-117347998D03*
X208641318Y-86272114D03*
X212999450Y-148318980D03*
X213253450Y-120886980D03*
X216007318Y-118236998D03*
%TO.N,/ADC1/ADC1_D1C_N*%
X196322318Y-108711998D03*
X247630318Y-124967998D03*
%TO.N,/ADC1/ADC1_DCO_P*%
X196576318Y-105917998D03*
X249916318Y-121411998D03*
%TO.N,/ADC0/ADC0_D1C_N*%
X197465318Y-169417998D03*
X252710318Y-135127998D03*
%TO.N,/fmclpc/P1_TDO*%
X249932320Y-108409992D03*
X231755318Y-107695998D03*
%TO.N,/fmclpc/P1_GA0*%
X223119318Y-97916998D03*
X252710318Y-104599992D03*
%TO.N,/ADC0/ADC0_DCO_P*%
X248265318Y-140207998D03*
X202926318Y-166877998D03*
%TO.N,/ADC0/ADC0_D0D_N*%
X247630318Y-136397998D03*
X197719318Y-171703998D03*
%TO.N,/fmc_misc/HDMI_CEC*%
X240010318Y-104266998D03*
X240010318Y-98805998D03*
%TO.N,/ADC0/ADC0_D0B_N*%
X249916318Y-133476998D03*
X197719318Y-164083998D03*
%TO.N,/ADC0/ADC0_D0D_P*%
X248265318Y-136397998D03*
X197719318Y-171068998D03*
%TO.N,/fmclpc/PMOD1_8*%
X247630318Y-112219992D03*
X241066450Y-93835980D03*
%TO.N,/ADC1/ADC1_D0A_P*%
X194163318Y-99313998D03*
X248265318Y-117347998D03*
%TO.N,/ADC0/ADC0_D1D_N*%
X196195318Y-172719998D03*
X249916318Y-137286998D03*
%TO.N,/P1_VADJ*%
X244876450Y-97010980D03*
X247670450Y-98280980D03*
%TO.N,/ADC1/ADC1_D0A_N*%
X247630318Y-117347998D03*
X194163318Y-99948998D03*
%TO.N,/ADC1/ADC1_D1C_P*%
X248265318Y-124967998D03*
X196322318Y-108076998D03*
%TO.N,/ADC1/ADC1_D1A_P*%
X248265318Y-121157998D03*
X196449318Y-100456998D03*
%TO.N,/fmclpc/PMOD1_4*%
X249916318Y-114759992D03*
X237978318Y-91312998D03*
%TO.N,/ADC0/ADC0_D1A_N*%
X247630318Y-132587998D03*
X197719318Y-161924998D03*
%TO.N,/P1_12PV0*%
X253512450Y-103360980D03*
X254909450Y-100820980D03*
X199537450Y-60688980D03*
X200426450Y-60688980D03*
X201315450Y-60688980D03*
X253512450Y-100820980D03*
X254909450Y-103360980D03*
%TO.N,/fmclpc/PMOD1_3*%
X252750450Y-114790980D03*
X241320450Y-92565980D03*
%TO.N,/ADC0/ADC0_D0B_P*%
X197719318Y-163448998D03*
X249916318Y-132841998D03*
%TO.N,/fmclpc/LMK_CLKout3_P*%
X181971318Y-61594998D03*
X252710318Y-130047998D03*
%TO.N,/ADC1/ADC1_D0B_P*%
X199497318Y-102361998D03*
X253345318Y-119887998D03*
%TO.N,/fmclpc/P1_GA1*%
X249932320Y-103329992D03*
X226103818Y-96773998D03*
%TO.N,/ADC1/ADC1_D1A_N*%
X196449318Y-101091998D03*
X247630318Y-121157998D03*
%TO.N,/ADC0/ADC0_DCO_N*%
X247630318Y-140207998D03*
X202926318Y-167512998D03*
%TO.N,/ADC0/ADC0_D1C_P*%
X253345318Y-135127998D03*
X197465318Y-168782998D03*
%TO.N,/ADC1/ADC1_D0B_N*%
X252710318Y-119887998D03*
X199497318Y-102996998D03*
%TO.N,/ADC0/ADC0_D0A_N*%
X194544318Y-161162998D03*
X249916318Y-129666998D03*
%TO.N,/fmclpc/LMK_CLKout3_N*%
X253345318Y-130047998D03*
X182606318Y-61594998D03*
%TO.N,/ADC1/ADC1_D0D_N*%
X252710318Y-124586998D03*
X196195318Y-111251998D03*
%TO.N,/fmclpc/PMOD1_2*%
X237216318Y-93852998D03*
X247630318Y-113489992D03*
%TO.N,/fmclpc/PMOD1_9*%
X239669450Y-91930980D03*
X252710318Y-113489992D03*
%TO.N,/fmclpc/PMOD1_1*%
X247630318Y-109679992D03*
X240010318Y-95249998D03*
%TO.N,/fmc_misc/HDMI_SCL*%
X247630318Y-104599992D03*
X242677318Y-98551998D03*
%TO.N,/fmclpc/PMOD1_7*%
X247630318Y-108409992D03*
X240558450Y-94597980D03*
%TO.N,/ADC1/ADC1_DCO_N*%
X196576318Y-106552998D03*
X249916318Y-122046998D03*
%TO.N,/ADC0/ADC0_D0A_P*%
X249916318Y-129031998D03*
X193909318Y-161162998D03*
%TO.N,/fmclpc/P1_TDI*%
X249932320Y-109679992D03*
X231755318Y-109346998D03*
%TO.N,/ADC1/ADC1_D0D_P*%
X252710318Y-123951998D03*
X196195318Y-110616998D03*
%TO.N,/fmclpc/PMOD1_10*%
X249956450Y-113520980D03*
%TO.N,/ADC0/ADC0_D1A_P*%
X248265318Y-132587998D03*
X197719318Y-161289998D03*
%TO.N,/ADC0/ADC0_D1D_P*%
X196195318Y-172084998D03*
X249916318Y-136651998D03*
%TO.N,/fmclpc/P1_SDA*%
X232938450Y-105646980D03*
X229001450Y-105646980D03*
X252710318Y-108409992D03*
%TO.N,/fmclpc/P1_SCL*%
X232938450Y-104376980D03*
X229001450Y-104376980D03*
X252710318Y-109679992D03*
%TO.N,/fmclpc/P2_ADC_SDIO_DIR*%
X228326318Y-146811998D03*
X240177450Y-177020980D03*
X244836318Y-177140106D03*
%TO.N,/fmclpc/P2_ADC0_CSB*%
X197338318Y-154939998D03*
X224770318Y-156971998D03*
%TO.N,/fmclpc/P2_AMC7823_SPI_MISO*%
X244836318Y-182220106D03*
X236454318Y-184530998D03*
%TO.N,/fmclpc/P2_SDI*%
X204831318Y-178424076D03*
X247646320Y-179680106D03*
X196830318Y-193604132D03*
%TO.N,/fmclpc/P2_TDI*%
X249916318Y-179680106D03*
%TO.N,/ad9781/D_P_0*%
X252710318Y-194968112D03*
X195687318Y-202564998D03*
%TO.N,/fmc_misc/PMOD2_9*%
X247630318Y-183490106D03*
%TO.N,/ad9781/D_N_4*%
X200513318Y-207771998D03*
X248265318Y-202588112D03*
%TO.N,/ad9781/D_N_12*%
X194036318Y-218312998D03*
X248265318Y-210208112D03*
%TO.N,/fmclpc/P2_DAC_CSB*%
X196830318Y-196214998D03*
X244852320Y-188570106D03*
%TO.N,/ad9781/D_N_0*%
X195052318Y-202564998D03*
X253345318Y-194968112D03*
%TO.N,/ad9781/DCO_P*%
X249916318Y-192047112D03*
X199116318Y-212597998D03*
%TO.N,/ad9781/D_N_3*%
X249916318Y-199032112D03*
X199243318Y-205739998D03*
%TO.N,/fmclpc/P2_POLL_SCLK*%
X233914318Y-191769998D03*
X194163318Y-196849998D03*
%TO.N,/fmclpc/P2_ADC_SDIO*%
X244836318Y-178410106D03*
X226207450Y-148191980D03*
%TO.N,/fmclpc/P2_ADC1_CSB*%
X196957318Y-151664160D03*
X225405318Y-155320998D03*
%TO.N,/fmc_misc/PMOD2_2*%
X252710318Y-188570106D03*
%TO.N,/fmclpc/P2_AD7794_DOUT{slash}RDYb*%
X236454318Y-183111138D03*
X249916318Y-183490106D03*
%TO.N,/ad9781/D_P_12*%
X247630318Y-210208112D03*
X193401318Y-218312998D03*
%TO.N,/ad9781/DCO_N*%
X249916318Y-191412112D03*
X199116318Y-211962998D03*
%TO.N,/fmc_misc/PMOD2_4*%
X249932320Y-187300106D03*
%TO.N,/fmclpc/P2_SCLK*%
X206990318Y-153542998D03*
X247646320Y-178410106D03*
X205847318Y-177799998D03*
X197338318Y-194254118D03*
%TO.N,/fmclpc/P2_AMC7823_SPI_SS*%
X244836318Y-180950106D03*
X197338318Y-195554090D03*
%TO.N,/fmc_misc/PMOD2_7*%
X247630318Y-191110106D03*
%TO.N,/ad9781/D_P_3*%
X249916318Y-199667112D03*
X199243318Y-206374998D03*
%TO.N,/ad9781/D_P_9*%
X198100318Y-216788998D03*
X249916318Y-203477112D03*
%TO.N,/fmclpc/P2_PWR_SYNC*%
X252710318Y-184760106D03*
X205212318Y-176474118D03*
%TO.N,/ad9781/D_N_1*%
X249916318Y-195222112D03*
X196449318Y-203453998D03*
%TO.N,/ad9781/D_P_4*%
X247630318Y-202588112D03*
X200513318Y-208406998D03*
%TO.N,/fmclpc/P2_LMK_LEuWire{slash}CLKoutDIV_2*%
X244852320Y-186030106D03*
X204831318Y-177124104D03*
%TO.N,/fmclpc/P2_POLL_MOSI*%
X240304450Y-170162980D03*
X196997450Y-186164980D03*
%TO.N,/fmclpc/P2_TDO*%
X249916318Y-178410106D03*
%TO.N,/P2_3P3V*%
X249932320Y-166980106D03*
X249932320Y-172060106D03*
X254107318Y-162559998D03*
X252710318Y-168250106D03*
X234676318Y-216407998D03*
X249932320Y-169520106D03*
X214483318Y-157860998D03*
%TO.N,/ad9781/D_N_10*%
X199116318Y-217042998D03*
X253345318Y-205128112D03*
%TO.N,/ad9781/DCI_P*%
X252710318Y-200048112D03*
X198862318Y-210344002D03*
%TO.N,/fmclpc/P2_DAC_SDO*%
X235311318Y-189864998D03*
X236797218Y-181736998D03*
%TO.N,/fmclpc/P2_LMK_DATAuWire{slash}CLKoutDIV_0*%
X247630318Y-186030106D03*
X236835318Y-183768998D03*
%TO.N,/ad9781/D_N_9*%
X249916318Y-202842112D03*
X198100318Y-216153998D03*
%TO.N,/fmclpc/LMK_CLKout4_P*%
X244836318Y-212367112D03*
X179431318Y-65023998D03*
%TO.N,/fmclpc/P2_ADC_PDWN*%
X207625318Y-155574998D03*
X207625318Y-169400980D03*
X247630318Y-194920106D03*
%TO.N,/fmclpc/P2_AD7794_CSb*%
X233660318Y-189737998D03*
X196830318Y-194904104D03*
%TO.N,/ad9781/DCI_N*%
X253345318Y-200048112D03*
X198862318Y-209709002D03*
%TO.N,/fmclpc/P2_AD7794_FCLK*%
X205212318Y-175174146D03*
X247630318Y-187300106D03*
%TO.N,/fmc_misc/PMOD2_1*%
X252710318Y-189840106D03*
%TO.N,/ad9781/D_N_11*%
X248265318Y-206398112D03*
X195052318Y-217550998D03*
%TO.N,/fmclpc/LMK_CLKout4_N*%
X244836318Y-211732112D03*
X179443256Y-65658998D03*
%TO.N,/ad9781/D_N_2*%
X197465318Y-204723998D03*
X248265318Y-198778112D03*
%TO.N,/fmc_misc/PMOD2_8*%
X247670450Y-189847980D03*
%TO.N,/fmc_misc/PMOD2_10*%
X247630318Y-182220106D03*
%TO.N,/fmclpc/P2_APP_I2C_SDA*%
X255417450Y-159240980D03*
X244836318Y-173330106D03*
X255290450Y-160383980D03*
%TO.N,/ad9781/D_P_10*%
X252710318Y-205128112D03*
X199116318Y-217677998D03*
%TO.N,/fmclpc/P2_DAC_RESET*%
X197338318Y-192954146D03*
X233660318Y-188975998D03*
%TO.N,/fmc_misc/PMOD2_3*%
X249932320Y-188570106D03*
%TO.N,/fmclpc/P2_ADC_SYNC*%
X226040318Y-156209998D03*
X196957318Y-154264104D03*
%TO.N,/ad9781/D_P_2*%
X197465318Y-205358998D03*
X247630318Y-198778112D03*
%TO.N,/ad9781/D_P_1*%
X196449318Y-204088998D03*
X249916318Y-195857112D03*
%TO.N,/ad9781/D_P_11*%
X194417318Y-217550998D03*
X247630318Y-206398112D03*
%TO.N,/fmclpc/P2_APP_I2C_SCL*%
X244836318Y-174600106D03*
X255417450Y-157462980D03*
X253091318Y-155955998D03*
%TO.N,/fmclpc/P2_PWR_EN*%
X252710318Y-183490106D03*
X204831318Y-175824132D03*
%TO.N,/slowmon/ADC7*%
X219436318Y-175513998D03*
X219436318Y-183133998D03*
%TO.N,/ad7794/thermometer_bridge_1/VIN*%
X204450318Y-222757998D03*
X214483318Y-96773998D03*
X183368318Y-143509998D03*
X190480318Y-49529998D03*
X209276318Y-145922998D03*
X207625318Y-222757998D03*
X191409450Y-181592980D03*
X188234450Y-185275980D03*
X179685318Y-216661998D03*
%TO.N,/ad7794/thermometer_bridge_1/SENGND*%
X190901450Y-182100980D03*
X178923318Y-216153998D03*
X208387318Y-145287998D03*
X214483318Y-94868998D03*
X190901450Y-180957980D03*
X183241318Y-142366998D03*
X188702318Y-49529998D03*
X186710450Y-184894980D03*
%TO.N,Net-(U1301-\u002ARESET)*%
X223246318Y-175513998D03*
X221341318Y-180212998D03*
%TO.N,Net-(U1601-OUT)*%
X214991318Y-189864998D03*
X205760450Y-190355980D03*
X206776450Y-189720980D03*
%TO.N,/PWR_EN*%
X219944318Y-77723998D03*
X203497818Y-78993998D03*
X202037318Y-175132998D03*
%TO.N,/PWR_SYNC*%
X201442450Y-175767998D03*
X203942318Y-75755498D03*
X217848818Y-76961998D03*
%TO.N,/ad7794/thermometer_bridge_1/VOUT_P*%
X180447318Y-214756998D03*
X196957318Y-184403998D03*
%TO.N,/ad7794/thermometer_bridge_1/VOUT_N*%
X181590318Y-214883998D03*
X194036318Y-184403998D03*
%TO.N,/ad7794/thermometer_bridge_2/VOUT_P*%
X192933450Y-180322980D03*
X181336318Y-140588998D03*
%TO.N,/ad7794/thermometer_bridge_2/VOUT_N*%
X193568450Y-179814980D03*
X182352318Y-139318998D03*
%TO.N,/ad7794/thermometer_bridge_3/VOUT_P*%
X194544318Y-181841138D03*
X219221434Y-97726498D03*
%TO.N,/ad7794/thermometer_bridge_3/VOUT_N*%
X217111202Y-97726498D03*
X194163318Y-181191152D03*
%TO.N,/ad7794/thermometer_bridge_4/VOUT_P*%
X177399318Y-180195980D03*
X184805450Y-180195980D03*
X169525318Y-53212998D03*
%TO.N,/ad7794/thermometer_bridge_4/VOUT_N*%
X177907318Y-179433980D03*
X185273318Y-179433980D03*
X168509318Y-52196998D03*
%TO.N,/ADC0/ADC0_CSB*%
X187091450Y-153271980D03*
%TO.N,/level_shift/LEuWire_CLKoutDIV_2*%
X200807450Y-176512980D03*
X194671318Y-62894208D03*
X195981450Y-176131980D03*
%TO.N,/level_shift/CLKuWire_CLKoutDIV_1*%
X195981450Y-177147980D03*
X200172450Y-177147980D03*
X194036318Y-63499998D03*
%TO.N,/level_shift/DATAuWire_CLKoutDIV_0*%
X197886450Y-191498980D03*
X195981450Y-178163980D03*
X199156450Y-177655980D03*
X227477450Y-183751980D03*
X193401318Y-64007998D03*
%TO.N,/ad7794/CSb*%
X196966915Y-187062941D03*
X190988318Y-194254118D03*
X194417318Y-187578998D03*
%TO.N,/ad7794/DOUT{slash}RDYb*%
X193401318Y-198500998D03*
X188107450Y-187688980D03*
X232898318Y-192277998D03*
%TO.N,/amc7823/SCLK*%
X191115318Y-191642998D03*
X218206450Y-171178980D03*
X194417318Y-188340998D03*
%TO.N,/amc7823/MOSI*%
X192004318Y-190880998D03*
X216809450Y-171178980D03*
%TO.N,/ad7794/CLK*%
X196997450Y-187942980D03*
X199116318Y-174497998D03*
%TO.N,/ad9781/DAC_SDO*%
X230485318Y-182498998D03*
X190889258Y-204977998D03*
X227477450Y-182481980D03*
X229850318Y-203453998D03*
%TO.N,/ad9781/DAC_CSB*%
X188996450Y-204452980D03*
%TO.N,/amc7823/SS*%
X214015450Y-171178980D03*
X191115318Y-195031104D03*
%TO.N,/amc7823/MISO*%
X227350450Y-185021980D03*
X215412450Y-171178980D03*
%TO.N,/ADC0/ADC01_SDIO*%
X192298450Y-154033980D03*
X189083318Y-136143998D03*
X185059450Y-136126980D03*
X190734318Y-100583998D03*
X192298450Y-151874980D03*
%TO.N,/ADC0/ADC01_PDWN*%
X190099318Y-100964998D03*
X191242318Y-154939998D03*
%TO.N,/ADC0/ADC01_SYNC*%
X188575318Y-153769058D03*
X185781318Y-106806998D03*
X190774450Y-119489980D03*
X187091450Y-167622980D03*
%TO.N,/ADC0/ADC01_SCLK*%
X190734318Y-99821998D03*
X188575318Y-152964132D03*
%TO.N,/ADC0/ADC1_CSB*%
X191115318Y-151014174D03*
X190619256Y-101472998D03*
X187980450Y-151112980D03*
%TO.N,/P2_12P0V*%
X201950450Y-64117980D03*
X252877450Y-173337980D03*
X202839450Y-64117980D03*
X252877450Y-170797980D03*
X254909450Y-173337980D03*
X254909450Y-170797980D03*
X201061450Y-64117980D03*
%TO.N,/lmk01801/LMK13_plane*%
X179304318Y-67425060D03*
%TD*%
D21*
%TO.N,/VDD3P3V*%
X205935460Y-210907880D02*
X212618450Y-210907880D01*
D22*
X205593570Y-210907880D02*
X205935460Y-210907880D01*
D23*
%TO.N,*%
X234427910Y-52624480D02*
X234381680Y-52560980D01*
X234843450Y-52624480D02*
X234705020Y-52687980D01*
X234935910Y-51989480D02*
X234981880Y-52179980D01*
X234381680Y-52560980D02*
X234335450Y-52433980D01*
X234889680Y-51925980D02*
X234935910Y-51989480D01*
X234427910Y-51354480D02*
X234935910Y-51354480D01*
X234658790Y-51862480D02*
X234797220Y-51862480D01*
X234981880Y-52179980D02*
X234981880Y-52306980D01*
X234935910Y-51354480D02*
X234658790Y-51862480D01*
X234797220Y-51862480D02*
X234889680Y-51925980D01*
X234935910Y-52497480D02*
X234843450Y-52624480D01*
X234705020Y-52687980D02*
X234566340Y-52687980D01*
X234981880Y-52306980D02*
X234935910Y-52497480D01*
X234566340Y-52687980D02*
X234427910Y-52624480D01*
%TO.N,GND*%
X223627570Y-161417000D02*
X222230570Y-161417000D01*
X202799570Y-164211000D02*
X204196570Y-164211000D01*
X221468570Y-164211000D02*
X223627570Y-164211000D01*
X208514570Y-164211000D02*
X210673570Y-164211000D01*
X199243570Y-169037000D02*
X199243570Y-165989000D01*
X205593570Y-164211000D02*
X208514570Y-164211000D01*
X226929570Y-164211000D02*
X229342570Y-164211000D01*
X223627570Y-161417000D02*
X226929570Y-161417000D01*
X219309570Y-164211000D02*
X221468570Y-164211000D01*
X198100570Y-170180000D02*
X199243570Y-169037000D01*
X198735570Y-162687000D02*
X200005570Y-161417000D01*
X222230570Y-161417000D02*
X220706570Y-161417000D01*
X201021570Y-164211000D02*
X202799570Y-164211000D01*
X216896570Y-164211000D02*
X219309570Y-164211000D01*
X198100570Y-162687000D02*
X198735570Y-162687000D01*
X204196570Y-164211000D02*
X205593570Y-164211000D01*
X210673570Y-164211000D02*
X216896570Y-164211000D01*
X200005570Y-161417000D02*
X219309570Y-161417000D01*
X219309570Y-161417000D02*
X220706570Y-161417000D01*
X199243570Y-165989000D02*
X201021570Y-164211000D01*
X223627570Y-164211000D02*
X226929570Y-164211000D01*
%TO.N,/VREFADC_1P25V*%
X184130570Y-105664000D02*
X184130570Y-113901980D01*
X184130570Y-113901980D02*
X190393450Y-120164860D01*
X187599450Y-128760980D02*
X190393450Y-125966980D01*
X190393450Y-125966980D02*
X190393450Y-120164860D01*
D24*
%TO.N,/ADC0/se2diff_0/CM*%
X171811570Y-177903880D02*
X172700570Y-177014880D01*
X171811570Y-162687000D02*
X172700570Y-163576000D01*
X171811570Y-162687000D02*
X171938570Y-162687000D01*
X171684570Y-147423880D02*
X172700570Y-148439880D01*
X172700570Y-177014880D02*
X172700570Y-163576000D01*
X172700570Y-161925000D02*
X172700570Y-148439880D01*
X171938570Y-162687000D02*
X172700570Y-161925000D01*
D23*
%TO.N,/ADC1/se2diff_4/CM*%
X170795570Y-131167880D02*
X171684570Y-132056880D01*
X170756460Y-87503000D02*
X170756460Y-102870000D01*
X170795570Y-102908860D02*
X170795570Y-107569000D01*
X170756460Y-102870000D02*
X170795570Y-102908860D01*
X170795570Y-107569000D02*
X170795570Y-118110000D01*
X170795570Y-118110000D02*
X170795570Y-131167880D01*
D25*
%TO.N,/lmk01801/LMK57_plane*%
X169017570Y-61214000D02*
X169779570Y-61976000D01*
X179558570Y-61976000D02*
X180447570Y-62865000D01*
X188067570Y-64643000D02*
X188067570Y-67056000D01*
X169779570Y-61976000D02*
X179558570Y-61976000D01*
X180447570Y-62865000D02*
X186289570Y-62865000D01*
X186289570Y-62865000D02*
X188067570Y-64643000D01*
D24*
%TO.N,/lmk01801/CLKinN*%
X182860570Y-60833000D02*
X184003570Y-61976000D01*
X189337570Y-62484000D02*
X189337570Y-68580000D01*
X180320570Y-61087000D02*
X180574570Y-60833000D01*
X180574570Y-60833000D02*
X182860570Y-60833000D01*
X184003570Y-61976000D02*
X188829570Y-61976000D01*
X188829570Y-61976000D02*
X189337570Y-62484000D01*
X179177570Y-61087000D02*
X180320570Y-61087000D01*
%TO.N,/lmk01801/CLKinP*%
X182987570Y-60452000D02*
X184130570Y-61595000D01*
X179558570Y-60452000D02*
X182987570Y-60452000D01*
X179685570Y-60452000D02*
X179558570Y-60452000D01*
X189083570Y-61595000D02*
X189972570Y-62484000D01*
X189972570Y-62484000D02*
X189972570Y-69215000D01*
X184130570Y-61595000D02*
X189083570Y-61595000D01*
%TO.N,/lmk01801/aux_clk_p*%
X185273570Y-70485000D02*
X185273570Y-70104000D01*
X171430570Y-69977000D02*
X185146570Y-69977000D01*
X185146570Y-69977000D02*
X185273570Y-70104000D01*
X168382570Y-69469000D02*
X170922570Y-69469000D01*
X185146570Y-70612000D02*
X185273570Y-70485000D01*
X168255570Y-69596000D02*
X168382570Y-69469000D01*
X170922570Y-69469000D02*
X171430570Y-69977000D01*
%TO.N,/lmk01801/aux_clk_n*%
X185527570Y-70358000D02*
X185781570Y-70612000D01*
X171557570Y-69723000D02*
X185273570Y-69723000D01*
X168509570Y-69215000D02*
X171049570Y-69215000D01*
X185273570Y-69723000D02*
X185527570Y-69977000D01*
X185527570Y-69977000D02*
X185527570Y-70358000D01*
X168255570Y-68961000D02*
X168509570Y-69215000D01*
X171049570Y-69215000D02*
X171557570Y-69723000D01*
D22*
%TO.N,/VDD3P3V*%
X214063460Y-172974000D02*
X215206460Y-174117000D01*
D21*
X169017570Y-54610000D02*
X170414570Y-54610000D01*
X204538460Y-211963000D02*
X205593570Y-210907880D01*
X170287570Y-219710000D02*
X172700570Y-222123000D01*
X188815350Y-200914000D02*
X189972570Y-200914000D01*
D22*
X204490450Y-189847980D02*
X204490450Y-187411870D01*
D21*
X178288570Y-128356870D02*
X181757450Y-131826000D01*
X170287570Y-198501000D02*
X171684570Y-197104000D01*
X212618450Y-212580980D02*
X212618450Y-210907880D01*
X170414570Y-54610000D02*
X176891570Y-48133000D01*
X212618450Y-210907880D02*
X216642570Y-210907880D01*
D22*
X215880570Y-175260000D02*
X217849070Y-175260000D01*
X215753570Y-187833000D02*
X216261570Y-187325000D01*
D21*
X209824450Y-53506880D02*
X214356570Y-58039000D01*
D22*
X215206460Y-174879000D02*
X215499570Y-174879000D01*
D21*
X181757450Y-131826000D02*
X200894570Y-131826000D01*
X184567960Y-196666610D02*
X184694960Y-196793610D01*
X200386570Y-210947000D02*
X201402570Y-211963000D01*
D22*
X212578570Y-172974000D02*
X214063460Y-172974000D01*
D21*
X201910570Y-132842000D02*
X204069570Y-130683000D01*
X184638570Y-184257950D02*
X185567450Y-183116980D01*
X200894570Y-131826000D02*
X201910570Y-132842000D01*
X206141450Y-55585870D02*
X206141450Y-53830980D01*
X178288570Y-77089000D02*
X178288570Y-128356870D01*
X216642570Y-210907880D02*
X217531570Y-211796880D01*
X190861570Y-198882000D02*
X191115570Y-198628000D01*
X167366570Y-52959000D02*
X169017570Y-54610000D01*
X206141450Y-50655980D02*
X206141450Y-53830980D01*
D26*
X216261570Y-186055000D02*
X218420570Y-186055000D01*
D22*
X248900570Y-165989000D02*
X250678570Y-164211000D01*
D21*
X196322570Y-182753000D02*
X197846570Y-182753000D01*
X202164570Y-211963000D02*
X204538460Y-211963000D01*
X177272570Y-136310880D02*
X181757450Y-131826000D01*
X185567450Y-183116980D02*
X177272570Y-174861980D01*
D22*
X209657570Y-187833000D02*
X215753570Y-187833000D01*
X254488570Y-153233370D02*
X255321950Y-152400000D01*
D21*
X171684570Y-197104000D02*
X184130570Y-197104000D01*
X203618470Y-48133000D02*
X206141450Y-50655980D01*
X199243570Y-222123000D02*
X202164570Y-219202000D01*
X195941570Y-183134000D02*
X196322570Y-182753000D01*
D22*
X199624570Y-210947000D02*
X200259570Y-210947000D01*
D21*
X217531570Y-216390980D02*
X217531570Y-213850980D01*
X221659070Y-132334000D02*
X223627570Y-132334000D01*
X201910570Y-132842000D02*
X201910570Y-142850870D01*
D22*
X217849070Y-175260000D02*
X221214570Y-171894500D01*
X216261570Y-187325000D02*
X217785570Y-188849000D01*
X221341570Y-171704000D02*
X223246570Y-171704000D01*
X239669450Y-165971980D02*
X239686470Y-165989000D01*
D21*
X184694960Y-196793610D02*
X188815350Y-200914000D01*
D22*
X255321950Y-152400000D02*
X255504570Y-152400000D01*
D21*
X184638570Y-184257950D02*
X184638570Y-196737220D01*
D22*
X206776450Y-174353980D02*
X211198340Y-174353980D01*
D21*
X206141450Y-53830980D02*
X206141450Y-53506880D01*
X202164570Y-219202000D02*
X202164570Y-211963000D01*
X166350570Y-53975000D02*
X167366570Y-52959000D01*
X176891570Y-48133000D02*
X203618470Y-48133000D01*
D22*
X216261570Y-186055000D02*
X216261570Y-187325000D01*
X239686470Y-165989000D02*
X248900570Y-165989000D01*
X250742070Y-153614370D02*
X252901070Y-153614370D01*
D21*
X184638570Y-196737220D02*
X184694960Y-196793610D01*
X217531570Y-211796880D02*
X217531570Y-213850980D01*
X201402570Y-211963000D02*
X202164570Y-211963000D01*
D26*
X218420570Y-186055000D02*
X218801570Y-185674000D01*
D21*
X223627570Y-132334000D02*
X224135570Y-132842000D01*
X177272570Y-174861980D02*
X177272570Y-136310880D01*
D22*
X250678570Y-164211000D02*
X250678570Y-161544000D01*
X253282070Y-153233370D02*
X254488570Y-153233370D01*
X206863570Y-185039000D02*
X209657570Y-187833000D01*
X215206460Y-174117000D02*
X215206460Y-174879000D01*
X215499570Y-174879000D02*
X215880570Y-175260000D01*
D21*
X204069570Y-130683000D02*
X220008070Y-130683000D01*
X184130570Y-197104000D02*
X184567960Y-196666610D01*
X162159570Y-66294000D02*
X162159570Y-58166000D01*
X190861570Y-200025000D02*
X190861570Y-198882000D01*
D26*
X226040570Y-188849000D02*
X228009070Y-188849000D01*
D21*
X162159570Y-58166000D02*
X166350570Y-53975000D01*
D26*
X226104070Y-188849000D02*
X226040570Y-188849000D01*
D21*
X174351570Y-73152000D02*
X178288570Y-77089000D01*
X200259570Y-210947000D02*
X200386570Y-210947000D01*
X191115570Y-198628000D02*
X191115570Y-198120000D01*
D23*
X191115570Y-197104000D02*
X191179070Y-197104000D01*
D21*
X169017570Y-73152000D02*
X174351570Y-73152000D01*
D22*
X204490450Y-187411870D02*
X206863570Y-185039000D01*
X191115570Y-198120000D02*
X191115570Y-197104000D01*
D26*
X222294070Y-188849000D02*
X224135570Y-188849000D01*
D22*
X252901070Y-153614370D02*
X253282070Y-153233370D01*
D21*
X170287570Y-219710000D02*
X170287570Y-198501000D01*
D26*
X224135570Y-188849000D02*
X226040570Y-188849000D01*
D21*
X189972570Y-200914000D02*
X190861570Y-200025000D01*
X172700570Y-222123000D02*
X199243570Y-222123000D01*
X162159570Y-66294000D02*
X169017570Y-73152000D01*
D22*
X211198340Y-174353980D02*
X212578570Y-172974000D01*
D21*
X214356570Y-58039000D02*
X230485570Y-58039000D01*
X220008070Y-130683000D02*
X221659070Y-132334000D01*
X206101570Y-55626000D02*
X206141450Y-55585870D01*
D22*
X221214570Y-171894500D02*
X221341570Y-171704000D01*
D21*
X206141450Y-53506880D02*
X209824450Y-53506880D01*
X206101570Y-58166000D02*
X206101570Y-55626000D01*
D22*
X217785570Y-188849000D02*
X222294070Y-188849000D01*
D21*
X185567450Y-183116980D02*
X195941570Y-183134000D01*
D22*
X201910570Y-142850870D02*
X201934450Y-142875000D01*
D24*
%TO.N,/slowmon/LO_MON*%
X172446570Y-182880000D02*
X183241570Y-182880000D01*
X158794070Y-51943000D02*
X158794070Y-55675530D01*
X158794070Y-55675530D02*
X159492570Y-56374030D01*
X159492570Y-66548000D02*
X168382570Y-75438000D01*
X218801570Y-183769000D02*
X219563570Y-184531000D01*
X159492570Y-56374030D02*
X159492570Y-66548000D01*
X168382570Y-168275000D02*
X169906570Y-169799000D01*
X217912570Y-183769000D02*
X218801570Y-183769000D01*
X217785570Y-184404000D02*
X217785570Y-183896000D01*
X168382570Y-75438000D02*
X168382570Y-168275000D01*
X169906570Y-169799000D02*
X169906570Y-180340000D01*
X169906570Y-180340000D02*
X172446570Y-182880000D01*
X219563570Y-184531000D02*
X223500570Y-184531000D01*
X217785570Y-183896000D02*
X217912570Y-183769000D01*
D27*
%TO.N,Net-(U2701-VINA)*%
X202736070Y-79763360D02*
X203244070Y-80271360D01*
X202736070Y-77851000D02*
X202736070Y-79763360D01*
X199411470Y-77089000D02*
X201974070Y-77089000D01*
X201974070Y-77089000D02*
X202736070Y-77851000D01*
D24*
%TO.N,/ADC1/ADC1_D1C_N*%
X222992570Y-114300000D02*
X232898570Y-124206000D01*
X196449570Y-108585000D02*
X197211570Y-108585000D01*
X200132570Y-114300000D02*
X222992570Y-114300000D01*
X196322570Y-108712000D02*
X196449570Y-108585000D01*
X232898570Y-124206000D02*
X247503570Y-124206000D01*
X197846570Y-112014000D02*
X200132570Y-114300000D01*
X197211570Y-108585000D02*
X197846570Y-109220000D01*
X247503570Y-124206000D02*
X247757570Y-124460000D01*
X197846570Y-109220000D02*
X197846570Y-112014000D01*
X247757570Y-124460000D02*
X247757570Y-124841000D01*
X247630570Y-124968000D02*
X247757570Y-124841000D01*
%TO.N,/ADC1/ADC1_DCO_P*%
X232009570Y-121666000D02*
X249662570Y-121666000D01*
X196703570Y-106045000D02*
X197338570Y-106045000D01*
X198989570Y-107696000D02*
X198989570Y-110998000D01*
X196576570Y-105918000D02*
X196703570Y-106045000D01*
X201275570Y-113284000D02*
X223627570Y-113284000D01*
X198989570Y-110998000D02*
X201275570Y-113284000D01*
X197338570Y-106045000D02*
X198989570Y-107696000D01*
X249662570Y-121666000D02*
X249916570Y-121412000D01*
X223627570Y-113284000D02*
X232009570Y-121666000D01*
%TO.N,/ADC0/ADC0_D1C_N*%
X197592570Y-169291000D02*
X198100570Y-169291000D01*
X239502570Y-134620000D02*
X252710570Y-134620000D01*
X252710570Y-135128000D02*
X252837570Y-135001000D01*
X252837570Y-134747000D02*
X252837570Y-135001000D01*
X234549570Y-157226000D02*
X234549570Y-139573000D01*
X198354570Y-165608000D02*
X200513570Y-163449000D01*
X200513570Y-163449000D02*
X228326570Y-163449000D01*
X228326570Y-163449000D02*
X234549570Y-157226000D01*
X197465570Y-169418000D02*
X197592570Y-169291000D01*
X234549570Y-139573000D02*
X239502570Y-134620000D01*
X198354570Y-169037000D02*
X198354570Y-165608000D01*
X252710570Y-134620000D02*
X252837570Y-134747000D01*
X198100570Y-169291000D02*
X198354570Y-169037000D01*
%TO.N,/fmclpc/P1_TDO*%
X235946570Y-108966000D02*
X249376570Y-108966000D01*
X234676570Y-107696000D02*
X235946570Y-108966000D01*
X231755570Y-107696000D02*
X234676570Y-107696000D01*
X249376570Y-108966000D02*
X249932570Y-108409990D01*
%TO.N,/fmclpc/P1_GA0*%
X234405550Y-103360980D02*
X237597570Y-106553000D01*
X248011570Y-106553000D02*
X249281570Y-105283000D01*
X249281570Y-105283000D02*
X252027570Y-105283000D01*
X237597570Y-106553000D02*
X248011570Y-106553000D01*
X252027570Y-105283000D02*
X252710570Y-104599990D01*
X223119570Y-102743000D02*
X223737550Y-103360980D01*
X223737550Y-103360980D02*
X234405550Y-103360980D01*
X223119570Y-97917000D02*
X223119570Y-102743000D01*
%TO.N,/ADC0/ADC0_DCO_P*%
X202926570Y-166878000D02*
X203053570Y-167005000D01*
X203053570Y-167005000D02*
X230993570Y-167005000D01*
X247630570Y-139319000D02*
X248011570Y-139700000D01*
X237470570Y-140462000D02*
X238613570Y-139319000D01*
X238613570Y-139319000D02*
X247630570Y-139319000D01*
X230993570Y-167005000D02*
X237470570Y-160528000D01*
X237470570Y-160528000D02*
X237470570Y-140462000D01*
X248011570Y-139700000D02*
X248011570Y-139954000D01*
X248011570Y-139954000D02*
X248265570Y-140208000D01*
%TO.N,/ADC0/ADC0_D0D_N*%
X197719570Y-171704000D02*
X197910070Y-171513500D01*
X197910070Y-171513500D02*
X198291070Y-171513500D01*
X200831070Y-168973500D02*
X200831070Y-166179500D01*
X236200570Y-159639000D02*
X236200570Y-139319000D01*
X230485570Y-165354000D02*
X236200570Y-159639000D01*
X247757570Y-135858250D02*
X247757570Y-136271000D01*
X247535320Y-135636000D02*
X247757570Y-135858250D01*
X200831070Y-166179500D02*
X201656570Y-165354000D01*
X201656570Y-165354000D02*
X230485570Y-165354000D01*
X236200570Y-139319000D02*
X239883570Y-135636000D01*
X198291070Y-171513500D02*
X200831070Y-168973500D01*
X239883570Y-135636000D02*
X247535320Y-135636000D01*
X247630570Y-136398000D02*
X247757570Y-136271000D01*
%TO.N,/fmc_misc/HDMI_CEC*%
X240010570Y-104267000D02*
X240010570Y-98806000D01*
%TO.N,/ADC0/ADC0_D0B_N*%
X232898570Y-157353000D02*
X232898570Y-139827000D01*
X232898570Y-139827000D02*
X239375570Y-133350000D01*
X249789570Y-133350000D02*
X249916570Y-133477000D01*
X200259570Y-162433000D02*
X227818570Y-162433000D01*
X198862570Y-163830000D02*
X200259570Y-162433000D01*
X197719570Y-164084000D02*
X197973570Y-163830000D01*
X197973570Y-163830000D02*
X198862570Y-163830000D01*
X239375570Y-133350000D02*
X249789570Y-133350000D01*
X227818570Y-162433000D02*
X232898570Y-157353000D01*
%TO.N,/ADC0/ADC0_D0D_P*%
X200513570Y-168910000D02*
X200513570Y-166116000D01*
X247789320Y-135382000D02*
X248011570Y-135604250D01*
X197719570Y-171069000D02*
X197846570Y-171196000D01*
X235946570Y-139192000D02*
X239756570Y-135382000D01*
X201529570Y-165100000D02*
X230358570Y-165100000D01*
X198227570Y-171196000D02*
X200513570Y-168910000D01*
X200513570Y-166116000D02*
X201529570Y-165100000D01*
X248011570Y-136144000D02*
X248265570Y-136398000D01*
X248011570Y-135604250D02*
X248011570Y-136144000D01*
X197846570Y-171196000D02*
X198227570Y-171196000D01*
X235946570Y-159512000D02*
X235946570Y-139192000D01*
X230358570Y-165100000D02*
X235946570Y-159512000D01*
X239756570Y-135382000D02*
X247789320Y-135382000D01*
%TO.N,/fmclpc/PMOD1_8*%
X237764450Y-93200980D02*
X238399450Y-93835980D01*
X230398450Y-76944980D02*
X230398450Y-89390980D01*
X195941570Y-55626000D02*
X197124450Y-56808880D01*
X230398450Y-89390980D02*
X234208450Y-93200980D01*
X238399450Y-93835980D02*
X241066450Y-93835980D01*
X197124450Y-60815980D02*
X198140450Y-61831980D01*
X198140450Y-61831980D02*
X215285450Y-61831980D01*
X234208450Y-93200980D02*
X237764450Y-93200980D01*
X197124450Y-56808880D02*
X197124450Y-60815980D01*
X215285450Y-61831980D02*
X230398450Y-76944980D01*
%TO.N,/ADC1/ADC1_D0A_P*%
X201402570Y-107696000D02*
X204704570Y-110998000D01*
X230104570Y-116332000D02*
X247503570Y-116332000D01*
X247503570Y-116332000D02*
X248011570Y-116840000D01*
X194163570Y-99314000D02*
X194290570Y-99441000D01*
X204704570Y-110998000D02*
X224770570Y-110998000D01*
X224770570Y-110998000D02*
X230104570Y-116332000D01*
X198608570Y-99441000D02*
X201402570Y-102235000D01*
X248011570Y-117094000D02*
X248265570Y-117348000D01*
X194290570Y-99441000D02*
X198608570Y-99441000D01*
X201402570Y-102235000D02*
X201402570Y-107696000D01*
X248011570Y-116840000D02*
X248011570Y-117094000D01*
%TO.N,/ADC0/ADC0_D1D_N*%
X236962570Y-139954000D02*
X239756570Y-137160000D01*
X239756570Y-137160000D02*
X249789570Y-137160000D01*
X236962570Y-160147000D02*
X236962570Y-139954000D01*
X196322570Y-172593000D02*
X198354570Y-172593000D01*
X201656570Y-166624000D02*
X202164570Y-166116000D01*
X230993570Y-166116000D02*
X236962570Y-160147000D01*
X249789570Y-137160000D02*
X249916570Y-137287000D01*
X198354570Y-172593000D02*
X201656570Y-169291000D01*
X196195570Y-172720000D02*
X196322570Y-172593000D01*
X201656570Y-169291000D02*
X201656570Y-166624000D01*
X202164570Y-166116000D02*
X230993570Y-166116000D01*
%TO.N,/P1_VADJ*%
X244876450Y-97010980D02*
X245638450Y-97010980D01*
X208641570Y-55626000D02*
X208641570Y-58166000D01*
X234208450Y-75420980D02*
X234208450Y-87993980D01*
X244876450Y-96248980D02*
X244876450Y-97010980D01*
X242209450Y-90152980D02*
X242717450Y-90660980D01*
X242717450Y-94089980D02*
X244876450Y-96248980D01*
X210402550Y-59926980D02*
X218714450Y-59926980D01*
X246908450Y-98280980D02*
X247670450Y-98280980D01*
X208641570Y-58166000D02*
X210402550Y-59926980D01*
X218714450Y-59926980D02*
X234208450Y-75420980D01*
X234208450Y-87993980D02*
X236367450Y-90152980D01*
X236367450Y-90152980D02*
X242209450Y-90152980D01*
X245638450Y-97010980D02*
X246908450Y-98280980D01*
X242717450Y-90660980D02*
X242717450Y-94089980D01*
%TO.N,/ADC1/ADC1_D0A_N*%
X247630570Y-117348000D02*
X247757570Y-117221000D01*
X201148570Y-107823000D02*
X204577570Y-111252000D01*
X229977570Y-116586000D02*
X247376570Y-116586000D01*
X194417570Y-99695000D02*
X198481570Y-99695000D01*
X201148570Y-102362000D02*
X201148570Y-107823000D01*
X204577570Y-111252000D02*
X224643570Y-111252000D01*
X198481570Y-99695000D02*
X201148570Y-102362000D01*
X194163570Y-99949000D02*
X194417570Y-99695000D01*
X224643570Y-111252000D02*
X229977570Y-116586000D01*
X247376570Y-116586000D02*
X247757570Y-116967000D01*
X247757570Y-116967000D02*
X247757570Y-117221000D01*
%TO.N,/ADC1/ADC1_D1C_P*%
X198100570Y-109093000D02*
X198100570Y-111887000D01*
X196576570Y-108331000D02*
X197338570Y-108331000D01*
X223119570Y-114046000D02*
X233025570Y-123952000D01*
X197338570Y-108331000D02*
X198100570Y-109093000D01*
X200259570Y-114046000D02*
X223119570Y-114046000D01*
X248011570Y-124714000D02*
X248265570Y-124968000D01*
X247630570Y-123952000D02*
X248011570Y-124333000D01*
X248011570Y-124333000D02*
X248011570Y-124714000D01*
X196322570Y-108077000D02*
X196576570Y-108331000D01*
X198100570Y-111887000D02*
X200259570Y-114046000D01*
X233025570Y-123952000D02*
X247630570Y-123952000D01*
%TO.N,/ADC1/ADC1_D1A_P*%
X202418570Y-112522000D02*
X224008570Y-112522000D01*
X231501570Y-120015000D02*
X247503570Y-120015000D01*
X224008570Y-112522000D02*
X231501570Y-120015000D01*
X197465570Y-102870000D02*
X199751570Y-105156000D01*
X196449570Y-100457000D02*
X196703570Y-100711000D01*
X248011570Y-120904000D02*
X248265570Y-121158000D01*
X248011570Y-120523000D02*
X248011570Y-120904000D01*
X197465570Y-100965000D02*
X197465570Y-102870000D01*
X196703570Y-100711000D02*
X197211570Y-100711000D01*
X197211570Y-100711000D02*
X197465570Y-100965000D01*
X199751570Y-109855000D02*
X202418570Y-112522000D01*
X199751570Y-105156000D02*
X199751570Y-109855000D01*
X247503570Y-120015000D02*
X248011570Y-120523000D01*
%TO.N,/fmclpc/PMOD1_4*%
X201021570Y-58183020D02*
X203527540Y-60688980D01*
X233152570Y-76200000D02*
X233152570Y-88392000D01*
X203527540Y-60688980D02*
X217641550Y-60688980D01*
X217641550Y-60688980D02*
X233152570Y-76200000D01*
X201021570Y-58166000D02*
X201021570Y-58183020D01*
X233152570Y-88392000D02*
X236073570Y-91313000D01*
X236073570Y-91313000D02*
X237978570Y-91313000D01*
%TO.N,/ADC0/ADC0_D1A_N*%
X247630570Y-132588000D02*
X247757570Y-132461000D01*
X197719570Y-161925000D02*
X197973570Y-161671000D01*
X197973570Y-161671000D02*
X198608570Y-161671000D01*
X199624570Y-160655000D02*
X225278570Y-160655000D01*
X231120570Y-140208000D02*
X239375570Y-131953000D01*
X225278570Y-160655000D02*
X231120570Y-154813000D01*
X247630570Y-131953000D02*
X247757570Y-132080000D01*
X231120570Y-154813000D02*
X231120570Y-140208000D01*
X198608570Y-161671000D02*
X199624570Y-160655000D01*
X247757570Y-132080000D02*
X247757570Y-132461000D01*
X239375570Y-131953000D02*
X247630570Y-131953000D01*
%TO.N,/fmclpc/PMOD1_3*%
X198481570Y-58166000D02*
X198481570Y-60903100D01*
X234803570Y-92565980D02*
X241320450Y-92565980D01*
X216134570Y-61450980D02*
X231374570Y-76690980D01*
X231374570Y-89154000D02*
X234803570Y-92565980D01*
X231374570Y-76690980D02*
X231374570Y-89154000D01*
X198481570Y-60903100D02*
X199029450Y-61450980D01*
X199029450Y-61450980D02*
X216134570Y-61450980D01*
%TO.N,/ADC0/ADC0_D0B_P*%
X197846570Y-163576000D02*
X198735570Y-163576000D01*
X249662570Y-133096000D02*
X249916570Y-132842000D01*
X239248570Y-133096000D02*
X249662570Y-133096000D01*
X232644570Y-139700000D02*
X239248570Y-133096000D01*
X200132570Y-162179000D02*
X227691570Y-162179000D01*
X197719570Y-163449000D02*
X197846570Y-163576000D01*
X227691570Y-162179000D02*
X232644570Y-157226000D01*
X232644570Y-157226000D02*
X232644570Y-139700000D01*
X198735570Y-163576000D02*
X200132570Y-162179000D01*
%TO.N,/ADC1/ADC1_D0B_P*%
X203561570Y-111760000D02*
X224389570Y-111760000D01*
X199751570Y-102616000D02*
X200005570Y-102616000D01*
X253091570Y-119634000D02*
X253345570Y-119888000D01*
X199497570Y-102362000D02*
X199751570Y-102616000D01*
X253091570Y-119380000D02*
X253091570Y-119634000D01*
X200513570Y-108712000D02*
X203561570Y-111760000D01*
X200005570Y-102616000D02*
X200513570Y-103124000D01*
X224389570Y-111760000D02*
X231755570Y-119126000D01*
X200513570Y-103124000D02*
X200513570Y-108712000D01*
X231755570Y-119126000D02*
X252837570Y-119126000D01*
X252837570Y-119126000D02*
X253091570Y-119380000D01*
%TO.N,/fmclpc/P1_GA1*%
X237597570Y-105283000D02*
X247979570Y-105283000D01*
X226104070Y-96774000D02*
X226104070Y-100393500D01*
X226104070Y-100393500D02*
X226675570Y-100965000D01*
X233279570Y-100965000D02*
X237597570Y-105283000D01*
X247979570Y-105283000D02*
X249932570Y-103329990D01*
X226675570Y-100965000D02*
X233279570Y-100965000D01*
%TO.N,/ADC1/ADC1_D1A_N*%
X202291570Y-112776000D02*
X223881570Y-112776000D01*
X197084570Y-100965000D02*
X197211570Y-101092000D01*
X247757570Y-120650000D02*
X247757570Y-121031000D01*
X223881570Y-112776000D02*
X231374570Y-120269000D01*
X247630570Y-121158000D02*
X247757570Y-121031000D01*
X197211570Y-101092000D02*
X197211570Y-102997000D01*
X199497570Y-109982000D02*
X202291570Y-112776000D01*
X231374570Y-120269000D02*
X247376570Y-120269000D01*
X196576570Y-100965000D02*
X197084570Y-100965000D01*
X199497570Y-105283000D02*
X199497570Y-109982000D01*
X196449570Y-101092000D02*
X196576570Y-100965000D01*
X197211570Y-102997000D02*
X199497570Y-105283000D01*
X247376570Y-120269000D02*
X247757570Y-120650000D01*
%TO.N,/ADC0/ADC0_DCO_N*%
X202926570Y-167513000D02*
X203180570Y-167259000D01*
X203180570Y-167259000D02*
X231120570Y-167259000D01*
X247757570Y-139827000D02*
X247757570Y-140081000D01*
X237724570Y-140589000D02*
X238740570Y-139573000D01*
X231120570Y-167259000D02*
X237724570Y-160655000D01*
X247503570Y-139573000D02*
X247757570Y-139827000D01*
X238740570Y-139573000D02*
X247503570Y-139573000D01*
X247630570Y-140208000D02*
X247757570Y-140081000D01*
X237724570Y-160655000D02*
X237724570Y-140589000D01*
%TO.N,/ADC0/ADC0_D1C_P*%
X228199570Y-163195000D02*
X234295570Y-157099000D01*
X197719570Y-169037000D02*
X197973570Y-169037000D01*
X198100570Y-168910000D02*
X198100570Y-165481000D01*
X253091570Y-134620000D02*
X253091570Y-134874000D01*
X198100570Y-165481000D02*
X200386570Y-163195000D01*
X234295570Y-139446000D02*
X239375570Y-134366000D01*
X253091570Y-134874000D02*
X253345570Y-135128000D01*
X200386570Y-163195000D02*
X228199570Y-163195000D01*
X239375570Y-134366000D02*
X252837570Y-134366000D01*
X252837570Y-134366000D02*
X253091570Y-134620000D01*
X197973570Y-169037000D02*
X198100570Y-168910000D01*
X234295570Y-157099000D02*
X234295570Y-139446000D01*
X197465570Y-168783000D02*
X197719570Y-169037000D01*
%TO.N,/ADC1/ADC1_D0B_N*%
X200259570Y-108839000D02*
X203434570Y-112014000D01*
X200259570Y-103251000D02*
X200259570Y-108839000D01*
X224262570Y-112014000D02*
X231628570Y-119380000D01*
X252710570Y-119380000D02*
X252837570Y-119507000D01*
X203434570Y-112014000D02*
X224262570Y-112014000D01*
X199624570Y-102870000D02*
X199878570Y-102870000D01*
X252837570Y-119507000D02*
X252837570Y-119761000D01*
X199878570Y-102870000D02*
X200259570Y-103251000D01*
X231628570Y-119380000D02*
X252710570Y-119380000D01*
X199497570Y-102997000D02*
X199624570Y-102870000D01*
X252710570Y-119888000D02*
X252837570Y-119761000D01*
%TO.N,/ADC0/ADC0_D0A_N*%
X194671570Y-159766000D02*
X224770570Y-159766000D01*
X194290570Y-160147000D02*
X194290570Y-160909000D01*
X194290570Y-160909000D02*
X194544570Y-161163000D01*
X224770570Y-159766000D02*
X230231570Y-154305000D01*
X194290570Y-160147000D02*
X194671570Y-159766000D01*
X240137570Y-129540000D02*
X249789570Y-129540000D01*
X249789570Y-129540000D02*
X249916570Y-129667000D01*
X230231570Y-154305000D02*
X230231570Y-139446000D01*
X230231570Y-139446000D02*
X240137570Y-129540000D01*
%TO.N,/ADC1/ADC1_D0D_N*%
X252583570Y-124460000D02*
X252710570Y-124587000D01*
X196195570Y-111252000D02*
X196703570Y-110744000D01*
X233152570Y-125730000D02*
X250805570Y-125730000D01*
X196957570Y-110744000D02*
X197084570Y-110871000D01*
X250805570Y-125730000D02*
X252075570Y-124460000D01*
X197084570Y-113030000D02*
X199116570Y-115062000D01*
X197084570Y-110871000D02*
X197084570Y-113030000D01*
X222484570Y-115062000D02*
X233152570Y-125730000D01*
X199116570Y-115062000D02*
X222484570Y-115062000D01*
X252075570Y-124460000D02*
X252583570Y-124460000D01*
X196703570Y-110744000D02*
X196957570Y-110744000D01*
%TO.N,/fmclpc/PMOD1_2*%
X197251450Y-62230000D02*
X214610570Y-62230000D01*
X195941570Y-60919870D02*
X197251450Y-62230000D01*
X229596570Y-77216000D02*
X229596570Y-89881200D01*
X195941570Y-58166000D02*
X195941570Y-60919870D01*
X229596570Y-89881200D02*
X233568370Y-93853000D01*
X214610570Y-62230000D02*
X229596570Y-77216000D01*
X233568370Y-93853000D02*
X237216570Y-93853000D01*
%TO.N,/fmclpc/PMOD1_9*%
X203156950Y-61069980D02*
X216809450Y-61069980D01*
X198481570Y-55626000D02*
X199791450Y-56935880D01*
X201696450Y-59609480D02*
X203156950Y-61069980D01*
X232176450Y-76436980D02*
X232176450Y-88628980D01*
X216809450Y-61069980D02*
X232176450Y-76436980D01*
X235478450Y-91930980D02*
X239669450Y-91930980D01*
X232176450Y-88628980D02*
X235478450Y-91930980D01*
X200616950Y-59609480D02*
X201696450Y-59609480D01*
X199791450Y-58783980D02*
X200616950Y-59609480D01*
X199791450Y-56935880D02*
X199791450Y-58783980D01*
%TO.N,/fmclpc/PMOD1_1*%
X213340570Y-62992000D02*
X227818570Y-77470000D01*
X193401570Y-58166000D02*
X193401570Y-60198000D01*
X232390570Y-95250000D02*
X240010570Y-95250000D01*
X193401570Y-60198000D02*
X196195570Y-62992000D01*
X196195570Y-62992000D02*
X213340570Y-62992000D01*
X227818570Y-90678000D02*
X232390570Y-95250000D01*
X227818570Y-77470000D02*
X227818570Y-90678000D01*
%TO.N,/fmc_misc/HDMI_SCL*%
X244378860Y-104599990D02*
X247630570Y-104599990D01*
X242677570Y-102898700D02*
X244378860Y-104599990D01*
X242677570Y-98552000D02*
X242677570Y-102898700D01*
%TO.N,/fmclpc/PMOD1_7*%
X213888450Y-62593980D02*
X228747450Y-77452980D01*
X196616450Y-62593980D02*
X213888450Y-62593980D01*
X228747450Y-90406980D02*
X232938450Y-94597980D01*
X228747450Y-77452980D02*
X228747450Y-90406980D01*
X232938450Y-94597980D02*
X240558450Y-94597980D01*
X194584450Y-56808880D02*
X194584450Y-60561980D01*
X193401570Y-55626000D02*
X194584450Y-56808880D01*
X194584450Y-60561980D02*
X196616450Y-62593980D01*
%TO.N,/ADC1/ADC1_DCO_N*%
X198735570Y-107823000D02*
X198735570Y-111125000D01*
X196576570Y-106553000D02*
X196830570Y-106299000D01*
X196830570Y-106299000D02*
X197211570Y-106299000D01*
X231882570Y-121920000D02*
X249789570Y-121920000D01*
X198735570Y-111125000D02*
X201148570Y-113538000D01*
X201148570Y-113538000D02*
X223500570Y-113538000D01*
X197211570Y-106299000D02*
X198735570Y-107823000D01*
X223500570Y-113538000D02*
X231882570Y-121920000D01*
X249789570Y-121920000D02*
X249916570Y-122047000D01*
%TO.N,/ADC0/ADC0_D0A_P*%
X194036570Y-160020000D02*
X194544570Y-159512000D01*
X229977570Y-154178000D02*
X229977570Y-139319000D01*
X194544570Y-159512000D02*
X224643570Y-159512000D01*
X193909570Y-161163000D02*
X194036570Y-161036000D01*
X249662570Y-129286000D02*
X249916570Y-129032000D01*
X194036570Y-161036000D02*
X194036570Y-160020000D01*
X240010570Y-129286000D02*
X249662570Y-129286000D01*
X224643570Y-159512000D02*
X229977570Y-154178000D01*
X229977570Y-139319000D02*
X240010570Y-129286000D01*
%TO.N,/fmclpc/P1_TDI*%
X231755570Y-109347000D02*
X235057570Y-109347000D01*
X235057570Y-109347000D02*
X235946570Y-110236000D01*
X235946570Y-110236000D02*
X249376570Y-110236000D01*
X249376570Y-110236000D02*
X249932570Y-109679990D01*
%TO.N,/ADC1/ADC1_D0D_P*%
X233279570Y-125476000D02*
X250678570Y-125476000D01*
X252456570Y-124206000D02*
X252710570Y-123952000D01*
X199243570Y-114808000D02*
X222611570Y-114808000D01*
X197084570Y-110490000D02*
X197338570Y-110744000D01*
X196322570Y-110490000D02*
X197084570Y-110490000D01*
X197338570Y-112903000D02*
X199243570Y-114808000D01*
X196195570Y-110617000D02*
X196322570Y-110490000D01*
X251948570Y-124206000D02*
X252456570Y-124206000D01*
X222611570Y-114808000D02*
X233279570Y-125476000D01*
X250678570Y-125476000D02*
X251948570Y-124206000D01*
X197338570Y-110744000D02*
X197338570Y-112903000D01*
%TO.N,/fmclpc/PMOD1_10*%
X244241450Y-96121980D02*
X244241450Y-98534980D01*
X254147450Y-99265230D02*
X254147450Y-113806730D01*
X253798200Y-98915980D02*
X254147450Y-99265230D01*
X244622450Y-98915980D02*
X253798200Y-98915980D01*
X244241450Y-98534980D02*
X244622450Y-98915980D01*
X202274550Y-56878980D02*
X202274550Y-58656980D01*
X251353450Y-114155980D02*
X253798200Y-114155980D01*
X241987200Y-90660980D02*
X242209450Y-90883230D01*
X236113450Y-90660980D02*
X241987200Y-90660980D01*
X203925550Y-60307980D02*
X218206450Y-60307980D01*
X249956450Y-113520980D02*
X250718450Y-113520980D01*
X253798200Y-114155980D02*
X254147450Y-113806730D01*
X233700450Y-75801980D02*
X233700450Y-88247980D01*
X250718450Y-113520980D02*
X251353450Y-114155980D01*
X233700450Y-88247980D02*
X236113450Y-90660980D01*
X218206450Y-60307980D02*
X233700450Y-75801980D01*
X202274550Y-58656980D02*
X203925550Y-60307980D01*
X242209450Y-90883230D02*
X242209450Y-94089980D01*
X242209450Y-94089980D02*
X244241450Y-96121980D01*
X201021570Y-55626000D02*
X202274550Y-56878980D01*
%TO.N,/ADC0/ADC0_D1A_P*%
X248011570Y-131953000D02*
X248011570Y-132334000D01*
X197719570Y-161290000D02*
X197846570Y-161417000D01*
X230866570Y-154686000D02*
X230866570Y-140081000D01*
X230866570Y-140081000D02*
X239248570Y-131699000D01*
X239248570Y-131699000D02*
X247757570Y-131699000D01*
X247757570Y-131699000D02*
X248011570Y-131953000D01*
X199497570Y-160401000D02*
X225151570Y-160401000D01*
X248011570Y-132334000D02*
X248265570Y-132588000D01*
X197846570Y-161417000D02*
X198481570Y-161417000D01*
X225151570Y-160401000D02*
X230866570Y-154686000D01*
X198481570Y-161417000D02*
X199497570Y-160401000D01*
%TO.N,/ADC0/ADC0_D1D_P*%
X198227570Y-172339000D02*
X201402570Y-169164000D01*
X196195570Y-172085000D02*
X196449570Y-172339000D01*
X202037570Y-165862000D02*
X230866570Y-165862000D01*
X201402570Y-166497000D02*
X202037570Y-165862000D01*
X201402570Y-169164000D02*
X201402570Y-166497000D01*
X236708570Y-160020000D02*
X236708570Y-139827000D01*
X230866570Y-165862000D02*
X236708570Y-160020000D01*
X239629570Y-136906000D02*
X249535570Y-136906000D01*
X196449570Y-172339000D02*
X198227570Y-172339000D01*
X249535570Y-136906000D02*
X249916570Y-136652000D01*
X236708570Y-139827000D02*
X239629570Y-136906000D01*
%TO.N,/fmclpc/P1_SDA*%
X251646570Y-108409990D02*
X252710570Y-108409990D01*
X251059570Y-107823000D02*
X251646570Y-108409990D01*
X229001450Y-105646980D02*
X229791900Y-106437430D01*
X235577000Y-106437430D02*
X236962570Y-107823000D01*
X229791900Y-106437430D02*
X235577000Y-106437430D01*
X236962570Y-107823000D02*
X251059570Y-107823000D01*
%TO.N,/fmclpc/P1_SCL*%
X227766500Y-104757980D02*
X228147500Y-104376980D01*
X250884570Y-111506000D02*
X252710570Y-109679990D01*
X227766500Y-107897930D02*
X231374570Y-111506000D01*
X228147500Y-104376980D02*
X229001450Y-104376980D01*
X227766500Y-107897930D02*
X227766500Y-104757980D01*
X231374570Y-111506000D02*
X250884570Y-111506000D01*
%TO.N,/fmclpc/P2_ADC0_CSB*%
X222738570Y-154940000D02*
X224770570Y-156972000D01*
X197338570Y-154940000D02*
X222738570Y-154940000D01*
%TO.N,/fmclpc/P2_AMC7823_SPI_MISO*%
X243058570Y-182372000D02*
X243210460Y-182220110D01*
X235819570Y-183896000D02*
X236454570Y-184531000D01*
X235819570Y-182880000D02*
X235819570Y-183896000D01*
X236327570Y-182372000D02*
X243058570Y-182372000D01*
X235819570Y-182880000D02*
X236327570Y-182372000D01*
X243210460Y-182220110D02*
X244836570Y-182220110D01*
%TO.N,/fmclpc/P2_SDI*%
X196322570Y-191147700D02*
X196322570Y-193095880D01*
X216769570Y-183896000D02*
X217277570Y-183388000D01*
X224634430Y-183769000D02*
X228072570Y-180330850D01*
X205212570Y-183896000D02*
X216769570Y-183896000D01*
X196322570Y-191147700D02*
X196589270Y-190881000D01*
X204831570Y-183515000D02*
X205212570Y-183896000D01*
X204831570Y-178424080D02*
X204831570Y-183515000D01*
X219182570Y-183769000D02*
X224634430Y-183769000D01*
X199243570Y-190881000D02*
X204831570Y-185293000D01*
X217277570Y-183388000D02*
X218801570Y-183388000D01*
X196322570Y-193095880D02*
X196830570Y-193603880D01*
X218801570Y-183388000D02*
X219182570Y-183769000D01*
X246995570Y-180330850D02*
X247646570Y-179680110D01*
X228072570Y-180330850D02*
X246995570Y-180330850D01*
X204831570Y-185293000D02*
X204831570Y-184277000D01*
X204831570Y-184277000D02*
X205212570Y-183896000D01*
X196589270Y-190881000D02*
X199243570Y-190881000D01*
%TO.N,/ad9781/D_P_0*%
X243820570Y-193675000D02*
X248646570Y-193675000D01*
X252710570Y-194967860D02*
X252837570Y-194840860D01*
X251567570Y-193040000D02*
X252837570Y-194310000D01*
X195433570Y-202184000D02*
X195814570Y-201803000D01*
X195433570Y-202311000D02*
X195687570Y-202565000D01*
X195814570Y-201803000D02*
X235692570Y-201803000D01*
X249281570Y-193040000D02*
X251567570Y-193040000D01*
X248646570Y-193675000D02*
X249281570Y-193040000D01*
X195433570Y-202184000D02*
X195433570Y-202311000D01*
X235692570Y-201803000D02*
X243820570Y-193675000D01*
X252837570Y-194310000D02*
X252837570Y-194840860D01*
%TO.N,/ad9781/D_N_4*%
X248138570Y-202460860D02*
X248265570Y-202587860D01*
X237851570Y-207899000D02*
X244074570Y-201676000D01*
X200513570Y-207772000D02*
X200640570Y-207899000D01*
X244074570Y-201676000D02*
X247757570Y-201676000D01*
X247757570Y-201676000D02*
X248138570Y-202057000D01*
X200640570Y-207899000D02*
X237851570Y-207899000D01*
X248138570Y-202057000D02*
X248138570Y-202460860D01*
%TO.N,/fmclpc/P2_DAC_CSB*%
X196830570Y-196215000D02*
X226421570Y-196215000D01*
X231628570Y-191008000D02*
X242414430Y-191008000D01*
X226421570Y-196215000D02*
X231628570Y-191008000D01*
X242414430Y-191008000D02*
X244852570Y-188570110D01*
%TO.N,/ad9781/D_N_0*%
X195687570Y-201549000D02*
X235565570Y-201549000D01*
X195052570Y-202565000D02*
X195179570Y-202438000D01*
X253091570Y-194183000D02*
X253091570Y-194713860D01*
X248519570Y-193421000D02*
X249154570Y-192786000D01*
X251694570Y-192786000D02*
X253091570Y-194183000D01*
X249154570Y-192786000D02*
X251694570Y-192786000D01*
X195179570Y-202438000D02*
X195179570Y-202057000D01*
X243693570Y-193421000D02*
X248519570Y-193421000D01*
X253091570Y-194713860D02*
X253345570Y-194967860D01*
X195179570Y-202057000D02*
X195687570Y-201549000D01*
X235565570Y-201549000D02*
X243693570Y-193421000D01*
%TO.N,/ad9781/DCO_P*%
X199624570Y-212725000D02*
X199624570Y-213106000D01*
X195052570Y-201041000D02*
X234930570Y-201041000D01*
X234930570Y-201041000D02*
X243439570Y-192532000D01*
X245598570Y-192532000D02*
X246233570Y-191897000D01*
X194163570Y-204470000D02*
X197846570Y-208153000D01*
X199370570Y-213360000D02*
X199624570Y-213106000D01*
X197846570Y-208153000D02*
X197846570Y-213233000D01*
X194163570Y-201930000D02*
X195052570Y-201041000D01*
X194163570Y-201930000D02*
X194163570Y-204470000D01*
X199243570Y-212471000D02*
X199370570Y-212471000D01*
X249766460Y-191897000D02*
X249916570Y-192046860D01*
X197846570Y-213233000D02*
X197973570Y-213360000D01*
X243439570Y-192532000D02*
X245598570Y-192532000D01*
X199370570Y-212471000D02*
X199624570Y-212725000D01*
X199116570Y-212598000D02*
X199243570Y-212471000D01*
X197973570Y-213360000D02*
X199370570Y-213360000D01*
X246233570Y-191897000D02*
X249766460Y-191897000D01*
%TO.N,/ad9781/D_N_3*%
X199243570Y-205740000D02*
X199497570Y-205994000D01*
X199497570Y-205994000D02*
X236835570Y-205994000D01*
X249685430Y-199263000D02*
X249916570Y-199031860D01*
X246487570Y-199263000D02*
X249685430Y-199263000D01*
X245979570Y-199771000D02*
X246487570Y-199263000D01*
X236835570Y-205994000D02*
X243058570Y-199771000D01*
X243058570Y-199771000D02*
X245979570Y-199771000D01*
%TO.N,/fmclpc/P2_POLL_SCLK*%
X194163570Y-196850000D02*
X226929570Y-196850000D01*
X232263570Y-191516000D02*
X233660570Y-191516000D01*
X226929570Y-196850000D02*
X232263570Y-191516000D01*
X233660570Y-191516000D02*
X233914570Y-191770000D01*
%TO.N,/fmclpc/P2_ADC1_CSB*%
X196983480Y-151638000D02*
X221722570Y-151638000D01*
X221722570Y-151638000D02*
X225405570Y-155321000D01*
X196957570Y-151663910D02*
X196983480Y-151638000D01*
%TO.N,/fmclpc/P2_AD7794_DOUT{slash}RDYb*%
X249306460Y-182880000D02*
X249916570Y-183490110D01*
X243416710Y-182880000D02*
X249306460Y-182880000D01*
X243185570Y-183111140D02*
X243416710Y-182880000D01*
X236454570Y-183111140D02*
X243185570Y-183111140D01*
%TO.N,/ad9781/DCO_N*%
X197592570Y-213360000D02*
X197846570Y-213614000D01*
X197846570Y-213614000D02*
X199497570Y-213614000D01*
X199370570Y-212217000D02*
X199497570Y-212217000D01*
X246106570Y-191643000D02*
X249685430Y-191643000D01*
X193909570Y-204597000D02*
X197592570Y-208280000D01*
X199116570Y-211963000D02*
X199370570Y-212217000D01*
X199497570Y-212217000D02*
X199878570Y-212598000D01*
X193909570Y-201803000D02*
X194925570Y-200787000D01*
X194925570Y-200787000D02*
X234803570Y-200787000D01*
X199878570Y-212598000D02*
X199878570Y-213233000D01*
X199497570Y-213614000D02*
X199878570Y-213233000D01*
X193909570Y-201803000D02*
X193909570Y-204597000D01*
X234803570Y-200787000D02*
X243312570Y-192278000D01*
X243312570Y-192278000D02*
X245471570Y-192278000D01*
X249685430Y-191643000D02*
X249916570Y-191411860D01*
X197592570Y-208280000D02*
X197592570Y-213360000D01*
X245471570Y-192278000D02*
X246106570Y-191643000D01*
%TO.N,/fmclpc/P2_SCLK*%
X204196570Y-178181000D02*
X204577570Y-177800000D01*
X196208270Y-190373000D02*
X199243570Y-190373000D01*
X243058570Y-179060850D02*
X246995570Y-179060850D01*
X225024570Y-179070000D02*
X243049430Y-179070000D01*
X195941570Y-190639700D02*
X195941570Y-193675000D01*
X195941570Y-193675000D02*
X196520440Y-194253860D01*
X204196570Y-185420000D02*
X204196570Y-178181000D01*
X195941570Y-190639700D02*
X196208270Y-190373000D01*
X196520440Y-194253860D02*
X197338570Y-194253860D01*
X204577570Y-177800000D02*
X205847570Y-177800000D01*
X246995570Y-179060850D02*
X247646570Y-178410110D01*
X199243570Y-190373000D02*
X204196570Y-185420000D01*
X224008570Y-178054000D02*
X225024570Y-179070000D01*
X243049430Y-179070000D02*
X243058570Y-179060850D01*
X206101570Y-178054000D02*
X224008570Y-178054000D01*
X205847570Y-177800000D02*
X206101570Y-178054000D01*
%TO.N,/fmclpc/P2_AMC7823_SPI_SS*%
X234930570Y-181839110D02*
X235819570Y-180950110D01*
X231094410Y-190500000D02*
X233914570Y-190500000D01*
X233914570Y-190500000D02*
X234930570Y-189484000D01*
X235819570Y-180950110D02*
X244836570Y-180950110D01*
X226040570Y-195554090D02*
X231094410Y-190500000D01*
X197338570Y-195554090D02*
X226040570Y-195554090D01*
X234930570Y-189484000D02*
X234930570Y-181839110D01*
%TO.N,/ad9781/D_P_3*%
X246106570Y-200025000D02*
X246614570Y-199517000D01*
X199243570Y-206375000D02*
X199370570Y-206248000D01*
X236962570Y-206248000D02*
X243185570Y-200025000D01*
X246614570Y-199517000D02*
X249766460Y-199517000D01*
X243185570Y-200025000D02*
X246106570Y-200025000D01*
X249766460Y-199517000D02*
X249916570Y-199666860D01*
X199370570Y-206248000D02*
X236962570Y-206248000D01*
%TO.N,/fmclpc/P2_PWR_SYNC*%
X235478450Y-177800000D02*
X242082450Y-177800000D01*
X206863570Y-177292000D02*
X234970450Y-177292000D01*
X242082450Y-177800000D02*
X243352450Y-176530000D01*
X206045440Y-176473860D02*
X206863570Y-177292000D01*
X243352450Y-176530000D02*
X250424570Y-176530000D01*
X251186570Y-177292000D02*
X251186570Y-183236110D01*
X250424570Y-176530000D02*
X251186570Y-177292000D01*
X251186570Y-183236110D02*
X252710570Y-184760110D01*
X205212570Y-176473860D02*
X206045440Y-176473860D01*
X234970450Y-177292000D02*
X235478450Y-177800000D01*
%TO.N,/ad9781/D_N_1*%
X196449570Y-203454000D02*
X196703570Y-203708000D01*
X242677570Y-196977000D02*
X248011570Y-196977000D01*
X198100570Y-203708000D02*
X198354570Y-203962000D01*
X198354570Y-203962000D02*
X235692570Y-203962000D01*
X235692570Y-203962000D02*
X242677570Y-196977000D01*
X249685430Y-195453000D02*
X249916570Y-195221860D01*
X248773570Y-195834000D02*
X249154570Y-195453000D01*
X248011570Y-196977000D02*
X248773570Y-196215000D01*
X196703570Y-203708000D02*
X198100570Y-203708000D01*
X248773570Y-196215000D02*
X248773570Y-195834000D01*
X249154570Y-195453000D02*
X249685430Y-195453000D01*
%TO.N,/ad9781/D_P_4*%
X247630570Y-202587860D02*
X247884570Y-202333860D01*
X247884570Y-202184000D02*
X247884570Y-202333860D01*
X244201570Y-201930000D02*
X247630570Y-201930000D01*
X237978570Y-208153000D02*
X244201570Y-201930000D01*
X200767570Y-208153000D02*
X237978570Y-208153000D01*
X200513570Y-208407000D02*
X200767570Y-208153000D01*
X247630570Y-201930000D02*
X247884570Y-202184000D01*
%TO.N,/fmclpc/P2_LMK_LEuWire{slash}CLKoutDIV_2*%
X250297570Y-177800000D02*
X250805570Y-178308000D01*
X242861470Y-178290980D02*
X243352450Y-177800000D01*
X206609570Y-177673000D02*
X234716450Y-177673000D01*
X235334430Y-178290980D02*
X242861470Y-178290980D01*
X206060420Y-177124100D02*
X206609570Y-177673000D01*
X234716450Y-177673000D02*
X235334430Y-178290980D01*
X245512470Y-186690000D02*
X247884570Y-186690000D01*
X204831570Y-177124100D02*
X206060420Y-177124100D01*
X250805570Y-178308000D02*
X250805570Y-183769000D01*
X247884570Y-186690000D02*
X250805570Y-183769000D01*
X243352450Y-177800000D02*
X250297570Y-177800000D01*
X244852570Y-186030110D02*
X245512470Y-186690000D01*
%TO.N,/fmclpc/P2_POLL_MOSI*%
X210459450Y-170543980D02*
X211348450Y-169654980D01*
X200790430Y-184150000D02*
X202291570Y-184150000D01*
X211348450Y-169654980D02*
X239796450Y-169654980D01*
X239796450Y-169654980D02*
X240304450Y-170162980D01*
X204450570Y-170543980D02*
X210459450Y-170543980D01*
X197378450Y-185783980D02*
X199156450Y-185783980D01*
X199156450Y-185783980D02*
X200790430Y-184150000D01*
X202291570Y-184150000D02*
X202672570Y-183769000D01*
X196997450Y-186164980D02*
X197378450Y-185783980D01*
X202672570Y-183769000D02*
X202672570Y-172321980D01*
X202672570Y-172321980D02*
X204450570Y-170543980D01*
%TO.N,/ad9781/DCI_P*%
X198862570Y-210344000D02*
X199021580Y-210185000D01*
X252710570Y-200047860D02*
X252837570Y-200174860D01*
X199370570Y-210185000D02*
X199624570Y-209931000D01*
X200259570Y-207010000D02*
X237597570Y-207010000D01*
X252837570Y-199644000D02*
X252837570Y-200174860D01*
X250805570Y-200660000D02*
X251948570Y-199517000D01*
X199021580Y-210185000D02*
X199370570Y-210185000D01*
X248646570Y-201041000D02*
X249027570Y-200660000D01*
X237597570Y-207010000D02*
X243566570Y-201041000D01*
X251948570Y-199517000D02*
X252710570Y-199517000D01*
X199624570Y-209931000D02*
X199624570Y-207645000D01*
X249027570Y-200660000D02*
X250805570Y-200660000D01*
X199624570Y-207645000D02*
X200259570Y-207010000D01*
X252710570Y-199517000D02*
X252837570Y-199644000D01*
X243566570Y-201041000D02*
X248646570Y-201041000D01*
%TO.N,/fmclpc/P2_DAC_SDO*%
X235311570Y-189865000D02*
X235311570Y-182372000D01*
X235311570Y-182372000D02*
X235946570Y-181737000D01*
X235946570Y-181737000D02*
X236797470Y-181737000D01*
%TO.N,/fmclpc/P2_LMK_DATAuWire{slash}CLKoutDIV_0*%
X236835570Y-183769000D02*
X238486570Y-185420000D01*
X247020460Y-185420000D02*
X247630570Y-186030110D01*
X238486570Y-185420000D02*
X247020460Y-185420000D01*
%TO.N,/fmclpc/P2_ADC_PDWN*%
X247986430Y-194564000D02*
X250424570Y-194564000D01*
X209570450Y-169400980D02*
X209697450Y-169273980D01*
X253599570Y-174226980D02*
X254361570Y-174988980D01*
X243487830Y-170933360D02*
X243487830Y-172186600D01*
X251440570Y-195580000D02*
X254094870Y-195580000D01*
X247630570Y-194920110D02*
X247986430Y-194564000D01*
X209697450Y-169273980D02*
X241828450Y-169273980D01*
X250424570Y-194564000D02*
X251440570Y-195580000D01*
X241828450Y-169273980D02*
X243487830Y-170933360D01*
X243487830Y-172186600D02*
X244021490Y-172720000D01*
X254361570Y-174988980D02*
X254361570Y-195313300D01*
X207625570Y-169400980D02*
X209570450Y-169400980D01*
X250193430Y-174226980D02*
X253599570Y-174226980D01*
X248686450Y-172720000D02*
X250193430Y-174226980D01*
X244021490Y-172720000D02*
X248686450Y-172720000D01*
X254094870Y-195580000D02*
X254361570Y-195313300D01*
%TO.N,/fmclpc/P2_AD7794_CSb*%
X196830570Y-194904100D02*
X225661860Y-194904100D01*
X225661860Y-194904100D02*
X230827710Y-189738000D01*
X230827710Y-189738000D02*
X233660570Y-189738000D01*
%TO.N,/ad9781/DCI_N*%
X250678570Y-200406000D02*
X251821570Y-199263000D01*
X243439570Y-200787000D02*
X248519570Y-200787000D01*
X200132570Y-206756000D02*
X237470570Y-206756000D01*
X253091570Y-199517000D02*
X253091570Y-199793860D01*
X199370570Y-207518000D02*
X200132570Y-206756000D01*
X253091570Y-199793860D02*
X253345570Y-200047860D01*
X237470570Y-206756000D02*
X243439570Y-200787000D01*
X251821570Y-199263000D02*
X252837570Y-199263000D01*
X199243570Y-209931000D02*
X199370570Y-209804000D01*
X198862570Y-209709000D02*
X199084570Y-209931000D01*
X248519570Y-200787000D02*
X248900570Y-200406000D01*
X248900570Y-200406000D02*
X250678570Y-200406000D01*
X252837570Y-199263000D02*
X253091570Y-199517000D01*
X199084570Y-209931000D02*
X199243570Y-209931000D01*
X199370570Y-209804000D02*
X199370570Y-207518000D01*
%TO.N,/fmclpc/P2_AD7794_FCLK*%
X247630570Y-187300110D02*
X247909460Y-187300110D01*
X209911570Y-176530000D02*
X234208450Y-176530000D01*
X206684500Y-175623980D02*
X209005550Y-175623980D01*
X236748450Y-173990000D02*
X248813450Y-173990000D01*
X247909460Y-187300110D02*
X248519570Y-186690000D01*
X253074550Y-174734980D02*
X253472570Y-175133000D01*
X206234410Y-175173890D02*
X206684500Y-175623980D01*
X248519570Y-186690000D02*
X253205870Y-186690000D01*
X253472570Y-175133000D02*
X253472570Y-186423300D01*
X248813450Y-173990000D02*
X249558430Y-174734980D01*
X234208450Y-176530000D02*
X236748450Y-173990000D01*
X209005550Y-175623980D02*
X209911570Y-176530000D01*
X249558430Y-174734980D02*
X253074550Y-174734980D01*
X253205870Y-186690000D02*
X253472570Y-186423300D01*
X205212570Y-175173890D02*
X206234410Y-175173890D01*
%TO.N,/ad9781/D_N_2*%
X197719570Y-204978000D02*
X198100570Y-204978000D01*
X247630570Y-197866000D02*
X248115460Y-198350880D01*
X248115460Y-198350880D02*
X248115460Y-198628000D01*
X248115460Y-198628000D02*
X248265570Y-198777860D01*
X197465570Y-204724000D02*
X197719570Y-204978000D01*
X236581570Y-204724000D02*
X243439570Y-197866000D01*
X198100570Y-204978000D02*
X198354570Y-204724000D01*
X198354570Y-204724000D02*
X236581570Y-204724000D01*
X243439570Y-197866000D02*
X247630570Y-197866000D01*
%TO.N,/fmclpc/P2_DAC_RESET*%
X226691070Y-192953890D02*
X230668960Y-188976000D01*
X197338570Y-192953890D02*
X226691070Y-192953890D01*
X230668960Y-188976000D02*
X233660570Y-188976000D01*
%TO.N,/fmclpc/P2_ADC_SYNC*%
X223119570Y-154264100D02*
X225065470Y-156210000D01*
X196957570Y-154264100D02*
X223119570Y-154264100D01*
X225065470Y-156210000D02*
X226040570Y-156210000D01*
%TO.N,/ad9781/D_P_2*%
X197592570Y-205232000D02*
X198227570Y-205232000D01*
X247630570Y-198777860D02*
X247757570Y-198650860D01*
X247757570Y-198374000D02*
X247757570Y-198650860D01*
X198481570Y-204978000D02*
X236708570Y-204978000D01*
X247503570Y-198120000D02*
X247757570Y-198374000D01*
X236708570Y-204978000D02*
X243566570Y-198120000D01*
X197465570Y-205359000D02*
X197592570Y-205232000D01*
X243566570Y-198120000D02*
X247503570Y-198120000D01*
X198227570Y-205232000D02*
X198481570Y-204978000D01*
%TO.N,/ad9781/D_P_1*%
X249050430Y-196342000D02*
X249050430Y-195961000D01*
X248161430Y-197231000D02*
X249050430Y-196342000D01*
X249789570Y-195729860D02*
X249916570Y-195856860D01*
X196576570Y-203962000D02*
X197973570Y-203962000D01*
X198227570Y-204216000D02*
X235819570Y-204216000D01*
X235819570Y-204216000D02*
X242804570Y-197231000D01*
X242804570Y-197231000D02*
X248161430Y-197231000D01*
X196449570Y-204089000D02*
X196576570Y-203962000D01*
X249281570Y-195729860D02*
X249789570Y-195729860D01*
X249050430Y-195961000D02*
X249281570Y-195729860D01*
X197973570Y-203962000D02*
X198227570Y-204216000D01*
%TO.N,/fmclpc/P2_PWR_EN*%
X204831570Y-175823880D02*
X206157450Y-175823880D01*
X251567570Y-182347110D02*
X252710570Y-183490110D01*
X250297570Y-175260000D02*
X251567570Y-176530000D01*
X251567570Y-176530000D02*
X251567570Y-182347110D01*
X206157450Y-175823880D02*
X207244570Y-176911000D01*
X234589450Y-176911000D02*
X236240450Y-175260000D01*
X207244570Y-176911000D02*
X234589450Y-176911000D01*
X236240450Y-175260000D02*
X250297570Y-175260000D01*
%TO.N,/ad7794/thermometer_bridge_1/VIN*%
X192258570Y-63754000D02*
X195179570Y-66675000D01*
X188829570Y-146304000D02*
X208895570Y-146304000D01*
X213213570Y-89027000D02*
X215245570Y-91059000D01*
X190480570Y-51181000D02*
X192258570Y-52959000D01*
X195179570Y-66675000D02*
X195179570Y-86487000D01*
X197719570Y-89027000D02*
X213213570Y-89027000D01*
X195179570Y-86487000D02*
X197719570Y-89027000D01*
X192258570Y-52959000D02*
X192258570Y-63754000D01*
X183368570Y-143510000D02*
X186035570Y-143510000D01*
X208895570Y-146304000D02*
X209276570Y-145923000D01*
X215245570Y-91059000D02*
X215245570Y-96012000D01*
X186035570Y-143510000D02*
X188829570Y-146304000D01*
X214483570Y-96774000D02*
X215245570Y-96012000D01*
X190480570Y-49530000D02*
X190480570Y-51181000D01*
%TO.N,/ad7794/thermometer_bridge_1/SENGND*%
X207752570Y-145923000D02*
X208387570Y-145288000D01*
X214483570Y-91059000D02*
X214483570Y-94869000D01*
X183241570Y-142367000D02*
X185654570Y-142367000D01*
X194671570Y-66675000D02*
X194671570Y-86868000D01*
X194671570Y-86868000D02*
X197338570Y-89535000D01*
X188702570Y-49530000D02*
X188702570Y-50292000D01*
X191877570Y-53467000D02*
X191877570Y-63881000D01*
X189210570Y-145923000D02*
X207752570Y-145923000D01*
X197338570Y-89535000D02*
X212959570Y-89535000D01*
X191877570Y-63881000D02*
X194671570Y-66675000D01*
X185654570Y-142367000D02*
X189210570Y-145923000D01*
X212959570Y-89535000D02*
X214483570Y-91059000D01*
X188702570Y-50292000D02*
X191877570Y-53467000D01*
%TO.N,Net-(U1601-OUT)*%
X206776450Y-189720980D02*
X208029430Y-189720980D01*
X208029430Y-189720980D02*
X208173450Y-189865000D01*
X208173450Y-189865000D02*
X214991570Y-189865000D01*
D23*
%TO.N,/PWR_EN*%
X204387070Y-78105000D02*
X212324570Y-78105000D01*
X203498070Y-78994000D02*
X204387070Y-78105000D01*
X212705570Y-77724000D02*
X219944570Y-77724000D01*
X212324570Y-78105000D02*
X212705570Y-77724000D01*
%TO.N,/PWR_SYNC*%
X214229570Y-75755500D02*
X215436070Y-76962000D01*
X215436070Y-76962000D02*
X217849070Y-76962000D01*
X203942570Y-75755500D02*
X214229570Y-75755500D01*
D24*
%TO.N,/ad7794/thermometer_bridge_2/VOUT_P*%
X187108470Y-179705000D02*
X192315470Y-179705000D01*
X181336570Y-171450000D02*
X182860570Y-172974000D01*
X182860570Y-175457100D02*
X187108470Y-179705000D01*
X192315470Y-179705000D02*
X192933450Y-180322980D01*
X182860570Y-172974000D02*
X182860570Y-175457100D01*
X181336570Y-140589000D02*
X181336570Y-171450000D01*
%TO.N,/ad7794/thermometer_bridge_2/VOUT_N*%
X192950470Y-179197000D02*
X193568450Y-179814980D01*
X181844570Y-171450000D02*
X183241570Y-172847000D01*
X187235470Y-179197000D02*
X192950470Y-179197000D01*
X183241570Y-172847000D02*
X183241570Y-175203100D01*
X181844570Y-171450000D02*
X181844570Y-143256000D01*
X182352570Y-142748000D02*
X182352570Y-139319000D01*
X181844570Y-143256000D02*
X182352570Y-142748000D01*
X183241570Y-175203100D02*
X187235470Y-179197000D01*
%TO.N,/ad7794/thermometer_bridge_4/VOUT_P*%
X171811570Y-180195980D02*
X177399570Y-180195980D01*
X164699570Y-51181000D02*
X168890570Y-51181000D01*
X159873570Y-66421000D02*
X159873570Y-56007000D01*
X169525570Y-51816000D02*
X169525570Y-53213000D01*
X168890570Y-51181000D02*
X169525570Y-51816000D01*
X169065320Y-167767000D02*
X170414570Y-169116250D01*
X169065320Y-75612750D02*
X169065320Y-167767000D01*
X170414570Y-178798980D02*
X171811570Y-180195980D01*
X159873570Y-66421000D02*
X169065320Y-75612750D01*
X159873570Y-56007000D02*
X164699570Y-51181000D01*
X170414570Y-169116250D02*
X170414570Y-178798980D01*
%TO.N,/ad7794/thermometer_bridge_4/VOUT_N*%
X160318070Y-66357500D02*
X169779570Y-75819000D01*
X170922570Y-168518080D02*
X170922570Y-178417980D01*
X160318070Y-66357500D02*
X160318070Y-56959500D01*
X170922570Y-178417980D02*
X171938570Y-179433980D01*
X168001570Y-51689000D02*
X168509570Y-52197000D01*
X169779570Y-167375080D02*
X170922570Y-168518080D01*
X169779570Y-75819000D02*
X169779570Y-167375080D01*
X165588570Y-51689000D02*
X168001570Y-51689000D01*
X171938570Y-179433980D02*
X177907570Y-179433980D01*
X160318070Y-56959500D02*
X165588570Y-51689000D01*
%TO.N,/level_shift/DATAuWire_CLKoutDIV_0*%
X199145020Y-191487550D02*
X206355570Y-184277000D01*
X216261570Y-184277000D02*
X217023570Y-185039000D01*
X206355570Y-184277000D02*
X216261570Y-184277000D01*
X197897880Y-191487550D02*
X199145020Y-191487550D01*
X226175190Y-183761380D02*
X227468050Y-183761380D01*
X217023570Y-185039000D02*
X224897570Y-185039000D01*
X197886450Y-191498980D02*
X197897880Y-191487550D01*
X224897570Y-185039000D02*
X226175190Y-183761380D01*
X227468050Y-183761380D02*
X227477450Y-183751980D01*
%TO.N,/ad7794/DOUT{slash}RDYb*%
X193401570Y-198501000D02*
X197846570Y-198501000D01*
X198989570Y-197358000D02*
X227818570Y-197358000D01*
X227818570Y-197358000D02*
X232898570Y-192278000D01*
X197846570Y-198501000D02*
X198989570Y-197358000D01*
%TO.N,/amc7823/SCLK*%
X193655570Y-189103000D02*
X194417570Y-188341000D01*
X190480570Y-189484000D02*
X190861570Y-189103000D01*
X204467340Y-171178980D02*
X210586450Y-171178980D01*
X203053570Y-185039000D02*
X203053570Y-172593000D01*
X190861570Y-189103000D02*
X193655570Y-189103000D01*
X190480570Y-191008000D02*
X191115570Y-191643000D01*
X195012440Y-188935870D02*
X199156450Y-188935870D01*
X211729450Y-170035980D02*
X217063450Y-170035980D01*
X199156450Y-188935870D02*
X203053570Y-185039000D01*
X217063450Y-170035980D02*
X218206450Y-171178980D01*
X203053570Y-172593000D02*
X204467340Y-171178980D01*
X190480570Y-191008000D02*
X190480570Y-189484000D01*
X210586450Y-171178980D02*
X211729450Y-170035980D01*
X194417570Y-188341000D02*
X195012440Y-188935870D01*
%TO.N,/amc7823/MOSI*%
X193274570Y-189611000D02*
X195473450Y-189611000D01*
X210967450Y-171577000D02*
X212127470Y-170416980D01*
X203434570Y-172974000D02*
X204831570Y-171577000D01*
X204831570Y-171577000D02*
X210967450Y-171577000D01*
X192004570Y-190881000D02*
X193274570Y-189611000D01*
X212127470Y-170416980D02*
X216047450Y-170416980D01*
X195473450Y-189611000D02*
X195744470Y-189339980D01*
X199260340Y-189339980D02*
X203434570Y-185166000D01*
X195744470Y-189339980D02*
X199260340Y-189339980D01*
X216047450Y-170416980D02*
X216809450Y-171178980D01*
X203434570Y-185166000D02*
X203434570Y-172974000D01*
%TO.N,/ad7794/CLK*%
X199053070Y-174561500D02*
X199116570Y-174498000D01*
X199053070Y-176790600D02*
X199053070Y-174561500D01*
X196235450Y-186153550D02*
X198267450Y-184121550D01*
X199053070Y-176790600D02*
X200259570Y-177997100D01*
X199399020Y-184121550D02*
X200259570Y-183261000D01*
X198267450Y-184121550D02*
X199399020Y-184121550D01*
X200259570Y-177997100D02*
X200259570Y-183261000D01*
X196235450Y-187180980D02*
X196235450Y-186153550D01*
X196235450Y-187180980D02*
X196997450Y-187942980D01*
%TO.N,/amc7823/SS*%
X203815570Y-175641000D02*
X207371570Y-172085000D01*
X207371570Y-172085000D02*
X213109430Y-172085000D01*
X213109430Y-172085000D02*
X214015450Y-171178980D01*
X195560570Y-190141860D02*
X195964430Y-189738000D01*
X195560570Y-192786000D02*
X195560570Y-190141860D01*
X191115570Y-195031100D02*
X193315470Y-195031100D01*
X195964430Y-189738000D02*
X199370570Y-189738000D01*
X193315470Y-195031100D02*
X195560570Y-192786000D01*
X203815570Y-185293000D02*
X203815570Y-175641000D01*
X199370570Y-189738000D02*
X203815570Y-185293000D01*
%TO.N,/ADC0/ADC01_SYNC*%
X184892570Y-113647980D02*
X184892570Y-107315000D01*
X184892570Y-107315000D02*
X185400570Y-106807000D01*
X185400570Y-106807000D02*
X185781570Y-106807000D01*
X184892570Y-113647980D02*
X190734570Y-119489980D01*
X190734570Y-119489980D02*
X190774450Y-119489980D01*
%TD*%
D28*
X257681350Y-226949000D02*
X257681350Y-86949020D01*
X257681350Y-86949020D02*
X236681390Y-86949020D01*
X236681390Y-86949020D02*
X236681390Y-45188880D01*
X236681390Y-45188880D02*
X147681570Y-45188880D01*
X147681570Y-226949000D02*
X257681350Y-226949000D01*
X147681570Y-45188880D02*
X147681570Y-226949000D01*
M02*
