%TF.GenerationSoftware,KiCad,Pcbnew,8.0.5*%
%TF.CreationDate,2024-11-23T04:47:10-08:00*%
%TF.ProjectId,zest,7a657374-2e6b-4696-9361-645f70636258,rev?*%
%TF.SameCoordinates,Original*%
%TF.FileFunction,Drillmap*%
%TF.FilePolarity,Positive*%
%FSLAX45Y45*%
G04 Gerber Fmt 4.5, Leading zero omitted, Abs format (unit mm)*
G04 Created by KiCad (PCBNEW 8.0.5) date 2024-11-23 04:47:10*
%MOMM*%
%LPD*%
G01*
G04 APERTURE LIST*
%ADD10C,0.050800*%
%ADD11C,0.200000*%
%ADD12C,0.100000*%
%ADD13C,0.127000*%
G04 APERTURE END LIST*
D10*
X25768135Y-22694900D02*
X25768135Y-8694902D01*
X25768135Y-8694902D02*
X23668139Y-8694902D01*
X23668139Y-8694902D02*
X23668139Y-4518888D01*
X23668139Y-4518888D02*
X14768157Y-4518888D01*
X14768157Y-22694900D02*
X25768135Y-22694900D01*
X14768157Y-4518888D02*
X14768157Y-22694900D01*
D11*
D12*
X20356945Y-19850897D02*
X20456945Y-19950897D01*
X20456945Y-19850897D02*
X20356945Y-19950897D01*
X21372945Y-19850897D02*
X21472945Y-19950897D01*
X21472945Y-19850897D02*
X21372945Y-19950897D01*
X21753945Y-19850897D02*
X21853945Y-19950897D01*
X21853945Y-19850897D02*
X21753945Y-19950897D01*
X22769944Y-19850897D02*
X22869944Y-19950897D01*
X22869944Y-19850897D02*
X22769944Y-19950897D01*
D13*
X24636644Y-9456298D02*
G75*
G02*
X24509644Y-9456298I-63500J0D01*
G01*
X24509644Y-9456298D02*
G75*
G02*
X24636644Y-9456298I63500J0D01*
G01*
X24636644Y-16456297D02*
G75*
G02*
X24509644Y-16456297I-63500J0D01*
G01*
X24509644Y-16456297D02*
G75*
G02*
X24636644Y-16456297I63500J0D01*
G01*
X24941644Y-14894398D02*
G75*
G02*
X24814644Y-14894398I-63500J0D01*
G01*
X24814644Y-14894398D02*
G75*
G02*
X24941644Y-14894398I63500J0D01*
G01*
X24941644Y-21894397D02*
G75*
G02*
X24814644Y-21894397I-63500J0D01*
G01*
X24814644Y-21894397D02*
G75*
G02*
X24941644Y-21894397I63500J0D01*
G01*
D11*
X15026394Y-23008924D02*
X15026394Y-22808924D01*
X15026394Y-22808924D02*
X15074013Y-22808924D01*
X15074013Y-22808924D02*
X15102584Y-22818448D01*
X15102584Y-22818448D02*
X15121632Y-22837495D01*
X15121632Y-22837495D02*
X15131156Y-22856543D01*
X15131156Y-22856543D02*
X15140679Y-22894638D01*
X15140679Y-22894638D02*
X15140679Y-22923209D01*
X15140679Y-22923209D02*
X15131156Y-22961305D01*
X15131156Y-22961305D02*
X15121632Y-22980352D01*
X15121632Y-22980352D02*
X15102584Y-22999400D01*
X15102584Y-22999400D02*
X15074013Y-23008924D01*
X15074013Y-23008924D02*
X15026394Y-23008924D01*
X15226394Y-23008924D02*
X15226394Y-22875590D01*
X15226394Y-22913686D02*
X15235918Y-22894638D01*
X15235918Y-22894638D02*
X15245441Y-22885114D01*
X15245441Y-22885114D02*
X15264489Y-22875590D01*
X15264489Y-22875590D02*
X15283537Y-22875590D01*
X15350203Y-23008924D02*
X15350203Y-22875590D01*
X15350203Y-22808924D02*
X15340679Y-22818448D01*
X15340679Y-22818448D02*
X15350203Y-22827971D01*
X15350203Y-22827971D02*
X15359727Y-22818448D01*
X15359727Y-22818448D02*
X15350203Y-22808924D01*
X15350203Y-22808924D02*
X15350203Y-22827971D01*
X15474013Y-23008924D02*
X15454965Y-22999400D01*
X15454965Y-22999400D02*
X15445441Y-22980352D01*
X15445441Y-22980352D02*
X15445441Y-22808924D01*
X15578775Y-23008924D02*
X15559727Y-22999400D01*
X15559727Y-22999400D02*
X15550203Y-22980352D01*
X15550203Y-22980352D02*
X15550203Y-22808924D01*
X15807346Y-23008924D02*
X15807346Y-22808924D01*
X15807346Y-22808924D02*
X15874013Y-22951781D01*
X15874013Y-22951781D02*
X15940679Y-22808924D01*
X15940679Y-22808924D02*
X15940679Y-23008924D01*
X16121632Y-23008924D02*
X16121632Y-22904162D01*
X16121632Y-22904162D02*
X16112108Y-22885114D01*
X16112108Y-22885114D02*
X16093060Y-22875590D01*
X16093060Y-22875590D02*
X16054965Y-22875590D01*
X16054965Y-22875590D02*
X16035918Y-22885114D01*
X16121632Y-22999400D02*
X16102584Y-23008924D01*
X16102584Y-23008924D02*
X16054965Y-23008924D01*
X16054965Y-23008924D02*
X16035918Y-22999400D01*
X16035918Y-22999400D02*
X16026394Y-22980352D01*
X16026394Y-22980352D02*
X16026394Y-22961305D01*
X16026394Y-22961305D02*
X16035918Y-22942257D01*
X16035918Y-22942257D02*
X16054965Y-22932733D01*
X16054965Y-22932733D02*
X16102584Y-22932733D01*
X16102584Y-22932733D02*
X16121632Y-22923209D01*
X16216870Y-22875590D02*
X16216870Y-23075590D01*
X16216870Y-22885114D02*
X16235918Y-22875590D01*
X16235918Y-22875590D02*
X16274013Y-22875590D01*
X16274013Y-22875590D02*
X16293060Y-22885114D01*
X16293060Y-22885114D02*
X16302584Y-22894638D01*
X16302584Y-22894638D02*
X16312108Y-22913686D01*
X16312108Y-22913686D02*
X16312108Y-22970828D01*
X16312108Y-22970828D02*
X16302584Y-22989876D01*
X16302584Y-22989876D02*
X16293060Y-22999400D01*
X16293060Y-22999400D02*
X16274013Y-23008924D01*
X16274013Y-23008924D02*
X16235918Y-23008924D01*
X16235918Y-23008924D02*
X16216870Y-22999400D01*
X16397822Y-22989876D02*
X16407346Y-22999400D01*
X16407346Y-22999400D02*
X16397822Y-23008924D01*
X16397822Y-23008924D02*
X16388299Y-22999400D01*
X16388299Y-22999400D02*
X16397822Y-22989876D01*
X16397822Y-22989876D02*
X16397822Y-23008924D01*
X16397822Y-22885114D02*
X16407346Y-22894638D01*
X16407346Y-22894638D02*
X16397822Y-22904162D01*
X16397822Y-22904162D02*
X16388299Y-22894638D01*
X16388299Y-22894638D02*
X16397822Y-22885114D01*
X16397822Y-22885114D02*
X16397822Y-22904162D01*
D12*
X14665617Y-23287440D02*
X14765617Y-23387440D01*
X14765617Y-23287440D02*
X14665617Y-23387440D01*
D11*
X15131156Y-23428924D02*
X15016870Y-23428924D01*
X15074013Y-23428924D02*
X15074013Y-23228924D01*
X15074013Y-23228924D02*
X15054965Y-23257495D01*
X15054965Y-23257495D02*
X15035918Y-23276543D01*
X15035918Y-23276543D02*
X15016870Y-23286067D01*
X15216870Y-23409876D02*
X15226394Y-23419400D01*
X15226394Y-23419400D02*
X15216870Y-23428924D01*
X15216870Y-23428924D02*
X15207346Y-23419400D01*
X15207346Y-23419400D02*
X15216870Y-23409876D01*
X15216870Y-23409876D02*
X15216870Y-23428924D01*
X15350203Y-23228924D02*
X15369251Y-23228924D01*
X15369251Y-23228924D02*
X15388299Y-23238448D01*
X15388299Y-23238448D02*
X15397822Y-23247971D01*
X15397822Y-23247971D02*
X15407346Y-23267019D01*
X15407346Y-23267019D02*
X15416870Y-23305114D01*
X15416870Y-23305114D02*
X15416870Y-23352733D01*
X15416870Y-23352733D02*
X15407346Y-23390828D01*
X15407346Y-23390828D02*
X15397822Y-23409876D01*
X15397822Y-23409876D02*
X15388299Y-23419400D01*
X15388299Y-23419400D02*
X15369251Y-23428924D01*
X15369251Y-23428924D02*
X15350203Y-23428924D01*
X15350203Y-23428924D02*
X15331156Y-23419400D01*
X15331156Y-23419400D02*
X15321632Y-23409876D01*
X15321632Y-23409876D02*
X15312108Y-23390828D01*
X15312108Y-23390828D02*
X15302584Y-23352733D01*
X15302584Y-23352733D02*
X15302584Y-23305114D01*
X15302584Y-23305114D02*
X15312108Y-23267019D01*
X15312108Y-23267019D02*
X15321632Y-23247971D01*
X15321632Y-23247971D02*
X15331156Y-23238448D01*
X15331156Y-23238448D02*
X15350203Y-23228924D01*
X15540679Y-23228924D02*
X15559727Y-23228924D01*
X15559727Y-23228924D02*
X15578775Y-23238448D01*
X15578775Y-23238448D02*
X15588299Y-23247971D01*
X15588299Y-23247971D02*
X15597822Y-23267019D01*
X15597822Y-23267019D02*
X15607346Y-23305114D01*
X15607346Y-23305114D02*
X15607346Y-23352733D01*
X15607346Y-23352733D02*
X15597822Y-23390828D01*
X15597822Y-23390828D02*
X15588299Y-23409876D01*
X15588299Y-23409876D02*
X15578775Y-23419400D01*
X15578775Y-23419400D02*
X15559727Y-23428924D01*
X15559727Y-23428924D02*
X15540679Y-23428924D01*
X15540679Y-23428924D02*
X15521632Y-23419400D01*
X15521632Y-23419400D02*
X15512108Y-23409876D01*
X15512108Y-23409876D02*
X15502584Y-23390828D01*
X15502584Y-23390828D02*
X15493060Y-23352733D01*
X15493060Y-23352733D02*
X15493060Y-23305114D01*
X15493060Y-23305114D02*
X15502584Y-23267019D01*
X15502584Y-23267019D02*
X15512108Y-23247971D01*
X15512108Y-23247971D02*
X15521632Y-23238448D01*
X15521632Y-23238448D02*
X15540679Y-23228924D01*
X15731156Y-23228924D02*
X15750203Y-23228924D01*
X15750203Y-23228924D02*
X15769251Y-23238448D01*
X15769251Y-23238448D02*
X15778775Y-23247971D01*
X15778775Y-23247971D02*
X15788299Y-23267019D01*
X15788299Y-23267019D02*
X15797822Y-23305114D01*
X15797822Y-23305114D02*
X15797822Y-23352733D01*
X15797822Y-23352733D02*
X15788299Y-23390828D01*
X15788299Y-23390828D02*
X15778775Y-23409876D01*
X15778775Y-23409876D02*
X15769251Y-23419400D01*
X15769251Y-23419400D02*
X15750203Y-23428924D01*
X15750203Y-23428924D02*
X15731156Y-23428924D01*
X15731156Y-23428924D02*
X15712108Y-23419400D01*
X15712108Y-23419400D02*
X15702584Y-23409876D01*
X15702584Y-23409876D02*
X15693060Y-23390828D01*
X15693060Y-23390828D02*
X15683537Y-23352733D01*
X15683537Y-23352733D02*
X15683537Y-23305114D01*
X15683537Y-23305114D02*
X15693060Y-23267019D01*
X15693060Y-23267019D02*
X15702584Y-23247971D01*
X15702584Y-23247971D02*
X15712108Y-23238448D01*
X15712108Y-23238448D02*
X15731156Y-23228924D01*
X15883537Y-23428924D02*
X15883537Y-23295590D01*
X15883537Y-23314638D02*
X15893060Y-23305114D01*
X15893060Y-23305114D02*
X15912108Y-23295590D01*
X15912108Y-23295590D02*
X15940680Y-23295590D01*
X15940680Y-23295590D02*
X15959727Y-23305114D01*
X15959727Y-23305114D02*
X15969251Y-23324162D01*
X15969251Y-23324162D02*
X15969251Y-23428924D01*
X15969251Y-23324162D02*
X15978775Y-23305114D01*
X15978775Y-23305114D02*
X15997822Y-23295590D01*
X15997822Y-23295590D02*
X16026394Y-23295590D01*
X16026394Y-23295590D02*
X16045441Y-23305114D01*
X16045441Y-23305114D02*
X16054965Y-23324162D01*
X16054965Y-23324162D02*
X16054965Y-23428924D01*
X16150203Y-23428924D02*
X16150203Y-23295590D01*
X16150203Y-23314638D02*
X16159727Y-23305114D01*
X16159727Y-23305114D02*
X16178775Y-23295590D01*
X16178775Y-23295590D02*
X16207346Y-23295590D01*
X16207346Y-23295590D02*
X16226394Y-23305114D01*
X16226394Y-23305114D02*
X16235918Y-23324162D01*
X16235918Y-23324162D02*
X16235918Y-23428924D01*
X16235918Y-23324162D02*
X16245441Y-23305114D01*
X16245441Y-23305114D02*
X16264489Y-23295590D01*
X16264489Y-23295590D02*
X16293060Y-23295590D01*
X16293060Y-23295590D02*
X16312108Y-23305114D01*
X16312108Y-23305114D02*
X16321632Y-23324162D01*
X16321632Y-23324162D02*
X16321632Y-23428924D01*
X16712108Y-23219400D02*
X16540680Y-23476543D01*
X16969251Y-23228924D02*
X16988299Y-23228924D01*
X16988299Y-23228924D02*
X17007346Y-23238448D01*
X17007346Y-23238448D02*
X17016870Y-23247971D01*
X17016870Y-23247971D02*
X17026394Y-23267019D01*
X17026394Y-23267019D02*
X17035918Y-23305114D01*
X17035918Y-23305114D02*
X17035918Y-23352733D01*
X17035918Y-23352733D02*
X17026394Y-23390828D01*
X17026394Y-23390828D02*
X17016870Y-23409876D01*
X17016870Y-23409876D02*
X17007346Y-23419400D01*
X17007346Y-23419400D02*
X16988299Y-23428924D01*
X16988299Y-23428924D02*
X16969251Y-23428924D01*
X16969251Y-23428924D02*
X16950204Y-23419400D01*
X16950204Y-23419400D02*
X16940680Y-23409876D01*
X16940680Y-23409876D02*
X16931156Y-23390828D01*
X16931156Y-23390828D02*
X16921632Y-23352733D01*
X16921632Y-23352733D02*
X16921632Y-23305114D01*
X16921632Y-23305114D02*
X16931156Y-23267019D01*
X16931156Y-23267019D02*
X16940680Y-23247971D01*
X16940680Y-23247971D02*
X16950204Y-23238448D01*
X16950204Y-23238448D02*
X16969251Y-23228924D01*
X17121632Y-23409876D02*
X17131156Y-23419400D01*
X17131156Y-23419400D02*
X17121632Y-23428924D01*
X17121632Y-23428924D02*
X17112108Y-23419400D01*
X17112108Y-23419400D02*
X17121632Y-23409876D01*
X17121632Y-23409876D02*
X17121632Y-23428924D01*
X17254965Y-23228924D02*
X17274013Y-23228924D01*
X17274013Y-23228924D02*
X17293061Y-23238448D01*
X17293061Y-23238448D02*
X17302585Y-23247971D01*
X17302585Y-23247971D02*
X17312108Y-23267019D01*
X17312108Y-23267019D02*
X17321632Y-23305114D01*
X17321632Y-23305114D02*
X17321632Y-23352733D01*
X17321632Y-23352733D02*
X17312108Y-23390828D01*
X17312108Y-23390828D02*
X17302585Y-23409876D01*
X17302585Y-23409876D02*
X17293061Y-23419400D01*
X17293061Y-23419400D02*
X17274013Y-23428924D01*
X17274013Y-23428924D02*
X17254965Y-23428924D01*
X17254965Y-23428924D02*
X17235918Y-23419400D01*
X17235918Y-23419400D02*
X17226394Y-23409876D01*
X17226394Y-23409876D02*
X17216870Y-23390828D01*
X17216870Y-23390828D02*
X17207346Y-23352733D01*
X17207346Y-23352733D02*
X17207346Y-23305114D01*
X17207346Y-23305114D02*
X17216870Y-23267019D01*
X17216870Y-23267019D02*
X17226394Y-23247971D01*
X17226394Y-23247971D02*
X17235918Y-23238448D01*
X17235918Y-23238448D02*
X17254965Y-23228924D01*
X17388299Y-23228924D02*
X17512108Y-23228924D01*
X17512108Y-23228924D02*
X17445442Y-23305114D01*
X17445442Y-23305114D02*
X17474013Y-23305114D01*
X17474013Y-23305114D02*
X17493061Y-23314638D01*
X17493061Y-23314638D02*
X17502585Y-23324162D01*
X17502585Y-23324162D02*
X17512108Y-23343209D01*
X17512108Y-23343209D02*
X17512108Y-23390828D01*
X17512108Y-23390828D02*
X17502585Y-23409876D01*
X17502585Y-23409876D02*
X17493061Y-23419400D01*
X17493061Y-23419400D02*
X17474013Y-23428924D01*
X17474013Y-23428924D02*
X17416870Y-23428924D01*
X17416870Y-23428924D02*
X17397823Y-23419400D01*
X17397823Y-23419400D02*
X17388299Y-23409876D01*
X17607346Y-23428924D02*
X17645442Y-23428924D01*
X17645442Y-23428924D02*
X17664489Y-23419400D01*
X17664489Y-23419400D02*
X17674013Y-23409876D01*
X17674013Y-23409876D02*
X17693061Y-23381305D01*
X17693061Y-23381305D02*
X17702585Y-23343209D01*
X17702585Y-23343209D02*
X17702585Y-23267019D01*
X17702585Y-23267019D02*
X17693061Y-23247971D01*
X17693061Y-23247971D02*
X17683537Y-23238448D01*
X17683537Y-23238448D02*
X17664489Y-23228924D01*
X17664489Y-23228924D02*
X17626394Y-23228924D01*
X17626394Y-23228924D02*
X17607346Y-23238448D01*
X17607346Y-23238448D02*
X17597823Y-23247971D01*
X17597823Y-23247971D02*
X17588299Y-23267019D01*
X17588299Y-23267019D02*
X17588299Y-23314638D01*
X17588299Y-23314638D02*
X17597823Y-23333686D01*
X17597823Y-23333686D02*
X17607346Y-23343209D01*
X17607346Y-23343209D02*
X17626394Y-23352733D01*
X17626394Y-23352733D02*
X17664489Y-23352733D01*
X17664489Y-23352733D02*
X17683537Y-23343209D01*
X17683537Y-23343209D02*
X17693061Y-23333686D01*
X17693061Y-23333686D02*
X17702585Y-23314638D01*
X17874013Y-23295590D02*
X17874013Y-23428924D01*
X17826394Y-23219400D02*
X17778775Y-23362257D01*
X17778775Y-23362257D02*
X17902585Y-23362257D01*
X17969251Y-23228924D02*
X17969251Y-23267019D01*
X18045442Y-23228924D02*
X18045442Y-23267019D01*
X18340680Y-23505114D02*
X18331156Y-23495590D01*
X18331156Y-23495590D02*
X18312108Y-23467019D01*
X18312108Y-23467019D02*
X18302585Y-23447971D01*
X18302585Y-23447971D02*
X18293061Y-23419400D01*
X18293061Y-23419400D02*
X18283537Y-23371781D01*
X18283537Y-23371781D02*
X18283537Y-23333686D01*
X18283537Y-23333686D02*
X18293061Y-23286067D01*
X18293061Y-23286067D02*
X18302585Y-23257495D01*
X18302585Y-23257495D02*
X18312108Y-23238448D01*
X18312108Y-23238448D02*
X18331156Y-23209876D01*
X18331156Y-23209876D02*
X18340680Y-23200352D01*
X18502585Y-23295590D02*
X18502585Y-23428924D01*
X18454966Y-23219400D02*
X18407347Y-23362257D01*
X18407347Y-23362257D02*
X18531156Y-23362257D01*
X18759728Y-23428924D02*
X18759728Y-23228924D01*
X18845442Y-23428924D02*
X18845442Y-23324162D01*
X18845442Y-23324162D02*
X18835918Y-23305114D01*
X18835918Y-23305114D02*
X18816870Y-23295590D01*
X18816870Y-23295590D02*
X18788299Y-23295590D01*
X18788299Y-23295590D02*
X18769251Y-23305114D01*
X18769251Y-23305114D02*
X18759728Y-23314638D01*
X18969251Y-23428924D02*
X18950204Y-23419400D01*
X18950204Y-23419400D02*
X18940680Y-23409876D01*
X18940680Y-23409876D02*
X18931156Y-23390828D01*
X18931156Y-23390828D02*
X18931156Y-23333686D01*
X18931156Y-23333686D02*
X18940680Y-23314638D01*
X18940680Y-23314638D02*
X18950204Y-23305114D01*
X18950204Y-23305114D02*
X18969251Y-23295590D01*
X18969251Y-23295590D02*
X18997823Y-23295590D01*
X18997823Y-23295590D02*
X19016870Y-23305114D01*
X19016870Y-23305114D02*
X19026394Y-23314638D01*
X19026394Y-23314638D02*
X19035918Y-23333686D01*
X19035918Y-23333686D02*
X19035918Y-23390828D01*
X19035918Y-23390828D02*
X19026394Y-23409876D01*
X19026394Y-23409876D02*
X19016870Y-23419400D01*
X19016870Y-23419400D02*
X18997823Y-23428924D01*
X18997823Y-23428924D02*
X18969251Y-23428924D01*
X19150204Y-23428924D02*
X19131156Y-23419400D01*
X19131156Y-23419400D02*
X19121632Y-23400352D01*
X19121632Y-23400352D02*
X19121632Y-23228924D01*
X19302585Y-23419400D02*
X19283537Y-23428924D01*
X19283537Y-23428924D02*
X19245442Y-23428924D01*
X19245442Y-23428924D02*
X19226394Y-23419400D01*
X19226394Y-23419400D02*
X19216870Y-23400352D01*
X19216870Y-23400352D02*
X19216870Y-23324162D01*
X19216870Y-23324162D02*
X19226394Y-23305114D01*
X19226394Y-23305114D02*
X19245442Y-23295590D01*
X19245442Y-23295590D02*
X19283537Y-23295590D01*
X19283537Y-23295590D02*
X19302585Y-23305114D01*
X19302585Y-23305114D02*
X19312109Y-23324162D01*
X19312109Y-23324162D02*
X19312109Y-23343209D01*
X19312109Y-23343209D02*
X19216870Y-23362257D01*
X19388299Y-23419400D02*
X19407347Y-23428924D01*
X19407347Y-23428924D02*
X19445442Y-23428924D01*
X19445442Y-23428924D02*
X19464490Y-23419400D01*
X19464490Y-23419400D02*
X19474013Y-23400352D01*
X19474013Y-23400352D02*
X19474013Y-23390828D01*
X19474013Y-23390828D02*
X19464490Y-23371781D01*
X19464490Y-23371781D02*
X19445442Y-23362257D01*
X19445442Y-23362257D02*
X19416870Y-23362257D01*
X19416870Y-23362257D02*
X19397823Y-23352733D01*
X19397823Y-23352733D02*
X19388299Y-23333686D01*
X19388299Y-23333686D02*
X19388299Y-23324162D01*
X19388299Y-23324162D02*
X19397823Y-23305114D01*
X19397823Y-23305114D02*
X19416870Y-23295590D01*
X19416870Y-23295590D02*
X19445442Y-23295590D01*
X19445442Y-23295590D02*
X19464490Y-23305114D01*
X19540680Y-23505114D02*
X19550204Y-23495590D01*
X19550204Y-23495590D02*
X19569251Y-23467019D01*
X19569251Y-23467019D02*
X19578775Y-23447971D01*
X19578775Y-23447971D02*
X19588299Y-23419400D01*
X19588299Y-23419400D02*
X19597823Y-23371781D01*
X19597823Y-23371781D02*
X19597823Y-23333686D01*
X19597823Y-23333686D02*
X19588299Y-23286067D01*
X19588299Y-23286067D02*
X19578775Y-23257495D01*
X19578775Y-23257495D02*
X19569251Y-23238448D01*
X19569251Y-23238448D02*
X19550204Y-23209876D01*
X19550204Y-23209876D02*
X19540680Y-23200352D01*
X19902585Y-23505114D02*
X19893061Y-23495590D01*
X19893061Y-23495590D02*
X19874013Y-23467019D01*
X19874013Y-23467019D02*
X19864490Y-23447971D01*
X19864490Y-23447971D02*
X19854966Y-23419400D01*
X19854966Y-23419400D02*
X19845442Y-23371781D01*
X19845442Y-23371781D02*
X19845442Y-23333686D01*
X19845442Y-23333686D02*
X19854966Y-23286067D01*
X19854966Y-23286067D02*
X19864490Y-23257495D01*
X19864490Y-23257495D02*
X19874013Y-23238448D01*
X19874013Y-23238448D02*
X19893061Y-23209876D01*
X19893061Y-23209876D02*
X19902585Y-23200352D01*
X19978775Y-23295590D02*
X19978775Y-23428924D01*
X19978775Y-23314638D02*
X19988299Y-23305114D01*
X19988299Y-23305114D02*
X20007347Y-23295590D01*
X20007347Y-23295590D02*
X20035918Y-23295590D01*
X20035918Y-23295590D02*
X20054966Y-23305114D01*
X20054966Y-23305114D02*
X20064490Y-23324162D01*
X20064490Y-23324162D02*
X20064490Y-23428924D01*
X20188299Y-23428924D02*
X20169251Y-23419400D01*
X20169251Y-23419400D02*
X20159728Y-23409876D01*
X20159728Y-23409876D02*
X20150204Y-23390828D01*
X20150204Y-23390828D02*
X20150204Y-23333686D01*
X20150204Y-23333686D02*
X20159728Y-23314638D01*
X20159728Y-23314638D02*
X20169251Y-23305114D01*
X20169251Y-23305114D02*
X20188299Y-23295590D01*
X20188299Y-23295590D02*
X20216871Y-23295590D01*
X20216871Y-23295590D02*
X20235918Y-23305114D01*
X20235918Y-23305114D02*
X20245442Y-23314638D01*
X20245442Y-23314638D02*
X20254966Y-23333686D01*
X20254966Y-23333686D02*
X20254966Y-23390828D01*
X20254966Y-23390828D02*
X20245442Y-23409876D01*
X20245442Y-23409876D02*
X20235918Y-23419400D01*
X20235918Y-23419400D02*
X20216871Y-23428924D01*
X20216871Y-23428924D02*
X20188299Y-23428924D01*
X20312109Y-23295590D02*
X20388299Y-23295590D01*
X20340680Y-23228924D02*
X20340680Y-23400352D01*
X20340680Y-23400352D02*
X20350204Y-23419400D01*
X20350204Y-23419400D02*
X20369251Y-23428924D01*
X20369251Y-23428924D02*
X20388299Y-23428924D01*
X20607347Y-23295590D02*
X20607347Y-23495590D01*
X20607347Y-23305114D02*
X20626394Y-23295590D01*
X20626394Y-23295590D02*
X20664490Y-23295590D01*
X20664490Y-23295590D02*
X20683537Y-23305114D01*
X20683537Y-23305114D02*
X20693061Y-23314638D01*
X20693061Y-23314638D02*
X20702585Y-23333686D01*
X20702585Y-23333686D02*
X20702585Y-23390828D01*
X20702585Y-23390828D02*
X20693061Y-23409876D01*
X20693061Y-23409876D02*
X20683537Y-23419400D01*
X20683537Y-23419400D02*
X20664490Y-23428924D01*
X20664490Y-23428924D02*
X20626394Y-23428924D01*
X20626394Y-23428924D02*
X20607347Y-23419400D01*
X20816871Y-23428924D02*
X20797823Y-23419400D01*
X20797823Y-23419400D02*
X20788299Y-23400352D01*
X20788299Y-23400352D02*
X20788299Y-23228924D01*
X20978775Y-23428924D02*
X20978775Y-23324162D01*
X20978775Y-23324162D02*
X20969252Y-23305114D01*
X20969252Y-23305114D02*
X20950204Y-23295590D01*
X20950204Y-23295590D02*
X20912109Y-23295590D01*
X20912109Y-23295590D02*
X20893061Y-23305114D01*
X20978775Y-23419400D02*
X20959728Y-23428924D01*
X20959728Y-23428924D02*
X20912109Y-23428924D01*
X20912109Y-23428924D02*
X20893061Y-23419400D01*
X20893061Y-23419400D02*
X20883537Y-23400352D01*
X20883537Y-23400352D02*
X20883537Y-23381305D01*
X20883537Y-23381305D02*
X20893061Y-23362257D01*
X20893061Y-23362257D02*
X20912109Y-23352733D01*
X20912109Y-23352733D02*
X20959728Y-23352733D01*
X20959728Y-23352733D02*
X20978775Y-23343209D01*
X21045442Y-23295590D02*
X21121632Y-23295590D01*
X21074013Y-23228924D02*
X21074013Y-23400352D01*
X21074013Y-23400352D02*
X21083537Y-23419400D01*
X21083537Y-23419400D02*
X21102585Y-23428924D01*
X21102585Y-23428924D02*
X21121632Y-23428924D01*
X21264490Y-23419400D02*
X21245442Y-23428924D01*
X21245442Y-23428924D02*
X21207347Y-23428924D01*
X21207347Y-23428924D02*
X21188299Y-23419400D01*
X21188299Y-23419400D02*
X21178775Y-23400352D01*
X21178775Y-23400352D02*
X21178775Y-23324162D01*
X21178775Y-23324162D02*
X21188299Y-23305114D01*
X21188299Y-23305114D02*
X21207347Y-23295590D01*
X21207347Y-23295590D02*
X21245442Y-23295590D01*
X21245442Y-23295590D02*
X21264490Y-23305114D01*
X21264490Y-23305114D02*
X21274013Y-23324162D01*
X21274013Y-23324162D02*
X21274013Y-23343209D01*
X21274013Y-23343209D02*
X21178775Y-23362257D01*
X21445442Y-23428924D02*
X21445442Y-23228924D01*
X21445442Y-23419400D02*
X21426394Y-23428924D01*
X21426394Y-23428924D02*
X21388299Y-23428924D01*
X21388299Y-23428924D02*
X21369252Y-23419400D01*
X21369252Y-23419400D02*
X21359728Y-23409876D01*
X21359728Y-23409876D02*
X21350204Y-23390828D01*
X21350204Y-23390828D02*
X21350204Y-23333686D01*
X21350204Y-23333686D02*
X21359728Y-23314638D01*
X21359728Y-23314638D02*
X21369252Y-23305114D01*
X21369252Y-23305114D02*
X21388299Y-23295590D01*
X21388299Y-23295590D02*
X21426394Y-23295590D01*
X21426394Y-23295590D02*
X21445442Y-23305114D01*
X21521633Y-23505114D02*
X21531156Y-23495590D01*
X21531156Y-23495590D02*
X21550204Y-23467019D01*
X21550204Y-23467019D02*
X21559728Y-23447971D01*
X21559728Y-23447971D02*
X21569252Y-23419400D01*
X21569252Y-23419400D02*
X21578775Y-23371781D01*
X21578775Y-23371781D02*
X21578775Y-23333686D01*
X21578775Y-23333686D02*
X21569252Y-23286067D01*
X21569252Y-23286067D02*
X21559728Y-23257495D01*
X21559728Y-23257495D02*
X21550204Y-23238448D01*
X21550204Y-23238448D02*
X21531156Y-23209876D01*
X21531156Y-23209876D02*
X21521633Y-23200352D01*
D13*
X14765617Y-23601440D02*
G75*
G02*
X14638617Y-23601440I-63500J0D01*
G01*
X14638617Y-23601440D02*
G75*
G02*
X14765617Y-23601440I63500J0D01*
G01*
D11*
X15131156Y-23692924D02*
X15016870Y-23692924D01*
X15074013Y-23692924D02*
X15074013Y-23492924D01*
X15074013Y-23492924D02*
X15054965Y-23521495D01*
X15054965Y-23521495D02*
X15035918Y-23540543D01*
X15035918Y-23540543D02*
X15016870Y-23550067D01*
X15216870Y-23673876D02*
X15226394Y-23683400D01*
X15226394Y-23683400D02*
X15216870Y-23692924D01*
X15216870Y-23692924D02*
X15207346Y-23683400D01*
X15207346Y-23683400D02*
X15216870Y-23673876D01*
X15216870Y-23673876D02*
X15216870Y-23692924D01*
X15302584Y-23511971D02*
X15312108Y-23502448D01*
X15312108Y-23502448D02*
X15331156Y-23492924D01*
X15331156Y-23492924D02*
X15378775Y-23492924D01*
X15378775Y-23492924D02*
X15397822Y-23502448D01*
X15397822Y-23502448D02*
X15407346Y-23511971D01*
X15407346Y-23511971D02*
X15416870Y-23531019D01*
X15416870Y-23531019D02*
X15416870Y-23550067D01*
X15416870Y-23550067D02*
X15407346Y-23578638D01*
X15407346Y-23578638D02*
X15293060Y-23692924D01*
X15293060Y-23692924D02*
X15416870Y-23692924D01*
X15483537Y-23492924D02*
X15616870Y-23492924D01*
X15616870Y-23492924D02*
X15531156Y-23692924D01*
X15731156Y-23492924D02*
X15750203Y-23492924D01*
X15750203Y-23492924D02*
X15769251Y-23502448D01*
X15769251Y-23502448D02*
X15778775Y-23511971D01*
X15778775Y-23511971D02*
X15788299Y-23531019D01*
X15788299Y-23531019D02*
X15797822Y-23569114D01*
X15797822Y-23569114D02*
X15797822Y-23616733D01*
X15797822Y-23616733D02*
X15788299Y-23654828D01*
X15788299Y-23654828D02*
X15778775Y-23673876D01*
X15778775Y-23673876D02*
X15769251Y-23683400D01*
X15769251Y-23683400D02*
X15750203Y-23692924D01*
X15750203Y-23692924D02*
X15731156Y-23692924D01*
X15731156Y-23692924D02*
X15712108Y-23683400D01*
X15712108Y-23683400D02*
X15702584Y-23673876D01*
X15702584Y-23673876D02*
X15693060Y-23654828D01*
X15693060Y-23654828D02*
X15683537Y-23616733D01*
X15683537Y-23616733D02*
X15683537Y-23569114D01*
X15683537Y-23569114D02*
X15693060Y-23531019D01*
X15693060Y-23531019D02*
X15702584Y-23511971D01*
X15702584Y-23511971D02*
X15712108Y-23502448D01*
X15712108Y-23502448D02*
X15731156Y-23492924D01*
X15883537Y-23692924D02*
X15883537Y-23559590D01*
X15883537Y-23578638D02*
X15893060Y-23569114D01*
X15893060Y-23569114D02*
X15912108Y-23559590D01*
X15912108Y-23559590D02*
X15940680Y-23559590D01*
X15940680Y-23559590D02*
X15959727Y-23569114D01*
X15959727Y-23569114D02*
X15969251Y-23588162D01*
X15969251Y-23588162D02*
X15969251Y-23692924D01*
X15969251Y-23588162D02*
X15978775Y-23569114D01*
X15978775Y-23569114D02*
X15997822Y-23559590D01*
X15997822Y-23559590D02*
X16026394Y-23559590D01*
X16026394Y-23559590D02*
X16045441Y-23569114D01*
X16045441Y-23569114D02*
X16054965Y-23588162D01*
X16054965Y-23588162D02*
X16054965Y-23692924D01*
X16150203Y-23692924D02*
X16150203Y-23559590D01*
X16150203Y-23578638D02*
X16159727Y-23569114D01*
X16159727Y-23569114D02*
X16178775Y-23559590D01*
X16178775Y-23559590D02*
X16207346Y-23559590D01*
X16207346Y-23559590D02*
X16226394Y-23569114D01*
X16226394Y-23569114D02*
X16235918Y-23588162D01*
X16235918Y-23588162D02*
X16235918Y-23692924D01*
X16235918Y-23588162D02*
X16245441Y-23569114D01*
X16245441Y-23569114D02*
X16264489Y-23559590D01*
X16264489Y-23559590D02*
X16293060Y-23559590D01*
X16293060Y-23559590D02*
X16312108Y-23569114D01*
X16312108Y-23569114D02*
X16321632Y-23588162D01*
X16321632Y-23588162D02*
X16321632Y-23692924D01*
X16712108Y-23483400D02*
X16540680Y-23740543D01*
X16969251Y-23492924D02*
X16988299Y-23492924D01*
X16988299Y-23492924D02*
X17007346Y-23502448D01*
X17007346Y-23502448D02*
X17016870Y-23511971D01*
X17016870Y-23511971D02*
X17026394Y-23531019D01*
X17026394Y-23531019D02*
X17035918Y-23569114D01*
X17035918Y-23569114D02*
X17035918Y-23616733D01*
X17035918Y-23616733D02*
X17026394Y-23654828D01*
X17026394Y-23654828D02*
X17016870Y-23673876D01*
X17016870Y-23673876D02*
X17007346Y-23683400D01*
X17007346Y-23683400D02*
X16988299Y-23692924D01*
X16988299Y-23692924D02*
X16969251Y-23692924D01*
X16969251Y-23692924D02*
X16950204Y-23683400D01*
X16950204Y-23683400D02*
X16940680Y-23673876D01*
X16940680Y-23673876D02*
X16931156Y-23654828D01*
X16931156Y-23654828D02*
X16921632Y-23616733D01*
X16921632Y-23616733D02*
X16921632Y-23569114D01*
X16921632Y-23569114D02*
X16931156Y-23531019D01*
X16931156Y-23531019D02*
X16940680Y-23511971D01*
X16940680Y-23511971D02*
X16950204Y-23502448D01*
X16950204Y-23502448D02*
X16969251Y-23492924D01*
X17121632Y-23673876D02*
X17131156Y-23683400D01*
X17131156Y-23683400D02*
X17121632Y-23692924D01*
X17121632Y-23692924D02*
X17112108Y-23683400D01*
X17112108Y-23683400D02*
X17121632Y-23673876D01*
X17121632Y-23673876D02*
X17121632Y-23692924D01*
X17254965Y-23492924D02*
X17274013Y-23492924D01*
X17274013Y-23492924D02*
X17293061Y-23502448D01*
X17293061Y-23502448D02*
X17302585Y-23511971D01*
X17302585Y-23511971D02*
X17312108Y-23531019D01*
X17312108Y-23531019D02*
X17321632Y-23569114D01*
X17321632Y-23569114D02*
X17321632Y-23616733D01*
X17321632Y-23616733D02*
X17312108Y-23654828D01*
X17312108Y-23654828D02*
X17302585Y-23673876D01*
X17302585Y-23673876D02*
X17293061Y-23683400D01*
X17293061Y-23683400D02*
X17274013Y-23692924D01*
X17274013Y-23692924D02*
X17254965Y-23692924D01*
X17254965Y-23692924D02*
X17235918Y-23683400D01*
X17235918Y-23683400D02*
X17226394Y-23673876D01*
X17226394Y-23673876D02*
X17216870Y-23654828D01*
X17216870Y-23654828D02*
X17207346Y-23616733D01*
X17207346Y-23616733D02*
X17207346Y-23569114D01*
X17207346Y-23569114D02*
X17216870Y-23531019D01*
X17216870Y-23531019D02*
X17226394Y-23511971D01*
X17226394Y-23511971D02*
X17235918Y-23502448D01*
X17235918Y-23502448D02*
X17254965Y-23492924D01*
X17502585Y-23492924D02*
X17407346Y-23492924D01*
X17407346Y-23492924D02*
X17397823Y-23588162D01*
X17397823Y-23588162D02*
X17407346Y-23578638D01*
X17407346Y-23578638D02*
X17426394Y-23569114D01*
X17426394Y-23569114D02*
X17474013Y-23569114D01*
X17474013Y-23569114D02*
X17493061Y-23578638D01*
X17493061Y-23578638D02*
X17502585Y-23588162D01*
X17502585Y-23588162D02*
X17512108Y-23607209D01*
X17512108Y-23607209D02*
X17512108Y-23654828D01*
X17512108Y-23654828D02*
X17502585Y-23673876D01*
X17502585Y-23673876D02*
X17493061Y-23683400D01*
X17493061Y-23683400D02*
X17474013Y-23692924D01*
X17474013Y-23692924D02*
X17426394Y-23692924D01*
X17426394Y-23692924D02*
X17407346Y-23683400D01*
X17407346Y-23683400D02*
X17397823Y-23673876D01*
X17635918Y-23492924D02*
X17654966Y-23492924D01*
X17654966Y-23492924D02*
X17674013Y-23502448D01*
X17674013Y-23502448D02*
X17683537Y-23511971D01*
X17683537Y-23511971D02*
X17693061Y-23531019D01*
X17693061Y-23531019D02*
X17702585Y-23569114D01*
X17702585Y-23569114D02*
X17702585Y-23616733D01*
X17702585Y-23616733D02*
X17693061Y-23654828D01*
X17693061Y-23654828D02*
X17683537Y-23673876D01*
X17683537Y-23673876D02*
X17674013Y-23683400D01*
X17674013Y-23683400D02*
X17654966Y-23692924D01*
X17654966Y-23692924D02*
X17635918Y-23692924D01*
X17635918Y-23692924D02*
X17616870Y-23683400D01*
X17616870Y-23683400D02*
X17607346Y-23673876D01*
X17607346Y-23673876D02*
X17597823Y-23654828D01*
X17597823Y-23654828D02*
X17588299Y-23616733D01*
X17588299Y-23616733D02*
X17588299Y-23569114D01*
X17588299Y-23569114D02*
X17597823Y-23531019D01*
X17597823Y-23531019D02*
X17607346Y-23511971D01*
X17607346Y-23511971D02*
X17616870Y-23502448D01*
X17616870Y-23502448D02*
X17635918Y-23492924D01*
X17826394Y-23492924D02*
X17845442Y-23492924D01*
X17845442Y-23492924D02*
X17864489Y-23502448D01*
X17864489Y-23502448D02*
X17874013Y-23511971D01*
X17874013Y-23511971D02*
X17883537Y-23531019D01*
X17883537Y-23531019D02*
X17893061Y-23569114D01*
X17893061Y-23569114D02*
X17893061Y-23616733D01*
X17893061Y-23616733D02*
X17883537Y-23654828D01*
X17883537Y-23654828D02*
X17874013Y-23673876D01*
X17874013Y-23673876D02*
X17864489Y-23683400D01*
X17864489Y-23683400D02*
X17845442Y-23692924D01*
X17845442Y-23692924D02*
X17826394Y-23692924D01*
X17826394Y-23692924D02*
X17807346Y-23683400D01*
X17807346Y-23683400D02*
X17797823Y-23673876D01*
X17797823Y-23673876D02*
X17788299Y-23654828D01*
X17788299Y-23654828D02*
X17778775Y-23616733D01*
X17778775Y-23616733D02*
X17778775Y-23569114D01*
X17778775Y-23569114D02*
X17788299Y-23531019D01*
X17788299Y-23531019D02*
X17797823Y-23511971D01*
X17797823Y-23511971D02*
X17807346Y-23502448D01*
X17807346Y-23502448D02*
X17826394Y-23492924D01*
X17969251Y-23492924D02*
X17969251Y-23531019D01*
X18045442Y-23492924D02*
X18045442Y-23531019D01*
X18340680Y-23769114D02*
X18331156Y-23759590D01*
X18331156Y-23759590D02*
X18312108Y-23731019D01*
X18312108Y-23731019D02*
X18302585Y-23711971D01*
X18302585Y-23711971D02*
X18293061Y-23683400D01*
X18293061Y-23683400D02*
X18283537Y-23635781D01*
X18283537Y-23635781D02*
X18283537Y-23597686D01*
X18283537Y-23597686D02*
X18293061Y-23550067D01*
X18293061Y-23550067D02*
X18302585Y-23521495D01*
X18302585Y-23521495D02*
X18312108Y-23502448D01*
X18312108Y-23502448D02*
X18331156Y-23473876D01*
X18331156Y-23473876D02*
X18340680Y-23464352D01*
X18502585Y-23559590D02*
X18502585Y-23692924D01*
X18454966Y-23483400D02*
X18407347Y-23626257D01*
X18407347Y-23626257D02*
X18531156Y-23626257D01*
X18759728Y-23692924D02*
X18759728Y-23492924D01*
X18845442Y-23692924D02*
X18845442Y-23588162D01*
X18845442Y-23588162D02*
X18835918Y-23569114D01*
X18835918Y-23569114D02*
X18816870Y-23559590D01*
X18816870Y-23559590D02*
X18788299Y-23559590D01*
X18788299Y-23559590D02*
X18769251Y-23569114D01*
X18769251Y-23569114D02*
X18759728Y-23578638D01*
X18969251Y-23692924D02*
X18950204Y-23683400D01*
X18950204Y-23683400D02*
X18940680Y-23673876D01*
X18940680Y-23673876D02*
X18931156Y-23654828D01*
X18931156Y-23654828D02*
X18931156Y-23597686D01*
X18931156Y-23597686D02*
X18940680Y-23578638D01*
X18940680Y-23578638D02*
X18950204Y-23569114D01*
X18950204Y-23569114D02*
X18969251Y-23559590D01*
X18969251Y-23559590D02*
X18997823Y-23559590D01*
X18997823Y-23559590D02*
X19016870Y-23569114D01*
X19016870Y-23569114D02*
X19026394Y-23578638D01*
X19026394Y-23578638D02*
X19035918Y-23597686D01*
X19035918Y-23597686D02*
X19035918Y-23654828D01*
X19035918Y-23654828D02*
X19026394Y-23673876D01*
X19026394Y-23673876D02*
X19016870Y-23683400D01*
X19016870Y-23683400D02*
X18997823Y-23692924D01*
X18997823Y-23692924D02*
X18969251Y-23692924D01*
X19150204Y-23692924D02*
X19131156Y-23683400D01*
X19131156Y-23683400D02*
X19121632Y-23664352D01*
X19121632Y-23664352D02*
X19121632Y-23492924D01*
X19302585Y-23683400D02*
X19283537Y-23692924D01*
X19283537Y-23692924D02*
X19245442Y-23692924D01*
X19245442Y-23692924D02*
X19226394Y-23683400D01*
X19226394Y-23683400D02*
X19216870Y-23664352D01*
X19216870Y-23664352D02*
X19216870Y-23588162D01*
X19216870Y-23588162D02*
X19226394Y-23569114D01*
X19226394Y-23569114D02*
X19245442Y-23559590D01*
X19245442Y-23559590D02*
X19283537Y-23559590D01*
X19283537Y-23559590D02*
X19302585Y-23569114D01*
X19302585Y-23569114D02*
X19312109Y-23588162D01*
X19312109Y-23588162D02*
X19312109Y-23607209D01*
X19312109Y-23607209D02*
X19216870Y-23626257D01*
X19388299Y-23683400D02*
X19407347Y-23692924D01*
X19407347Y-23692924D02*
X19445442Y-23692924D01*
X19445442Y-23692924D02*
X19464490Y-23683400D01*
X19464490Y-23683400D02*
X19474013Y-23664352D01*
X19474013Y-23664352D02*
X19474013Y-23654828D01*
X19474013Y-23654828D02*
X19464490Y-23635781D01*
X19464490Y-23635781D02*
X19445442Y-23626257D01*
X19445442Y-23626257D02*
X19416870Y-23626257D01*
X19416870Y-23626257D02*
X19397823Y-23616733D01*
X19397823Y-23616733D02*
X19388299Y-23597686D01*
X19388299Y-23597686D02*
X19388299Y-23588162D01*
X19388299Y-23588162D02*
X19397823Y-23569114D01*
X19397823Y-23569114D02*
X19416870Y-23559590D01*
X19416870Y-23559590D02*
X19445442Y-23559590D01*
X19445442Y-23559590D02*
X19464490Y-23569114D01*
X19540680Y-23769114D02*
X19550204Y-23759590D01*
X19550204Y-23759590D02*
X19569251Y-23731019D01*
X19569251Y-23731019D02*
X19578775Y-23711971D01*
X19578775Y-23711971D02*
X19588299Y-23683400D01*
X19588299Y-23683400D02*
X19597823Y-23635781D01*
X19597823Y-23635781D02*
X19597823Y-23597686D01*
X19597823Y-23597686D02*
X19588299Y-23550067D01*
X19588299Y-23550067D02*
X19578775Y-23521495D01*
X19578775Y-23521495D02*
X19569251Y-23502448D01*
X19569251Y-23502448D02*
X19550204Y-23473876D01*
X19550204Y-23473876D02*
X19540680Y-23464352D01*
X19902585Y-23769114D02*
X19893061Y-23759590D01*
X19893061Y-23759590D02*
X19874013Y-23731019D01*
X19874013Y-23731019D02*
X19864490Y-23711971D01*
X19864490Y-23711971D02*
X19854966Y-23683400D01*
X19854966Y-23683400D02*
X19845442Y-23635781D01*
X19845442Y-23635781D02*
X19845442Y-23597686D01*
X19845442Y-23597686D02*
X19854966Y-23550067D01*
X19854966Y-23550067D02*
X19864490Y-23521495D01*
X19864490Y-23521495D02*
X19874013Y-23502448D01*
X19874013Y-23502448D02*
X19893061Y-23473876D01*
X19893061Y-23473876D02*
X19902585Y-23464352D01*
X19978775Y-23559590D02*
X19978775Y-23692924D01*
X19978775Y-23578638D02*
X19988299Y-23569114D01*
X19988299Y-23569114D02*
X20007347Y-23559590D01*
X20007347Y-23559590D02*
X20035918Y-23559590D01*
X20035918Y-23559590D02*
X20054966Y-23569114D01*
X20054966Y-23569114D02*
X20064490Y-23588162D01*
X20064490Y-23588162D02*
X20064490Y-23692924D01*
X20188299Y-23692924D02*
X20169251Y-23683400D01*
X20169251Y-23683400D02*
X20159728Y-23673876D01*
X20159728Y-23673876D02*
X20150204Y-23654828D01*
X20150204Y-23654828D02*
X20150204Y-23597686D01*
X20150204Y-23597686D02*
X20159728Y-23578638D01*
X20159728Y-23578638D02*
X20169251Y-23569114D01*
X20169251Y-23569114D02*
X20188299Y-23559590D01*
X20188299Y-23559590D02*
X20216871Y-23559590D01*
X20216871Y-23559590D02*
X20235918Y-23569114D01*
X20235918Y-23569114D02*
X20245442Y-23578638D01*
X20245442Y-23578638D02*
X20254966Y-23597686D01*
X20254966Y-23597686D02*
X20254966Y-23654828D01*
X20254966Y-23654828D02*
X20245442Y-23673876D01*
X20245442Y-23673876D02*
X20235918Y-23683400D01*
X20235918Y-23683400D02*
X20216871Y-23692924D01*
X20216871Y-23692924D02*
X20188299Y-23692924D01*
X20312109Y-23559590D02*
X20388299Y-23559590D01*
X20340680Y-23492924D02*
X20340680Y-23664352D01*
X20340680Y-23664352D02*
X20350204Y-23683400D01*
X20350204Y-23683400D02*
X20369251Y-23692924D01*
X20369251Y-23692924D02*
X20388299Y-23692924D01*
X20607347Y-23559590D02*
X20607347Y-23759590D01*
X20607347Y-23569114D02*
X20626394Y-23559590D01*
X20626394Y-23559590D02*
X20664490Y-23559590D01*
X20664490Y-23559590D02*
X20683537Y-23569114D01*
X20683537Y-23569114D02*
X20693061Y-23578638D01*
X20693061Y-23578638D02*
X20702585Y-23597686D01*
X20702585Y-23597686D02*
X20702585Y-23654828D01*
X20702585Y-23654828D02*
X20693061Y-23673876D01*
X20693061Y-23673876D02*
X20683537Y-23683400D01*
X20683537Y-23683400D02*
X20664490Y-23692924D01*
X20664490Y-23692924D02*
X20626394Y-23692924D01*
X20626394Y-23692924D02*
X20607347Y-23683400D01*
X20816871Y-23692924D02*
X20797823Y-23683400D01*
X20797823Y-23683400D02*
X20788299Y-23664352D01*
X20788299Y-23664352D02*
X20788299Y-23492924D01*
X20978775Y-23692924D02*
X20978775Y-23588162D01*
X20978775Y-23588162D02*
X20969252Y-23569114D01*
X20969252Y-23569114D02*
X20950204Y-23559590D01*
X20950204Y-23559590D02*
X20912109Y-23559590D01*
X20912109Y-23559590D02*
X20893061Y-23569114D01*
X20978775Y-23683400D02*
X20959728Y-23692924D01*
X20959728Y-23692924D02*
X20912109Y-23692924D01*
X20912109Y-23692924D02*
X20893061Y-23683400D01*
X20893061Y-23683400D02*
X20883537Y-23664352D01*
X20883537Y-23664352D02*
X20883537Y-23645305D01*
X20883537Y-23645305D02*
X20893061Y-23626257D01*
X20893061Y-23626257D02*
X20912109Y-23616733D01*
X20912109Y-23616733D02*
X20959728Y-23616733D01*
X20959728Y-23616733D02*
X20978775Y-23607209D01*
X21045442Y-23559590D02*
X21121632Y-23559590D01*
X21074013Y-23492924D02*
X21074013Y-23664352D01*
X21074013Y-23664352D02*
X21083537Y-23683400D01*
X21083537Y-23683400D02*
X21102585Y-23692924D01*
X21102585Y-23692924D02*
X21121632Y-23692924D01*
X21264490Y-23683400D02*
X21245442Y-23692924D01*
X21245442Y-23692924D02*
X21207347Y-23692924D01*
X21207347Y-23692924D02*
X21188299Y-23683400D01*
X21188299Y-23683400D02*
X21178775Y-23664352D01*
X21178775Y-23664352D02*
X21178775Y-23588162D01*
X21178775Y-23588162D02*
X21188299Y-23569114D01*
X21188299Y-23569114D02*
X21207347Y-23559590D01*
X21207347Y-23559590D02*
X21245442Y-23559590D01*
X21245442Y-23559590D02*
X21264490Y-23569114D01*
X21264490Y-23569114D02*
X21274013Y-23588162D01*
X21274013Y-23588162D02*
X21274013Y-23607209D01*
X21274013Y-23607209D02*
X21178775Y-23626257D01*
X21445442Y-23692924D02*
X21445442Y-23492924D01*
X21445442Y-23683400D02*
X21426394Y-23692924D01*
X21426394Y-23692924D02*
X21388299Y-23692924D01*
X21388299Y-23692924D02*
X21369252Y-23683400D01*
X21369252Y-23683400D02*
X21359728Y-23673876D01*
X21359728Y-23673876D02*
X21350204Y-23654828D01*
X21350204Y-23654828D02*
X21350204Y-23597686D01*
X21350204Y-23597686D02*
X21359728Y-23578638D01*
X21359728Y-23578638D02*
X21369252Y-23569114D01*
X21369252Y-23569114D02*
X21388299Y-23559590D01*
X21388299Y-23559590D02*
X21426394Y-23559590D01*
X21426394Y-23559590D02*
X21445442Y-23569114D01*
X21521633Y-23769114D02*
X21531156Y-23759590D01*
X21531156Y-23759590D02*
X21550204Y-23731019D01*
X21550204Y-23731019D02*
X21559728Y-23711971D01*
X21559728Y-23711971D02*
X21569252Y-23683400D01*
X21569252Y-23683400D02*
X21578775Y-23635781D01*
X21578775Y-23635781D02*
X21578775Y-23597686D01*
X21578775Y-23597686D02*
X21569252Y-23550067D01*
X21569252Y-23550067D02*
X21559728Y-23521495D01*
X21559728Y-23521495D02*
X21550204Y-23502448D01*
X21550204Y-23502448D02*
X21531156Y-23473876D01*
X21531156Y-23473876D02*
X21521633Y-23464352D01*
M02*
