%TF.GenerationSoftware,KiCad,Pcbnew,8.0.5*%
%TF.CreationDate,2024-12-04T09:42:51-08:00*%
%TF.ProjectId,zest,7a657374-2e6b-4696-9361-645f70636258,rev?*%
%TF.SameCoordinates,Original*%
%TF.FileFunction,AssemblyDrawing,Bot*%
%FSLAX46Y46*%
G04 Gerber Fmt 4.6, Leading zero omitted, Abs format (unit mm)*
G04 Created by KiCad (PCBNEW 8.0.5) date 2024-12-04 09:42:51*
%MOMM*%
%LPD*%
G01*
G04 APERTURE LIST*
%ADD10C,0.150000*%
%TA.AperFunction,Profile*%
%ADD11C,0.050800*%
%TD*%
G04 APERTURE END LIST*
D10*
X173349783Y-149294143D02*
X173349783Y-149103667D01*
X173349783Y-149103667D02*
X173302164Y-149008429D01*
X173302164Y-149008429D02*
X173206926Y-148913191D01*
X173206926Y-148913191D02*
X173016450Y-148865572D01*
X173016450Y-148865572D02*
X172683117Y-148865572D01*
X172683117Y-148865572D02*
X172492641Y-148913191D01*
X172492641Y-148913191D02*
X172397403Y-149008429D01*
X172397403Y-149008429D02*
X172349783Y-149103667D01*
X172349783Y-149103667D02*
X172349783Y-149294143D01*
X172349783Y-149294143D02*
X172397403Y-149389381D01*
X172397403Y-149389381D02*
X172492641Y-149484619D01*
X172492641Y-149484619D02*
X172683117Y-149532238D01*
X172683117Y-149532238D02*
X173016450Y-149532238D01*
X173016450Y-149532238D02*
X173206926Y-149484619D01*
X173206926Y-149484619D02*
X173302164Y-149389381D01*
X173302164Y-149389381D02*
X173349783Y-149294143D01*
X172349783Y-147865572D02*
X172825974Y-148198905D01*
X172349783Y-148437000D02*
X173349783Y-148437000D01*
X173349783Y-148437000D02*
X173349783Y-148056048D01*
X173349783Y-148056048D02*
X173302164Y-147960810D01*
X173302164Y-147960810D02*
X173254545Y-147913191D01*
X173254545Y-147913191D02*
X173159307Y-147865572D01*
X173159307Y-147865572D02*
X173016450Y-147865572D01*
X173016450Y-147865572D02*
X172921212Y-147913191D01*
X172921212Y-147913191D02*
X172873593Y-147960810D01*
X172873593Y-147960810D02*
X172825974Y-148056048D01*
X172825974Y-148056048D02*
X172825974Y-148437000D01*
X172349783Y-147437000D02*
X173349783Y-147437000D01*
X173349783Y-147437000D02*
X172349783Y-146865572D01*
X172349783Y-146865572D02*
X173349783Y-146865572D01*
X172349783Y-145913191D02*
X172349783Y-146389381D01*
X172349783Y-146389381D02*
X173349783Y-146389381D01*
X172254545Y-145817953D02*
X172254545Y-145056048D01*
X172349783Y-144675095D02*
X172397403Y-144770333D01*
X172397403Y-144770333D02*
X172492641Y-144817952D01*
X172492641Y-144817952D02*
X173349783Y-144817952D01*
X172349783Y-144151285D02*
X172397403Y-144246523D01*
X172397403Y-144246523D02*
X172445022Y-144294142D01*
X172445022Y-144294142D02*
X172540260Y-144341761D01*
X172540260Y-144341761D02*
X172825974Y-144341761D01*
X172825974Y-144341761D02*
X172921212Y-144294142D01*
X172921212Y-144294142D02*
X172968831Y-144246523D01*
X172968831Y-144246523D02*
X173016450Y-144151285D01*
X173016450Y-144151285D02*
X173016450Y-144008428D01*
X173016450Y-144008428D02*
X172968831Y-143913190D01*
X172968831Y-143913190D02*
X172921212Y-143865571D01*
X172921212Y-143865571D02*
X172825974Y-143817952D01*
X172825974Y-143817952D02*
X172540260Y-143817952D01*
X172540260Y-143817952D02*
X172445022Y-143865571D01*
X172445022Y-143865571D02*
X172397403Y-143913190D01*
X172397403Y-143913190D02*
X172349783Y-144008428D01*
X172349783Y-144008428D02*
X172349783Y-144151285D01*
X173016450Y-142960809D02*
X172206926Y-142960809D01*
X172206926Y-142960809D02*
X172111688Y-143008428D01*
X172111688Y-143008428D02*
X172064069Y-143056047D01*
X172064069Y-143056047D02*
X172016450Y-143151285D01*
X172016450Y-143151285D02*
X172016450Y-143294142D01*
X172016450Y-143294142D02*
X172064069Y-143389380D01*
X172397403Y-142960809D02*
X172349783Y-143056047D01*
X172349783Y-143056047D02*
X172349783Y-143246523D01*
X172349783Y-143246523D02*
X172397403Y-143341761D01*
X172397403Y-143341761D02*
X172445022Y-143389380D01*
X172445022Y-143389380D02*
X172540260Y-143436999D01*
X172540260Y-143436999D02*
X172825974Y-143436999D01*
X172825974Y-143436999D02*
X172921212Y-143389380D01*
X172921212Y-143389380D02*
X172968831Y-143341761D01*
X172968831Y-143341761D02*
X173016450Y-143246523D01*
X173016450Y-143246523D02*
X173016450Y-143056047D01*
X173016450Y-143056047D02*
X172968831Y-142960809D01*
X172349783Y-142341761D02*
X172397403Y-142436999D01*
X172397403Y-142436999D02*
X172445022Y-142484618D01*
X172445022Y-142484618D02*
X172540260Y-142532237D01*
X172540260Y-142532237D02*
X172825974Y-142532237D01*
X172825974Y-142532237D02*
X172921212Y-142484618D01*
X172921212Y-142484618D02*
X172968831Y-142436999D01*
X172968831Y-142436999D02*
X173016450Y-142341761D01*
X173016450Y-142341761D02*
X173016450Y-142198904D01*
X173016450Y-142198904D02*
X172968831Y-142103666D01*
X172968831Y-142103666D02*
X172921212Y-142056047D01*
X172921212Y-142056047D02*
X172825974Y-142008428D01*
X172825974Y-142008428D02*
X172540260Y-142008428D01*
X172540260Y-142008428D02*
X172445022Y-142056047D01*
X172445022Y-142056047D02*
X172397403Y-142103666D01*
X172397403Y-142103666D02*
X172349783Y-142198904D01*
X172349783Y-142198904D02*
X172349783Y-142341761D01*
X170849783Y-147103667D02*
X171325974Y-147437000D01*
X170849783Y-147675095D02*
X171849783Y-147675095D01*
X171849783Y-147675095D02*
X171849783Y-147294143D01*
X171849783Y-147294143D02*
X171802164Y-147198905D01*
X171802164Y-147198905D02*
X171754545Y-147151286D01*
X171754545Y-147151286D02*
X171659307Y-147103667D01*
X171659307Y-147103667D02*
X171516450Y-147103667D01*
X171516450Y-147103667D02*
X171421212Y-147151286D01*
X171421212Y-147151286D02*
X171373593Y-147198905D01*
X171373593Y-147198905D02*
X171325974Y-147294143D01*
X171325974Y-147294143D02*
X171325974Y-147675095D01*
X171373593Y-146675095D02*
X171373593Y-146341762D01*
X170849783Y-146198905D02*
X170849783Y-146675095D01*
X170849783Y-146675095D02*
X171849783Y-146675095D01*
X171849783Y-146675095D02*
X171849783Y-146198905D01*
X171373593Y-145437000D02*
X171373593Y-145770333D01*
X170849783Y-145770333D02*
X171849783Y-145770333D01*
X171849783Y-145770333D02*
X171849783Y-145294143D01*
X171849783Y-144770333D02*
X171611688Y-144770333D01*
X171706926Y-145008428D02*
X171611688Y-144770333D01*
X171611688Y-144770333D02*
X171706926Y-144532238D01*
X171421212Y-144913190D02*
X171611688Y-144770333D01*
X171611688Y-144770333D02*
X171421212Y-144627476D01*
X171849783Y-144008428D02*
X171611688Y-144008428D01*
X171706926Y-144246523D02*
X171611688Y-144008428D01*
X171611688Y-144008428D02*
X171706926Y-143770333D01*
X171421212Y-144151285D02*
X171611688Y-144008428D01*
X171611688Y-144008428D02*
X171421212Y-143865571D01*
D11*
X209948780Y-239522000D02*
X209948780Y-99522020D01*
X209948780Y-99522020D02*
X188948820Y-99522020D01*
X188948820Y-99522020D02*
X188948820Y-57761880D01*
X188948820Y-57761880D02*
X99949000Y-57761880D01*
X99949000Y-239522000D02*
X209948780Y-239522000D01*
X99949000Y-57761880D02*
X99949000Y-239522000D01*
M02*
